<svg width="95" height="95" viewBox="0 0 95 95" fill="none" xmlns="http://www.w3.org/2000/svg">
<rect width="95" height="95" rx="4" fill="#092E27"/>
<mask id="mask0_1166_15293" style="mask-type:alpha" maskUnits="userSpaceOnUse" x="34" y="34" width="28" height="28">
<rect x="34" y="34" width="28" height="28" fill="white"/>
</mask>
<g mask="url(#mask0_1166_15293)">
<mask id="mask1_1166_15293" style="mask-type:alpha" maskUnits="userSpaceOnUse" x="36" y="36" width="24" height="24">
<rect x="36.3359" y="36.3359" width="23.3333" height="23.3333" fill="#C4C4C4"/>
</mask>
<g mask="url(#mask1_1166_15293)">
<path fill-rule="evenodd" clip-rule="evenodd" d="M44.7902 37.6719C44.3484 37.6719 43.9902 38.03 43.9902 38.4719V42.9911H43.998V44.0279L42.9633 44.0279V44.0299H38.4465C38.0047 44.0299 37.6465 44.3881 37.6465 44.8299V50.3839C37.6465 50.8257 38.0047 51.1839 38.4465 51.1839H42.9657V51.1803H43.998V52.2917C43.9929 52.3173 43.9902 52.3437 43.9902 52.3708V56.89C43.9902 57.3318 44.3484 57.69 44.7902 57.69H47.5672C47.7881 57.69 47.9672 57.5109 47.9672 57.29C47.9672 57.0691 47.7881 56.89 47.5672 56.89H44.7902V52.3708L44.7902 52.3687H44.798L44.798 51.1803C44.798 50.7384 44.4399 50.3803 43.998 50.3803H42.9633V50.3839H38.4465L38.4465 44.8299L42.9657 44.8299V44.8279H43.998C44.4399 44.8279 44.798 44.4698 44.798 44.0279L44.798 42.8395H44.7902V38.4719L50.3442 38.4719V42.9911H50.3496V44.0279C50.3496 44.4698 50.7078 44.8279 51.1496 44.8279H52.1417C52.1549 44.8293 52.1684 44.8299 52.182 44.8299L56.7012 44.8299V47.6069C56.7012 47.8278 56.8803 48.0069 57.1012 48.0069C57.3221 48.0069 57.5012 47.8278 57.5012 47.6069V44.8299C57.5012 44.3881 57.143 44.0299 56.7012 44.0299H52.2247C52.2114 44.0286 52.198 44.0279 52.1844 44.0279L51.1496 44.0279V42.8395C51.1496 42.817 51.1478 42.7949 51.1442 42.7734V38.4719C51.1442 38.03 50.786 37.6719 50.3442 37.6719H44.7902Z" fill="white"/>
<path d="M49.8592 50.3678C49.765 50.059 50.0564 49.7716 50.3638 49.87L57.8334 52.2616C58.1737 52.3706 58.2113 52.8372 57.8927 52.9992L54.7171 54.6136C54.6433 54.6512 54.5829 54.7107 54.5444 54.784L52.8854 57.9389C52.7191 58.2551 52.2531 58.2112 52.1488 57.8694L49.8592 50.3678Z" stroke="#FFA41C" stroke-width="0.8"/>
</g>
</g>
</svg>
