<svg width="32" height="32" viewBox="0 0 32 32" fill="none" xmlns="http://www.w3.org/2000/svg">
<circle cx="16" cy="16" r="16" fill="white"/>
<path d="M22 14.2836C21.9999 14.3434 21.9872 14.4025 21.9628 14.4571C21.9385 14.5117 21.903 14.5606 21.8586 14.6006L17.5729 18.4567C17.5111 18.5125 17.4345 18.549 17.3523 18.562C17.2701 18.5749 17.1859 18.5636 17.11 18.5295C17.0348 18.4958 16.971 18.441 16.9261 18.3718C16.8813 18.3027 16.8573 18.2221 16.8571 18.1397V16.5072C15.5042 16.7884 14.2475 17.4159 13.21 18.3285C12.1725 19.241 11.3898 20.4072 10.9386 21.7129C10.9093 21.7965 10.8549 21.869 10.7828 21.9204C10.7106 21.9719 10.6243 21.9996 10.5357 22H10.4971C10.4025 21.9918 10.3133 21.9525 10.2435 21.8881C10.1737 21.8237 10.1272 21.738 10.1114 21.6444C10.0385 21.2025 10.0012 20.7555 10 20.3076C10.0012 18.3722 10.6921 16.5006 11.9487 15.0284C13.2053 13.5562 14.9455 12.5797 16.8571 12.2741V10.4275C16.8573 10.3451 16.8813 10.2645 16.9261 10.1953C16.971 10.1262 17.0348 10.0714 17.11 10.0376C17.1859 10.0035 17.2701 9.99228 17.3523 10.0052C17.4345 10.0181 17.5111 10.0547 17.5729 10.1105L21.8586 13.9665C21.903 14.0066 21.9385 14.0555 21.9628 14.1101C21.9872 14.1647 21.9999 14.2238 22 14.2836Z" fill="#103831"/>
</svg>
