<svg width="95" height="95" viewBox="0 0 95 95" fill="none" xmlns="http://www.w3.org/2000/svg">
<rect width="95" height="95" rx="4" fill="#092E27"/>
<mask id="mask0_1166_15344" style="mask-type:alpha" maskUnits="userSpaceOnUse" x="34" y="34" width="28" height="28">
<rect x="34" y="34" width="28" height="28" fill="white"/>
</mask>
<g mask="url(#mask0_1166_15344)">
<mask id="mask1_1166_15344" style="mask-type:alpha" maskUnits="userSpaceOnUse" x="36" y="36" width="24" height="24">
<rect x="36.3359" y="36.3359" width="23.3333" height="23.3333" fill="#C4C4C4"/>
</mask>
<g mask="url(#mask1_1166_15344)">
<path d="M37.6289 39.9297C37.6289 39.3774 38.0766 38.9297 38.6289 38.9297H46.3511C46.9034 38.9297 47.3511 39.3774 47.3511 39.9297V46.2214C47.3511 48.9061 45.1747 51.0825 42.49 51.0825V51.0825C39.8053 51.0825 37.6289 48.9061 37.6289 46.2214V39.9297Z" stroke="white" stroke-width="0.8"/>
<path d="M52.2092 43.793C52.2092 42.4506 53.2974 41.3624 54.6398 41.3624C55.9821 41.3624 57.0703 42.4506 57.0703 43.793" stroke="white" stroke-width="0.8"/>
<path d="M52.2109 43.793V46.2235" stroke="white" stroke-width="0.8"/>
<path d="M52.2105 52.2969C52.2105 54.9816 50.0341 57.158 47.3494 57.158C44.6647 57.158 42.4883 54.9816 42.4883 52.2969" stroke="white" stroke-width="0.8"/>
<path d="M42.4883 51.0859V52.3012" stroke="white" stroke-width="0.8"/>
<path d="M52.2109 51.0859V52.3012" stroke="white" stroke-width="0.8" stroke-linecap="square"/>
<path d="M57.0703 43.793V48.6541" stroke="white" stroke-width="0.8" stroke-linecap="round"/>
<rect x="51" y="46.2227" width="2.43056" height="4.25347" rx="1.21528" stroke="#FFA41C" stroke-width="0.8"/>
</g>
</g>
</svg>
