<svg width="32" height="32" viewBox="0 0 32 32" fill="none" xmlns="http://www.w3.org/2000/svg">
<circle cx="16" cy="16" r="16" fill="#103831"/>
<g clip-path="url(#clip0_1180_20839)">
<path d="M21.6725 18.8068L19.9979 17.1322C19.3998 16.5341 18.383 16.7733 18.1438 17.5508C17.9644 18.0891 17.3663 18.3882 16.828 18.2685C15.6319 17.9695 14.017 16.4145 13.718 15.1585C13.5386 14.6202 13.8974 14.0221 14.4357 13.8427C15.2132 13.6035 15.4524 12.5867 14.8543 11.9886L13.1797 10.314C12.7012 9.89534 11.9835 9.89534 11.5649 10.314L10.4285 11.4504C9.29217 12.6465 10.5481 15.8164 13.3591 18.6274C16.1701 21.4384 19.34 22.7542 20.5361 21.558L21.6725 20.4216C22.0912 19.9431 22.0912 19.2254 21.6725 18.8068Z" fill="white"/>
</g>
<defs>
<clipPath id="clip0_1180_20839">
<rect width="12" height="12" fill="white" transform="translate(10 10)"/>
</clipPath>
</defs>
</svg>
