<svg width="50" height="50" viewBox="0 0 50 50" fill="none" xmlns="http://www.w3.org/2000/svg">
<rect width="50" height="50" rx="4" fill="#092E27"/>
<mask id="mask0_1185_23949" style="mask-type:alpha" maskUnits="userSpaceOnUse" x="13" y="13" width="24" height="24">
<rect x="13" y="13" width="24" height="24" fill="white"/>
</mask>
<g mask="url(#mask0_1185_23949)">
<mask id="mask1_1185_23949" style="mask-type:alpha" maskUnits="userSpaceOnUse" x="15" y="15" width="20" height="20">
<rect x="15" y="15" width="20" height="20" fill="#C4C4C4"/>
</mask>
<g mask="url(#mask1_1185_23949)">
<path d="M16.1094 18.2188C16.1094 17.6665 16.5571 17.2188 17.1094 17.2188H23.4427C23.995 17.2188 24.4427 17.6665 24.4427 18.2188V23.4687C24.4427 25.7699 22.5772 27.6354 20.276 27.6354V27.6354C17.9749 27.6354 16.1094 25.7699 16.1094 23.4688V18.2188Z" stroke="white" stroke-width="0.8"/>
<path d="M28.6068 21.3906C28.6068 20.24 29.5395 19.3073 30.6901 19.3073C31.8407 19.3073 32.7734 20.24 32.7734 21.3906" stroke="white" stroke-width="0.8"/>
<path d="M28.6094 21.3906V23.474" stroke="white" stroke-width="0.8"/>
<path d="M28.6068 28.6797C28.6068 30.9809 26.7413 32.8464 24.4401 32.8464C22.1389 32.8464 20.2734 30.9809 20.2734 28.6797" stroke="white" stroke-width="0.8"/>
<path d="M20.2734 27.6406V28.6823" stroke="white" stroke-width="0.8"/>
<path d="M28.6094 27.6406V28.6823" stroke="white" stroke-width="0.8" stroke-linecap="square"/>
<path d="M32.7734 21.3906V25.5573" stroke="white" stroke-width="0.8" stroke-linecap="round"/>
<rect x="27.5703" y="23.4688" width="2.08333" height="3.64583" rx="1.04167" stroke="#FFA41C" stroke-width="0.8"/>
</g>
</g>
</svg>
