<svg width="50" height="50" viewBox="0 0 50 50" fill="none" xmlns="http://www.w3.org/2000/svg">
<circle r="24.5" transform="matrix(-1 0 0 1 25 25)" fill="#103831" stroke="white"/>
<path d="M18 25.5C17.7239 25.5 17.5 25.2761 17.5 25C17.5 24.7239 17.7239 24.5 18 24.5V25.5ZM32.3536 24.6464C32.5488 24.8417 32.5488 25.1583 32.3536 25.3536L29.1716 28.5355C28.9763 28.7308 28.6597 28.7308 28.4645 28.5355C28.2692 28.3403 28.2692 28.0237 28.4645 27.8284L31.2929 25L28.4645 22.1716C28.2692 21.9763 28.2692 21.6597 28.4645 21.4645C28.6597 21.2692 28.9763 21.2692 29.1716 21.4645L32.3536 24.6464ZM18 24.5H32V25.5H18V24.5Z" fill="white"/>
</svg>
