<svg width="50" height="50" viewBox="0 0 50 50" fill="none" xmlns="http://www.w3.org/2000/svg">
<rect width="50" height="50" rx="4" fill="#092E27"/>
<mask id="mask0_1149_16076" style="mask-type:alpha" maskUnits="userSpaceOnUse" x="13" y="13" width="24" height="24">
<rect x="13" y="13" width="24" height="24" fill="white"/>
</mask>
<g mask="url(#mask0_1149_16076)">
<mask id="mask1_1149_16076" style="mask-type:alpha" maskUnits="userSpaceOnUse" x="15" y="15" width="20" height="20">
<rect x="15" y="15" width="20" height="20" fill="#C4C4C4"/>
</mask>
<g mask="url(#mask1_1149_16076)">
<path fill-rule="evenodd" clip-rule="evenodd" d="M22.302 16.0859C21.8601 16.0859 21.502 16.4441 21.502 16.8859V20.7024H21.5098V21.5346H20.68V21.5357L16.8645 21.5357C16.4226 21.5357 16.0645 21.8939 16.0645 22.3357V26.982C16.0645 27.4238 16.4226 27.782 16.8645 27.782H20.6809V27.7777H21.5098V28.6636C21.5046 28.6892 21.502 28.7156 21.502 28.7427V32.5592C21.502 33.001 21.8601 33.3592 22.302 33.3592H24.6251C24.846 33.3592 25.0251 33.1801 25.0251 32.9592C25.0251 32.7382 24.846 32.5592 24.6251 32.5592H22.302V28.7427L22.3019 28.7393H22.3098L22.3098 27.7777C22.3098 27.3359 21.9516 26.9777 21.5098 26.9777H20.68V26.982H16.8645L16.8645 22.3357H20.6809V22.3346H21.5098C21.9516 22.3346 22.3098 21.9764 22.3098 21.5346L22.3098 20.573H22.302V16.8859H26.9482V20.7024H26.9551V21.5346C26.9551 21.9764 27.3132 22.3346 27.7551 22.3346H28.5532C28.5634 22.3353 28.5736 22.3357 28.5839 22.3357H32.4004V24.6588C32.4004 24.8798 32.5795 25.0588 32.8004 25.0588C33.0213 25.0588 33.2004 24.8798 33.2004 24.6588V22.3357C33.2004 21.8939 32.8422 21.5357 32.4004 21.5357L28.6156 21.5357C28.6055 21.5349 28.5952 21.5346 28.5849 21.5346H27.7551V20.573C27.7551 20.5476 27.7527 20.5228 27.7482 20.4987V16.8859C27.7482 16.4441 27.39 16.0859 26.9482 16.0859H22.302Z" fill="white"/>
<path d="M26.6221 27.1339C26.5279 26.8252 26.8193 26.5377 27.1267 26.6362L33.2929 28.6105C33.6333 28.7194 33.6708 29.186 33.3522 29.348L30.7704 30.6606C30.6966 30.6981 30.6362 30.7577 30.5976 30.831L29.2488 33.396C29.0825 33.7123 28.6165 33.6684 28.5122 33.3266L26.6221 27.1339Z" stroke="#FFA41C" stroke-width="0.8"/>
</g>
</g>
</svg>
