<svg width="95" height="95" viewBox="0 0 95 95" fill="none" xmlns="http://www.w3.org/2000/svg">
<rect width="95" height="95" rx="4" fill="#092E27"/>
<mask id="mask0_1166_15323" style="mask-type:alpha" maskUnits="userSpaceOnUse" x="34" y="34" width="28" height="28">
<rect x="34" y="34" width="28" height="28" fill="#C4C4C4"/>
</mask>
<g mask="url(#mask0_1166_15323)">
<mask id="mask1_1166_15323" style="mask-type:alpha" maskUnits="userSpaceOnUse" x="36" y="36" width="24" height="24">
<rect x="36.3359" y="36.3359" width="23.3333" height="23.3333" fill="#C4C4C4"/>
</mask>
<g mask="url(#mask1_1166_15323)">
<path d="M49.3944 38.4531H48.0024H41.5781C41.0258 38.4531 40.5781 38.9008 40.5781 39.4531V56.544C40.5781 57.0963 41.0258 57.544 41.5781 57.544H54.4266C54.9789 57.544 55.4266 57.0963 55.4266 56.544V39.4531C55.4266 38.9008 54.9789 38.4531 54.4266 38.4531H52.7145C52.1622 38.4531 51.7145 38.9008 51.7145 39.4531V47.044" stroke="white" stroke-width="0.8" stroke-linecap="round"/>
<path d="M51.1836 53.3086H44.82" stroke="#FFA41C" stroke-width="0.8" stroke-linecap="round" stroke-linejoin="round"/>
</g>
</g>
</svg>
