<svg width="95" height="95" viewBox="0 0 95 95" fill="none" xmlns="http://www.w3.org/2000/svg">
<rect width="95" height="95" rx="4" fill="#092E27"/>
<mask id="mask0_1166_15331" style="mask-type:alpha" maskUnits="userSpaceOnUse" x="34" y="34" width="28" height="28">
<rect x="34" y="34" width="28" height="28" fill="white"/>
</mask>
<g mask="url(#mask0_1166_15331)">
<mask id="mask1_1166_15331" style="mask-type:alpha" maskUnits="userSpaceOnUse" x="36" y="36" width="24" height="24">
<rect x="59.6641" y="59.6641" width="23.3333" height="23.3333" transform="rotate(-180 59.6641 59.6641)" fill="white"/>
</mask>
<g mask="url(#mask1_1166_15331)">
<path d="M48.3398 47.2539L55.9535 39.6402" stroke="#FFA41C" stroke-width="0.8" stroke-linecap="round"/>
<path d="M47.9062 38.9922L56.6076 47.6935" stroke="white" stroke-width="0.8" stroke-linecap="round"/>
<path d="M53.3438 37.0312L58.5645 42.252" stroke="#FFA41C" stroke-width="0.8" stroke-linecap="round"/>
<path d="M41.8086 53.7812L38.6885 56.9013" stroke="white" stroke-width="0.8" stroke-linecap="round"/>
<path d="M49.6484 40.7305L54.8692 45.9513L45.1347 55.6858C44.7442 56.0763 44.1111 56.0763 43.7205 55.6858L39.9139 51.8792C39.5234 51.4886 39.5234 50.8555 39.9139 50.465L49.6484 40.7305Z" stroke="white" stroke-width="0.8"/>
<path d="M45.7266 44.6445L50.9474 49.8653" stroke="white" stroke-width="0.8" stroke-linecap="round"/>
</g>
</g>
</svg>
