<svg width="12" height="12" viewBox="0 0 12 12" fill="none" xmlns="http://www.w3.org/2000/svg">
<path d="M11.1116 0H4.47842C4.00567 0 3.62109 0.3846 3.62109 0.857322V2.86951C3.80331 2.86951 7.37945 2.86951 7.52223 2.86951C8.42651 2.86951 9.16219 3.60519 9.16219 4.50947C9.16219 4.67875 9.16219 8.30489 9.16219 8.34788H11.1116C11.5843 8.34788 11.9689 7.96328 11.9689 7.49053V0.857322C11.9689 0.3846 11.5843 0 11.1116 0Z" fill="#CCCCCC"/>
<path d="M7.52175 3.65234H0.888598C0.415876 3.65234 0.03125 4.03694 0.03125 4.50969V11.1429C0.0312761 11.6156 0.41585 12.0002 0.888598 12.0002H7.52178C7.99453 12.0002 8.37913 11.6156 8.37913 11.1429V4.50969C8.37915 4.03694 7.9945 3.65234 7.52175 3.65234Z" fill="#CCCCCC"/>
</svg>
