<svg width="16" height="16" viewBox="0 0 16 16" fill="none" xmlns="http://www.w3.org/2000/svg">
<g clip-path="url(#clip0_1201_50908)">
<path fill-rule="evenodd" clip-rule="evenodd" d="M0.5 2.82228H7.95103C7.91847 2.66384 7.90091 2.5 7.90019 2.33228L7.90025 2.31825C7.90047 2.14847 7.91784 1.98262 7.95062 1.82231H0.5C0.223781 1.82231 0 2.04606 0 2.32231C0 2.59856 0.22375 2.82234 0.5 2.82228ZM7.16947 8.00021V8.00646C7.16691 8.86224 6.46856 9.55836 5.61312 9.55836C4.75847 9.55833 4.06009 8.86296 4.05644 8.0079L4.05647 7.99912C4.05753 7.14184 4.7555 6.44499 5.61312 6.44499C6.47003 6.44496 7.16762 7.14149 7.16947 7.99802V8.00021ZM15.5 7.50168H8.04931C8.08203 7.66143 8.09944 7.82668 8.09981 7.99587V7.99934V8.0093C8.09931 8.17787 8.08184 8.34252 8.04916 8.50171L15.5 8.50168C15.7762 8.50168 16 8.27796 16 8.00171C16 7.72543 15.7762 7.50168 15.5 7.50168ZM3.17656 7.50168H0.5C0.223781 7.50168 0 7.72546 0 8.00171C0 8.27793 0.22375 8.50171 0.5 8.50171L3.17697 8.50168C3.14438 8.34324 3.12684 8.17937 3.12613 8.01165L3.12616 7.99762C3.12638 7.8278 3.14375 7.66199 3.17656 7.50168ZM10.3869 15.2377C9.52997 15.2377 8.83237 14.5412 8.83053 13.6847V13.6825C8.83053 13.6803 8.83053 13.6785 8.83053 13.6763C8.83313 12.8205 9.53144 12.1244 10.3868 12.1244C11.2416 12.1244 11.9399 12.8198 11.9435 13.6748L11.9436 13.6836C11.9425 14.5408 11.2445 15.2377 10.3869 15.2377ZM15.5 13.181H12.8234C12.8561 13.3408 12.8735 13.506 12.8738 13.6752V13.6787V13.6886C12.8733 13.8572 12.8559 14.0218 12.8232 14.181H15.5C15.7762 14.181 16 13.9573 16 13.681C16 13.4048 15.7762 13.181 15.5 13.181ZM7.95062 13.181H0.5C0.223781 13.181 0 13.4048 0 13.6811C0 13.9573 0.22375 14.1811 0.5 14.1811H7.95103C7.91847 14.0226 7.90091 13.8588 7.90019 13.691L7.90025 13.677C7.90047 13.5072 7.91784 13.3414 7.95062 13.181ZM8.83053 2.32378C8.83053 2.32153 8.83053 2.31975 8.83053 2.31753C8.83313 1.46172 9.53144 0.765625 10.3868 0.765625C11.2416 0.765594 11.9399 1.46103 11.9435 2.31609L11.9436 2.32484C11.9421 3.18175 11.2445 3.879 10.3868 3.879C9.52997 3.879 8.83234 3.18247 8.83053 2.32597V2.32378ZM12.8232 2.82234L15.5 2.82228C15.7762 2.82228 16 2.59856 16 2.32231C16 2.04603 15.7762 1.82231 15.5 1.82231H12.8234C12.8561 1.98206 12.8735 2.14731 12.8738 2.31647V2.31994V2.3299C12.8734 2.4985 12.8559 2.66312 12.8232 2.82234Z" fill="#333333"/>
</g>
<defs>
<clipPath id="clip0_1201_50908">
<rect width="16" height="16" fill="white"/>
</clipPath>
</defs>
</svg>
