<svg width="15" height="15" viewBox="0 0 15 15" fill="none" xmlns="http://www.w3.org/2000/svg">
<mask id="mask0_2427_118585" style="mask-type:alpha" maskUnits="userSpaceOnUse" x="0" y="0" width="15" height="15">
<rect width="15" height="15" fill="white"/>
</mask>
<g mask="url(#mask0_2427_118585)">
<mask id="mask1_2427_118585" style="mask-type:alpha" maskUnits="userSpaceOnUse" x="1" y="1" width="13" height="13">
<rect x="1.25" y="1.25" width="12.5" height="12.5" fill="#C4C4C4"/>
</mask>
<g mask="url(#mask1_2427_118585)">
<path fill-rule="evenodd" clip-rule="evenodd" d="M5.96406 1.78125C5.52223 1.78125 5.16406 2.13942 5.16406 2.58125V4.81653H5.17383V5.18552L4.80521 5.18552L4.8052 5.98552H5.17383C5.61566 5.98552 5.97383 5.62735 5.97383 5.18552V4.73454H5.96406V2.58125H8.56797V4.81653H8.56934V5.18552C8.56934 5.62735 8.92751 5.98552 9.36934 5.98552H9.73796C9.74337 5.98552 9.74876 5.98541 9.75412 5.9852H11.9736V7.28715C11.9736 7.50806 12.1527 7.68715 12.3736 7.68715C12.5945 7.68715 12.7736 7.50806 12.7736 7.28715V5.9852C12.7736 5.54337 12.4155 5.1852 11.9736 5.1852H9.73835C9.73294 5.1852 9.72756 5.18531 9.7222 5.18552H9.36934V4.73454C9.36934 4.72331 9.36887 4.71219 9.36797 4.70119V2.58125C9.36797 2.13942 9.00979 1.78125 8.56797 1.78125H5.96406ZM5.17383 9.38855V9.75035C5.16744 9.77874 5.16406 9.80827 5.16406 9.83859V12.0739C5.16406 12.5157 5.52223 12.8739 5.96406 12.8739H7.26601C7.48693 12.8739 7.66601 12.6948 7.66601 12.4739C7.66601 12.253 7.48693 12.0739 7.26601 12.0739H5.96406V9.83952H5.97383V9.38855C5.97383 8.94672 5.61566 8.58855 5.17383 8.58855H4.8052L4.80521 9.38855L5.17383 9.38855ZM1.76953 5.9852C1.76953 5.54337 2.1277 5.1852 2.56953 5.1852H4.80481V5.9852H2.56953L2.56953 8.5891L4.80481 8.5891V9.3891L2.56953 9.3891C2.1277 9.3891 1.76953 9.03093 1.76953 8.5891V5.9852Z" fill="#103831"/>
<path d="M8.59746 9.10572C8.50324 8.79702 8.79462 8.50959 9.10201 8.60801L12.3356 9.64335C12.676 9.75232 12.7135 10.2189 12.395 10.3809L11.1491 11.0143C11.0752 11.0518 11.0149 11.1114 10.9763 11.1847L10.3253 12.4227C10.159 12.739 9.69296 12.6951 9.58865 12.3533L8.59746 9.10572Z" stroke="#103831" stroke-width="0.8"/>
</g>
</g>
</svg>
