<svg width="14" height="14" viewBox="0 0 14 14" fill="none" xmlns="http://www.w3.org/2000/svg">
<path d="M10.6455 6.74866C9.93846 6.74866 9.36329 7.32464 9.36329 8.0324C9.36329 8.65252 9.80468 9.17146 10.3892 9.29035V10.8323C10.3892 11.4201 10.1589 11.9741 9.74092 12.393C9.32275 12.8116 8.7696 13.042 8.18329 13.042C7.59681 13.042 7.0435 12.8116 6.62574 12.393C6.20757 11.9741 5.97742 11.4198 5.97742 10.8323V9.27216C6.27582 9.1665 6.49035 8.88147 6.49035 8.54718V8.26311H6.61853C6.76032 8.26311 6.87487 8.14832 6.87487 8.00676V7.22675C7.48009 7.0578 8.03276 6.73816 8.48401 6.2946C9.18633 5.6035 9.57317 4.68818 9.57317 3.71703V3.1521C9.57317 2.63171 9.36609 2.14129 8.9903 1.77191C8.87751 1.66096 8.75318 1.56483 8.61884 1.48456C8.61908 1.47527 8.61908 1.46589 8.61908 1.4566C8.61908 0.890312 8.15893 0.429688 7.59321 0.429688C7.02772 0.429688 6.5675 0.890312 6.5675 1.4566C6.5675 2.02289 7.02772 2.48359 7.59321 2.48359C7.95946 2.48359 8.28454 2.2943 8.46623 1.99781C8.52423 2.04003 8.5791 2.08674 8.63085 2.13752C8.90795 2.40997 9.06047 2.77014 9.06047 3.1521V3.71703C9.06047 4.54968 8.72802 5.33514 8.12457 5.92915C7.77001 6.2777 7.34271 6.53749 6.87487 6.69098V6.20881C6.87487 6.06733 6.76032 5.95246 6.61853 5.95246H4.82329C4.6815 5.95246 4.56695 6.06733 4.56695 6.20881V6.6877C4.10304 6.53357 3.67927 6.2749 3.32759 5.92915C2.72405 5.33546 2.3916 4.54968 2.3916 3.71703V3.1521C2.3916 2.77014 2.54413 2.40997 2.8213 2.13752C2.87281 2.08674 2.92793 2.04003 2.98585 1.99781C3.16761 2.2943 3.49261 2.48359 3.85895 2.48359C4.42451 2.48359 4.88458 2.02289 4.88458 1.4566C4.88458 0.890312 4.42451 0.429688 3.85895 0.429688C3.29322 0.429688 2.833 0.890312 2.833 1.4566C2.833 1.46589 2.833 1.47511 2.83356 1.48432C2.69922 1.56451 2.57465 1.66096 2.46186 1.77191C2.08599 2.14129 1.87891 2.63171 1.87891 3.1521V3.71703C1.87891 4.68818 2.26575 5.6035 2.96814 6.2946C3.41619 6.73552 3.96557 7.05427 4.56695 7.22386V8.00676C4.56695 8.14832 4.6815 8.26311 4.82329 8.26311H4.95147V8.54718C4.95147 8.88147 5.16608 9.1665 5.46472 9.27216V10.8323C5.46472 11.5567 5.74799 12.2396 6.26276 12.7551C6.77778 13.2707 7.45959 13.5547 8.18329 13.5547C8.90667 13.5547 9.58887 13.2707 10.1036 12.7551C10.6183 12.2396 10.9018 11.5567 10.9018 10.8323V9.29035C11.4863 9.17146 11.9277 8.65252 11.9277 8.0324C11.9277 7.32464 11.3525 6.74866 10.6455 6.74866ZM8.09389 1.56843L8.09333 1.57124C8.09333 1.57124 8.09276 1.57356 8.09252 1.57484C8.03901 1.80443 7.82953 1.9709 7.59321 1.9709C7.31042 1.9709 7.08019 1.74018 7.08019 1.4566C7.08019 1.1731 7.31042 0.942383 7.59321 0.942383C7.87615 0.942383 8.10638 1.1731 8.10638 1.4566C8.10638 1.49585 8.1023 1.53246 8.09389 1.56843ZM3.85895 0.942383C4.14173 0.942383 4.37188 1.1731 4.37188 1.4566C4.37188 1.74018 4.14173 1.9709 3.85895 1.9709C3.62183 1.9709 3.4121 1.80371 3.35883 1.57124L3.35835 1.56891C3.34986 1.53326 3.34569 1.49553 3.34569 1.4566C3.34569 1.1731 3.57593 0.942383 3.85895 0.942383ZM5.07964 7.75042V6.46515H6.36218V7.75042H5.07964ZM5.72107 8.80352C5.57936 8.80352 5.46416 8.68849 5.46416 8.54718V8.26311H5.97766V8.54718C5.97766 8.68849 5.86254 8.80352 5.72107 8.80352ZM10.6455 8.80352C10.221 8.80352 9.87598 8.45778 9.87598 8.0324C9.87598 7.60742 10.221 7.26135 10.6455 7.26135C11.0698 7.26135 11.415 7.60742 11.415 8.0324C11.415 8.45778 11.0698 8.80352 10.6455 8.80352Z" fill="#103831"/>
<path d="M10.6471 8.29004C10.5056 8.29004 10.3906 8.17532 10.3906 8.03369C10.3906 7.89214 10.5053 7.77734 10.6469 7.77734H10.6471C10.7888 7.77734 10.9035 7.89214 10.9035 8.03369C10.9035 8.17532 10.7887 8.29004 10.6471 8.29004Z" fill="#103831"/>
</svg>
