<svg width="28" height="28" viewBox="0 0 28 28" fill="none" xmlns="http://www.w3.org/2000/svg">
<mask id="mask0_2427_130525" style="mask-type:alpha" maskUnits="userSpaceOnUse" x="0" y="0" width="28" height="28">
<rect width="28" height="28" fill="white"/>
</mask>
<g mask="url(#mask0_2427_130525)">
<mask id="mask1_2427_130525" style="mask-type:alpha" maskUnits="userSpaceOnUse" x="2" y="2" width="24" height="24">
<rect x="2.33594" y="2.33594" width="23.3333" height="23.3333" fill="#C4C4C4"/>
</mask>
<g mask="url(#mask1_2427_130525)">
<path fill-rule="evenodd" clip-rule="evenodd" d="M10.7902 3.67188C10.3484 3.67188 9.99023 4.03005 9.99023 4.47187V8.99106H9.99805V10.0279L8.96328 10.0279V10.0299H4.44648C4.00466 10.0299 3.64648 10.3881 3.64648 10.8299V16.3839C3.64648 16.8257 4.00466 17.1839 4.44648 17.1839H8.96567V17.1803H9.99805V18.2917C9.99292 18.3173 9.99023 18.3437 9.99023 18.3708V22.89C9.99023 23.3318 10.3484 23.69 10.7902 23.69H13.5672C13.7881 23.69 13.9672 23.5109 13.9672 23.29C13.9672 23.0691 13.7881 22.89 13.5672 22.89H10.7902V18.3708L10.7902 18.3687H10.798L10.798 17.1803C10.798 16.7384 10.4399 16.3803 9.99805 16.3803H8.96328V16.3839H4.44648L4.44648 10.8299L8.96567 10.8299V10.8279H9.99805C10.4399 10.8279 10.798 10.4698 10.798 10.0279L10.798 8.83945H10.7902V4.47187L16.3442 4.47188V8.99106H16.3496V10.0279C16.3496 10.4698 16.7078 10.8279 17.1496 10.8279H18.1417C18.1549 10.8293 18.1684 10.8299 18.182 10.8299L22.7012 10.8299V13.6069C22.7012 13.8278 22.8803 14.0069 23.1012 14.0069C23.3221 14.0069 23.5012 13.8278 23.5012 13.6069V10.8299C23.5012 10.3881 23.143 10.0299 22.7012 10.0299H18.2247C18.2114 10.0286 18.198 10.0279 18.1844 10.0279L17.1496 10.0279V8.83945C17.1496 8.81697 17.1478 8.79492 17.1442 8.77344V4.47188C17.1442 4.03005 16.786 3.67188 16.3442 3.67188H10.7902Z" fill="#103831"/>
<path d="M15.8592 16.3678C15.765 16.059 16.0564 15.7716 16.3638 15.87L23.8334 18.2616C24.1737 18.3706 24.2113 18.8372 23.8927 18.9992L20.7171 20.6136C20.6433 20.6512 20.5829 20.7107 20.5444 20.784L18.8854 23.9389C18.7191 24.2551 18.2531 24.2112 18.1488 23.8694L15.8592 16.3678Z" stroke="#FFA41C" stroke-width="0.8"/>
</g>
</g>
</svg>
