<svg width="14" height="14" viewBox="0 0 14 14" fill="none" xmlns="http://www.w3.org/2000/svg">
<mask id="mask0_1201_50944" style="mask-type:alpha" maskUnits="userSpaceOnUse" x="0" y="0" width="14" height="14">
<rect width="14" height="14" fill="#C4C4C4"/>
</mask>
<g mask="url(#mask0_1201_50944)">
<path d="M6.98098 2.05854C6.98697 2.04011 7.01303 2.04011 7.01902 2.05854L8.34259 6.13208C8.34527 6.14032 8.35295 6.1459 8.36161 6.1459H12.6448C12.6642 6.1459 12.6722 6.17069 12.6565 6.18208L9.19138 8.69966C9.18437 8.70476 9.18144 8.71378 9.18412 8.72202L10.5077 12.7956C10.5137 12.814 10.4926 12.8293 10.4769 12.8179L7.01176 10.3003C7.00475 10.2952 6.99525 10.2952 6.98824 10.3003L3.52309 12.8179C3.50741 12.8293 3.48632 12.814 3.49231 12.7956L4.81588 8.72202C4.81856 8.71378 4.81563 8.70476 4.80862 8.69966L1.34346 6.18208C1.32778 6.17069 1.33584 6.1459 1.35521 6.1459H5.63839C5.64705 6.1459 5.65473 6.14032 5.65741 6.13208L6.98098 2.05854Z" fill="#FFBE1C" stroke="#FFBE1C"/>
</g>
</svg>
