<svg width="11" height="15" viewBox="0 0 11 15" fill="none" xmlns="http://www.w3.org/2000/svg">
<path d="M9.02336 8.50117C10.9662 6.55899 10.9662 3.39883 9.02336 1.45665C7.08057 -0.485551 3.91944 -0.485551 1.97662 1.45665C0.0338336 3.39883 0.0338336 6.55899 1.97662 8.50117C2.79899 9.32327 3.83964 9.79726 4.91375 9.92342V11.5911H3.74135C3.41759 11.5911 3.15515 11.8535 3.15515 12.1771C3.15515 12.5007 3.41759 12.7631 3.74135 12.7631H4.91375V14.4139C4.91378 14.7376 5.17622 15 5.50001 15C5.82377 15 6.08621 14.7376 6.08621 14.4139V12.7631H7.25864C7.5824 12.7631 7.84484 12.5007 7.84484 12.1771C7.84484 11.8535 7.5824 11.5911 7.25864 11.5911H6.08621V9.92344C7.16035 9.79726 8.201 9.32327 9.02336 8.50117ZM2.80567 7.67239C1.31999 6.18719 1.31999 3.77061 2.80567 2.2854C4.29131 0.800258 6.70862 0.80017 8.19435 2.2854C9.68002 3.77061 9.68002 6.18719 8.19435 7.67239C6.70868 9.15757 4.29134 9.15757 2.80567 7.67239Z" fill="#333333"/>
</svg>
