<svg width="10" height="14" viewBox="0 0 10 14" fill="none" xmlns="http://www.w3.org/2000/svg">
<path d="M8.28847 7.93443C10.1017 6.12173 10.1017 3.17224 8.28847 1.35954C6.4752 -0.453181 3.52482 -0.453181 1.71152 1.35954C-0.101755 3.17224 -0.101755 6.12173 1.71152 7.93443C2.47905 8.70172 3.45033 9.14411 4.45283 9.26186V10.8183H3.35859C3.05642 10.8183 2.81147 11.0632 2.81147 11.3653C2.81147 11.6674 3.05642 11.9123 3.35859 11.9123H4.45283V13.453C4.45286 13.7551 4.69781 14 5.00001 14C5.30218 14 5.54713 13.7551 5.54713 13.453V11.9123H6.6414C6.94357 11.9123 7.18852 11.6674 7.18852 11.3653C7.18852 11.0632 6.94357 10.8183 6.6414 10.8183H5.54713V9.26188C6.54966 9.14411 7.52094 8.70172 8.28847 7.93443ZM2.48529 7.1609C1.09866 5.77471 1.09866 3.51923 2.48529 2.13304C3.87189 0.746908 6.12805 0.746826 7.51473 2.13304C8.90136 3.51923 8.90136 5.77471 7.51473 7.1609C6.1281 8.54706 3.87192 8.54706 2.48529 7.1609Z" fill="white"/>
</svg>
