<svg width="28" height="28" viewBox="0 0 28 28" fill="none" xmlns="http://www.w3.org/2000/svg">
<mask id="mask0_934_12981" style="mask-type:alpha" maskUnits="userSpaceOnUse" x="0" y="0" width="28" height="28">
<rect width="28" height="28" fill="#C4C4C4"/>
</mask>
<g mask="url(#mask0_934_12981)">
</g>
<path fill-rule="evenodd" clip-rule="evenodd" d="M10.6976 21.4731L19.4441 12.7266H11.0919L6.52148 17.2969C6.13867 17.6797 6.13867 18.3061 6.52148 18.689L9.30557 21.4731C9.68842 21.8559 10.3148 21.8559 10.6976 21.4731Z" fill="#9BC100"/>
<path d="M26.4529 4.32863L23.6688 1.54453C23.4766 1.35234 23.165 1.35234 22.9728 1.54453C22.7806 1.73672 22.7806 2.04836 22.9728 2.24059L23.1467 2.41457L18.2747 7.28665L16.7086 5.7206C16.6163 5.62832 16.4911 5.57645 16.3606 5.57645C16.2301 5.57645 16.1049 5.62832 16.0126 5.7206L15.3165 6.41666C14.8777 6.84223 14.7606 7.5506 15.028 8.09719L6.17586 16.9495C5.72219 17.4032 5.62607 18.0811 5.88751 18.6298L5.4798 19.0375C4.90417 19.6132 4.90417 20.5498 5.4798 21.1255L5.82786 21.4735L1.54258 25.7588C1.35039 25.951 1.35039 26.2626 1.54258 26.4549C1.73477 26.6471 2.0464 26.6471 2.23864 26.4549L6.52392 22.1696C6.94781 22.6071 7.25738 22.9439 7.91599 22.9488C8.60747 22.9471 8.92413 22.5595 9.36751 22.1101C9.9143 22.3774 10.6223 22.2605 11.048 21.8216L19.9004 12.9692C20.4587 13.2335 21.1302 13.1303 21.5808 12.6808L22.2768 11.9848C22.469 11.7926 22.469 11.481 22.2768 11.2888L20.7108 9.72279L25.5829 4.85066L25.7568 5.02464C26.2335 5.46945 26.8976 4.80499 26.4529 4.32863ZM7.91594 21.9645C7.78365 21.9645 7.66007 21.9137 7.56793 21.8216L6.17586 20.4295C5.98397 20.2376 5.98397 19.9254 6.17586 19.7335L6.52387 19.3855L8.6119 21.4735L8.2639 21.8216C8.17176 21.9137 8.04823 21.9645 7.91594 21.9645ZM10.004 21.2685C9.87178 21.2685 9.7482 21.2178 9.65602 21.1255L6.87192 18.3414C6.68008 18.1495 6.68008 17.8373 6.87192 17.6454L15.6646 8.8527L19.1447 12.3328L16.2681 15.2094L15.7461 14.6874C15.554 14.4953 15.2424 14.4953 15.0501 14.6874C14.8579 14.8796 14.8579 15.1913 15.0501 15.3835L15.5721 15.9055L14.7021 16.7755L14.1801 16.2534C13.988 16.0613 13.6763 16.0613 13.4841 16.2534C13.2919 16.4456 13.2919 16.7573 13.4841 16.9495L14.0061 17.4715L13.1361 18.3415L12.6141 17.8195C12.4219 17.6273 12.1103 17.6273 11.9181 17.8195C11.7259 18.0117 11.7259 18.3233 11.9181 18.5155L12.4402 19.0375L11.5702 19.9075L11.0481 19.3855C10.8559 19.1933 10.5443 19.1933 10.3521 19.3855C10.1599 19.5777 10.1599 19.8893 10.3521 20.0815L10.8742 20.6035L10.3521 21.1255C10.2598 21.2178 10.1362 21.2685 10.004 21.2685ZM20.8848 11.9848C20.7034 12.174 20.3701 12.1743 20.1888 11.9848L16.0126 7.80868C15.8233 7.62747 15.8232 7.29394 16.0126 7.11272L16.3606 6.76467L21.2327 11.6368L20.8848 11.9848ZM20.0147 9.02673L18.9707 7.98271L23.8428 3.11063L24.8868 4.15465L20.0147 9.02673Z" fill="#333333"/>
</svg>
