<svg width="15" height="15" viewBox="0 0 15 15" fill="none" xmlns="http://www.w3.org/2000/svg">
<path fill-rule="evenodd" clip-rule="evenodd" d="M14.5312 3.75C14.5312 2.87953 14.1858 2.04516 13.5703 1.42969C12.9548 0.814218 12.1205 0.46875 11.25 0.46875H3.75C2.87953 0.46875 2.04516 0.814218 1.42969 1.42969C0.81422 2.04516 0.46875 2.87953 0.46875 3.75V11.25C0.46875 12.1205 0.81422 12.9548 1.42969 13.5703C2.04516 14.1858 2.87953 14.5312 3.75 14.5312H11.25C12.1205 14.5312 12.9548 14.1858 13.5703 13.5703C14.1858 12.9548 14.5312 12.1205 14.5312 11.25V3.75ZM13.5938 3.75V11.25C13.5938 11.8716 13.3467 12.4678 12.9075 12.9075C12.4678 13.3467 11.8716 13.5938 11.25 13.5938H3.75C3.12844 13.5938 2.53219 13.3467 2.0925 12.9075C1.65328 12.4678 1.40625 11.8716 1.40625 11.25V3.75C1.40625 3.12844 1.65328 2.53219 2.0925 2.0925C2.53219 1.65328 3.12844 1.40625 3.75 1.40625H11.25C11.8716 1.40625 12.4678 1.65328 12.9075 2.0925C13.3467 2.53219 13.5938 3.12844 13.5938 3.75Z" fill="#333333"/>
<path fill-rule="evenodd" clip-rule="evenodd" d="M4.35586 7.83116L6.23086 9.70616C6.41368 9.88944 6.71087 9.88944 6.89368 9.70616L10.6437 5.95617C10.8265 5.77336 10.8265 5.47617 10.6437 5.29336C10.4609 5.11055 10.1637 5.11055 9.98087 5.29336L6.56227 8.71194L5.01867 7.16835C4.83586 6.98554 4.53867 6.98554 4.35586 7.16835C4.17305 7.35117 4.17305 7.64835 4.35586 7.83116Z" fill="#333333"/>
</svg>
