<svg width="28" height="28" viewBox="0 0 28 28" fill="none" xmlns="http://www.w3.org/2000/svg">
<path d="M6.52734 11.8574V18.5777C6.52734 19.0932 6.9501 19.511 7.47153 19.511H9.49648V21.4327H12.5559V19.511H14.5808C15.1023 19.511 15.525 19.0932 15.525 18.5777V11.8574H6.52734Z" fill="#9BC100"/>
<path d="M23.2692 5.06492H7.04312C6.0594 5.06492 5.25915 4.27655 5.25915 3.30745V3.24905C5.25915 2.28096 6.05781 1.49322 7.0401 1.49157C8.02239 1.49322 8.82105 2.28101 8.82105 3.24905C8.82105 3.54175 9.05832 3.77901 9.35102 3.77901C9.64372 3.77901 9.88099 3.54175 9.88099 3.24905C9.88099 1.699 8.61097 0.437364 7.04768 0.431641C7.04614 0.431641 7.04461 0.431641 7.04312 0.431641H7.03708C7.03554 0.431641 7.03401 0.431641 7.03252 0.431641C5.46923 0.437364 4.19922 1.69905 4.19922 3.24905V3.30745C4.19922 4.86094 5.47501 6.12486 7.04312 6.12486H10.4779V8.44992H7.45321C6.64035 8.44992 5.97906 9.10639 5.97906 9.91327V18.5822C5.97906 19.3891 6.64035 20.0455 7.45321 20.0455H8.94819V21.4373C8.94819 21.73 9.18546 21.9672 9.47816 21.9672H10.4779V27.0359C10.4779 27.3286 10.7152 27.5659 11.0079 27.5659C11.3006 27.5659 11.5378 27.3286 11.5378 27.0359V21.9672H12.5375C12.8302 21.9672 13.0675 21.73 13.0675 21.4373V20.0455H14.5625C15.3754 20.0455 16.0366 19.3891 16.0366 18.5822V9.91327C16.0366 9.10634 15.3754 8.44992 14.5625 8.44992H11.5378V6.12486H17.9213V27.0359C17.9213 27.3286 18.1585 27.5659 18.4512 27.5659H21.05C21.3427 27.5659 21.58 27.3286 21.58 27.0359V6.12486H23.2693C23.562 6.12486 23.7992 5.88759 23.7992 5.59489C23.7992 5.30219 23.5619 5.06492 23.2692 5.06492ZM14.9767 9.91327V18.5822C14.9767 18.8046 14.7909 18.9856 14.5625 18.9856H12.5375C12.2448 18.9856 12.0076 19.2229 12.0076 19.5156V20.9073H10.0081V19.5156C10.0081 19.2229 9.77086 18.9856 9.47816 18.9856H7.45321C7.2248 18.9856 7.03899 18.8046 7.03899 18.5822V9.91327C7.03899 9.69084 7.2248 9.50986 7.45321 9.50986H14.5625C14.7909 9.50986 14.9767 9.69084 14.9767 9.91327ZM20.5201 26.506H18.9812V6.12486H20.5201V26.506Z" fill="white"/>
</svg>
