<svg width="28" height="28" viewBox="0 0 28 28" fill="none" xmlns="http://www.w3.org/2000/svg">
<path d="M10.841 7.22549V12.1932C10.8428 12.4118 10.7621 12.623 10.6152 12.7848C10.4457 12.9826 10.1982 13.0964 9.93776 13.0965H8.58291C8.08469 13.095 7.68118 12.6915 7.67969 12.1932V7.22549C7.68118 6.72727 8.08469 6.32375 8.58291 6.32227H9.93776C10.2318 6.32435 10.5072 6.46705 10.6784 6.70614C10.785 6.85825 10.8419 7.03972 10.841 7.22549Z" fill="#9BC100"/>
<path d="M0.803039 17.6045L2.23239 19.0154C2.29703 19.0783 2.32614 19.1692 2.31007 19.2579L1.97136 21.245C1.89478 21.6894 2.07897 22.1385 2.44556 22.4011C2.80613 22.6625 3.28422 22.6953 3.6771 22.4856L5.43117 21.5498C5.50911 21.5077 5.6027 21.5064 5.68182 21.5462L7.44853 22.486C7.99662 22.7873 8.68511 22.5896 8.98988 22.0434L9.00975 22.0629C9.16816 22.22 9.24011 22.4445 9.20259 22.6644L8.68007 25.744C8.57572 26.3391 8.82144 26.9415 9.31233 27.2939C9.79307 27.6438 10.4317 27.6877 10.9558 27.4068L13.693 25.953C13.8849 25.8505 14.1153 25.8505 14.3072 25.953L17.044 27.4068C17.5679 27.6884 18.2069 27.6445 18.6874 27.2939C19.1783 26.9415 19.424 26.3391 19.3196 25.744L18.7971 22.6644C18.7596 22.4447 18.8313 22.2204 18.9895 22.0633L19.0098 22.0434C19.3149 22.5897 20.0039 22.7872 20.5521 22.4856L22.3134 21.548C22.3908 21.5085 22.4825 21.5085 22.56 21.548L24.3212 22.4878C24.7178 22.6971 25.1989 22.6623 25.5612 22.3982C25.9235 22.134 26.1037 21.6865 26.0256 21.245L25.6865 19.2579C25.6713 19.1687 25.7012 19.0777 25.7664 19.0149L27.194 17.605C27.5112 17.2903 27.6242 16.8237 27.4859 16.3988C27.3476 15.9738 26.9817 15.663 26.54 15.5953L24.5683 15.3049C24.482 15.2922 24.408 15.2366 24.3718 15.1572L23.4907 13.3508C23.2961 12.9471 22.8875 12.6905 22.4394 12.6905H22.4353C21.9886 12.6909 21.5818 12.9477 21.3894 13.3508L20.511 15.1532C20.4731 15.2351 20.3966 15.2924 20.3073 15.3058L18.331 15.5949C17.8891 15.6616 17.5234 15.9734 17.3876 16.3992C17.3521 16.5132 17.3339 16.632 17.3339 16.7514L17.2747 16.7429C17.0575 16.7102 16.8705 16.5725 16.7748 16.3748L15.6155 14.0002H18.5167C19.2634 13.9965 19.8678 13.3921 19.8715 12.6454C19.8702 12.412 19.8079 12.183 19.6909 11.9811C20.2458 11.6355 20.4711 10.9403 20.2242 10.3349C20.8154 10.1787 21.2272 9.64393 21.2272 9.03247C21.2272 8.42102 20.8154 7.88624 20.2242 7.73002C20.395 7.31289 20.346 6.838 20.0937 6.46451C19.8413 6.09103 19.419 5.86838 18.9683 5.87119L16.7685 5.86712C17.3875 4.59188 17.678 3.18212 17.6134 1.76603C17.5791 1.03443 16.9867 0.452942 16.2546 0.432211C15.5225 0.41148 14.8981 0.958517 14.8225 1.68699C14.7691 2.14139 14.6215 2.57963 14.3889 2.97364C14.2026 3.33799 13.8845 3.61768 13.4992 3.75583C12.9145 4.0238 12.3787 4.3877 11.9141 4.83248C11.5803 5.13855 11.2806 5.47968 11.0199 5.84996C10.9359 5.95601 10.8385 6.0506 10.7299 6.13131C10.4996 5.96249 10.2216 5.87138 9.93601 5.87119H8.58117C7.83291 5.87119 7.22633 6.47777 7.22633 7.22602V12.1938C7.22633 12.942 7.83291 13.5486 8.58117 13.5486H9.93601C10.1922 13.5481 10.443 13.4743 10.6586 13.3359C11.1686 13.7084 11.7757 13.9247 12.4063 13.9587L11.2267 16.3743C11.1311 16.5724 10.9438 16.7103 10.7263 16.7429L10.6681 16.7514C10.6676 16.632 10.6493 16.5133 10.6139 16.3992C10.4779 15.9726 10.1111 15.6604 9.6682 15.5944L7.68969 15.3049C7.60377 15.2913 7.53019 15.236 7.49324 15.1572L6.61349 13.3508C6.42048 12.9474 6.01299 12.6906 5.56575 12.6905H5.56169C5.11271 12.6896 4.70302 12.9464 4.50807 13.3508L3.62607 15.16C3.58862 15.2395 3.5132 15.2945 3.42601 15.3058L1.45427 15.5949C1.01321 15.6637 0.648408 15.9748 0.510802 16.3995C0.373195 16.8241 0.486193 17.2901 0.803039 17.6045ZM18.248 16.676C18.2777 16.5767 18.3621 16.5034 18.4647 16.4881L20.4333 16.2C20.8182 16.1451 21.1508 15.9026 21.3207 15.5529L22.2018 13.7464C22.2439 13.6536 22.3366 13.5941 22.4385 13.5947C22.542 13.5936 22.6366 13.6533 22.6801 13.7473L23.5594 15.5511C23.7257 15.9026 24.058 16.1466 24.4432 16.2L26.4095 16.4886C26.5129 16.5059 26.598 16.5795 26.6301 16.6793C26.6622 16.779 26.636 16.8884 26.5621 16.9628L25.1373 18.37C24.8607 18.6396 24.7344 19.028 24.7995 19.4087L25.1382 21.3958C25.1583 21.5015 25.1146 21.6091 25.0267 21.6709C24.9459 21.7316 24.837 21.7394 24.7485 21.6907L22.98 20.7478C22.6387 20.573 22.2339 20.5743 21.8938 20.7514L20.1289 21.6903C20.0414 21.7393 19.9333 21.7322 19.853 21.6722C19.7645 21.609 19.7213 21.4997 19.7428 21.3931L19.7559 21.3118L21.2042 19.8852C21.6354 19.463 21.7879 18.8319 21.5971 18.2594C21.4146 17.6907 20.9237 17.2759 20.3326 17.1909L18.266 16.8905C18.2318 16.8243 18.2253 16.7471 18.248 16.676ZM11.7492 6.37925C11.9773 6.05534 12.2397 5.75705 12.5319 5.48957C12.9288 5.10765 13.3883 4.79664 13.8903 4.57009C14.4378 4.35211 14.8905 3.94754 15.1684 3.42796C15.4615 2.92824 15.6481 2.37335 15.7167 1.79809C15.7238 1.52373 15.9519 1.30708 16.2263 1.31419C16.5007 1.3213 16.7173 1.54947 16.7102 1.82383C16.7785 3.1345 16.4914 4.43928 15.8792 5.60022C15.7307 5.83206 15.7206 6.12653 15.853 6.36796C15.9879 6.61631 16.2479 6.77092 16.5305 6.7708L18.9683 6.77441C19.2177 6.77441 19.4199 6.9766 19.4199 7.22602C19.4199 7.47544 19.2177 7.67764 18.9683 7.67764H18.065C17.8156 7.67764 17.6134 7.87983 17.6134 8.12925C17.6134 8.37867 17.8156 8.58086 18.065 8.58086H19.8715C20.1209 8.58086 20.3231 8.78306 20.3231 9.03247C20.3231 9.28189 20.1209 9.48409 19.8715 9.48409H18.065C17.8156 9.48409 17.6134 9.68628 17.6134 9.9357C17.6134 10.1851 17.8156 10.3873 18.065 10.3873H18.9683C19.2177 10.3873 19.4199 10.5895 19.4199 10.8389C19.4199 11.0883 19.2177 11.2905 18.9683 11.2905H17.6134C17.364 11.2905 17.1618 11.4927 17.1618 11.7422C17.1618 11.9916 17.364 12.1938 17.6134 12.1938H18.5167C18.7661 12.1938 18.9683 12.396 18.9683 12.6454C18.9686 12.7672 18.9186 12.8837 18.8301 12.9674C18.7474 13.0511 18.6343 13.0979 18.5167 13.097H15.0478C14.4603 12.5605 13.5624 12.5545 12.9677 13.083C12.348 13.133 11.7297 12.9702 11.215 12.6214C11.2635 12.484 11.2892 12.3395 11.2909 12.1938V7.22602C11.2892 7.10536 11.2711 6.98548 11.2371 6.8697C11.4299 6.73101 11.6023 6.56591 11.7492 6.37925ZM8.58117 12.6454C8.33175 12.6454 8.12956 12.4432 8.12956 12.1938V7.22602C8.12956 6.9766 8.33175 6.77441 8.58117 6.77441H9.93601C10.1854 6.77441 10.3876 6.9766 10.3876 7.22602V12.1938C10.3876 12.4432 10.1854 12.6454 9.93601 12.6454H8.58117ZM10.8568 17.6366C11.3691 17.5605 11.8108 17.2365 12.0374 16.7709L13.4058 13.9709C13.5151 13.7415 13.7465 13.5955 14.0005 13.5955C14.2546 13.5955 14.486 13.7415 14.5953 13.9709L15.9637 16.7731C16.1904 17.2386 16.6321 17.5623 17.1442 17.6384L20.2043 18.0878C20.4559 18.1231 20.6645 18.3007 20.7395 18.5434C20.8238 18.7894 20.7582 19.062 20.571 19.2425L18.3581 21.4238C17.99 21.7878 17.8224 22.3085 17.9092 22.8189L18.4318 25.8984C18.4793 26.1544 18.3735 26.4147 18.1608 26.565C17.9595 26.7148 17.6895 26.7336 17.4694 26.6133L14.733 25.1591C14.2758 24.9157 13.7275 24.9157 13.2703 25.1591L10.5335 26.6133C10.3133 26.7335 10.0434 26.7146 9.84208 26.565C9.62938 26.4147 9.52357 26.1544 9.57111 25.8984L10.0936 22.8189C10.1805 22.3082 10.0127 21.7874 9.64427 21.4234L7.43137 19.2425C7.24426 19.062 7.17859 18.7894 7.26291 18.5434C7.33803 18.3006 7.54675 18.123 7.79853 18.0878L10.8568 17.6366ZM1.37027 16.6769C1.40058 16.5774 1.48517 16.5041 1.58794 16.4881L3.55201 16.2C3.93807 16.1479 4.27178 15.9045 4.43943 15.5529L5.31917 13.7464C5.36269 13.6518 5.4576 13.5916 5.56169 13.5924C5.66394 13.592 5.75685 13.6518 5.79878 13.7451L6.6844 15.5569C6.85375 15.9034 7.18339 16.1438 7.56504 16.1991L9.53588 16.4877C9.63923 16.5029 9.72462 16.5762 9.75537 16.676C9.77743 16.7466 9.77078 16.823 9.73685 16.8887L7.66801 17.1922C7.07686 17.2773 6.586 17.6921 6.40349 18.2607C6.21273 18.8332 6.36525 19.4644 6.7964 19.8865L8.24472 21.3132L8.25827 21.3972C8.27887 21.503 8.23558 21.6112 8.14762 21.6736C8.06729 21.7325 7.9601 21.7398 7.87259 21.6921L6.10362 20.7509C5.76167 20.5744 5.35538 20.5744 5.01343 20.7509L3.25214 21.6894C3.16339 21.7391 3.0536 21.7315 2.97259 21.67C2.88556 21.6093 2.84197 21.5034 2.86104 21.399L3.1993 19.4119C3.26556 19.0316 3.14022 18.6431 2.8642 18.3732L1.4371 16.9646C1.36055 16.89 1.33445 16.7776 1.37027 16.6769Z" fill="#333333"/>
</svg>
