<svg width="28" height="28" viewBox="0 0 28 28" fill="none" xmlns="http://www.w3.org/2000/svg">
<mask id="mask0_934_13753" style="mask-type:alpha" maskUnits="userSpaceOnUse" x="0" y="0" width="28" height="28">
<rect width="28" height="28" fill="#C4C4C4"/>
</mask>
<g mask="url(#mask0_934_13753)">
</g>
<g clip-path="url(#clip0_934_13753)">
<path d="M13.7876 28.0013C12.3561 28.0013 11.1914 26.837 11.1914 25.4058V20.3779C11.1914 20.1061 11.4118 19.8857 11.6836 19.8857C11.9554 19.8857 12.1758 20.1061 12.1758 20.3779V25.4058C12.1758 26.2942 12.8988 27.0169 13.7876 27.0169C14.6764 27.0169 15.3994 26.2941 15.3994 25.4058V19.6875C15.3994 18.699 16.2038 17.8948 17.1925 17.8948C18.1813 17.8948 18.9857 18.699 18.9857 19.6875V22.6239C18.9857 23.8072 19.9487 24.7699 21.1325 24.7699C22.3164 24.7699 23.2794 23.8072 23.2794 22.6239V14.2441C23.2794 13.9724 23.4998 13.752 23.7716 13.752C24.0434 13.752 24.2638 13.9724 24.2638 14.2441V22.6239C24.2638 24.35 22.8591 25.7543 21.1325 25.7543C19.406 25.7543 18.0013 24.3501 18.0013 22.6239V19.6875C18.0013 19.2418 17.6385 18.8792 17.1925 18.8792C16.7466 18.8792 16.3838 19.2418 16.3838 19.6875V25.4058C16.3838 26.837 15.2191 28.0013 13.7876 28.0013Z" fill="white"/>
<path d="M11.6854 20.8698C12.5084 20.8698 13.1755 20.2029 13.1755 19.3802C13.1755 18.5575 12.5084 17.8906 11.6854 17.8906C10.8625 17.8906 10.1953 18.5575 10.1953 19.3802C10.1953 20.2029 10.8625 20.8698 11.6854 20.8698Z" fill="#9BC100"/>
<path d="M18.6612 7.90565H18.1631V4.01791C18.1631 3.74613 17.9427 3.52572 17.6709 3.52572H14.9273V3.29297C14.9273 3.02118 14.7069 2.80078 14.4351 2.80078C14.1633 2.80078 13.9429 3.02118 13.9429 3.29297V4.74276C13.9429 5.01454 14.1633 5.23494 14.4351 5.23494C14.7069 5.23494 14.9273 5.01454 14.9273 4.74276V4.51005H17.1787V7.9056H16.6806C16.4088 7.9056 16.1885 8.126 16.1885 8.39779V10.7372C16.1885 13.2243 14.1643 15.2478 11.6762 15.2478C9.18823 15.2478 7.16406 13.2244 7.16406 10.7372V8.39779C7.16406 8.126 6.9437 7.9056 6.67187 7.9056H6.17382V4.5101H8.42524V4.74281C8.42524 5.01459 8.64559 5.23499 8.91742 5.23499C9.18926 5.23499 9.40961 5.01459 9.40961 4.74281V3.29297C9.40961 3.02118 9.18926 2.80078 8.91742 2.80078C8.64559 2.80078 8.42524 3.02118 8.42524 3.29297V3.52572H5.68164C5.4098 3.52572 5.18945 3.74613 5.18945 4.01791V7.90565H4.69141C4.41957 7.90565 4.19922 8.12605 4.19922 8.39784V10.7373C4.19922 14.8589 7.55343 18.2121 11.6763 18.2121C15.7991 18.2121 19.1533 14.8589 19.1533 10.7373V8.39784C19.1533 8.126 18.933 7.90565 18.6612 7.90565ZM18.169 10.7373C18.169 14.3161 15.2564 17.2277 11.6763 17.2277C8.09621 17.2277 5.18359 14.3161 5.18359 10.7373V8.89003H6.17968V10.7373C6.17968 13.7672 8.64544 16.2322 11.6762 16.2322C14.707 16.2322 17.1728 13.7672 17.1728 10.7373V8.89003H18.169V10.7373Z" fill="white"/>
<path d="M23.7496 14.4756C25.5616 14.4756 27.0305 13.0072 27.0305 11.1958C27.0305 9.38443 25.5616 7.91602 23.7496 7.91602C21.9376 7.91602 20.4688 9.38443 20.4688 11.1958C20.4688 13.0072 21.9376 14.4756 23.7496 14.4756Z" fill="#9BC100"/>
<path d="M23.7704 12.7686C22.9018 12.7686 22.1953 12.0622 22.1953 11.1938C22.1953 10.3255 22.9019 9.61914 23.7704 9.61914C24.6388 9.61914 25.3454 10.3256 25.3454 11.1938C25.3454 12.0622 24.6388 12.7686 23.7704 12.7686ZM23.7704 10.6035C23.4446 10.6035 23.1797 10.8684 23.1797 11.1938C23.1797 11.5194 23.4447 11.7842 23.7704 11.7842C24.096 11.7842 24.361 11.5194 24.361 11.1938C24.361 10.8684 24.096 10.6035 23.7704 10.6035Z" fill="white"/>
</g>
<defs>
<clipPath id="clip0_934_13753">
<rect width="26.6" height="26.6" fill="white" transform="translate(1.39844 1.40039)"/>
</clipPath>
</defs>
</svg>
