<svg width="28" height="28" viewBox="0 0 28 28" fill="none" xmlns="http://www.w3.org/2000/svg">
<mask id="mask0_934_13745" style="mask-type:alpha" maskUnits="userSpaceOnUse" x="0" y="0" width="28" height="28">
<rect width="28" height="28" fill="#C4C4C4"/>
</mask>
<g mask="url(#mask0_934_13745)">
<path d="M16.0765 9.32812V14.175H11.917V9.32812H9.05859V21.8802H11.917V17.0334H16.0765V21.8802H18.9348V9.32812H16.0765Z" fill="#9BC100"/>
<path d="M24.9674 6.78146H22.3698V4.55859H26.1063C26.3781 4.55859 26.5984 4.33819 26.5984 4.06641C26.5984 3.79462 26.3781 3.57422 26.1063 3.57422H1.89062C1.61879 3.57422 1.39844 3.79462 1.39844 4.06641C1.39844 4.33819 1.61879 4.55859 1.89062 4.55859H5.62707V6.78146H3.02945C2.13012 6.78146 1.39844 7.51314 1.39844 8.41252V22.7949C1.39844 23.6942 2.13012 24.4259 3.02945 24.4259H24.9674C25.8668 24.4259 26.5984 23.6942 26.5984 22.7949V8.41252C26.5984 7.51314 25.8668 6.78146 24.9674 6.78146ZM6.61144 4.55859H21.3854V6.78146H6.61144V4.55859ZM25.6141 22.7948C25.6141 23.1514 25.324 23.4415 24.9674 23.4415H3.02945C2.67286 23.4415 2.38281 23.1514 2.38281 22.7948V8.41252C2.38281 8.05593 2.67291 7.76583 3.02945 7.76583H24.9674C25.324 7.76583 25.6141 8.05593 25.6141 8.41252V22.7948Z" fill="white"/>
</g>
</svg>
