<svg width="30" height="30" viewBox="0 0 30 30" fill="none" xmlns="http://www.w3.org/2000/svg">
<path d="M20 3.6875C16.3812 3.6875 13.4375 6.63124 13.4375 10.25C13.4375 13.8687 16.3812 16.8125 20 16.8125C23.6187 16.8125 26.5625 13.8687 26.5625 10.25C26.5625 6.63124 23.6187 3.6875 20 3.6875ZM19.8509 9.67955L20.4474 9.86593C21.077 10.0627 21.5 10.6381 21.5 11.2976V11.5C21.5 12.2199 20.9901 12.8229 20.3125 12.967V13.125C20.3125 13.4011 20.0886 13.625 19.8125 13.625C19.5364 13.625 19.3125 13.4011 19.3125 13.125V12.8325C18.8304 12.5827 18.5 12.0794 18.5 11.5C18.5 11.2239 18.7239 11 19 11C19.2761 11 19.5 11.2239 19.5 11.5C19.5 11.7757 19.7243 12 20 12C20.2757 12 20.5 11.7757 20.5 11.5V11.2977C20.5 11.0778 20.359 10.8861 20.1491 10.8204L19.5526 10.6341C18.923 10.4373 18.5 9.86193 18.5 9.20236V8.99999C18.5 8.34818 18.9181 7.79243 19.5 7.58599V7.37499C19.5 7.09887 19.7239 6.87499 20 6.87499C20.2761 6.87499 20.5 7.09887 20.5 7.37499V7.58599C21.0819 7.79243 21.5 8.34818 21.5 8.99999C21.5 9.27611 21.2761 9.49999 21 9.49999C20.7239 9.49999 20.5 9.27611 20.5 8.99999C20.5 8.7243 20.2757 8.49999 20 8.49999C19.7243 8.49999 19.5 8.7243 19.5 8.99999V9.2023C19.5 9.42218 19.641 9.61393 19.8509 9.67955ZM24.6079 28.9999C23.237 28.9907 22.125 27.873 22.125 26.5V18.1479C22.125 17.8317 21.8349 17.5939 21.5253 17.6584C16.8834 18.6261 12.4375 15.0589 12.4375 10.25C12.4375 5.44243 16.882 1.87344 21.5253 2.84156C21.8349 2.90612 22.125 2.66825 22.125 2.35206V2C22.125 0.895436 21.2296 0 20.125 0H3.875C2.77044 0 1.875 0.895436 1.875 2V26.5C1.875 28.433 3.442 30 5.375 30H24.625C24.9145 30 25.1463 29.7542 25.1234 29.4599C25.103 29.1968 24.8717 29.0017 24.6079 28.9999ZM6.75 7.31249H11C11.2761 7.31249 11.5 7.53637 11.5 7.81249C11.5 8.08862 11.2761 8.31249 11 8.31249H6.75C6.47387 8.31249 6.25 8.08862 6.25 7.81249C6.25 7.53637 6.47387 7.31249 6.75 7.31249ZM6.75 12.9375H11C11.2761 12.9375 11.5 13.1614 11.5 13.4375C11.5 13.7136 11.2761 13.9375 11 13.9375H6.75C6.47387 13.9375 6.25 13.7136 6.25 13.4375C6.25 13.1614 6.47387 12.9375 6.75 12.9375ZM17.25 24.8125H6.75C6.47387 24.8125 6.25 24.5886 6.25 24.3125C6.25 24.0363 6.47387 23.8125 6.75 23.8125H17.25C17.5261 23.8125 17.75 24.0363 17.75 24.3125C17.75 24.5886 17.5261 24.8125 17.25 24.8125ZM17.25 19.5625H6.75C6.47387 19.5625 6.25 19.3386 6.25 19.0625C6.25 18.7864 6.47387 18.5625 6.75 18.5625H17.25C17.5261 18.5625 17.75 18.7864 17.75 19.0625C17.75 19.3386 17.5261 19.5625 17.25 19.5625ZM28.1231 25.7487C28.125 27.1306 27.005 28.2506 25.625 28.2506C24.2459 28.2506 23.1269 27.1331 23.1269 25.7525C23.1269 21.1342 23.1236 19.3348 23.1266 18.6224C23.1277 18.347 23.3512 18.125 23.6266 18.125H26.125C27.1625 18.125 28.0156 18.915 28.115 19.9262L28.1231 25.7487Z" fill="#DDDDDD"/>
</svg>
