<svg width="28" height="28" viewBox="0 0 28 28" fill="none" xmlns="http://www.w3.org/2000/svg">
<path d="M14.9729 17.1956C15.7873 16.4197 16.8898 15.9434 18.1035 15.9434C20.6105 15.9434 22.6428 17.9757 22.6428 20.4827C22.6428 22.9897 20.6105 25.022 18.1035 25.022C16.3329 25.022 14.7991 24.0083 14.0508 22.5296" fill="#9BC100"/>
<path d="M18.1187 18.2383C17.8612 18.2383 17.6523 18.4471 17.6523 18.7046V22.2566C17.6523 22.5141 17.8612 22.7229 18.1187 22.7229C18.3762 22.7229 18.585 22.5141 18.585 22.2566V18.7046C18.585 18.4471 18.3762 18.2383 18.1187 18.2383Z" fill="#333333"/>
<path d="M21.0235 7.54508C19.5445 6.06613 17.2905 5.82322 15.5569 6.81633C15.4261 3.80782 12.9301 1.40039 9.88072 1.40039C6.74794 1.40039 4.19922 3.94133 4.19922 7.06459V19.6114C4.19922 22.7346 6.74794 25.2756 9.88077 25.2756C13.0135 25.2756 15.5623 22.7346 15.5623 19.6114V14.6957C16.2573 15.0925 17.0358 15.291 17.8142 15.291C18.9764 15.291 20.1387 14.8486 21.0235 13.9638C22.793 12.1942 22.793 9.31474 21.0235 7.54508ZM9.88077 2.33302C12.4993 2.33302 14.6296 4.45562 14.6296 7.06459V7.52051C14.6213 7.52867 14.6131 7.53687 14.6048 7.54513C13.1655 8.98454 12.8969 11.1583 13.7991 12.8717H5.13184V7.06459C5.13184 4.45562 7.26219 2.33302 9.88077 2.33302ZM14.6296 19.6114C14.6296 22.2204 12.4993 24.343 9.88072 24.343C7.26214 24.343 5.13184 22.2204 5.13184 19.6114V13.8043H14.4528C14.5019 13.8584 14.5526 13.9116 14.6048 13.9638C14.613 13.972 14.6213 13.9802 14.6296 13.9884L14.6296 19.6114ZM20.364 13.3043C18.958 14.7102 16.6703 14.7102 15.2643 13.3043C13.8584 11.8983 13.8584 9.61057 15.2643 8.20459C15.9674 7.50153 16.8906 7.15012 17.8142 7.15012C18.7376 7.15012 19.6611 7.50167 20.3641 8.20459C21.7699 9.61057 21.7699 11.8983 20.364 13.3043Z" fill="#333333"/>
<path d="M18.5436 9.36505L16.4569 11.4518C16.2748 11.6339 16.2748 11.9292 16.4569 12.1113C16.548 12.2023 16.6673 12.2479 16.7866 12.2479C16.9059 12.2479 17.0253 12.2023 17.1163 12.1113L19.2031 10.0246C19.3852 9.84246 19.3852 9.54719 19.2031 9.36505C19.021 9.183 18.7258 9.183 18.5436 9.36505Z" fill="#333333"/>
</svg>
