<svg width="15" height="15" viewBox="0 0 15 15" fill="none" xmlns="http://www.w3.org/2000/svg">
<mask id="mask0_2427_118748" style="mask-type:alpha" maskUnits="userSpaceOnUse" x="0" y="0" width="15" height="15">
<rect width="15" height="15" fill="white"/>
</mask>
<g mask="url(#mask0_2427_118748)">
<mask id="mask1_2427_118748" style="mask-type:alpha" maskUnits="userSpaceOnUse" x="1" y="1" width="13" height="13">
<rect x="1.25" y="1.25" width="12.5" height="12.5" fill="#C4C4C4"/>
</mask>
<g mask="url(#mask1_2427_118748)">
<line x1="5.64576" y1="5.03125" x2="9.99054" y2="9.37603" stroke="#FF9556" stroke-width="0.8" stroke-linecap="round"/>
<path d="M3.42152 4.07853C3.51399 3.73343 3.78353 3.46389 4.12863 3.37142L8.37953 2.23239C8.72462 2.13993 9.09283 2.23859 9.34545 2.49121L12.4573 5.60309C12.7099 5.85571 12.8086 6.22392 12.7161 6.56901L11.5771 10.8199C11.4847 11.165 11.2151 11.4346 10.87 11.527L6.61911 12.666C6.27402 12.7585 5.90581 12.6598 5.65319 12.4072L2.54131 9.29535C2.28869 9.04273 2.19003 8.67452 2.28249 8.32942L3.42152 4.07853Z" stroke="#FF9556" stroke-width="0.8"/>
</g>
</g>
</svg>
