<svg width="15" height="15" viewBox="0 0 15 15" fill="none" xmlns="http://www.w3.org/2000/svg">
<path d="M7.5 15C11.635 15 15 11.635 15 7.5C15 3.36501 11.635 0 7.5 0C3.36497 0 0 3.36501 0 7.5C0 11.635 3.36501 15 7.5 15ZM7.5 0.999983C11.085 0.999983 14 3.91497 14 7.5C14 11.085 11.085 14 7.5 14C3.91497 14 0.999983 11.085 0.999983 7.5C0.999983 3.91497 3.91501 0.999983 7.5 0.999983Z" fill="#333333"/>
<path d="M9.68749 9.89C9.78001 9.96498 9.88998 10 9.99998 10C10.1475 10 10.2925 9.935 10.39 9.81251C10.5625 9.5975 10.5274 9.2825 10.3125 9.10999L7.99998 7.25999V3.49999C7.99998 3.22499 7.77499 3 7.49999 3C7.22499 3 7 3.22499 7 3.49999V7.50001C7 7.65252 7.07001 7.79501 7.1875 7.88999L9.68749 9.89Z" fill="#333333"/>
</svg>
