<svg width="14" height="14" viewBox="0 0 14 14" fill="none" xmlns="http://www.w3.org/2000/svg">
<path d="M8.06125 8.04946C8.07598 8.03473 8.08776 8.01706 8.09955 8.00233L10.4946 5.60135C11.0338 5.06223 11.3313 4.34046 11.3313 3.57156C11.3313 2.80266 11.0367 2.07794 10.4946 1.53883C9.37516 0.41935 7.55454 0.41935 6.43506 1.53883L4.04881 3.92508C4.02524 3.93686 4.00462 3.95454 3.98694 3.97221C3.96632 3.99284 3.95159 4.01346 3.93981 4.03408L1.53588 6.43801C0.996764 6.97712 0.699219 7.69889 0.699219 8.46779C0.699219 9.2367 0.996764 9.95846 1.53883 10.4976C2.08678 11.0367 2.80855 11.3342 3.57451 11.3342C4.34046 11.3342 5.06223 11.0367 5.61018 10.4976C5.61018 10.4976 5.61018 10.4976 5.61313 10.4946L8.01411 8.08482C8.03179 8.07598 8.04652 8.06419 8.06125 8.04946ZM6.85339 1.95716C7.29824 1.51231 7.88154 1.29136 8.4678 1.29136C9.0511 1.29136 9.63735 1.51231 10.0822 1.95716C10.5123 2.38727 10.748 2.95879 10.748 3.57156C10.748 4.18432 10.5123 4.75585 10.0822 5.18596L7.85208 7.42197L4.62033 4.19022L6.85339 1.95716ZM5.19775 10.0822C4.76174 10.5123 4.18433 10.748 3.57451 10.748C2.96469 10.748 2.39022 10.5123 1.95421 10.0822C1.5241 9.65503 1.28842 9.08056 1.28842 8.47074C1.28842 7.85797 1.5241 7.28645 1.95421 6.85634L4.20495 4.6056L7.43375 7.83735L5.19775 10.0822Z" fill="#FF9556"/>
<path d="M8.41869 8.4055C7.87958 8.94461 7.58203 9.66343 7.58203 10.4264C7.58203 11.1895 7.87958 11.9083 8.41869 12.4474C8.97548 13.0042 9.70609 13.2841 10.4396 13.2841C11.1702 13.2841 11.9038 13.0042 12.4606 12.4474C12.9997 11.9083 13.3002 11.1895 13.3002 10.4264C13.3002 9.66343 13.0027 8.94461 12.4606 8.4055C11.3441 7.29192 9.53228 7.29192 8.41869 8.4055ZM8.17123 10.4264C8.17123 9.81957 8.40691 9.251 8.83702 8.82383C9.27892 8.38193 9.85928 8.16098 10.4396 8.16098C10.9287 8.16098 11.4148 8.31712 11.8213 8.62939L8.63964 11.8081C8.3362 11.4134 8.17123 10.9302 8.17123 10.4264ZM12.0423 12.0291C11.6004 12.471 11.02 12.6919 10.4396 12.6919C9.95061 12.6919 9.46452 12.5358 9.05797 12.2235L12.2367 9.04478C12.5431 9.43954 12.7081 9.91974 12.7081 10.4264C12.7081 11.0304 12.4724 11.5989 12.0423 12.0291Z" fill="#FF9556"/>
</svg>
