<svg width="15" height="15" viewBox="0 0 15 15" fill="none" xmlns="http://www.w3.org/2000/svg">
<path d="M12.4804 2.60804C11.3353 0.950713 9.52045 0 7.50157 0C5.48269 0 3.66784 0.950713 2.52271 2.60804C1.38321 4.25698 1.12009 6.34459 1.81748 8.18897C2.00401 8.69265 2.30052 9.18199 2.69668 9.64055L7.10228 14.8154C7.20192 14.9325 7.34791 15 7.50157 15C7.65523 15 7.80122 14.9325 7.90086 14.8154L12.3052 9.64195C12.7031 9.18076 12.9993 8.69194 13.1843 8.19232C13.883 6.34459 13.6199 4.25698 12.4804 2.60804ZM12.2021 7.82499C12.0595 8.21048 11.8266 8.5916 11.5103 8.95819C11.5094 8.95907 11.5086 8.95995 11.5079 8.96101L7.50157 13.6666L3.49282 8.95805C3.17673 8.59178 2.94385 8.21068 2.7998 7.8215C2.22306 6.29616 2.44194 4.57011 3.38547 3.20455C4.33197 1.83463 5.83232 1.04895 7.50157 1.04895C9.17079 1.04895 10.671 1.8346 11.6175 3.20455C12.5612 4.57011 12.7803 6.29616 12.2021 7.82499Z" fill="#333333"/>
<path d="M7.49957 3.11328C5.88016 3.11328 4.5625 4.43076 4.5625 6.05036C4.5625 7.66995 5.87998 8.98743 7.49957 8.98743C9.11916 8.98743 10.4366 7.66995 10.4366 6.05036C10.4366 4.43094 9.11898 3.11328 7.49957 3.11328ZM7.49957 7.93845C6.45848 7.93845 5.61145 7.09142 5.61145 6.05033C5.61145 5.00923 6.45848 4.1622 7.49957 4.1622C8.54066 4.1622 9.3877 5.00923 9.3877 6.05033C9.3877 7.09142 8.54066 7.93845 7.49957 7.93845Z" fill="#333333"/>
</svg>
