<svg width="150" height="38" viewBox="0 0 150 38" fill="none" xmlns="http://www.w3.org/2000/svg">
<mask id="mask0_934_12251" style="mask-type:alpha" maskUnits="userSpaceOnUse" x="0" y="0" width="150" height="38">
<rect width="150" height="37.5" fill="#C4C4C4"/>
</mask>
<g mask="url(#mask0_934_12251)">
<path d="M41.5195 32.6269C41.5195 32.3737 41.6633 32.2422 41.95 32.2422C42.2367 32.2422 42.3805 32.3737 42.3805 32.6269V32.7831C42.3805 34.1297 43.4317 34.997 45.3912 34.9855C47.3042 34.9855 48.2125 34.2514 48.3195 33.2049C48.4274 32.1098 47.6857 31.6519 46.6859 31.3395L43.6375 30.3653C42.3584 29.9543 41.7131 29.258 41.7368 28.0191C41.7621 26.4801 43.0396 25.6621 45.2753 25.6621C47.9413 25.6621 48.9215 26.7925 48.9215 28.2008V28.357C48.9215 28.5732 48.8015 28.7179 48.5041 28.7179C48.1929 28.7179 48.0737 28.5732 48.0737 28.357V28.2599C48.0737 27.1526 46.9857 26.4316 45.3243 26.4316C43.7462 26.4316 42.5871 26.8879 42.5749 28.0182C42.5634 28.9686 43.1834 29.3788 44.0803 29.6797L47.2961 30.7016C48.7541 31.171 49.2442 32.0367 49.1747 33.1917C49.0784 34.697 47.9789 35.7665 45.4321 35.7665C42.1575 35.7665 41.5236 33.9982 41.5236 32.964L41.5195 32.6269Z" fill="white"/>
<path d="M50.7148 26.1853C50.7148 25.8244 50.8782 25.6682 51.2164 25.6682C51.4769 25.6365 51.7194 25.8072 51.7792 26.0644L55.3887 34.2936L58.9982 26.0644C59.1297 25.7652 59.262 25.6682 59.5487 25.6682C59.6909 25.6445 59.8357 25.6913 59.9376 25.7938C60.0395 25.8964 60.086 26.0421 60.0625 26.1853V35.3771C60.0625 35.6427 59.931 35.7734 59.6451 35.7734C59.3592 35.7734 59.2261 35.6427 59.2261 35.3771V30.3837C59.2261 29.4095 59.2383 28.2783 59.3339 27.3518H59.2849L55.8902 35.1618C55.8172 35.3721 55.6083 35.5025 55.3887 35.475C55.1708 35.495 54.9661 35.3671 54.8871 35.1618L51.4925 27.3518H51.4434C51.5398 28.2783 51.5513 29.4071 51.5513 30.3837V35.3763C51.5513 35.6419 51.4198 35.7726 51.1339 35.7726C50.848 35.7726 50.7148 35.6419 50.7148 35.3763V26.1853Z" fill="white"/>
<path fill-rule="evenodd" clip-rule="evenodd" d="M69.25 35.7468C69.5489 35.6638 69.6453 35.5076 69.5252 35.242L65.6878 25.9992C65.5923 25.7443 65.5236 25.6621 65.2574 25.6621C64.9911 25.6621 64.9225 25.7476 64.8277 25.9992L60.9666 35.2067C60.917 35.3009 60.9124 35.4127 60.9541 35.5108C60.9958 35.6088 61.0794 35.6826 61.1814 35.7114C61.4567 35.8323 61.6372 35.783 61.7189 35.5791L62.7244 33.1605H67.756L68.7125 35.4459C68.8195 35.7114 68.951 35.8298 69.25 35.7468ZM67.4177 32.3545H63.055L64.2182 29.5874C64.4935 28.9494 64.9223 27.9506 65.2335 27.1211H65.2686C65.5345 27.8053 65.8659 28.6035 66.1219 29.2202C66.1765 29.3518 66.2277 29.4752 66.2741 29.5874L67.4177 32.3545Z" fill="white"/>
<path fill-rule="evenodd" clip-rule="evenodd" d="M78.2776 35.5865C78.5414 35.4541 78.6003 35.2979 78.4688 35.034L76.4774 31.1924C77.4976 31.0179 78.2206 30.094 78.1502 29.0549V27.839C78.1502 26.5664 77.3873 25.6621 75.6181 25.6621H71.6859C71.3273 25.6621 71.1484 25.8183 71.1484 26.2031V35.2872C71.1484 35.5174 71.2554 35.6481 71.5658 35.6481C71.8762 35.6481 71.9963 35.5141 71.9963 35.2371V31.2787H75.5821L77.7058 35.3941C77.7423 35.5082 77.8305 35.5979 77.9434 35.6359C78.0563 35.6739 78.1804 35.6555 78.2776 35.5865ZM71.9999 30.474V26.4688L75.6094 26.4729C76.686 26.4729 77.2839 26.893 77.2839 28.0727V28.8298C77.2839 30.0062 76.686 30.474 75.6094 30.474H71.9999Z" fill="white"/>
<path d="M78.6448 25.6621H85.9243C86.1628 25.6621 86.2706 25.7575 86.2706 26.0584C86.2706 26.3592 86.1628 26.4563 85.9243 26.4563H82.6971V35.2379C82.6971 35.515 82.6007 35.649 82.278 35.649C81.9554 35.649 81.8606 35.5183 81.8606 35.2379V26.4563H78.6448C78.3933 26.4563 78.2969 26.3592 78.2969 26.0584C78.2969 25.7575 78.3933 25.6621 78.6448 25.6621Z" fill="white"/>
<path fill-rule="evenodd" clip-rule="evenodd" d="M91.819 25.5078C91.1974 25.5078 90.9336 25.7117 90.9336 26.3973V35.276C90.9336 35.5884 91.1353 35.8046 91.6385 35.8046C92.1417 35.8046 92.3565 35.5892 92.3565 35.1551V31.6555H95.4873C97.4959 31.6555 98.3797 30.4634 98.3797 29.0807V28.0826C98.3797 26.6982 97.4959 25.5078 95.4873 25.5078H91.819ZM95.4904 30.2947H92.371V26.8657H95.4904C96.2321 26.8657 96.9501 27.2151 96.9501 28.4425V28.7196C96.9501 29.9461 96.2321 30.2947 95.4904 30.2947Z" fill="white"/>
<path d="M99.7867 35.6624C99.3089 35.6624 99.1055 35.4445 99.1055 34.9636V26.205C99.1055 25.724 99.308 25.5078 99.7867 25.5078H105.464C105.873 25.5078 106.051 25.7002 106.051 26.1655C106.051 26.6308 105.872 26.8232 105.464 26.8232H100.514V29.7942H105.199C105.607 29.7942 105.784 29.9981 105.784 30.4519C105.784 30.9057 105.605 31.1269 105.199 31.1269H100.514V34.3256H105.578C105.986 34.3256 106.176 34.5312 106.176 34.9833C106.176 35.4355 105.985 35.6468 105.578 35.6468L99.7867 35.6624Z" fill="white"/>
<path d="M107.865 25.5078H114.846C115.24 25.5078 115.431 25.7002 115.431 26.1655C115.431 26.6308 115.24 26.8388 114.846 26.8388H112.06V35.165C112.06 35.5974 111.845 35.8128 111.355 35.8128C110.865 35.8128 110.65 35.5966 110.65 35.165V26.8429H107.864C107.455 26.8429 107.277 26.6505 107.277 26.1696C107.277 25.6887 107.459 25.5078 107.865 25.5078V25.5078Z" fill="white"/>
<path d="M119.18 26.0967C119.18 25.6528 119.395 25.4473 119.896 25.4473C120.398 25.4473 120.603 25.6528 120.603 26.0967V34.3999H125.156C125.565 34.3999 125.743 34.58 125.743 35.0576C125.743 35.5352 125.564 35.7153 125.156 35.7153H119.873C119.395 35.7153 119.181 35.4991 119.181 35.0181L119.18 26.0967Z" fill="white"/>
<path d="M126.332 35.2286V26.0967C126.332 25.6528 126.536 25.4473 127.039 25.4473C127.541 25.4473 127.743 25.6528 127.743 26.0967V35.2286C127.743 35.6627 127.541 35.8781 127.039 35.8781C126.536 35.8781 126.332 35.6618 126.332 35.2286Z" fill="white"/>
<path d="M129.398 35.0995V26.1444C129.398 25.6635 129.615 25.4473 130.081 25.4473H135.782C136.19 25.4473 136.368 25.6396 136.368 26.1049C136.368 26.5703 136.189 26.7626 135.782 26.7626H130.819V29.6737H135.518C135.926 29.6737 136.103 29.8792 136.103 30.3314C136.103 30.7835 135.924 30.9948 135.518 30.9948H130.819V35.0847C130.819 35.5303 130.604 35.7424 130.103 35.7424C129.601 35.7424 129.398 35.5451 129.398 35.0995H129.398Z" fill="white"/>
<path d="M138.252 35.6051C137.774 35.6051 137.57 35.3889 137.57 34.908V26.1444C137.57 25.6635 137.773 25.4473 138.252 25.4473H143.93C144.338 25.4473 144.515 25.6396 144.515 26.1049C144.515 26.5703 144.336 26.7626 143.93 26.7626H138.981V29.7353H143.667C144.075 29.7353 144.253 29.9392 144.253 30.393C144.253 30.8468 144.073 31.0663 143.667 31.0663H138.982V34.2832H144.046C144.454 34.2832 144.644 34.4871 144.644 34.9409C144.644 35.3947 144.453 35.5985 144.046 35.5985L138.252 35.6051Z" fill="white"/>
<mask id="mask1_934_12251" style="mask-type:alpha" maskUnits="userSpaceOnUse" x="0" y="0" width="38" height="38">
<rect width="37.5" height="37.5" fill="#C4C4C4"/>
</mask>
<g mask="url(#mask1_934_12251)">
<path d="M7.12063 28.9058L7.12062 28.9056C7.12063 28.8714 7.13049 28.8421 7.15327 28.8217C7.17565 28.8017 7.20722 28.7933 7.24446 28.7933C7.2817 28.7933 7.31327 28.8017 7.33564 28.8217C7.35842 28.8421 7.36829 28.8714 7.36829 28.9056V28.9431C7.36829 29.0988 7.42909 29.2255 7.54618 29.3135C7.66397 29.4021 7.84069 29.4529 8.07441 29.4516L8.07453 29.4516C8.30304 29.4516 8.46887 29.4079 8.58013 29.3353C8.69067 29.2633 8.74867 29.1619 8.76097 29.0422L8.78087 29.0443M7.12063 28.9058L7.19303 27.7999M7.12063 28.9058L7.12161 28.9865H7.14161M7.12063 28.9058L7.65151 28.3629L8.38681 28.5967C8.62797 28.6716 8.80687 28.7815 8.78087 29.0443M8.78087 29.0443L8.76096 29.0423C8.77341 28.9165 8.73703 28.8295 8.67008 28.7644C8.60197 28.6981 8.50075 28.653 8.38088 28.6158L8.38075 28.6157L7.64545 28.382L7.64542 28.382C7.48922 28.332 7.36924 28.264 7.28912 28.1688C7.20863 28.0731 7.17011 27.952 7.17304 27.7995M8.78087 29.0443C8.75506 29.2954 8.53596 29.4716 8.07453 29.4716C7.60186 29.4743 7.34829 29.2662 7.34829 28.9431V28.9056C7.34829 28.8448 7.31361 28.8133 7.24446 28.8133C7.1753 28.8133 7.14062 28.8448 7.14062 28.9056L7.14161 28.9865M7.17304 27.7995L7.19303 27.7999M7.17304 27.7995C7.17304 27.7996 7.17304 27.7996 7.17304 27.7996L7.19303 27.7999M7.17304 27.7995C7.17621 27.6085 7.258 27.4609 7.40889 27.3619C7.55868 27.2637 7.77498 27.2144 8.04655 27.2144C8.37049 27.2144 8.59548 27.2826 8.73986 27.3965C8.88496 27.511 8.94607 27.6695 8.94607 27.8435V27.881C8.94607 27.9106 8.93774 27.9383 8.91629 27.9584C8.89507 27.9782 8.86419 27.9876 8.82539 27.9876C8.78514 27.9876 8.75348 27.9783 8.73183 27.9585C8.70985 27.9384 8.70156 27.9106 8.70156 27.881V27.8577C8.70156 27.7324 8.64008 27.6287 8.52922 27.5554C8.41777 27.4818 8.25619 27.439 8.05837 27.439C7.86941 27.439 7.70808 27.4663 7.59437 27.5254C7.4819 27.5839 7.41657 27.673 7.41518 27.8L7.41518 27.8C7.41386 27.9089 7.44863 27.9851 7.5085 28.0432C7.56926 28.1021 7.65717 28.1436 7.76448 28.1794M7.19303 27.7999C7.19914 27.4307 7.50729 27.2344 8.04655 27.2344C8.68964 27.2344 8.92607 27.5056 8.92607 27.8435V27.881C8.92607 27.9329 8.89711 27.9676 8.82539 27.9676C8.75033 27.9676 8.72156 27.9329 8.72156 27.881V27.8577C8.72156 27.592 8.45912 27.419 8.05837 27.419C7.67772 27.419 7.39814 27.5285 7.39518 27.7997C7.39242 28.0278 7.54197 28.1262 7.7583 28.1984M7.76448 28.1794L7.76433 28.1793L7.7583 28.1984M7.76448 28.1794C7.76453 28.1794 7.76458 28.1794 7.76463 28.1794L7.7583 28.1984M7.76448 28.1794L8.53399 28.4436L7.7583 28.1984M7.14161 28.9865C7.14161 29.2346 7.2945 29.659 8.08438 29.659C8.69871 29.659 8.9639 29.4023 8.98715 29.0411L7.12161 28.9866L7.12161 28.9867L7.14161 28.9865Z" fill="white" stroke="white" stroke-width="0.04"/>
<path d="M11.3235 27.3189L11.3235 27.3189L10.4711 29.252L9.6195 27.3206C9.60213 27.2504 9.53543 27.2038 9.46354 27.2119C9.42062 27.2121 9.38456 27.2221 9.35945 27.2474C9.33415 27.2729 9.32375 27.3101 9.32375 27.356V29.5614C9.32375 29.5964 9.3326 29.6264 9.35466 29.6474C9.37651 29.6681 9.40772 29.6765 9.44482 29.6765C9.48192 29.6765 9.51307 29.6681 9.53484 29.6473C9.55679 29.6264 9.5655 29.5963 9.5655 29.5614V28.3634C9.5655 28.1595 9.56342 27.927 9.54746 27.7228L10.3317 29.5176C10.3538 29.5742 10.4103 29.6098 10.4708 29.6052C10.5321 29.6118 10.59 29.5755 10.6107 29.5173L11.3949 27.7226C11.379 27.927 11.3768 28.1599 11.3768 28.3634V29.5616C11.3768 29.5966 11.3856 29.6266 11.4077 29.6476C11.4295 29.6683 11.4607 29.6767 11.4978 29.6767C11.5349 29.6767 11.5661 29.6683 11.5878 29.6475C11.6098 29.6265 11.6185 29.5965 11.6185 29.5616V27.3576C11.6246 27.3174 11.6113 27.2767 11.5825 27.2479C11.5538 27.2192 11.5131 27.2058 11.473 27.2119C11.437 27.2121 11.4075 27.2183 11.3825 27.2363C11.3576 27.2542 11.3399 27.2819 11.3235 27.3189Z" fill="white" stroke="white" stroke-width="0.04"/>
<mask id="path-17-outside-1_934_12251" maskUnits="userSpaceOnUse" x="10.8828" y="26.2324" width="4" height="4" fill="black">
<rect fill="white" x="10.8828" y="26.2324" width="4" height="4"/>
<path fill-rule="evenodd" clip-rule="evenodd" d="M13.8907 29.6523C13.9628 29.6323 13.9861 29.5949 13.9571 29.5311L13.0315 27.3133C13.0084 27.2521 12.9919 27.2324 12.9276 27.2324C12.8634 27.2324 12.8469 27.2529 12.824 27.3133L11.8927 29.5227C11.8807 29.5453 11.8796 29.5721 11.8896 29.5956C11.8997 29.6192 11.9199 29.6369 11.9445 29.6438C12.0109 29.6728 12.0544 29.6609 12.0741 29.612L12.3167 29.0317H13.5303L13.7611 29.5801C13.7869 29.6438 13.8186 29.6722 13.8907 29.6523ZM13.4504 28.8381H12.3981L12.6787 28.1741C12.7451 28.021 12.8485 27.7813 12.9236 27.5823H12.9321C12.9962 27.7465 13.0761 27.938 13.1379 28.086C13.1511 28.1176 13.1634 28.1472 13.1746 28.1741L13.4504 28.8381Z"/>
</mask>
<path fill-rule="evenodd" clip-rule="evenodd" d="M13.8907 29.6523C13.9628 29.6323 13.9861 29.5949 13.9571 29.5311L13.0315 27.3133C13.0084 27.2521 12.9919 27.2324 12.9276 27.2324C12.8634 27.2324 12.8469 27.2529 12.824 27.3133L11.8927 29.5227C11.8807 29.5453 11.8796 29.5721 11.8896 29.5956C11.8997 29.6192 11.9199 29.6369 11.9445 29.6438C12.0109 29.6728 12.0544 29.6609 12.0741 29.612L12.3167 29.0317H13.5303L13.7611 29.5801C13.7869 29.6438 13.8186 29.6722 13.8907 29.6523ZM13.4504 28.8381H12.3981L12.6787 28.1741C12.7451 28.021 12.8485 27.7813 12.9236 27.5823H12.9321C12.9962 27.7465 13.0761 27.938 13.1379 28.086C13.1511 28.1176 13.1634 28.1472 13.1746 28.1741L13.4504 28.8381Z" fill="white"/>
<path d="M13.9571 29.5311L13.9202 29.5466L13.9207 29.5477L13.9571 29.5311ZM13.8907 29.6523L13.9014 29.6908L13.8907 29.6523ZM13.0315 27.3133L12.994 27.3274L12.9946 27.3287L13.0315 27.3133ZM12.824 27.3133L12.8609 27.3288L12.8614 27.3275L12.824 27.3133ZM11.8927 29.5227L11.9281 29.5415L11.9295 29.5382L11.8927 29.5227ZM11.8896 29.5956L11.8529 29.6114H11.8529L11.8896 29.5956ZM11.9445 29.6438L11.9606 29.6068L11.9553 29.6053L11.9445 29.6438ZM12.0741 29.612L12.0372 29.5966L12.037 29.5971L12.0741 29.612ZM12.3167 29.0317V28.9917H12.29L12.2798 29.0162L12.3167 29.0317ZM13.5303 29.0317L13.5672 29.0162L13.5569 28.9917H13.5303V29.0317ZM13.7611 29.5801L13.7981 29.5651L13.7979 29.5646L13.7611 29.5801ZM12.3981 28.8381L12.3613 28.8225L12.3378 28.8781H12.3981V28.8381ZM13.4504 28.8381V28.8781H13.5104L13.4874 28.8227L13.4504 28.8381ZM12.6787 28.1741L12.642 28.1582L12.6418 28.1585L12.6787 28.1741ZM12.9236 27.5823V27.5423H12.8959L12.8862 27.5682L12.9236 27.5823ZM12.9321 27.5823L12.9693 27.5677L12.9594 27.5423H12.9321V27.5823ZM13.1379 28.086L13.101 28.1014L13.101 28.1014L13.1379 28.086ZM13.1746 28.1741L13.2115 28.1587L13.2115 28.1587L13.1746 28.1741ZM13.9207 29.5477C13.9327 29.5741 13.9292 29.5846 13.927 29.5884C13.9237 29.5942 13.9128 29.6047 13.88 29.6137L13.9014 29.6908C13.9407 29.68 13.9775 29.6617 13.9966 29.6278C14.0169 29.592 14.0105 29.5519 13.9935 29.5146L13.9207 29.5477ZM12.9946 27.3287L13.9202 29.5466L13.994 29.5157L13.0684 27.2979L12.9946 27.3287ZM12.9276 27.2724C12.9566 27.2724 12.9652 27.2771 12.9693 27.2806C12.9754 27.2857 12.9823 27.2964 12.994 27.3274L13.0689 27.2992C13.0576 27.2691 13.0447 27.2393 13.0206 27.2192C12.9947 27.1976 12.9629 27.1924 12.9276 27.1924V27.2724ZM12.8614 27.3275C12.873 27.2968 12.8799 27.286 12.8861 27.2808C12.8904 27.2772 12.8989 27.2724 12.9276 27.2724V27.1924C12.8921 27.1924 12.8603 27.1979 12.8345 27.2197C12.8106 27.2398 12.7978 27.2694 12.7866 27.2991L12.8614 27.3275ZM11.9295 29.5382L12.8609 27.3288L12.7871 27.2978L11.8558 29.5071L11.9295 29.5382ZM11.9264 29.5799C11.9211 29.5675 11.9217 29.5533 11.928 29.5414L11.8573 29.5039C11.8397 29.5372 11.838 29.5767 11.8529 29.6114L11.9264 29.5799ZM11.9553 29.6053C11.9424 29.6016 11.9317 29.5923 11.9264 29.5799L11.8529 29.6114C11.8677 29.646 11.8974 29.6721 11.9337 29.6823L11.9553 29.6053ZM12.037 29.5971C12.0309 29.6123 12.0238 29.6166 12.017 29.6183C12.0077 29.6207 11.99 29.62 11.9605 29.6071L11.9285 29.6804C11.9654 29.6966 12.0026 29.7045 12.0366 29.6959C12.0731 29.6867 12.0977 29.6607 12.1112 29.627L12.037 29.5971ZM12.2798 29.0162L12.0372 29.5966L12.111 29.6275L12.3536 29.0471L12.2798 29.0162ZM13.5303 28.9917H12.3167V29.0717H13.5303V28.9917ZM13.7979 29.5646L13.5672 29.0162L13.4935 29.0472L13.7242 29.5956L13.7979 29.5646ZM13.88 29.6137C13.8498 29.6221 13.8367 29.618 13.8297 29.6136C13.8207 29.608 13.8103 29.595 13.7981 29.5651L13.724 29.5951C13.7376 29.6288 13.756 29.6619 13.7874 29.6815C13.8206 29.7022 13.8595 29.7024 13.9014 29.6908L13.88 29.6137ZM12.3981 28.8781H13.4504V28.7981H12.3981V28.8781ZM12.6418 28.1585L12.3613 28.8225L12.435 28.8536L12.7155 28.1896L12.6418 28.1585ZM12.8862 27.5682C12.8115 27.7662 12.7084 28.005 12.642 28.1582L12.7154 28.19C12.7817 28.037 12.8856 27.7965 12.961 27.5964L12.8862 27.5682ZM12.9321 27.5423H12.9236V27.6223H12.9321V27.5423ZM13.1748 28.0706C13.113 27.9225 13.0333 27.7314 12.9693 27.5677L12.8948 27.5968C12.9591 27.7615 13.0393 27.9535 13.101 28.1014L13.1748 28.0706ZM13.2115 28.1587C13.2003 28.1318 13.188 28.1021 13.1748 28.0706L13.101 28.1014C13.1141 28.133 13.1265 28.1625 13.1377 28.1894L13.2115 28.1587ZM13.4874 28.8227L13.2115 28.1587L13.1377 28.1894L13.4135 28.8534L13.4874 28.8227Z" fill="white" mask="url(#path-17-outside-1_934_12251)"/>
<mask id="path-19-outside-2_934_12251" maskUnits="userSpaceOnUse" x="13.2461" y="26.2617" width="3" height="4" fill="black">
<rect fill="white" x="13.2461" y="26.2617" width="3" height="4"/>
<path fill-rule="evenodd" clip-rule="evenodd" d="M15.9657 29.6431C16.0294 29.6113 16.0436 29.5739 16.0118 29.5105L15.5315 28.5887C15.7776 28.5469 15.952 28.3252 15.935 28.0758V27.7841C15.935 27.4787 15.751 27.2617 15.3242 27.2617H14.3757C14.2892 27.2617 14.2461 27.2992 14.2461 27.3915V29.5713C14.2461 29.6265 14.2719 29.6579 14.3468 29.6579C14.4216 29.6579 14.4506 29.6257 14.4506 29.5593V28.6094H15.3156L15.8278 29.5969C15.8366 29.6243 15.8579 29.6458 15.8851 29.655C15.9123 29.6641 15.9423 29.6597 15.9657 29.6431ZM14.4501 28.4164V27.4553L15.3208 27.4563C15.5805 27.4563 15.7247 27.5571 15.7247 27.8402V28.0218C15.7247 28.3041 15.5805 28.4164 15.3208 28.4164H14.4501Z"/>
</mask>
<path fill-rule="evenodd" clip-rule="evenodd" d="M15.9657 29.6431C16.0294 29.6113 16.0436 29.5739 16.0118 29.5105L15.5315 28.5887C15.7776 28.5469 15.952 28.3252 15.935 28.0758V27.7841C15.935 27.4787 15.751 27.2617 15.3242 27.2617H14.3757C14.2892 27.2617 14.2461 27.2992 14.2461 27.3915V29.5713C14.2461 29.6265 14.2719 29.6579 14.3468 29.6579C14.4216 29.6579 14.4506 29.6257 14.4506 29.5593V28.6094H15.3156L15.8278 29.5969C15.8366 29.6243 15.8579 29.6458 15.8851 29.655C15.9123 29.6641 15.9423 29.6597 15.9657 29.6431ZM14.4501 28.4164V27.4553L15.3208 27.4563C15.5805 27.4563 15.7247 27.5571 15.7247 27.8402V28.0218C15.7247 28.3041 15.5805 28.4164 15.3208 28.4164H14.4501Z" fill="white"/>
<path d="M16.0118 29.5105L16.0476 29.4926L16.0473 29.4921L16.0118 29.5105ZM15.9657 29.6431L15.9477 29.6069L15.9427 29.6104L15.9657 29.6431ZM15.5315 28.5887L15.5248 28.5493L15.4706 28.5585L15.496 28.6072L15.5315 28.5887ZM15.935 28.0758H15.8949L15.8951 28.0785L15.935 28.0758ZM14.4506 28.6094V28.5694H14.4106V28.6094H14.4506ZM15.3156 28.6094L15.3511 28.591L15.3399 28.5694H15.3156V28.6094ZM15.8278 29.5969L15.8664 29.5845L15.8633 29.5785L15.8278 29.5969ZM14.4501 27.4553L14.4502 27.4153L14.4101 27.4152V27.4553H14.4501ZM14.4501 28.4164H14.4101V28.4564H14.4501V28.4164ZM15.3208 27.4563L15.3207 27.4963H15.3208V27.4563ZM15.9761 29.5285C15.99 29.5563 15.989 29.5692 15.9868 29.5753C15.9845 29.5819 15.9765 29.593 15.9479 29.6073L15.9836 29.6789C16.0186 29.6614 16.0495 29.638 16.0623 29.602C16.0752 29.5656 16.0654 29.5281 16.0476 29.4926L15.9761 29.5285ZM15.496 28.6072L15.9764 29.529L16.0473 29.4921L15.567 28.5702L15.496 28.6072ZM15.8951 28.0785C15.9107 28.3074 15.7506 28.5109 15.5248 28.5493L15.5382 28.6282C15.8046 28.5828 15.9933 28.3429 15.9749 28.0731L15.8951 28.0785ZM15.895 27.7841V28.0758H15.975V27.7841H15.895ZM15.3242 27.3017C15.5312 27.3017 15.6728 27.3543 15.7624 27.4377C15.8516 27.5207 15.895 27.6395 15.895 27.7841H15.975C15.975 27.6233 15.9264 27.4809 15.8169 27.3791C15.7078 27.2776 15.544 27.2217 15.3242 27.2217V27.3017ZM14.3757 27.3017H15.3242V27.2217H14.3757V27.3017ZM14.2861 27.3915C14.2861 27.3508 14.2957 27.331 14.3063 27.3207C14.3172 27.3102 14.3373 27.3017 14.3757 27.3017V27.2217C14.3277 27.2217 14.283 27.232 14.2507 27.2633C14.2181 27.2948 14.2061 27.3399 14.2061 27.3915H14.2861ZM14.2861 29.5713V27.3915H14.2061V29.5713H14.2861ZM14.3468 29.6179C14.3138 29.6179 14.3007 29.6108 14.2956 29.6061C14.2913 29.602 14.2861 29.5934 14.2861 29.5713H14.2061C14.2061 29.6045 14.2138 29.6392 14.2411 29.6646C14.2676 29.6893 14.3049 29.6979 14.3468 29.6979V29.6179ZM14.4106 29.5593C14.4106 29.5877 14.4043 29.5995 14.3987 29.605C14.3929 29.6107 14.3796 29.6179 14.3468 29.6179V29.6979C14.3888 29.6979 14.4274 29.689 14.4548 29.662C14.4824 29.6348 14.4906 29.5973 14.4906 29.5593H14.4106ZM14.4106 28.6094V29.5593H14.4906V28.6094H14.4106ZM15.3156 28.5694H14.4506V28.6494H15.3156V28.5694ZM15.8633 29.5785L15.3511 28.591L15.28 28.6279L15.7923 29.6154L15.8633 29.5785ZM15.8978 29.617C15.8827 29.612 15.8708 29.6 15.8659 29.5847L15.7897 29.6092C15.8024 29.6486 15.8331 29.6797 15.8724 29.6929L15.8978 29.617ZM15.9427 29.6104C15.9296 29.6196 15.913 29.6221 15.8978 29.617L15.8724 29.6929C15.9117 29.706 15.955 29.6997 15.9888 29.6758L15.9427 29.6104ZM14.4101 27.4553V28.4164H14.4901V27.4553H14.4101ZM15.3208 27.4163L14.4502 27.4153L14.4501 27.4953L15.3207 27.4963L15.3208 27.4163ZM15.7647 27.8402C15.7647 27.6923 15.7269 27.5831 15.6466 27.5121C15.5674 27.442 15.4545 27.4163 15.3208 27.4163V27.4963C15.4467 27.4963 15.5358 27.5209 15.5936 27.572C15.6503 27.6222 15.6847 27.7049 15.6847 27.8402H15.7647ZM15.7647 28.0218V27.8402H15.6847V28.0218H15.7647ZM15.3208 28.4564C15.4554 28.4564 15.5682 28.4274 15.6473 28.3543C15.7269 28.2807 15.7647 28.1694 15.7647 28.0218H15.6847C15.6847 28.1566 15.6503 28.2425 15.593 28.2956C15.535 28.3492 15.4458 28.3764 15.3208 28.3764V28.4564ZM14.4501 28.4564H15.3208V28.3764H14.4501V28.4564Z" fill="white" mask="url(#path-19-outside-2_934_12251)"/>
<path d="M17.9726 27.2417H16.2167C16.1847 27.2417 16.1564 27.2476 16.1372 27.2687C16.1185 27.2893 16.1128 27.3197 16.1128 27.3568C16.1128 27.3939 16.1185 27.4244 16.1372 27.445C16.1564 27.4663 16.1847 27.4723 16.2167 27.4723H16.9724V29.5595C16.9724 29.5944 16.9782 29.6258 16.9991 29.6478C17.0202 29.67 17.0523 29.6781 17.0931 29.6781C17.1341 29.6781 17.1662 29.6698 17.1873 29.6475C17.2083 29.6254 17.2142 29.5942 17.2142 29.5595V27.4723H17.9726C18.0035 27.4723 18.0313 27.4661 18.0507 27.4452C18.0696 27.4247 18.0762 27.3944 18.0762 27.3568C18.0762 27.3192 18.0696 27.289 18.0506 27.2686C18.0313 27.2477 18.0034 27.2417 17.9726 27.2417Z" fill="white" stroke="white" stroke-width="0.04"/>
<mask id="path-22-outside-3_934_12251" maskUnits="userSpaceOnUse" x="6.14062" y="29.627" width="3" height="4" fill="black">
<rect fill="white" x="6.14062" y="29.627" width="3" height="4"/>
<path fill-rule="evenodd" clip-rule="evenodd" d="M7.3542 30.627C7.20426 30.627 7.14062 30.6759 7.14062 30.8404V32.9708C7.14062 33.0458 7.18929 33.0977 7.31066 33.0977C7.43203 33.0977 7.48384 33.046 7.48384 32.9419V32.1021H8.23904C8.72353 32.1021 8.93671 31.8161 8.93671 31.4843V31.2448C8.93671 30.9126 8.72353 30.627 8.23904 30.627H7.3542ZM8.23835 31.7754H7.48591V30.9526H8.23835C8.41725 30.9526 8.59044 31.0365 8.59044 31.331V31.3974C8.59044 31.6918 8.41725 31.7754 8.23835 31.7754Z"/>
</mask>
<path fill-rule="evenodd" clip-rule="evenodd" d="M7.3542 30.627C7.20426 30.627 7.14062 30.6759 7.14062 30.8404V32.9708C7.14062 33.0458 7.18929 33.0977 7.31066 33.0977C7.43203 33.0977 7.48384 33.046 7.48384 32.9419V32.1021H8.23904C8.72353 32.1021 8.93671 31.8161 8.93671 31.4843V31.2448C8.93671 30.9126 8.72353 30.627 8.23904 30.627H7.3542ZM8.23835 31.7754H7.48591V30.9526H8.23835C8.41725 30.9526 8.59044 31.0365 8.59044 31.331V31.3974C8.59044 31.6918 8.41725 31.7754 8.23835 31.7754Z" fill="white"/>
<path d="M7.48384 32.1021V32.0621H7.44384V32.1021H7.48384ZM7.48591 31.7754H7.44591V31.8154H7.48591V31.7754ZM7.48591 30.9526V30.9126H7.44591V30.9526H7.48591ZM7.18062 30.8404C7.18062 30.7616 7.19621 30.7223 7.21868 30.701C7.24166 30.6793 7.28153 30.667 7.3542 30.667V30.587C7.27694 30.587 7.21002 30.5991 7.16369 30.6429C7.11686 30.6873 7.10063 30.7547 7.10063 30.8404H7.18062ZM7.18062 32.9708V30.8404H7.10063V32.9708H7.18062ZM7.31066 33.0577C7.25482 33.0577 7.22285 33.0456 7.20544 33.0314C7.18939 33.0183 7.18062 32.9992 7.18062 32.9708H7.10063C7.10063 33.0175 7.11619 33.0618 7.15482 33.0934C7.19208 33.1238 7.24513 33.1377 7.31066 33.1377V33.0577ZM7.44384 32.9419C7.44384 32.9878 7.43248 33.0139 7.41565 33.0294C7.39811 33.0456 7.36671 33.0577 7.31066 33.0577V33.1377C7.37597 33.1377 7.43117 33.1239 7.46988 33.0882C7.5093 33.0519 7.52384 33.0001 7.52384 32.9419H7.44384ZM7.44384 32.1021V32.9419H7.52384V32.1021H7.44384ZM8.23904 32.0621H7.48384V32.1421H8.23904V32.0621ZM8.89671 31.4843C8.89671 31.6417 8.84627 31.7851 8.74139 31.8892C8.63667 31.9931 8.47331 32.0621 8.23904 32.0621V32.1421C8.48927 32.1421 8.67474 32.0681 8.79774 31.946C8.92057 31.8241 8.97671 31.6587 8.97671 31.4843H8.89671ZM8.89671 31.2448V31.4843H8.97671V31.2448H8.89671ZM8.23904 30.667C8.47332 30.667 8.63668 30.7358 8.74139 30.8397C8.84626 30.9437 8.89671 31.0872 8.89671 31.2448H8.97671C8.97671 31.0702 8.92057 30.9047 8.79773 30.7829C8.67473 30.6609 8.48925 30.587 8.23904 30.587V30.667ZM7.3542 30.667H8.23904V30.587H7.3542V30.667ZM7.48591 31.8154H8.23835V31.7354H7.48591V31.8154ZM7.44591 30.9526V31.7754H7.52591V30.9526H7.44591ZM8.23835 30.9126H7.48591V30.9926H8.23835V30.9126ZM8.63044 31.331C8.63044 31.1757 8.5845 31.0687 8.50791 31.0013C8.43228 30.9348 8.33328 30.9126 8.23835 30.9126V30.9926C8.32232 30.9926 8.39936 31.0124 8.45506 31.0614C8.50978 31.1095 8.55044 31.1917 8.55044 31.331H8.63044ZM8.63044 31.3974V31.331H8.55044V31.3974H8.63044ZM8.23835 31.8154C8.33326 31.8154 8.43226 31.7933 8.50789 31.7268C8.5845 31.6595 8.63044 31.5526 8.63044 31.3974H8.55044C8.55044 31.5366 8.50978 31.6187 8.45508 31.6668C8.39938 31.7157 8.32234 31.7354 8.23835 31.7354V31.8154Z" fill="white" mask="url(#path-22-outside-3_934_12251)"/>
<path d="M9.39094 33.0836H9.39088C9.33067 33.0836 9.28318 33.07 9.25114 33.0369C9.21924 33.004 9.20656 32.9559 9.20656 32.8959V30.7942C9.20656 30.7343 9.21918 30.6862 9.25109 30.6534C9.28312 30.6204 9.33062 30.607 9.39088 30.607H10.7604C10.8124 30.607 10.8545 30.6191 10.8829 30.6506C10.9109 30.6815 10.9219 30.7271 10.9219 30.7848C10.9219 30.8425 10.9109 30.888 10.8828 30.919C10.8544 30.9504 10.8123 30.9626 10.7604 30.9626H9.58624V31.6355H10.6964C10.7487 31.6355 10.7906 31.6485 10.8188 31.6803C10.8465 31.7115 10.8574 31.7569 10.8574 31.8133C10.8574 31.8698 10.8464 31.916 10.8188 31.9481C10.7907 31.9809 10.7489 31.9953 10.6964 31.9953H9.58624V32.7228H10.7878C10.8401 32.7228 10.8826 32.736 10.9116 32.7675C10.9402 32.7987 10.952 32.8441 10.952 32.9006C10.952 32.9572 10.9401 33.0029 10.9115 33.0343C10.8826 33.0662 10.8401 33.0798 10.7878 33.0798L9.39094 33.0836ZM9.39094 33.0836L10.7878 33.0798L9.39094 33.0836Z" fill="white" stroke="white" stroke-width="0.04"/>
<path d="M11.231 30.6076C11.1886 30.6103 11.1536 30.6225 11.1287 30.6496C11.1005 30.6804 11.0894 30.7263 11.0894 30.7858C11.0894 30.8452 11.1003 30.8916 11.1282 30.9231C11.1567 30.9551 11.1988 30.9673 11.2508 30.9673H11.9029V32.9442C11.9029 32.9991 11.9167 33.0443 11.9499 33.0754C11.9829 33.1062 12.0314 33.1197 12.0929 33.1197C12.1545 33.1197 12.2029 33.1063 12.2359 33.0755C12.2692 33.0444 12.283 32.9992 12.283 32.9442V30.9663H12.935C12.9859 30.9663 13.0276 30.9529 13.0561 30.9207C13.0842 30.889 13.0961 30.8428 13.0961 30.7848C13.0961 30.7268 13.0842 30.6813 13.0559 30.6505C13.0272 30.6192 12.9855 30.607 12.935 30.607H11.251H11.231V30.6076Z" fill="white" stroke="white" stroke-width="0.04"/>
<path d="M13.9807 30.6345C14.0141 30.604 14.0633 30.5913 14.1259 30.5913C14.1885 30.5913 14.2372 30.604 14.2701 30.6347C14.3034 30.6657 14.3163 30.7112 14.3163 30.7672V32.7395H15.3948C15.4464 32.7395 15.4886 32.7508 15.5172 32.7819C15.5453 32.8126 15.5562 32.8583 15.5562 32.9174C15.5562 32.9764 15.5453 33.0221 15.5171 33.0528C15.4885 33.0839 15.4464 33.0952 15.3948 33.0952H14.1204C14.0602 33.0952 14.0122 33.0817 13.9795 33.0489C13.9468 33.0162 13.9333 32.9681 13.9333 32.9079L13.9807 30.6345ZM13.9807 30.6345C13.9468 30.6655 13.9331 30.711 13.9331 30.7672M13.9807 30.6345L13.9331 30.7672M13.9331 30.7672L13.9333 32.9079L13.9331 30.7672Z" fill="white" stroke="white" stroke-width="0.04"/>
<path d="M15.7769 30.7672V32.9584C15.7769 33.0132 15.7899 33.0586 15.8229 33.0898C15.8557 33.1208 15.9044 33.1342 15.9673 33.1342C16.0302 33.1342 16.0788 33.1209 16.1115 33.0899C16.1445 33.0586 16.1573 33.0132 16.1573 32.9584V30.7672C16.1573 30.7113 16.1445 30.6657 16.1114 30.6347C16.0786 30.604 16.03 30.5913 15.9673 30.5913C15.9046 30.5913 15.8559 30.604 15.823 30.6347C15.7898 30.6657 15.7769 30.7112 15.7769 30.7672Z" fill="white" stroke="white" stroke-width="0.04"/>
<path d="M16.5236 32.9748C16.5264 33.0216 16.5398 33.0598 16.569 33.0867C16.6018 33.1169 16.6504 33.129 16.7128 33.129C16.7755 33.129 16.8248 33.1159 16.8582 33.0849C16.8919 33.0535 16.9056 33.0076 16.9056 32.9512V31.9898H18.0191C18.0713 31.9898 18.1132 31.9762 18.1414 31.9441C18.1691 31.9125 18.1802 31.8669 18.1802 31.8106C18.1802 31.7544 18.1692 31.709 18.1415 31.6778C18.1133 31.646 18.0714 31.6328 18.0191 31.6328H16.9056V30.9743H18.0827C18.1346 30.9743 18.1767 30.9621 18.2052 30.9307C18.2332 30.8997 18.2442 30.8542 18.2442 30.7965C18.2442 30.7388 18.2332 30.6933 18.2052 30.6623C18.1768 30.6308 18.1347 30.6187 18.0827 30.6187H16.7077C16.6488 30.6187 16.6013 30.6322 16.5689 30.665C16.5366 30.6977 16.523 30.7457 16.523 30.806V32.9548V32.9748H16.5236Z" fill="white" stroke="white" stroke-width="0.04"/>
<path d="M18.6604 33.0961H18.6604C18.6002 33.0961 18.5527 33.0826 18.5207 33.0497C18.4888 33.0169 18.4761 32.9688 18.4761 32.9088V30.806C18.4761 30.746 18.4887 30.6979 18.5206 30.6651C18.5526 30.6322 18.6002 30.6187 18.6604 30.6187H20.0301C20.0821 30.6187 20.1241 30.6308 20.1525 30.6623C20.1804 30.6933 20.1912 30.7388 20.1912 30.7965C20.1912 30.8542 20.1802 30.8997 20.1522 30.9307C20.1238 30.9621 20.0819 30.9743 20.0301 30.9743H18.8564V31.6476H19.9667C20.019 31.6476 20.061 31.6606 20.0893 31.6924C20.1171 31.7236 20.1282 31.769 20.1282 31.8254C20.1282 31.8819 20.117 31.9281 20.0893 31.9601C20.0611 31.9928 20.0192 32.007 19.9667 32.007H18.8566V32.7389H20.0581C20.1104 32.7389 20.1529 32.7519 20.1819 32.7834C20.2105 32.8146 20.2223 32.86 20.2223 32.9167C20.2223 32.9734 20.2104 33.0188 20.1817 33.05C20.1527 33.0815 20.1103 33.0945 20.0581 33.0945L18.6604 33.0961ZM18.6604 33.0961L20.0581 33.0945L18.6604 33.0961Z" fill="white" stroke="white" stroke-width="0.04"/>
<mask id="path-30-outside-4_934_12251" maskUnits="userSpaceOnUse" x="3.50391" y="2" width="30" height="35" fill="black">
<rect fill="white" x="3.50391" y="2" width="30" height="35"/>
<path fill-rule="evenodd" clip-rule="evenodd" d="M4.70822 36.25H32.7994C32.9121 36.2501 33.0036 36.1588 33.0039 36.046V17.5552C33.0039 17.5029 32.9838 17.4526 32.9478 17.4147L19.3638 3.06374C19.3265 3.02396 19.2747 3.00098 19.2202 3.00002C19.1659 2.99924 19.1135 3.01977 19.0742 3.05723L4.56636 17.0711C4.52646 17.1096 4.50391 17.1626 4.50391 17.2181V36.0454C4.50391 36.1584 4.59538 36.25 4.70822 36.25ZM32.5973 35.8412H4.91518L4.91459 17.3048L19.211 3.49471L32.5973 17.6366V35.8412Z"/>
</mask>
<path fill-rule="evenodd" clip-rule="evenodd" d="M4.70822 36.25H32.7994C32.9121 36.2501 33.0036 36.1588 33.0039 36.046V17.5552C33.0039 17.5029 32.9838 17.4526 32.9478 17.4147L19.3638 3.06374C19.3265 3.02396 19.2747 3.00098 19.2202 3.00002C19.1659 2.99924 19.1135 3.01977 19.0742 3.05723L4.56636 17.0711C4.52646 17.1096 4.50391 17.1626 4.50391 17.2181V36.0454C4.50391 36.1584 4.59538 36.25 4.70822 36.25ZM32.5973 35.8412H4.91518L4.91459 17.3048L19.211 3.49471L32.5973 17.6366V35.8412Z" fill="white"/>
<path d="M32.7994 36.25L32.7998 35.85H32.7994V36.25ZM33.0039 36.046L33.4039 36.0472V36.046H33.0039ZM33.0039 17.5552H33.4039V17.5552L33.0039 17.5552ZM32.9478 17.4147L32.6573 17.6897L32.6581 17.6906L32.9478 17.4147ZM19.3638 3.06374L19.0721 3.33745L19.0733 3.33871L19.3638 3.06374ZM19.2202 3.00002L19.2272 2.60008L19.2259 2.60006L19.2202 3.00002ZM19.0742 3.05723L18.7983 2.76759L18.7963 2.76953L19.0742 3.05723ZM4.56636 17.0711L4.84391 17.3592L4.84427 17.3588L4.56636 17.0711ZM4.91518 35.8412L4.51518 35.8412L4.51519 36.2412H4.91518V35.8412ZM32.5973 35.8412V36.2412H32.9973V35.8412H32.5973ZM4.91459 17.3048L4.63668 17.0171L4.51458 17.1351L4.51459 17.3048L4.91459 17.3048ZM19.211 3.49471L19.5015 3.21974L19.2237 2.92628L18.9331 3.20702L19.211 3.49471ZM32.5973 17.6366H32.9973V17.4773L32.8878 17.3616L32.5973 17.6366ZM32.7994 35.85H4.70822V36.65H32.7994V35.85ZM32.6039 36.0448C32.6042 35.9375 32.6914 35.8499 32.7998 35.85L32.799 36.65C33.1328 36.6503 33.4029 36.3801 33.4039 36.0472L32.6039 36.0448ZM32.6039 17.5552V36.046H33.4039V17.5552H32.6039ZM32.6581 17.6906C32.6232 17.654 32.6039 17.6055 32.6039 17.5552L33.4039 17.5552C33.4039 17.4003 33.3443 17.2512 33.2375 17.1389L32.6581 17.6906ZM19.0733 3.33871L32.6573 17.6897L33.2383 17.1398L19.6543 2.78877L19.0733 3.33871ZM19.2131 3.39996C19.1595 3.39902 19.1087 3.37641 19.0721 3.33745L19.6555 2.79003C19.5443 2.67151 19.3898 2.60295 19.2272 2.60008L19.2131 3.39996ZM19.3501 3.34686C19.3136 3.38159 19.2649 3.40071 19.2144 3.39998L19.2259 2.60006C19.0669 2.59777 18.9134 2.65796 18.7983 2.7676L19.3501 3.34686ZM4.84427 17.3588L19.3521 3.34493L18.7963 2.76953L4.28846 16.7834L4.84427 17.3588ZM4.90391 17.2181C4.90391 17.2712 4.8823 17.3222 4.84391 17.3592L4.28882 16.7831C4.17062 16.897 4.10391 17.054 4.10391 17.2181H4.90391ZM4.90391 36.0454V17.2181H4.10391V36.0454H4.90391ZM4.70822 35.85C4.81674 35.85 4.90391 35.9379 4.90391 36.0454H4.10391C4.10391 36.3789 4.37402 36.65 4.70822 36.65V35.85ZM4.91518 36.2412H32.5973V35.4412H4.91518V36.2412ZM4.51459 17.3048L4.51518 35.8412L5.31518 35.8412L5.31459 17.3048L4.51459 17.3048ZM18.9331 3.20702L4.63668 17.0171L5.19249 17.5925L19.4889 3.78241L18.9331 3.20702ZM32.8878 17.3616L19.5015 3.21974L18.9205 3.76969L32.3068 17.9116L32.8878 17.3616ZM32.9973 35.8412V17.6366H32.1973V35.8412H32.9973Z" fill="white" mask="url(#path-30-outside-4_934_12251)"/>
</g>
</g>
</svg>
