<svg width="38" height="38" viewBox="0 0 38 38" fill="none" xmlns="http://www.w3.org/2000/svg">
<mask id="mask0_934_10738" style="mask-type:alpha" maskUnits="userSpaceOnUse" x="0" y="0" width="38" height="38">
<rect width="38" height="38" fill="#C4C4C4"/>
</mask>
<g mask="url(#mask0_934_10738)">
<path d="M7.21828 29.2914L7.21828 29.2912C7.21828 29.2566 7.22826 29.227 7.25128 29.2064C7.27388 29.1862 7.3058 29.1776 7.3435 29.1776C7.3812 29.1776 7.41312 29.1862 7.43572 29.2064C7.45873 29.227 7.46872 29.2566 7.46872 29.2912V29.3291C7.46872 29.487 7.53036 29.6155 7.64908 29.7048C7.76851 29.7945 7.94765 29.846 8.18452 29.8447L8.18464 29.8447C8.41623 29.8447 8.58432 29.8004 8.69713 29.7268C8.80921 29.6538 8.86803 29.551 8.8805 29.4296L8.90039 29.4317M7.21828 29.2914L7.29139 28.1708M7.21828 29.2914L7.21928 29.3731H7.23928M7.21828 29.2914L7.75598 28.7413L8.50109 28.9781C8.74546 29.0541 8.92675 29.1654 8.90039 29.4317M8.90039 29.4317L8.88049 29.4297C8.89311 29.3022 8.85622 29.214 8.78832 29.1479C8.71925 29.0807 8.61663 29.035 8.49515 28.9972L8.49503 28.9972L7.74992 28.7603L7.74989 28.7603C7.59163 28.7097 7.4701 28.6408 7.38896 28.5444C7.30745 28.4475 7.26842 28.3248 7.27139 28.1704M8.90039 29.4317C8.87424 29.6862 8.65222 29.8647 8.18464 29.8647C7.70567 29.8675 7.44872 29.6566 7.44872 29.3291V29.2912C7.44872 29.2296 7.41358 29.1976 7.3435 29.1976C7.27342 29.1976 7.23828 29.2296 7.23828 29.2912L7.23928 29.3731M7.27139 28.1704L7.29139 28.1708M7.27139 28.1704C7.27139 28.1704 7.27139 28.1704 7.27139 28.1704L7.29139 28.1708M7.27139 28.1704C7.27461 27.9769 7.35745 27.8274 7.51027 27.7272C7.662 27.6277 7.88112 27.5777 8.15629 27.5777C8.48452 27.5777 8.71244 27.6468 8.85867 27.7622C9.00563 27.8781 9.06754 28.0387 9.06754 28.2149V28.2529C9.06754 28.2828 9.0591 28.3108 9.03744 28.3311C9.01601 28.3512 8.98479 28.3607 8.94551 28.3607C8.90476 28.3607 8.87275 28.3513 8.85088 28.3313C8.82868 28.3109 8.8203 28.2828 8.8203 28.2529V28.2293C8.8203 28.1023 8.75794 27.997 8.64554 27.9228C8.53254 27.8481 8.36875 27.8048 8.16826 27.8048C7.97677 27.8048 7.81324 27.8324 7.69795 27.8923C7.58391 27.9516 7.51764 28.042 7.51623 28.1708L7.51623 28.1708C7.5149 28.2812 7.55015 28.3585 7.61088 28.4174C7.67249 28.4771 7.76162 28.5192 7.87038 28.5555M7.29139 28.1708C7.29758 27.7966 7.60984 27.5977 8.15629 27.5977C8.80795 27.5977 9.04754 27.8725 9.04754 28.2149V28.2529C9.04754 28.3055 9.01819 28.3407 8.94551 28.3407C8.86945 28.3407 8.8403 28.3055 8.8403 28.2529V28.2293C8.8403 27.9601 8.57436 27.7848 8.16826 27.7848C7.78254 27.7848 7.49923 27.8957 7.49623 28.1706C7.49344 28.4016 7.64497 28.5014 7.86419 28.5745M7.87038 28.5555L7.87022 28.5555L7.86419 28.5745M7.87038 28.5555C7.87043 28.5555 7.87047 28.5556 7.87052 28.5556L7.86419 28.5745M7.87038 28.5555L8.65023 28.823L7.86419 28.5745M7.23928 29.3731C7.23928 29.6246 7.39421 30.0546 8.19462 30.0546C8.81714 30.0546 9.08587 29.7945 9.10943 29.4285L7.21928 29.3732L7.21928 29.3734L7.23928 29.3731Z" fill="white" stroke="white" stroke-width="0.04"/>
<path d="M11.4751 27.6835L11.4751 27.6835L10.6112 29.6429L9.74792 27.6851C9.73036 27.6141 9.66288 27.567 9.59015 27.5752C9.54669 27.5754 9.51023 27.5855 9.48485 27.6111C9.45929 27.6368 9.44875 27.6745 9.44875 27.721V29.9558C9.44875 29.9912 9.4577 30.0215 9.47999 30.0427C9.50206 30.0636 9.53361 30.0721 9.57117 30.0721C9.60873 30.0721 9.64021 30.0636 9.6622 30.0426C9.68438 30.0215 9.69319 29.9911 9.69319 29.9558V28.7418C9.69319 28.5346 9.69108 28.2984 9.67479 28.0911L10.4701 29.9112C10.4925 29.9686 10.5496 30.0045 10.6108 29.9999C10.6728 30.0066 10.7314 29.9698 10.7524 29.9109L11.5476 28.0909C11.5314 28.2984 11.5291 28.535 11.5291 28.7418V29.956C11.5291 29.9914 11.5381 30.0217 11.5604 30.0429C11.5824 30.0638 11.614 30.0723 11.6516 30.0723C11.6891 30.0723 11.7206 30.0638 11.7426 30.0428C11.7648 30.0217 11.7736 29.9913 11.7736 29.956V27.7225C11.7797 27.6819 11.7663 27.6407 11.7372 27.6116C11.7081 27.5825 11.667 27.569 11.6264 27.5752C11.5899 27.5754 11.5601 27.5817 11.5348 27.5999C11.5096 27.618 11.4917 27.646 11.4751 27.6835Z" fill="white" stroke="white" stroke-width="0.04"/>
<mask id="path-4-outside-1_934_10738" maskUnits="userSpaceOnUse" x="11.0391" y="26.5957" width="4" height="4" fill="black">
<rect fill="white" x="11.0391" y="26.5957" width="4" height="4"/>
<path fill-rule="evenodd" clip-rule="evenodd" d="M14.0737 30.0478C14.1468 30.0276 14.1704 29.9896 14.141 29.9251L13.203 27.6777C13.1797 27.6157 13.1629 27.5957 13.0978 27.5957C13.0327 27.5957 13.016 27.6165 12.9928 27.6777L12.049 29.9165C12.0369 29.9394 12.0358 29.9666 12.046 29.9904C12.0562 30.0143 12.0766 30.0322 12.1016 30.0392C12.1688 30.0686 12.213 30.0566 12.2329 30.007L12.4787 29.4189H13.7086L13.9424 29.9747C13.9685 30.0392 14.0006 30.068 14.0737 30.0478ZM13.6288 29.2225H12.5625L12.8468 28.5497C12.9141 28.3945 13.0189 28.1517 13.095 27.95H13.1036C13.1686 28.1164 13.2495 28.3104 13.3121 28.4604C13.3255 28.4924 13.338 28.5224 13.3493 28.5497L13.6288 29.2225Z"/>
</mask>
<path fill-rule="evenodd" clip-rule="evenodd" d="M14.0737 30.0478C14.1468 30.0276 14.1704 29.9896 14.141 29.9251L13.203 27.6777C13.1797 27.6157 13.1629 27.5957 13.0978 27.5957C13.0327 27.5957 13.016 27.6165 12.9928 27.6777L12.049 29.9165C12.0369 29.9394 12.0358 29.9666 12.046 29.9904C12.0562 30.0143 12.0766 30.0322 12.1016 30.0392C12.1688 30.0686 12.213 30.0566 12.2329 30.007L12.4787 29.4189H13.7086L13.9424 29.9747C13.9685 30.0392 14.0006 30.068 14.0737 30.0478ZM13.6288 29.2225H12.5625L12.8468 28.5497C12.9141 28.3945 13.0189 28.1517 13.095 27.95H13.1036C13.1686 28.1164 13.2495 28.3104 13.3121 28.4604C13.3255 28.4924 13.338 28.5224 13.3493 28.5497L13.6288 29.2225Z" fill="white"/>
<path d="M14.141 29.9251L14.1041 29.9405L14.1046 29.9416L14.141 29.9251ZM14.0737 30.0478L14.0844 30.0864L14.0737 30.0478ZM13.203 27.6777L13.1656 27.6918L13.1661 27.6931L13.203 27.6777ZM12.9928 27.6777L13.0297 27.6932L13.0302 27.6918L12.9928 27.6777ZM12.049 29.9165L12.0845 29.9353L12.0859 29.932L12.049 29.9165ZM12.046 29.9904L12.0092 30.0062L12.0092 30.0062L12.046 29.9904ZM12.1016 30.0392L12.1177 30.0022L12.1124 30.0007L12.1016 30.0392ZM12.2329 30.007L12.196 29.9916L12.1958 29.9921L12.2329 30.007ZM12.4787 29.4189V29.3789H12.4521L12.4418 29.4035L12.4787 29.4189ZM13.7086 29.4189L13.7454 29.4034L13.7351 29.3789H13.7086V29.4189ZM13.9424 29.9747L13.9794 29.9596L13.9792 29.9591L13.9424 29.9747ZM12.5625 29.2225L12.5257 29.2069L12.5022 29.2625H12.5625V29.2225ZM13.6288 29.2225V29.2625H13.6888L13.6658 29.2072L13.6288 29.2225ZM12.8468 28.5497L12.8101 28.5337L12.81 28.5341L12.8468 28.5497ZM13.095 27.95V27.91H13.0673L13.0575 27.9359L13.095 27.95ZM13.1036 27.95L13.1408 27.9354L13.1309 27.91H13.1036V27.95ZM13.3121 28.4604L13.349 28.445L13.3121 28.4604ZM13.3493 28.5497L13.3863 28.5343L13.3863 28.5343L13.3493 28.5497ZM14.1046 29.9416C14.1168 29.9685 14.1133 29.9793 14.111 29.9834C14.1075 29.9894 14.0963 30.0001 14.0631 30.0093L14.0844 30.0864C14.1242 30.0754 14.1613 30.0569 14.1806 30.0228C14.201 29.9867 14.1946 29.9462 14.1774 29.9085L14.1046 29.9416ZM13.1661 27.6931L14.1041 29.9405L14.1779 29.9097L13.24 27.6623L13.1661 27.6931ZM13.0978 27.6357C13.1272 27.6357 13.136 27.6405 13.1404 27.6441C13.1467 27.6494 13.1537 27.6603 13.1656 27.6918L13.2405 27.6636C13.229 27.633 13.216 27.603 13.1917 27.5828C13.1656 27.5609 13.1335 27.5557 13.0978 27.5557V27.6357ZM13.0302 27.6918C13.042 27.6608 13.049 27.6497 13.0554 27.6443C13.0598 27.6406 13.0687 27.6357 13.0978 27.6357V27.5557C13.0619 27.5557 13.0298 27.5612 13.0038 27.5832C12.9797 27.6035 12.9668 27.6334 12.9554 27.6635L13.0302 27.6918ZM12.0859 29.932L13.0297 27.6932L12.9559 27.6621L12.0122 29.9009L12.0859 29.932ZM12.0828 29.9747C12.0773 29.962 12.0779 29.9474 12.0844 29.9352L12.0137 29.8978C11.9959 29.9314 11.9943 29.9712 12.0092 30.0062L12.0828 29.9747ZM12.1124 30.0007C12.0991 29.997 12.0882 29.9874 12.0828 29.9747L12.0092 30.0062C12.0242 30.0411 12.0541 30.0674 12.0907 30.0777L12.1124 30.0007ZM12.1958 29.9921C12.1896 30.0076 12.1822 30.0122 12.1752 30.0139C12.1656 30.0164 12.1475 30.0156 12.1176 30.0026L12.0855 30.0759C12.1229 30.0922 12.1605 30.1001 12.1947 30.0915C12.2316 30.0823 12.2563 30.056 12.27 30.022L12.1958 29.9921ZM12.4418 29.4035L12.196 29.9916L12.2698 30.0225L12.5156 29.4344L12.4418 29.4035ZM13.7086 29.3789H12.4787V29.4589H13.7086V29.3789ZM13.9792 29.9591L13.7454 29.4034L13.6717 29.4345L13.9055 29.9902L13.9792 29.9591ZM14.0631 30.0093C14.0324 30.0177 14.0189 30.0136 14.0116 30.0091C14.0023 30.0033 13.9917 29.99 13.9794 29.9596L13.9053 29.9897C13.9191 30.0238 13.9377 30.0572 13.9693 30.077C14.0028 30.0979 14.042 30.0981 14.0844 30.0864L14.0631 30.0093ZM12.5625 29.2625H13.6288V29.1825H12.5625V29.2625ZM12.81 28.5341L12.5257 29.2069L12.5993 29.2381L12.8837 28.5652L12.81 28.5341ZM13.0575 27.9359C12.9819 28.1365 12.8774 28.3785 12.8101 28.5337L12.8835 28.5656C12.9507 28.4106 13.0559 28.1668 13.1324 27.9641L13.0575 27.9359ZM13.1036 27.91H13.095V27.99H13.1036V27.91ZM13.349 28.445C13.2864 28.2949 13.2056 28.1013 13.1408 27.9354L13.0663 27.9645C13.1315 28.1314 13.2127 28.3259 13.2752 28.4758L13.349 28.445ZM13.3863 28.5343C13.3749 28.507 13.3624 28.477 13.349 28.445L13.2752 28.4758C13.2886 28.5078 13.3011 28.5378 13.3124 28.565L13.3863 28.5343ZM13.6658 29.2072L13.3863 28.5343L13.3124 28.565L13.5919 29.2378L13.6658 29.2072Z" fill="white" mask="url(#path-4-outside-1_934_10738)"/>
<mask id="path-6-outside-2_934_10738" maskUnits="userSpaceOnUse" x="13.4375" y="26.625" width="3" height="4" fill="black">
<rect fill="white" x="13.4375" y="26.625" width="3" height="4"/>
<path fill-rule="evenodd" clip-rule="evenodd" d="M16.1801 30.0381C16.2446 30.0059 16.2589 29.968 16.2268 29.9038L15.74 28.9697C15.9894 28.9273 16.1661 28.7026 16.1489 28.45V28.1543C16.1489 27.8449 15.9625 27.625 15.53 27.625H14.5689C14.4812 27.625 14.4375 27.663 14.4375 27.7565V29.9654C14.4375 30.0213 14.4637 30.0531 14.5395 30.0531C14.6154 30.0531 14.6447 30.0205 14.6447 29.9532V28.9907H15.5212L16.0403 29.9914C16.0492 30.0191 16.0708 30.0409 16.0984 30.0501C16.126 30.0594 16.1563 30.0549 16.1801 30.0381ZM14.6445 28.7948V27.8209L15.5268 27.8219C15.7899 27.8219 15.9361 27.9241 15.9361 28.2109V28.395C15.9361 28.6811 15.7899 28.7948 15.5268 28.7948H14.6445Z"/>
</mask>
<path fill-rule="evenodd" clip-rule="evenodd" d="M16.1801 30.0381C16.2446 30.0059 16.2589 29.968 16.2268 29.9038L15.74 28.9697C15.9894 28.9273 16.1661 28.7026 16.1489 28.45V28.1543C16.1489 27.8449 15.9625 27.625 15.53 27.625H14.5689C14.4812 27.625 14.4375 27.663 14.4375 27.7565V29.9654C14.4375 30.0213 14.4637 30.0531 14.5395 30.0531C14.6154 30.0531 14.6447 30.0205 14.6447 29.9532V28.9907H15.5212L16.0403 29.9914C16.0492 30.0191 16.0708 30.0409 16.0984 30.0501C16.126 30.0594 16.1563 30.0549 16.1801 30.0381ZM14.6445 28.7948V27.8209L15.5268 27.8219C15.7899 27.8219 15.9361 27.9241 15.9361 28.2109V28.395C15.9361 28.6811 15.7899 28.7948 15.5268 28.7948H14.6445Z" fill="white"/>
<path d="M16.2268 29.9038L16.2626 29.8859L16.2623 29.8853L16.2268 29.9038ZM16.1801 30.0381L16.162 30.0019L16.157 30.0055L16.1801 30.0381ZM15.74 28.9697L15.7333 28.9303L15.6792 28.9395L15.7046 28.9882L15.74 28.9697ZM16.1489 28.45H16.1088L16.109 28.4527L16.1489 28.45ZM14.6447 28.9907V28.9507H14.6047V28.9907H14.6447ZM15.5212 28.9907L15.5567 28.9723L15.5455 28.9507H15.5212V28.9907ZM16.0403 29.9914L16.0789 29.9789L16.0758 29.9729L16.0403 29.9914ZM16.0984 30.0501L16.0857 30.0881H16.0857L16.0984 30.0501ZM14.6445 27.8209L14.6446 27.7809L14.6045 27.7809V27.8209H14.6445ZM14.6445 28.7948H14.6045V28.8348H14.6445V28.7948ZM15.5268 27.8219L15.5268 27.8619H15.5268V27.8219ZM16.191 29.9217C16.2052 29.95 16.2042 29.9632 16.202 29.9696C16.1995 29.9765 16.1912 29.9878 16.1622 30.0023L16.1979 30.0739C16.2334 30.0562 16.2645 30.0325 16.2774 29.9963C16.2904 29.9596 16.2805 29.9218 16.2626 29.8859L16.191 29.9217ZM15.7046 28.9882L16.1913 29.9223L16.2623 29.8853L15.7755 28.9512L15.7046 28.9882ZM16.109 28.4527C16.1248 28.6849 15.9624 28.8913 15.7333 28.9303L15.7467 29.0091C16.0164 28.9633 16.2074 28.7204 16.1888 28.4472L16.109 28.4527ZM16.1089 28.1543V28.45H16.1889V28.1543H16.1089ZM15.53 27.665C15.7398 27.665 15.8835 27.7183 15.9744 27.8029C16.0649 27.8871 16.1089 28.0077 16.1089 28.1543H16.1889C16.1889 27.9915 16.1397 27.8474 16.0289 27.7443C15.9185 27.6416 15.7526 27.585 15.53 27.585V27.665ZM14.5689 27.665H15.53V27.585H14.5689V27.665ZM14.4775 27.7565C14.4775 27.7152 14.4872 27.695 14.4981 27.6844C14.5093 27.6736 14.5298 27.665 14.5689 27.665V27.585C14.5203 27.585 14.4751 27.5954 14.4425 27.6269C14.4097 27.6587 14.3975 27.7043 14.3975 27.7565H14.4775ZM14.4775 29.9654V27.7565H14.3975V29.9654H14.4775ZM14.5395 30.0131C14.506 30.0131 14.4926 30.0059 14.4873 30.001C14.4827 29.9967 14.4775 29.9878 14.4775 29.9654H14.3975C14.3975 29.9989 14.4053 30.0339 14.4328 30.0595C14.4595 30.0844 14.4972 30.0931 14.5395 30.0931V30.0131ZM14.6047 29.9532C14.6047 29.982 14.5983 29.9942 14.5925 29.9999C14.5865 30.0058 14.5728 30.0131 14.5395 30.0131V30.0931C14.5821 30.0931 14.621 30.0841 14.6486 30.0569C14.6765 30.0295 14.6847 29.9917 14.6847 29.9532H14.6047ZM14.6047 28.9907V29.9532H14.6847V28.9907H14.6047ZM15.5212 28.9507H14.6447V29.0307H15.5212V28.9507ZM16.0758 29.9729L15.5567 28.9723L15.4857 29.0091L16.0048 30.0098L16.0758 29.9729ZM16.1111 30.0122C16.0956 30.007 16.0834 29.9947 16.0784 29.9791L16.0022 30.0036C16.015 30.0434 16.046 30.0748 16.0857 30.0881L16.1111 30.0122ZM16.157 30.0055C16.1436 30.0149 16.1266 30.0174 16.1111 30.0122L16.0857 30.0881C16.1254 30.1014 16.169 30.0949 16.2031 30.0708L16.157 30.0055ZM14.6045 27.8209V28.7948H14.6845V27.8209H14.6045ZM15.5268 27.7819L14.6446 27.7809L14.6445 27.8609L15.5268 27.8619L15.5268 27.7819ZM15.9761 28.2109C15.9761 28.0612 15.9378 27.9507 15.8566 27.8789C15.7764 27.808 15.6623 27.7819 15.5268 27.7819V27.8619C15.6545 27.8619 15.7449 27.8869 15.8036 27.9388C15.8613 27.9898 15.8961 28.0738 15.8961 28.2109H15.9761ZM15.9761 28.395V28.2109H15.8961V28.395H15.9761ZM15.5268 28.8348C15.6632 28.8348 15.7773 28.8055 15.8573 28.7316C15.9378 28.6571 15.9761 28.5444 15.9761 28.395H15.8961C15.8961 28.5317 15.8613 28.6189 15.803 28.6728C15.744 28.7273 15.6536 28.7548 15.5268 28.7548V28.8348ZM14.6445 28.8348H15.5268V28.7548H14.6445V28.8348Z" fill="white" mask="url(#path-6-outside-2_934_10738)"/>
<path d="M18.212 27.605H16.4327C16.4003 27.605 16.3717 27.6109 16.3523 27.6323C16.3335 27.653 16.3277 27.6837 16.3277 27.7213C16.3277 27.759 16.3335 27.7897 16.3523 27.8106C16.3716 27.832 16.4002 27.8381 16.4327 27.8381H17.1987V29.9534C17.1987 29.9888 17.2046 30.0205 17.2257 30.0427C17.247 30.0651 17.2794 30.0733 17.3208 30.0733C17.3622 30.0733 17.3947 30.0649 17.416 30.0424C17.4372 30.0201 17.4432 29.9885 17.4432 29.9534V27.8381H18.212C18.2432 27.8381 18.2714 27.8319 18.2909 27.8107C18.31 27.79 18.3167 27.7594 18.3167 27.7213C18.3167 27.6833 18.31 27.6527 18.2909 27.6321C18.2713 27.6111 18.2431 27.605 18.212 27.605Z" fill="white" stroke="white" stroke-width="0.04"/>
<mask id="path-9-outside-3_934_10738" maskUnits="userSpaceOnUse" x="6.23828" y="30.0352" width="3" height="4" fill="black">
<rect fill="white" x="6.23828" y="30.0352" width="3" height="4"/>
<path fill-rule="evenodd" clip-rule="evenodd" d="M7.45471 31.0352C7.30277 31.0352 7.23828 31.0847 7.23828 31.2514V33.4103C7.23828 33.4863 7.2876 33.5388 7.41058 33.5388C7.53357 33.5388 7.58608 33.4865 7.58608 33.3809V32.53H8.35135C8.84229 32.53 9.05832 32.2401 9.05832 31.9039V31.6612C9.05832 31.3246 8.84229 31.0352 8.35135 31.0352H7.45471ZM8.34841 32.1994H7.58594V31.3657H8.34841C8.5297 31.3657 8.70519 31.4506 8.70519 31.7491V31.8164C8.70519 32.1147 8.5297 32.1994 8.34841 32.1994Z"/>
</mask>
<path fill-rule="evenodd" clip-rule="evenodd" d="M7.45471 31.0352C7.30277 31.0352 7.23828 31.0847 7.23828 31.2514V33.4103C7.23828 33.4863 7.2876 33.5388 7.41058 33.5388C7.53357 33.5388 7.58608 33.4865 7.58608 33.3809V32.53H8.35135C8.84229 32.53 9.05832 32.2401 9.05832 31.9039V31.6612C9.05832 31.3246 8.84229 31.0352 8.35135 31.0352H7.45471ZM8.34841 32.1994H7.58594V31.3657H8.34841C8.5297 31.3657 8.70519 31.4506 8.70519 31.7491V31.8164C8.70519 32.1147 8.5297 32.1994 8.34841 32.1994Z" fill="white"/>
<path d="M7.58608 32.53V32.49H7.54608V32.53H7.58608ZM7.58594 32.1994H7.54594V32.2394H7.58594V32.1994ZM7.58594 31.3657V31.3257H7.54594V31.3657H7.58594ZM7.27828 31.2514C7.27828 31.1715 7.29408 31.1315 7.31701 31.1098C7.34045 31.0877 7.38103 31.0752 7.45471 31.0752V30.9952C7.37644 30.9952 7.30881 31.0074 7.26202 31.0517C7.21473 31.0965 7.19828 31.1647 7.19828 31.2514H7.27828ZM7.27828 33.4103V31.2514H7.19828V33.4103H7.27828ZM7.41058 33.4988C7.35393 33.4988 7.3214 33.4866 7.30362 33.4721C7.28721 33.4587 7.27828 33.4391 7.27828 33.4103H7.19828C7.19828 33.4575 7.21401 33.5022 7.253 33.534C7.29063 33.5648 7.34424 33.5788 7.41058 33.5788V33.4988ZM7.54608 33.3809C7.54608 33.4276 7.53454 33.4542 7.51733 33.4701C7.49942 33.4866 7.46745 33.4988 7.41058 33.4988V33.5788C7.4767 33.5788 7.53248 33.5649 7.57157 33.5289C7.61136 33.4922 7.62608 33.4398 7.62608 33.3809H7.54608ZM7.54608 32.53V33.3809H7.62608V32.53H7.54608ZM8.35135 32.49H7.58608V32.57H8.35135V32.49ZM9.01832 31.9039C9.01832 32.0635 8.96716 32.209 8.86076 32.3146C8.75453 32.42 8.58884 32.49 8.35135 32.49V32.57C8.6048 32.57 8.7926 32.495 8.91711 32.3714C9.04146 32.248 9.09832 32.0805 9.09832 31.9039H9.01832ZM9.01832 31.6612V31.9039H9.09832V31.6612H9.01832ZM8.35135 31.0752C8.58885 31.0752 8.75454 31.145 8.86077 31.2504C8.96716 31.3559 9.01832 31.5014 9.01832 31.6612H9.09832C9.09832 31.4844 9.04147 31.3169 8.91711 31.1936C8.79258 31.07 8.60479 30.9952 8.35135 30.9952V31.0752ZM7.45471 31.0752H8.35135V30.9952H7.45471V31.0752ZM7.58594 32.2394H8.34841V32.1594H7.58594V32.2394ZM7.54594 31.3657V32.1994H7.62594V31.3657H7.54594ZM8.34841 31.3257H7.58594V31.4057H8.34841V31.3257ZM8.74519 31.7491C8.74519 31.5918 8.69868 31.4836 8.62121 31.4154C8.54471 31.3481 8.44453 31.3257 8.34841 31.3257V31.4057C8.43358 31.4057 8.51179 31.4257 8.56836 31.4755C8.62396 31.5244 8.66519 31.6079 8.66519 31.7491H8.74519ZM8.74519 31.8164V31.7491H8.66519V31.8164H8.74519ZM8.34841 32.2394C8.44451 32.2394 8.54469 32.2171 8.62119 32.1498C8.69867 32.0817 8.74519 31.9736 8.74519 31.8164H8.66519C8.66519 31.9575 8.62396 32.0409 8.56838 32.0897C8.51181 32.1394 8.43359 32.1594 8.34841 32.1594V32.2394Z" fill="white" mask="url(#path-9-outside-3_934_10738)"/>
<path d="M9.51813 33.5243H9.51807C9.4571 33.5243 9.40906 33.5105 9.37666 33.4771C9.3444 33.4438 9.33156 33.3951 9.33156 33.3343V31.2047C9.33156 31.1439 9.34434 31.0953 9.37661 31.0621C9.40899 31.0288 9.45704 31.0152 9.51807 31.0152H10.9059C10.9585 31.0152 11.0011 31.0275 11.0298 31.0593C11.0581 31.0906 11.0692 31.1366 11.0692 31.1951C11.0692 31.2535 11.058 31.2996 11.0297 31.3309C11.001 31.3627 10.9584 31.375 10.9059 31.375H9.71576V32.0574H10.841C10.8939 32.0574 10.9363 32.0706 10.9648 32.1027C10.9929 32.1343 11.0039 32.1802 11.0039 32.2373C11.0039 32.2945 10.9927 32.3413 10.9648 32.3738C10.9364 32.4069 10.8941 32.4214 10.841 32.4214H9.71576V33.1592H10.9336C10.9866 33.1592 11.0296 33.1725 11.0589 33.2044C11.0878 33.236 11.0998 33.2819 11.0998 33.3391C11.0998 33.3964 11.0877 33.4426 11.0588 33.4745C11.0295 33.5067 10.9866 33.5205 10.9337 33.5205L9.51813 33.5243ZM9.51813 33.5243L10.9336 33.5205L9.51813 33.5243Z" fill="white" stroke="white" stroke-width="0.04"/>
<path d="M11.3814 31.0158C11.3383 31.0185 11.3028 31.0308 11.2776 31.0582C11.2491 31.0894 11.2378 31.1358 11.2378 31.1961C11.2378 31.2563 11.2489 31.3033 11.2771 31.3351C11.3059 31.3674 11.3485 31.3798 11.4012 31.3798H12.0622V33.3833C12.0622 33.4389 12.0761 33.4846 12.1098 33.516C12.1431 33.5472 12.1921 33.5608 12.2545 33.5608C12.3168 33.5608 12.3658 33.5473 12.3992 33.5161C12.4329 33.4847 12.4468 33.439 12.4468 33.3833V31.3788H13.1078C13.1593 31.3788 13.2015 31.3652 13.2303 31.3326C13.2587 31.3006 13.2707 31.2538 13.2707 31.1951C13.2707 31.1363 13.2587 31.0904 13.2301 31.0592C13.2011 31.0276 13.1589 31.0152 13.1078 31.0152H11.4014H11.3814V31.0158Z" fill="white" stroke="white" stroke-width="0.04"/>
<path d="M14.3157 30.9995C14.2523 30.9995 14.2025 31.0124 14.1687 31.0432C14.1345 31.0745 14.1206 31.1205 14.1206 31.1774L14.1208 33.3467C14.1208 33.4077 14.1345 33.4564 14.1675 33.4894C14.2006 33.5225 14.2492 33.5362 14.3101 33.5362H15.6015C15.6537 33.5362 15.6964 33.5248 15.7253 33.4933C15.7537 33.4623 15.7648 33.4161 15.7648 33.3563C15.7648 33.2965 15.7538 33.2503 15.7253 33.2193C15.6965 33.1878 15.6538 33.1764 15.6015 33.1764H14.5084V31.1774C14.5084 31.1208 14.4953 31.0747 14.4617 31.0434C14.4284 31.0123 14.3791 30.9995 14.3157 30.9995Z" fill="white" stroke="white" stroke-width="0.04"/>
<path d="M15.9878 31.1774V33.3979C15.9878 33.4534 16.001 33.4993 16.0344 33.5309C16.0675 33.5622 16.1168 33.5758 16.1805 33.5758C16.2442 33.5758 16.2934 33.5623 16.3265 33.5309C16.3598 33.4993 16.3728 33.4534 16.3728 33.3979V31.1774C16.3728 31.1208 16.3599 31.0748 16.3264 31.0434C16.2932 31.0123 16.244 30.9995 16.1805 30.9995C16.117 30.9995 16.0677 31.0123 16.0345 31.0434C16.0009 31.0747 15.9878 31.1208 15.9878 31.1774Z" fill="white" stroke="white" stroke-width="0.04"/>
<path d="M16.7462 33.4138C16.749 33.4614 16.7626 33.5001 16.7921 33.5273C16.8253 33.5579 16.8745 33.5702 16.9377 33.5702C17.0013 33.5702 17.0511 33.5569 17.0849 33.5255C17.119 33.4938 17.1328 33.4473 17.1328 33.3902V32.4158H18.2614C18.3143 32.4158 18.3566 32.402 18.3851 32.3695C18.4131 32.3376 18.4244 32.2915 18.4244 32.2344C18.4244 32.1775 18.4133 32.1316 18.3853 32.1C18.3568 32.0678 18.3144 32.0545 18.2614 32.0545H17.1328V31.3867H18.3259C18.3785 31.3867 18.421 31.3744 18.4498 31.3426C18.4781 31.3113 18.4893 31.2652 18.4893 31.2068C18.4893 31.1484 18.4782 31.1023 18.4499 31.071C18.4211 31.0392 18.3786 31.0269 18.3259 31.0269H16.9325C16.8729 31.0269 16.8249 31.0406 16.7921 31.0737C16.7594 31.1068 16.7456 31.1553 16.7456 31.2164V33.3938V33.4138H16.7462Z" fill="white" stroke="white" stroke-width="0.04"/>
<path d="M18.9087 33.5368H18.9087C18.8478 33.5368 18.7997 33.5231 18.7673 33.4898C18.735 33.4567 18.7222 33.408 18.7222 33.3473V31.2164C18.7222 31.1556 18.735 31.107 18.7672 31.0738C18.7996 31.0405 18.8477 31.0269 18.9087 31.0269H20.2967C20.3493 31.0269 20.3918 31.0392 20.4205 31.071C20.4486 31.1023 20.4596 31.1484 20.4596 31.2068C20.4596 31.2652 20.4485 31.3113 20.4202 31.3426C20.3915 31.3744 20.3491 31.3867 20.2967 31.3867H19.107V32.0695H20.2324C20.2854 32.0695 20.3278 32.0827 20.3564 32.1148C20.3846 32.1464 20.3957 32.1923 20.3957 32.2494C20.3957 32.3067 20.3844 32.3534 20.3564 32.3858C20.3279 32.4188 20.2855 32.4332 20.2324 32.4332H19.1072V33.1753H20.325C20.378 33.1753 20.421 33.1885 20.4503 33.2204C20.4792 33.2519 20.4912 33.2978 20.4912 33.3553C20.4912 33.4127 20.4791 33.4587 20.4501 33.4901C20.4208 33.522 20.3778 33.5352 20.3251 33.5352L18.9087 33.5368ZM18.9087 33.5368L20.325 33.5352L18.9087 33.5368Z" fill="white" stroke="white" stroke-width="0.04"/>
<mask id="path-17-outside-4_934_10738" maskUnits="userSpaceOnUse" x="3.56641" y="2.04102" width="31" height="36" fill="black">
<rect fill="white" x="3.56641" y="2.04102" width="31" height="36"/>
<path fill-rule="evenodd" clip-rule="evenodd" d="M4.77345 36.7343H33.2392C33.3534 36.7344 33.4461 36.642 33.4464 36.5276V17.7903C33.4464 17.7373 33.426 17.6863 33.3895 17.648L19.6244 3.1056C19.5866 3.0653 19.5341 3.04201 19.4789 3.04104C19.4239 3.04024 19.3708 3.06105 19.3309 3.09901L4.6297 17.2997C4.58926 17.3387 4.56641 17.3925 4.56641 17.4487V36.527C4.56641 36.6415 4.6591 36.7343 4.77345 36.7343ZM33.0323 36.3195H4.98107L4.98047 17.536L19.4675 3.54174L33.0323 17.8722V36.3195Z"/>
</mask>
<path fill-rule="evenodd" clip-rule="evenodd" d="M4.77345 36.7343H33.2392C33.3534 36.7344 33.4461 36.642 33.4464 36.5276V17.7903C33.4464 17.7373 33.426 17.6863 33.3895 17.648L19.6244 3.1056C19.5866 3.0653 19.5341 3.04201 19.4789 3.04104C19.4239 3.04024 19.3708 3.06105 19.3309 3.09901L4.6297 17.2997C4.58926 17.3387 4.56641 17.3925 4.56641 17.4487V36.527C4.56641 36.6415 4.6591 36.7343 4.77345 36.7343ZM33.0323 36.3195H4.98107L4.98047 17.536L19.4675 3.54174L33.0323 17.8722V36.3195Z" fill="white"/>
<path d="M33.2392 36.7343L33.2396 36.3343H33.2392V36.7343ZM33.4464 36.5276L33.8464 36.5288V36.5276H33.4464ZM33.4464 17.7903H33.8464V17.7903L33.4464 17.7903ZM33.3895 17.648L33.099 17.9229L33.0998 17.9238L33.3895 17.648ZM19.6244 3.1056L19.3327 3.37932L19.3339 3.38058L19.6244 3.1056ZM19.4789 3.04104L19.4859 2.6411L19.4847 2.64108L19.4789 3.04104ZM19.3309 3.09901L19.055 2.80937L19.053 2.81131L19.3309 3.09901ZM4.6297 17.2997L4.90724 17.5878L4.9076 17.5874L4.6297 17.2997ZM4.98107 36.3195L4.58107 36.3195L4.58108 36.7195H4.98107V36.3195ZM33.0323 36.3195V36.7195H33.4323V36.3195H33.0323ZM4.98047 17.536L4.70256 17.2483L4.58046 17.3662L4.58047 17.536L4.98047 17.536ZM19.4675 3.54174L19.758 3.26677L19.4802 2.97331L19.1896 3.25405L19.4675 3.54174ZM33.0323 17.8722H33.4323V17.7129L33.3228 17.5972L33.0323 17.8722ZM33.2392 36.3343H4.77345V37.1343H33.2392V36.3343ZM33.0464 36.5265C33.0467 36.4207 33.1327 36.3342 33.2396 36.3343L33.2388 37.1343C33.574 37.1347 33.8454 36.8633 33.8464 36.5288L33.0464 36.5265ZM33.0464 17.7903V36.5276H33.8464V17.7903H33.0464ZM33.0998 17.9238C33.0655 17.8877 33.0464 17.8399 33.0464 17.7903L33.8464 17.7903C33.8464 17.6346 33.7866 17.4849 33.6792 17.3722L33.0998 17.9238ZM19.3339 3.38058L33.099 17.9229L33.68 17.373L19.9149 2.83063L19.3339 3.38058ZM19.4718 3.44098C19.419 3.44004 19.3688 3.41775 19.3327 3.37932L19.9161 2.83189C19.8044 2.71285 19.6493 2.64398 19.4859 2.6411L19.4718 3.44098ZM19.6068 3.38863C19.5709 3.42287 19.5229 3.44171 19.4731 3.441L19.4847 2.64108C19.3249 2.63877 19.1707 2.69924 19.0551 2.80938L19.6068 3.38863ZM4.9076 17.5874L19.6088 3.3867L19.053 2.81131L4.35179 17.012L4.9076 17.5874ZM4.96641 17.4487C4.96641 17.5011 4.9451 17.5513 4.90724 17.5878L4.35215 17.0117C4.23342 17.1261 4.16641 17.2839 4.16641 17.4487H4.96641ZM4.96641 36.527V17.4487H4.16641V36.527H4.96641ZM4.77345 36.3343C4.88047 36.3343 4.96641 36.4211 4.96641 36.527H4.16641C4.16641 36.862 4.43773 37.1343 4.77345 37.1343V36.3343ZM4.98107 36.7195H33.0323V35.9195H4.98107V36.7195ZM4.58047 17.536L4.58107 36.3195L5.38107 36.3195L5.38047 17.536L4.58047 17.536ZM19.1896 3.25405L4.70256 17.2483L5.25838 17.8237L19.7454 3.82944L19.1896 3.25405ZM33.3228 17.5972L19.758 3.26677L19.177 3.81672L32.7418 18.1472L33.3228 17.5972ZM33.4323 36.3195V17.8722H32.6323V36.3195H33.4323Z" fill="white" mask="url(#path-17-outside-4_934_10738)"/>
</g>
</svg>
