<svg width="40" height="40" viewBox="0 0 40 40" fill="none" xmlns="http://www.w3.org/2000/svg">
<mask id="mask0_934_11915" style="mask-type:alpha" maskUnits="userSpaceOnUse" x="0" y="0" width="40" height="40">
<rect width="40" height="40" fill="#C4C4C4"/>
</mask>
<g mask="url(#mask0_934_11915)">
<path d="M7.56938 30.83L7.56937 30.8295C7.56938 30.7895 7.58102 30.7525 7.61042 30.7262C7.63901 30.7006 7.67792 30.691 7.72013 30.691C7.76234 30.691 7.80125 30.7006 7.82984 30.7262C7.85924 30.7525 7.87088 30.7895 7.87088 30.8295V30.8695C7.87088 31.0302 7.93332 31.1596 8.05318 31.2497C8.17446 31.3409 8.35844 31.3946 8.6053 31.3932L8.60554 31.3932C8.84723 31.3932 9.02009 31.347 9.13465 31.2723C9.24777 31.1985 9.30662 31.0955 9.31917 30.9733L9.35897 30.9774M7.56938 30.83L7.66528 29.6501M7.56938 30.83L7.57043 30.916M7.56938 30.83L8.15432 30.2507L8.93864 30.5C9.19588 30.58 9.38671 30.6972 9.35897 30.9774M9.35897 30.9774L9.31916 30.9735C9.33192 30.8446 9.29483 30.7575 9.22778 30.6923C9.15841 30.6248 9.05398 30.5777 8.92677 30.5382L8.92652 30.5381L8.1422 30.2888L8.14214 30.2888C7.97372 30.2349 7.84206 30.1609 7.75349 30.0556C7.66416 29.9494 7.62209 29.8155 7.62529 29.6494M9.35897 30.9774C9.33143 31.2453 9.09774 31.4332 8.60554 31.4332C8.10136 31.4361 7.83088 31.2142 7.83088 30.8695V30.8295C7.83088 30.7647 7.7939 30.731 7.72013 30.731C7.64636 30.731 7.60938 30.7647 7.60938 30.8295L7.61043 30.9158M7.62529 29.6494L7.66528 29.6501M7.62529 29.6494C7.62528 29.6494 7.62528 29.6494 7.62528 29.6495L7.66528 29.6501M7.62529 29.6494C7.62878 29.4396 7.71904 29.2764 7.88529 29.1673C8.04934 29.0598 8.28421 29.0069 8.5757 29.0069C8.92347 29.0069 9.16823 29.0801 9.32679 29.2052C9.48679 29.3314 9.55385 29.5064 9.55385 29.6966V29.7366C9.55385 29.7716 9.54393 29.8068 9.51618 29.8328C9.48886 29.8583 9.45059 29.869 9.40646 29.869C9.36099 29.869 9.32189 29.8585 9.29406 29.8331C9.26557 29.807 9.25571 29.7716 9.25571 29.7366V29.7118C9.25571 29.5852 9.19398 29.48 9.08025 29.4049C8.96533 29.3289 8.79692 29.2838 8.5883 29.2838C8.38802 29.2838 8.21942 29.3128 8.10198 29.3739C7.98702 29.4336 7.92229 29.5229 7.9209 29.6504L7.9209 29.6504C7.91955 29.7618 7.95484 29.8381 8.01477 29.8962C8.07647 29.956 8.16692 29.9992 8.28059 30.0371M7.66528 29.6501C7.67179 29.2562 8.00048 29.0469 8.5757 29.0469C9.26166 29.0469 9.51385 29.3362 9.51385 29.6966V29.7366C9.51385 29.792 9.48296 29.829 9.40646 29.829C9.32639 29.829 9.29571 29.792 9.29571 29.7366V29.7118C9.29571 29.4284 9.01577 29.2438 8.5883 29.2438C8.18227 29.2438 7.88406 29.3606 7.8809 29.6499C7.87796 29.8932 8.03747 29.9982 8.26823 30.0752M8.28059 30.0371L8.28029 30.037L8.26823 30.0752M8.28059 30.0371C8.28069 30.0372 8.28079 30.0372 8.28089 30.0372L8.26823 30.0752M8.28059 30.0371L9.09563 30.3367M8.26823 30.0752L9.09563 30.3367M7.61043 30.9158H7.57043C7.57043 30.9159 7.57043 30.916 7.57043 30.916M7.61043 30.9158C7.61043 31.1805 7.77351 31.6331 8.61605 31.6331C9.27133 31.6331 9.5542 31.3593 9.579 30.9741M7.61043 30.9158L7.57043 30.9163L7.57043 30.916M7.57043 30.916L9.579 30.9741M9.579 30.9741C9.59687 30.6784 9.47077 30.4569 9.09563 30.3367M9.579 30.9741L9.09563 30.3367" fill="#DDDDDD" stroke="#DDDDDD" stroke-width="0.08"/>
<path d="M12.0595 29.1337L12.0595 29.1337L11.1674 31.157L10.2767 29.1369C10.2554 29.0542 10.1766 28.9994 10.0915 29.0084C10.0436 29.0088 9.9998 29.0201 9.96835 29.0518C9.93646 29.0839 9.92484 29.1294 9.92484 29.1808V31.5332C9.92484 31.5735 9.93504 31.6113 9.96363 31.6384C9.99179 31.6652 10.0306 31.6746 10.0727 31.6746C10.1147 31.6746 10.1535 31.6652 10.1816 31.6383C10.21 31.6112 10.22 31.5733 10.22 31.5332V30.2554C10.22 30.0726 10.2185 29.868 10.2079 29.6775L11.0014 31.4936C11.0278 31.5609 11.0948 31.6033 11.1667 31.5986C11.2398 31.6058 11.3087 31.5624 11.3336 31.493L12.127 29.6773C12.1164 29.868 12.1147 30.073 12.1147 30.2554V31.5334C12.1147 31.5737 12.1249 31.6115 12.1535 31.6386C12.1817 31.6654 12.2205 31.6749 12.2625 31.6749C12.3046 31.6749 12.3434 31.6654 12.3714 31.6386C12.3999 31.6114 12.4099 31.5735 12.4099 31.5334V29.1838C12.4168 29.1356 12.4006 29.0869 12.3661 29.0523C12.3316 29.0177 12.2828 29.0015 12.2346 29.0084C12.1947 29.0088 12.1593 29.0159 12.1286 29.0379C12.098 29.0599 12.0774 29.0931 12.0595 29.1337Z" fill="#DDDDDD" stroke="#DDDDDD" stroke-width="0.08"/>
<mask id="path-4-outside-1_934_11915" maskUnits="userSpaceOnUse" x="11.6719" y="28.0469" width="4" height="4" fill="black">
<rect fill="white" x="11.6719" y="28.0469" width="4" height="4"/>
<path fill-rule="evenodd" clip-rule="evenodd" d="M14.8136 31.628C14.8905 31.6068 14.9153 31.5668 14.8844 31.4989L13.8971 29.1331C13.8725 29.0679 13.8549 29.0469 13.7864 29.0469C13.7178 29.0469 13.7002 29.0688 13.6758 29.1331L12.6824 31.4898C12.6696 31.5139 12.6684 31.5425 12.6792 31.5676C12.6899 31.5927 12.7114 31.6116 12.7377 31.619C12.8085 31.6499 12.8549 31.6373 12.8759 31.5851L13.1346 30.9661H14.4292L14.6753 31.551C14.7029 31.619 14.7367 31.6493 14.8136 31.628ZM14.349 30.7614H13.2266L13.5258 30.0531C13.5967 29.8898 13.707 29.6342 13.7871 29.4219H13.7961C13.8645 29.597 13.9498 29.8013 14.0156 29.9591C14.0297 29.9928 14.0429 30.0244 14.0548 30.0531L14.349 30.7614Z"/>
</mask>
<path fill-rule="evenodd" clip-rule="evenodd" d="M14.8136 31.628C14.8905 31.6068 14.9153 31.5668 14.8844 31.4989L13.8971 29.1331C13.8725 29.0679 13.8549 29.0469 13.7864 29.0469C13.7178 29.0469 13.7002 29.0688 13.6758 29.1331L12.6824 31.4898C12.6696 31.5139 12.6684 31.5425 12.6792 31.5676C12.6899 31.5927 12.7114 31.6116 12.7377 31.619C12.8085 31.6499 12.8549 31.6373 12.8759 31.5851L13.1346 30.9661H14.4292L14.6753 31.551C14.7029 31.619 14.7367 31.6493 14.8136 31.628ZM14.349 30.7614H13.2266L13.5258 30.0531C13.5967 29.8898 13.707 29.6342 13.7871 29.4219H13.7961C13.8645 29.597 13.9498 29.8013 14.0156 29.9591C14.0297 29.9928 14.0429 30.0244 14.0548 30.0531L14.349 30.7614Z" fill="#DDDDDD"/>
<path d="M14.8844 31.4989L14.8106 31.5297L14.8116 31.532L14.8844 31.4989ZM14.8136 31.628L14.7923 31.5509L14.7923 31.5509L14.8136 31.628ZM13.8971 29.1331L13.8222 29.1614L13.8233 29.164L13.8971 29.1331ZM13.6758 29.1331L13.7496 29.1642L13.7506 29.1615L13.6758 29.1331ZM12.6824 31.4898L12.7534 31.5274L12.7561 31.5209L12.6824 31.4898ZM12.6792 31.5676L12.6056 31.5991L12.6792 31.5676ZM12.7377 31.619L12.77 31.545L12.7593 31.542L12.7377 31.619ZM12.8759 31.5851L12.8021 31.5543L12.8017 31.5552L12.8759 31.5851ZM13.1346 30.9661V30.8861H13.0814L13.0608 30.9352L13.1346 30.9661ZM14.4292 30.9661L14.503 30.9351L14.4824 30.8861H14.4292V30.9661ZM14.6753 31.551L14.7495 31.521L14.7491 31.52L14.6753 31.551ZM13.2266 30.7614L13.1529 30.7302L13.1059 30.8414H13.2266V30.7614ZM14.349 30.7614V30.8414H14.4689L14.4229 30.7307L14.349 30.7614ZM13.5258 30.0531L13.4524 30.0213L13.4521 30.022L13.5258 30.0531ZM13.7871 29.4219V29.3419H13.7317L13.7122 29.3936L13.7871 29.4219ZM13.7961 29.4219L13.8706 29.3928L13.8507 29.3419H13.7961V29.4219ZM14.0156 29.9591L14.0895 29.9283L14.0895 29.9283L14.0156 29.9591ZM14.0548 30.0531L14.1287 30.0224L14.1287 30.0224L14.0548 30.0531ZM14.8116 31.532C14.8167 31.543 14.8173 31.5485 14.8174 31.5495C14.8174 31.5495 14.8174 31.5459 14.8198 31.5416C14.822 31.5378 14.8235 31.5379 14.8195 31.5403C14.8152 31.543 14.8069 31.5469 14.7923 31.5509L14.8349 31.7052C14.8799 31.6927 14.9313 31.6696 14.9591 31.6203C14.9891 31.5672 14.9776 31.5106 14.9573 31.4657L14.8116 31.532ZM13.8233 29.164L14.8106 31.5297L14.9583 31.468L13.9709 29.1023L13.8233 29.164ZM13.7864 29.1269C13.8143 29.1269 13.8126 29.1317 13.8069 29.1269C13.8051 29.1255 13.8061 29.1254 13.8091 29.131C13.8124 29.1369 13.8165 29.1461 13.8223 29.1614L13.972 29.1049C13.96 29.0733 13.9435 29.0326 13.9095 29.0042C13.8717 28.9726 13.8269 28.9669 13.7864 28.9669V29.1269ZM13.7506 29.1615C13.7564 29.1464 13.7604 29.1372 13.7637 29.1313C13.7668 29.1257 13.7678 29.1256 13.7661 29.127C13.7606 29.1317 13.7589 29.1269 13.7864 29.1269V28.9669C13.7453 28.9669 13.7005 28.973 13.6629 29.0047C13.6292 29.0332 13.6128 29.0736 13.601 29.1048L13.7506 29.1615ZM12.7561 31.5209L13.7495 29.1642L13.6021 29.1021L12.6087 31.4587L12.7561 31.5209ZM12.7527 31.5362C12.7515 31.5333 12.7516 31.53 12.7531 31.5272L12.6117 31.4524C12.5876 31.4978 12.5854 31.5518 12.6056 31.5991L12.7527 31.5362ZM12.7593 31.542C12.7564 31.5412 12.7539 31.539 12.7527 31.5362L12.6056 31.5991C12.6259 31.6464 12.6664 31.6821 12.716 31.696L12.7593 31.542ZM12.8017 31.5552C12.7998 31.5599 12.7988 31.5602 12.8002 31.5589C12.8019 31.5573 12.8043 31.5561 12.8059 31.5556C12.8071 31.5554 12.8052 31.5561 12.7989 31.5551C12.7925 31.5541 12.7828 31.5514 12.7697 31.5457L12.7056 31.6923C12.7485 31.711 12.7973 31.7228 12.845 31.7108C12.8979 31.6975 12.9322 31.6596 12.9501 31.615L12.8017 31.5552ZM13.0608 30.9352L12.8021 31.5543L12.9498 31.616L13.2085 30.9969L13.0608 30.9352ZM14.4292 30.8861H13.1346V31.0461H14.4292V30.8861ZM14.7491 31.52L14.503 30.9351L14.3555 30.9971L14.6016 31.5821L14.7491 31.52ZM14.7923 31.5509C14.7655 31.5583 14.7636 31.5522 14.7683 31.5551C14.7691 31.5556 14.7674 31.5549 14.7638 31.5496C14.76 31.544 14.7552 31.535 14.7495 31.521L14.6012 31.5811C14.6165 31.6188 14.6398 31.6635 14.6836 31.6909C14.7314 31.7206 14.7848 31.719 14.8349 31.7052L14.7923 31.5509ZM13.2266 30.8414H14.349V30.6814H13.2266V30.8414ZM13.4521 30.022L13.1529 30.7302L13.3003 30.7925L13.5995 30.0843L13.4521 30.022ZM13.7122 29.3936C13.6329 29.6038 13.5234 29.8578 13.4524 30.0213L13.5992 30.085C13.6699 29.9219 13.7811 29.6645 13.8619 29.4501L13.7122 29.3936ZM13.7961 29.3419H13.7871V29.5019H13.7961V29.3419ZM14.0895 29.9283C14.0235 29.7703 13.9386 29.5669 13.8706 29.3928L13.7216 29.451C13.7904 29.6271 13.876 29.8323 13.9418 29.9899L14.0895 29.9283ZM14.1287 30.0224C14.1167 29.9936 14.1035 29.962 14.0895 29.9283L13.9418 29.9899C13.9559 30.0236 13.969 30.0552 13.9809 30.0838L14.1287 30.0224ZM14.4229 30.7307L14.1287 30.0224L13.9809 30.0838L14.2752 30.7921L14.4229 30.7307Z" fill="#DDDDDD" mask="url(#path-4-outside-1_934_11915)"/>
<mask id="path-6-outside-2_934_11915" maskUnits="userSpaceOnUse" x="14.1953" y="28.0781" width="3" height="4" fill="black">
<rect fill="white" x="14.1953" y="28.0781" width="3" height="4"/>
<path fill-rule="evenodd" clip-rule="evenodd" d="M17.0296 31.6183C17.0975 31.5844 17.1126 31.5444 17.0788 31.4769L16.5664 30.4936C16.8289 30.4489 17.0149 30.2125 16.9968 29.9465V29.6353C16.9968 29.3096 16.8005 29.0781 16.3453 29.0781H15.3336C15.2413 29.0781 15.1953 29.1181 15.1953 29.2166V31.5417C15.1953 31.6006 15.2228 31.634 15.3027 31.634C15.3826 31.634 15.4135 31.5997 15.4135 31.5288V30.5157H16.3361L16.8825 31.569C16.8919 31.5982 16.9146 31.6212 16.9436 31.6309C16.9726 31.6406 17.0046 31.6359 17.0296 31.6183ZM15.4141 30.3126V29.2875L16.3428 29.2886C16.6198 29.2886 16.7736 29.3961 16.7736 29.698V29.8918C16.7736 30.1929 16.6198 30.3126 16.3428 30.3126H15.4141Z"/>
</mask>
<path fill-rule="evenodd" clip-rule="evenodd" d="M17.0296 31.6183C17.0975 31.5844 17.1126 31.5444 17.0788 31.4769L16.5664 30.4936C16.8289 30.4489 17.0149 30.2125 16.9968 29.9465V29.6353C16.9968 29.3096 16.8005 29.0781 16.3453 29.0781H15.3336C15.2413 29.0781 15.1953 29.1181 15.1953 29.2166V31.5417C15.1953 31.6006 15.2228 31.634 15.3027 31.634C15.3826 31.634 15.4135 31.5997 15.4135 31.5288V30.5157H16.3361L16.8825 31.569C16.8919 31.5982 16.9146 31.6212 16.9436 31.6309C16.9726 31.6406 17.0046 31.6359 17.0296 31.6183ZM15.4141 30.3126V29.2875L16.3428 29.2886C16.6198 29.2886 16.7736 29.3961 16.7736 29.698V29.8918C16.7736 30.1929 16.6198 30.3126 16.3428 30.3126H15.4141Z" fill="#DDDDDD"/>
<path d="M17.0788 31.4769L17.1503 31.441L17.1497 31.4399L17.0788 31.4769ZM17.0296 31.6183L16.9935 31.5458L16.9834 31.5529L17.0296 31.6183ZM16.5664 30.4936L16.553 30.4147L16.4447 30.4331L16.4955 30.5306L16.5664 30.4936ZM16.9968 29.9465H16.9166L16.917 29.9519L16.9968 29.9465ZM15.4135 30.5157V30.4357H15.3335V30.5157H15.4135ZM16.3361 30.5157L16.4071 30.4788L16.3847 30.4357H16.3361V30.5157ZM16.8825 31.569L16.9597 31.5442L16.9535 31.5322L16.8825 31.569ZM16.9436 31.6309L16.9182 31.7068L16.9182 31.7068L16.9436 31.6309ZM15.4141 29.2875L15.4142 29.2075L15.3341 29.2074V29.2875H15.4141ZM15.4141 30.3126H15.3341V30.3926H15.4141V30.3126ZM16.3428 29.2886L16.3427 29.3686H16.3428V29.2886ZM17.0072 31.5127C17.0203 31.5388 17.0142 31.5411 17.0169 31.5335C17.0181 31.5302 17.0194 31.5299 17.0166 31.5324C17.0134 31.5353 17.0067 31.5403 16.9939 31.5467L17.0653 31.6898C17.1057 31.6697 17.1493 31.639 17.1677 31.5869C17.1865 31.5339 17.171 31.4824 17.1503 31.441L17.0072 31.5127ZM16.4955 30.5306L17.0078 31.5138L17.1497 31.4399L16.6373 30.4566L16.4955 30.5306ZM16.917 29.9519C16.9323 30.177 16.7749 30.377 16.553 30.4147L16.5798 30.5725C16.8829 30.5209 17.0975 30.2479 17.0766 29.9411L16.917 29.9519ZM16.9168 29.6353V29.9465H17.0768V29.6353H16.9168ZM16.3453 29.1581C16.5601 29.1581 16.7008 29.2127 16.7873 29.2931C16.873 29.3729 16.9168 29.4886 16.9168 29.6353H17.0768C17.0768 29.4563 17.0225 29.2934 16.8963 29.176C16.7708 29.0593 16.5857 28.9981 16.3453 28.9981V29.1581ZM15.3336 29.1581H16.3453V28.9981H15.3336V29.1581ZM15.2753 29.2166C15.2753 29.1782 15.2844 29.169 15.2855 29.1679C15.2872 29.1663 15.297 29.1581 15.3336 29.1581V28.9981C15.2779 28.9981 15.2186 29.0099 15.1742 29.0529C15.1293 29.0965 15.1153 29.1564 15.1153 29.2166H15.2753ZM15.2753 31.5417V29.2166H15.1153V31.5417H15.2753ZM15.3027 31.554C15.288 31.554 15.2793 31.5525 15.2748 31.5511C15.2707 31.5499 15.2714 31.5494 15.2736 31.5514C15.276 31.5537 15.2768 31.5559 15.2767 31.5555C15.2764 31.5546 15.2753 31.5505 15.2753 31.5417H15.1153C15.1153 31.5822 15.1248 31.6314 15.1645 31.6685C15.2028 31.7042 15.2539 31.714 15.3027 31.714V31.554ZM15.3335 31.5288C15.3335 31.5547 15.3276 31.5553 15.3319 31.551C15.3358 31.5471 15.3334 31.554 15.3027 31.554V31.714C15.3519 31.714 15.4048 31.7038 15.4442 31.665C15.4839 31.6259 15.4935 31.5739 15.4935 31.5288H15.3335ZM15.3335 30.5157V31.5288H15.4935V30.5157H15.3335ZM16.3361 30.4357H15.4135V30.5957H16.3361V30.4357ZM16.9535 31.5322L16.4071 30.4788L16.2651 30.5525L16.8115 31.6059L16.9535 31.5322ZM16.969 31.5551C16.9641 31.5534 16.9603 31.5495 16.9587 31.5446L16.8063 31.5935C16.8235 31.6469 16.865 31.689 16.9182 31.7068L16.969 31.5551ZM16.9834 31.5529C16.9792 31.5559 16.9739 31.5567 16.969 31.5551L16.9182 31.7068C16.9714 31.7246 17.0299 31.716 17.0758 31.6836L16.9834 31.5529ZM15.3341 29.2875V30.3126H15.4941V29.2875H15.3341ZM16.3429 29.2086L15.4142 29.2075L15.414 29.3675L16.3427 29.3686L16.3429 29.2086ZM16.8536 29.698C16.8536 29.5344 16.8117 29.4056 16.715 29.3201C16.6205 29.2365 16.4891 29.2086 16.3428 29.2086V29.3686C16.4734 29.3686 16.5575 29.3944 16.6091 29.44C16.6585 29.4837 16.6936 29.5597 16.6936 29.698H16.8536ZM16.8536 29.8918V29.698H16.6936V29.8918H16.8536ZM16.3428 30.3926C16.4909 30.3926 16.6223 30.3609 16.7164 30.2739C16.8117 30.1857 16.8536 30.0551 16.8536 29.8918H16.6936C16.6936 30.0296 16.6586 30.1094 16.6077 30.1564C16.5557 30.2045 16.4716 30.2326 16.3428 30.2326V30.3926ZM15.4141 30.3926H16.3428V30.2326H15.4141V30.3926Z" fill="#DDDDDD" mask="url(#path-6-outside-2_934_11915)"/>
<path d="M19.1656 29.0381H17.2927C17.257 29.0381 17.2199 29.0445 17.194 29.0731C17.1692 29.1004 17.1631 29.139 17.1631 29.1795C17.1631 29.2201 17.1692 29.2587 17.1939 29.2861C17.2198 29.3148 17.2568 29.3214 17.2927 29.3214H18.0801V31.529C18.0801 31.5676 18.0862 31.6072 18.1136 31.6361C18.1415 31.6654 18.1821 31.6743 18.2274 31.6743C18.273 31.6743 18.3136 31.6651 18.3415 31.6358C18.3689 31.6069 18.3753 31.5674 18.3753 31.529V29.3214H19.1656C19.2004 29.3214 19.2367 29.3146 19.2626 29.2865C19.2876 29.2593 19.2947 29.2211 19.2947 29.1795C19.2947 29.1381 19.2876 29.0998 19.2625 29.0727C19.2365 29.0448 19.2002 29.0381 19.1656 29.0381Z" fill="#DDDDDD" stroke="#DDDDDD" stroke-width="0.08"/>
<mask id="path-9-outside-3_934_11915" maskUnits="userSpaceOnUse" x="6.60938" y="31.6699" width="3" height="4" fill="black">
<rect fill="white" x="6.60938" y="31.6699" width="3" height="4"/>
<path fill-rule="evenodd" clip-rule="evenodd" d="M7.83719 32.6699C7.67726 32.6699 7.60938 32.7221 7.60938 32.8976V35.1701C7.60938 35.25 7.66128 35.3054 7.79074 35.3054C7.9202 35.3054 7.97548 35.2502 7.97548 35.1391V34.2434H8.78102C9.29781 34.2434 9.5252 33.9383 9.5252 33.5844V33.3289C9.5252 32.9746 9.29781 32.6699 8.78102 32.6699H7.83719ZM8.77917 33.8976H7.97656V33.0199H8.77917C8.96999 33.0199 9.15473 33.1093 9.15473 33.4235V33.4944C9.15473 33.8084 8.96999 33.8976 8.77917 33.8976Z"/>
</mask>
<path fill-rule="evenodd" clip-rule="evenodd" d="M7.83719 32.6699C7.67726 32.6699 7.60938 32.7221 7.60938 32.8976V35.1701C7.60938 35.25 7.66128 35.3054 7.79074 35.3054C7.9202 35.3054 7.97548 35.2502 7.97548 35.1391V34.2434H8.78102C9.29781 34.2434 9.5252 33.9383 9.5252 33.5844V33.3289C9.5252 32.9746 9.29781 32.6699 8.78102 32.6699H7.83719ZM8.77917 33.8976H7.97656V33.0199H8.77917C8.96999 33.0199 9.15473 33.1093 9.15473 33.4235V33.4944C9.15473 33.8084 8.96999 33.8976 8.77917 33.8976Z" fill="#DDDDDD"/>
<path d="M7.97548 34.2434V34.1634H7.89548V34.2434H7.97548ZM7.97656 33.8976H7.89656V33.9776H7.97656V33.8976ZM7.97656 33.0199V32.9399H7.89656V33.0199H7.97656ZM7.68937 32.8976C7.68937 32.8167 7.7057 32.788 7.7183 32.7761C7.73191 32.7632 7.76182 32.7499 7.83719 32.7499V32.5899C7.75263 32.5899 7.66863 32.6028 7.60832 32.6598C7.54699 32.7179 7.52938 32.803 7.52938 32.8976H7.68937ZM7.68937 35.1701V32.8976H7.52938V35.1701H7.68937ZM7.79074 35.2254C7.7357 35.2254 7.71144 35.2134 7.70214 35.2058C7.69555 35.2004 7.68937 35.1917 7.68937 35.1701H7.52938C7.52938 35.2284 7.54915 35.2874 7.60089 35.3297C7.6499 35.3697 7.71633 35.3854 7.79074 35.3854V35.2254ZM7.89548 35.1391C7.89548 35.1824 7.88483 35.1983 7.87742 35.2051C7.86859 35.2133 7.84622 35.2254 7.79074 35.2254V35.3854C7.86473 35.3854 7.93472 35.3699 7.98589 35.3227C8.03849 35.2742 8.05548 35.207 8.05548 35.1391H7.89548ZM7.89548 34.2434V35.1391H8.05548V34.2434H7.89548ZM8.78102 34.1634H7.97548V34.3234H8.78102V34.1634ZM9.4452 33.5844C9.4452 33.7443 9.39406 33.8871 9.29056 33.9898C9.18739 34.0922 9.02345 34.1634 8.78102 34.1634V34.3234C9.05538 34.3234 9.26353 34.2421 9.40326 34.1034C9.54265 33.9651 9.6052 33.7784 9.6052 33.5844H9.4452ZM9.4452 33.3289V33.5844H9.6052V33.3289H9.4452ZM8.78102 32.7499C9.02348 32.7499 9.18742 32.821 9.29057 32.9234C9.39405 33.026 9.4452 33.1688 9.4452 33.3289H9.6052C9.6052 33.1348 9.54266 32.948 9.40324 32.8098C9.2635 32.6711 9.05535 32.5899 8.78102 32.5899V32.7499ZM7.83719 32.7499H8.78102V32.5899H7.83719V32.7499ZM7.97656 33.9776H8.77917V33.8176H7.97656V33.9776ZM7.89656 33.0199V33.8976H8.05656V33.0199H7.89656ZM8.77917 32.9399H7.97656V33.0999H8.77917V32.9399ZM9.23473 33.4235C9.23473 33.2504 9.18327 33.1247 9.09135 33.0438C9.00139 32.9647 8.88554 32.9399 8.77917 32.9399V33.0999C8.86362 33.0999 8.93555 33.1199 8.98566 33.164C9.03382 33.2063 9.07473 33.2825 9.07473 33.4235H9.23473ZM9.23473 33.4944V33.4235H9.07473V33.4944H9.23473ZM8.77917 33.9776C8.8855 33.9776 9.00135 33.9529 9.09132 33.8738C9.18326 33.793 9.23473 33.6674 9.23473 33.4944H9.07473C9.07473 33.6353 9.03383 33.7113 8.9857 33.7536C8.93559 33.7977 8.86366 33.8176 8.77917 33.8176V33.9776Z" fill="#DDDDDD" mask="url(#path-9-outside-3_934_11915)"/>
<path d="M10.0035 35.309L10.0034 35.309C9.93677 35.309 9.88013 35.2939 9.84095 35.2536C9.80202 35.2134 9.78813 35.1563 9.78813 35.0901V32.8484C9.78813 32.7823 9.80195 32.7251 9.84091 32.6851C9.88009 32.6448 9.93676 32.6299 10.0034 32.6299H11.4642C11.5223 32.6299 11.5734 32.6435 11.6088 32.6826C11.6432 32.7207 11.6551 32.775 11.6551 32.8383C11.6551 32.9016 11.6432 32.9558 11.6087 32.9939C11.5733 33.033 11.5222 33.0466 11.4642 33.0466H10.2304V33.727H11.3959C11.4546 33.727 11.5055 33.7417 11.5405 33.7811C11.5745 33.8194 11.5864 33.8734 11.5864 33.9354C11.5864 33.9975 11.5743 34.0521 11.5407 34.0913C11.506 34.1318 11.4552 34.1481 11.3959 34.1481H10.2304V34.8868H11.4934C11.5522 34.8868 11.6035 34.9016 11.6392 34.9406C11.6743 34.9788 11.6873 35.0328 11.6873 35.0952C11.6873 35.1577 11.6741 35.2118 11.6392 35.2503C11.6036 35.2896 11.5524 35.305 11.4935 35.305L10.0035 35.309ZM10.0035 35.309L11.4934 35.305L10.0035 35.309Z" fill="#DDDDDD" stroke="#DDDDDD" stroke-width="0.08"/>
<path d="M11.9509 32.6323C11.91 32.6375 11.8739 32.6518 11.8467 32.6814C11.8119 32.7194 11.7998 32.7742 11.7998 32.8393C11.7998 32.9043 11.8116 32.9595 11.846 32.9982C11.8814 33.038 11.9327 33.0516 11.9907 33.0516H12.6676V35.1417C12.6676 35.2031 12.683 35.2572 12.7237 35.2952C12.7638 35.3327 12.821 35.3475 12.889 35.3475C12.9569 35.3475 13.0141 35.3328 13.0542 35.2953C13.0949 35.2573 13.1103 35.2032 13.1103 35.1417V33.0506H13.7872C13.8446 33.0506 13.8952 33.0354 13.9304 32.9956C13.9646 32.9569 13.9777 32.9022 13.9777 32.8383C13.9777 32.7744 13.9647 32.7203 13.9299 32.6824C13.8944 32.6437 13.8437 32.6299 13.7872 32.6299H11.9909H11.9509V32.6323Z" fill="#DDDDDD" stroke="#DDDDDD" stroke-width="0.08"/>
<path d="M14.835 32.8205V32.8205L14.8352 35.104C14.8352 35.1706 14.8501 35.2277 14.8899 35.2676C14.9298 35.3075 14.9868 35.3224 15.0534 35.3224H16.4127C16.47 35.3224 16.5214 35.3099 16.557 35.2711C16.5918 35.2332 16.6036 35.1787 16.6036 35.1141C16.6036 35.0495 16.5919 34.9949 16.5571 34.957C16.5215 34.9182 16.4701 34.9057 16.4127 34.9057H15.2811V32.8205C15.2811 32.7583 15.2667 32.7036 15.2259 32.6656C15.1857 32.6281 15.128 32.6143 15.0593 32.6143C14.9906 32.6143 14.9325 32.6281 14.8918 32.6653C14.8503 32.7032 14.835 32.7578 14.835 32.8205Z" fill="#DDDDDD" stroke="#DDDDDD" stroke-width="0.08"/>
<path d="M16.7998 32.8205V35.1578C16.7998 35.2189 16.8143 35.2733 16.8548 35.3116C16.8948 35.3494 16.9524 35.3641 17.0216 35.3641C17.0909 35.3641 17.1484 35.3494 17.1883 35.3116C17.2287 35.2733 17.243 35.2189 17.243 35.1578V32.8205C17.243 32.7584 17.2288 32.7037 17.1881 32.6656C17.1481 32.6281 17.0904 32.6143 17.0216 32.6143C16.9528 32.6143 16.8951 32.6281 16.855 32.6656C16.8142 32.7037 16.7998 32.7583 16.7998 32.8205Z" fill="#DDDDDD" stroke="#DDDDDD" stroke-width="0.08"/>
<path d="M17.5989 35.196C17.6043 35.2415 17.6199 35.2811 17.6518 35.3105C17.6919 35.3475 17.7495 35.3606 17.8179 35.3606C17.8869 35.3606 17.945 35.3462 17.9857 35.3085C18.0269 35.2701 18.0422 35.2151 18.0422 35.1522V34.1454H19.2112C19.27 34.1454 19.3208 34.1301 19.3557 34.0903C19.3896 34.0517 19.4017 33.9976 19.4017 33.9356C19.4017 33.8738 19.3898 33.8199 19.3558 33.7815C19.3208 33.7421 19.27 33.7273 19.2112 33.7273H18.0422V33.0622H19.2791C19.3371 33.0622 19.3882 33.0486 19.4236 33.0095C19.458 32.9714 19.47 32.9172 19.47 32.8539C19.47 32.7906 19.4581 32.7363 19.4236 32.6982C19.3883 32.6591 19.3372 32.6455 19.2791 32.6455H17.8124C17.7471 32.6455 17.6906 32.6606 17.6511 32.7005C17.6117 32.7403 17.5967 32.7973 17.5967 32.864V35.156V35.196H17.5989Z" fill="#DDDDDD" stroke="#DDDDDD" stroke-width="0.08"/>
<path d="M19.9019 35.3254H19.9018C19.8353 35.3254 19.7786 35.3106 19.7394 35.2703C19.7005 35.2303 19.6866 35.1731 19.6866 35.107V32.864C19.6866 32.7979 19.7004 32.7408 19.7393 32.7007C19.7785 32.6604 19.8352 32.6455 19.9018 32.6455H21.3629C21.4209 32.6455 21.472 32.6591 21.5072 32.6983C21.5416 32.7364 21.5534 32.7907 21.5534 32.8539C21.5534 32.9172 21.5414 32.9714 21.507 33.0095C21.4717 33.0486 21.4207 33.0622 21.3629 33.0622H20.1295V33.7431H21.2952C21.3538 33.7431 21.4048 33.7577 21.4399 33.7971C21.4741 33.8354 21.4861 33.8894 21.4861 33.9514C21.4861 34.0136 21.4739 34.0682 21.4401 34.1073C21.4052 34.1476 21.3544 34.1637 21.2952 34.1637H20.1297V34.9071H21.3927C21.4514 34.9071 21.5027 34.9217 21.5385 34.9606C21.5736 34.9988 21.5866 35.0528 21.5866 35.1154C21.5866 35.1781 21.5734 35.2321 21.5383 35.2702C21.5025 35.3091 21.4512 35.3238 21.3928 35.3238L19.9019 35.3254ZM19.9019 35.3254L21.3927 35.3238L19.9019 35.3254Z" fill="#DDDDDD" stroke="#DDDDDD" stroke-width="0.08"/>
<mask id="path-17-outside-4_934_11915" maskUnits="userSpaceOnUse" x="3.79688" y="2.20117" width="32" height="37" fill="black">
<rect fill="white" x="3.79688" y="2.20117" width="32" height="37"/>
<path fill-rule="evenodd" clip-rule="evenodd" d="M5.01481 38.6678H34.9787C35.0989 38.6679 35.1965 38.5706 35.1969 38.4502V18.7267C35.1969 18.6709 35.1754 18.6173 35.137 18.5769L20.6474 3.26916C20.6076 3.22673 20.5524 3.20222 20.4942 3.20119C20.4363 3.20036 20.3804 3.22227 20.3385 3.26222L4.8635 18.2104C4.82093 18.2514 4.79688 18.308 4.79688 18.3671V38.4496C4.79688 38.5701 4.89445 38.6678 5.01481 38.6678ZM34.7626 38.2291H5.23501L5.23438 18.457L20.4839 3.72617L34.7626 18.8109V38.2291Z"/>
</mask>
<path fill-rule="evenodd" clip-rule="evenodd" d="M5.01481 38.6678H34.9787C35.0989 38.6679 35.1965 38.5706 35.1969 38.4502V18.7267C35.1969 18.6709 35.1754 18.6173 35.137 18.5769L20.6474 3.26916C20.6076 3.22673 20.5524 3.20222 20.4942 3.20119C20.4363 3.20036 20.3804 3.22227 20.3385 3.26222L4.8635 18.2104C4.82093 18.2514 4.79688 18.308 4.79688 18.3671V38.4496C4.79688 38.5701 4.89445 38.6678 5.01481 38.6678ZM34.7626 38.2291H5.23501L5.23438 18.457L20.4839 3.72617L34.7626 18.8109V38.2291Z" fill="#DDDDDD"/>
<path d="M34.9787 38.6678L34.9791 38.2678H34.9787V38.6678ZM35.1969 38.4502L35.5969 38.4514V38.4502H35.1969ZM35.1969 18.7267H35.5969V18.7267L35.1969 18.7267ZM35.137 18.5769L34.8465 18.8519L34.8473 18.8527L35.137 18.5769ZM20.6474 3.26916L20.3557 3.54288L20.3569 3.54413L20.6474 3.26916ZM20.4942 3.20119L20.5013 2.80125L20.5 2.80124L20.4942 3.20119ZM20.3385 3.26222L20.0626 2.97258L20.0606 2.97452L20.3385 3.26222ZM4.8635 18.2104L5.14104 18.4984L5.1414 18.4981L4.8635 18.2104ZM5.23501 38.2291L4.83501 38.2291L4.83502 38.6291H5.23501V38.2291ZM34.7626 38.2291V38.6291H35.1626V38.2291H34.7626ZM5.23438 18.457L4.95647 18.1693L4.83437 18.2872L4.83437 18.457L5.23438 18.457ZM20.4839 3.72617L20.7744 3.4512L20.4966 3.15774L20.206 3.43848L20.4839 3.72617ZM34.7626 18.8109H35.1626V18.6516L35.0531 18.5359L34.7626 18.8109ZM34.9787 38.2678H5.01481V39.0678H34.9787V38.2678ZM34.7969 38.4491C34.7972 38.3493 34.8783 38.2677 34.9791 38.2678L34.9783 39.0678C35.3196 39.0681 35.5959 38.7919 35.5969 38.4514L34.7969 38.4491ZM34.7969 18.7267V38.4502H35.5969V18.7267H34.7969ZM34.8473 18.8527C34.8149 18.8187 34.7969 18.7736 34.7969 18.7267L35.5969 18.7267C35.5969 18.5683 35.536 18.4159 35.4267 18.3011L34.8473 18.8527ZM20.3569 3.54413L34.8465 18.8519L35.4275 18.3019L20.9379 2.99419L20.3569 3.54413ZM20.4872 3.60113C20.4372 3.60025 20.3898 3.57918 20.3557 3.54287L20.9391 2.99544C20.8254 2.87428 20.6675 2.80418 20.5013 2.80126L20.4872 3.60113ZM20.6144 3.55185C20.5805 3.58408 20.5353 3.60183 20.4884 3.60115L20.5 2.80124C20.3373 2.79889 20.1803 2.86045 20.0626 2.97258L20.6144 3.55185ZM5.1414 18.4981L20.6164 3.54991L20.0606 2.97452L4.58559 17.9227L5.1414 18.4981ZM5.19688 18.3671C5.19688 18.4166 5.17677 18.464 5.14104 18.4984L4.58595 17.9223C4.46509 18.0388 4.39687 18.1994 4.39687 18.3671H5.19688ZM5.19688 38.4496V18.3671H4.39687V38.4496H5.19688ZM5.01481 38.2678C5.11581 38.2678 5.19688 38.3497 5.19688 38.4496H4.39687C4.39687 38.7906 4.67309 39.0678 5.01481 39.0678V38.2678ZM5.23501 38.6291H34.7626V37.8291H5.23501V38.6291ZM4.83437 18.457L4.83501 38.2291L5.63501 38.2291L5.63437 18.4569L4.83437 18.457ZM20.206 3.43848L4.95647 18.1693L5.51228 18.7446L20.7618 4.01387L20.206 3.43848ZM35.0531 18.5359L20.7744 3.4512L20.1934 4.00115L34.4721 19.0859L35.0531 18.5359ZM35.1626 38.2291V18.8109H34.3626V38.2291H35.1626Z" fill="#DDDDDD" mask="url(#path-17-outside-4_934_11915)"/>
</g>
</svg>
