<svg width="34" height="34" viewBox="0 0 34 34" fill="none" xmlns="http://www.w3.org/2000/svg">
<path d="M27.469 7.65768C26.5201 5.78681 25.1161 4.18451 23.3861 2.99807C21.6561 1.81163 19.6556 1.07914 17.5685 0.867922C16.6244 0.773193 15.6731 0.773193 14.729 0.867922C12.642 1.07928 10.6415 1.81175 8.91145 2.99805C7.18139 4.18434 5.77721 5.78641 4.82794 7.65705C3.63361 10.0439 3.17229 12.7308 3.50208 15.3793C3.83188 18.0278 4.93804 20.5195 6.68124 22.5405L15.1818 32.8754C15.2991 33.0182 15.4467 33.1333 15.6139 33.2122C15.781 33.2912 15.9636 33.3322 16.1485 33.3322C16.3333 33.3322 16.5159 33.2912 16.683 33.2122C16.8502 33.1333 16.9978 33.0182 17.1151 32.8754L25.6157 22.5405C27.3588 20.5196 28.465 18.028 28.7948 15.3796C29.1246 12.7312 28.6633 10.0444 27.469 7.65768Z" fill="#103831"/>
<path d="M19.6455 13.7487C18.9385 13.7487 18.3633 14.3246 18.3633 15.0324C18.3633 15.6525 18.8047 16.1715 19.3892 16.2903V17.8323C19.3892 18.4201 19.1589 18.9741 18.7409 19.393C18.3228 19.8116 17.7696 20.042 17.1833 20.042C16.5968 20.042 16.0435 19.8116 15.6257 19.393C15.2076 18.9741 14.9774 18.4198 14.9774 17.8323V16.2722C15.2758 16.1665 15.4904 15.8815 15.4904 15.5472V15.2631H15.6185C15.7603 15.2631 15.8749 15.1483 15.8749 15.0068V14.2267C16.4801 14.0578 17.0328 13.7382 17.484 13.2946C18.1863 12.6035 18.5732 11.6882 18.5732 10.717V10.1521C18.5732 9.63171 18.3661 9.14129 17.9903 8.77191C17.8775 8.66096 17.7532 8.56483 17.6188 8.48456C17.6191 8.47527 17.6191 8.46589 17.6191 8.4566C17.6191 7.89031 17.1589 7.42969 16.5932 7.42969C16.0277 7.42969 15.5675 7.89031 15.5675 8.4566C15.5675 9.02289 16.0277 9.48359 16.5932 9.48359C16.9595 9.48359 17.2845 9.2943 17.4662 8.99781C17.5242 9.04003 17.5791 9.08674 17.6309 9.13752C17.9079 9.40997 18.0605 9.77014 18.0605 10.1521V10.717C18.0605 11.5497 17.728 12.3351 17.1246 12.9291C16.77 13.2777 16.3427 13.5375 15.8749 13.691V13.2088C15.8749 13.0673 15.7603 12.9525 15.6185 12.9525H13.8233C13.6815 12.9525 13.5669 13.0673 13.5669 13.2088V13.6877C13.103 13.5336 12.6793 13.2749 12.3276 12.9291C11.7241 12.3355 11.3916 11.5497 11.3916 10.717V10.1521C11.3916 9.77014 11.5441 9.40997 11.8213 9.13752C11.8728 9.08674 11.9279 9.04003 11.9858 8.99781C12.1676 9.2943 12.4926 9.48359 12.8589 9.48359C13.4245 9.48359 13.8846 9.02289 13.8846 8.4566C13.8846 7.89031 13.4245 7.42969 12.8589 7.42969C12.2932 7.42969 11.833 7.89031 11.833 8.4566C11.833 8.46589 11.833 8.47511 11.8336 8.48432C11.6992 8.56451 11.5746 8.66096 11.4619 8.77191C11.086 9.14129 10.8789 9.63171 10.8789 10.1521V10.717C10.8789 11.6882 11.2658 12.6035 11.9681 13.2946C12.4162 13.7355 12.9656 14.0543 13.5669 14.2239V15.0068C13.5669 15.1483 13.6815 15.2631 13.8233 15.2631H13.9515V15.5472C13.9515 15.8815 14.1661 16.1665 14.4647 16.2722V17.8323C14.4647 18.5567 14.748 19.2396 15.2628 19.7551C15.7778 20.2707 16.4596 20.5547 17.1833 20.5547C17.9067 20.5547 18.5889 20.2707 19.1036 19.7551C19.6183 19.2396 19.9018 18.5567 19.9018 17.8323V16.2903C20.4863 16.1715 20.9277 15.6525 20.9277 15.0324C20.9277 14.3246 20.3525 13.7487 19.6455 13.7487ZM17.0939 8.56843L17.0933 8.57124C17.0933 8.57124 17.0928 8.57356 17.0925 8.57484C17.039 8.80443 16.8295 8.9709 16.5932 8.9709C16.3104 8.9709 16.0802 8.74018 16.0802 8.4566C16.0802 8.1731 16.3104 7.94238 16.5932 7.94238C16.8762 7.94238 17.1064 8.1731 17.1064 8.4566C17.1064 8.49585 17.1023 8.53246 17.0939 8.56843ZM12.8589 7.94238C13.1417 7.94238 13.3719 8.1731 13.3719 8.4566C13.3719 8.74018 13.1417 8.9709 12.8589 8.9709C12.6218 8.9709 12.4121 8.80371 12.3588 8.57124L12.3584 8.56891C12.3499 8.53326 12.3457 8.49553 12.3457 8.4566C12.3457 8.1731 12.5759 7.94238 12.8589 7.94238ZM14.0796 14.7504V13.4652H15.3622V14.7504H14.0796ZM14.7211 15.8035C14.5794 15.8035 14.4642 15.6885 14.4642 15.5472V15.2631H14.9777V15.5472C14.9777 15.6885 14.8625 15.8035 14.7211 15.8035ZM19.6455 15.8035C19.221 15.8035 18.876 15.4578 18.876 15.0324C18.876 14.6074 19.221 14.2614 19.6455 14.2614C20.0698 14.2614 20.415 14.6074 20.415 15.0324C20.415 15.4578 20.0698 15.8035 19.6455 15.8035Z" fill="white"/>
<path d="M19.6471 15.29C19.5056 15.29 19.3906 15.1753 19.3906 15.0337C19.3906 14.8921 19.5053 14.7773 19.6469 14.7773H19.6471C19.7888 14.7773 19.9035 14.8921 19.9035 15.0337C19.9035 15.1753 19.7887 15.29 19.6471 15.29Z" fill="white"/>
</svg>
