<svg width="34" height="34" viewBox="0 0 34 34" fill="none" xmlns="http://www.w3.org/2000/svg">
<path d="M27.469 7.65768C26.5201 5.78681 25.1161 4.18451 23.3861 2.99807C21.6561 1.81163 19.6556 1.07914 17.5685 0.867922C16.6244 0.773193 15.6731 0.773193 14.729 0.867922C12.642 1.07928 10.6415 1.81175 8.91145 2.99805C7.18139 4.18434 5.77721 5.78641 4.82794 7.65705C3.63361 10.0439 3.17229 12.7308 3.50208 15.3793C3.83188 18.0278 4.93804 20.5195 6.68124 22.5405L15.1818 32.8754C15.2991 33.0182 15.4467 33.1333 15.6139 33.2122C15.781 33.2912 15.9636 33.3322 16.1485 33.3322C16.3333 33.3322 16.5159 33.2912 16.683 33.2122C16.8502 33.1333 16.9978 33.0182 17.1151 32.8754L25.6157 22.5405C27.3588 20.5196 28.465 18.028 28.7948 15.3796C29.1246 12.7312 28.6633 10.0444 27.469 7.65768Z" fill="#FF9556"/>
<path d="M17.0612 15.0495C17.076 15.0347 17.0878 15.0171 17.0995 15.0023L19.4946 12.6013C20.0338 12.0622 20.3313 11.3405 20.3313 10.5716C20.3313 9.80266 20.0367 9.07794 19.4946 8.53883C18.3752 7.41935 16.5545 7.41935 15.4351 8.53883L13.0488 10.9251C13.0252 10.9369 13.0046 10.9545 12.9869 10.9722C12.9663 10.9928 12.9516 11.0135 12.9398 11.0341L10.5359 13.438C9.99676 13.9771 9.69922 14.6989 9.69922 15.4678C9.69922 16.2367 9.99676 16.9585 10.5388 17.4976C11.0868 18.0367 11.8085 18.3342 12.5745 18.3342C13.3405 18.3342 14.0622 18.0367 14.6102 17.4976C14.6102 17.4976 14.6102 17.4976 14.6131 17.4946L17.0141 15.0848C17.0318 15.076 17.0465 15.0642 17.0612 15.0495ZM15.8534 8.95716C16.2982 8.51231 16.8815 8.29136 17.4678 8.29136C18.0511 8.29136 18.6374 8.51231 19.0822 8.95716C19.5123 9.38727 19.748 9.95879 19.748 10.5716C19.748 11.1843 19.5123 11.7558 19.0822 12.186L16.8521 14.422L13.6203 11.1902L15.8534 8.95716ZM14.1977 17.0822C13.7617 17.5123 13.1843 17.748 12.5745 17.748C11.9647 17.748 11.3902 17.5123 10.9542 17.0822C10.5241 16.655 10.2884 16.0806 10.2884 15.4707C10.2884 14.858 10.5241 14.2865 10.9542 13.8563L13.2049 11.6056L16.4338 14.8374L14.1977 17.0822Z" fill="white"/>
<path d="M17.4187 15.4055C16.8796 15.9446 16.582 16.6634 16.582 17.4264C16.582 18.1895 16.8796 18.9083 17.4187 19.4474C17.9755 20.0042 18.7061 20.2841 19.4396 20.2841C20.1702 20.2841 20.9038 20.0042 21.4606 19.4474C21.9997 18.9083 22.3002 18.1895 22.3002 17.4264C22.3002 16.6634 22.0027 15.9446 21.4606 15.4055C20.3441 14.2919 18.5323 14.2919 17.4187 15.4055ZM17.1712 17.4264C17.1712 16.8196 17.4069 16.251 17.837 15.8238C18.2789 15.3819 18.8593 15.161 19.4396 15.161C19.9287 15.161 20.4148 15.3171 20.8213 15.6294L17.6396 18.8081C17.3362 18.4134 17.1712 17.9302 17.1712 17.4264ZM21.0423 19.0291C20.6004 19.471 20.02 19.6919 19.4396 19.6919C18.9506 19.6919 18.4645 19.5358 18.058 19.2235L21.2367 16.0448C21.5431 16.4395 21.7081 16.9197 21.7081 17.4264C21.7081 18.0304 21.4724 18.5989 21.0423 19.0291Z" fill="white"/>
</svg>
