<svg width="30" height="30" viewBox="0 0 30 30" fill="none" xmlns="http://www.w3.org/2000/svg">
<path d="M27.8503 26.5247L21.045 19.7191C22.537 17.9302 23.4375 15.6314 23.4375 13.125C23.4375 7.43859 18.8114 2.8125 13.125 2.8125C7.43859 2.8125 2.8125 7.43859 2.8125 13.125C2.8125 18.8114 7.43859 23.4375 13.125 23.4375C15.6314 23.4375 17.9302 22.537 19.7191 21.045L26.5247 27.8505C26.7077 28.0336 26.9477 28.1252 27.1875 28.1252C27.4273 28.1252 27.6673 28.0336 27.8503 27.8505C28.2166 27.4842 28.2166 26.8908 27.8503 26.5247ZM4.6875 13.125C4.6875 8.47266 8.47219 4.6875 13.125 4.6875C17.7778 4.6875 21.5625 8.47266 21.5625 13.125C21.5625 17.7773 17.7778 21.5625 13.125 21.5625C8.47219 21.5625 4.6875 17.7773 4.6875 13.125Z" fill="#DDDDDD"/>
</svg>
