<svg width="160" height="40" viewBox="0 0 160 40" fill="none" xmlns="http://www.w3.org/2000/svg">
<mask id="mask0_1653_20257" style="mask-type:alpha" maskUnits="userSpaceOnUse" x="0" y="0" width="160" height="40">
<rect width="160" height="40" fill="#C4C4C4"/>
</mask>
<g mask="url(#mask0_1653_20257)">
<path d="M44.2891 34.8002C44.2891 34.5302 44.4424 34.3898 44.7482 34.3898C45.054 34.3898 45.2074 34.5302 45.2074 34.8002V34.9669C45.2074 36.4032 46.3287 37.3284 48.4189 37.3161C50.4594 37.3161 51.4283 36.533 51.5424 35.4167C51.6574 34.2487 50.8663 33.7602 49.7999 33.427L46.5483 32.3879C45.1839 31.9494 44.4956 31.2067 44.5208 29.8852C44.5478 28.2436 45.9105 27.3711 48.2952 27.3711C51.139 27.3711 52.1845 28.5768 52.1845 30.079V30.2456C52.1845 30.4762 52.0564 30.6306 51.7393 30.6306C51.4074 30.6306 51.2801 30.4762 51.2801 30.2456V30.1421C51.2801 28.9609 50.1196 28.1919 48.3474 28.1919C46.6641 28.1919 45.4278 28.6786 45.4147 29.8843C45.4025 30.898 46.0638 31.3356 47.0205 31.6565L50.4507 32.7465C52.0059 33.2472 52.5287 34.1706 52.4546 35.4027C52.3518 37.0083 51.1791 38.1491 48.4625 38.1491C44.9695 38.1491 44.2934 36.2629 44.2934 35.1598L44.2891 34.8002Z" fill="#103831" stroke="#103831" stroke-width="0.2"/>
<path d="M54.1016 27.9291C54.1016 27.5442 54.2758 27.3775 54.6365 27.3775C54.9144 27.3438 55.1731 27.5259 55.2368 27.8002L59.087 36.578L62.9371 27.8002C63.0774 27.481 63.2185 27.3775 63.5244 27.3775C63.676 27.3523 63.8305 27.4022 63.9392 27.5116C64.0479 27.621 64.0975 27.7765 64.0724 27.9291V37.7338C64.0724 38.017 63.9321 38.1565 63.6272 38.1565C63.3222 38.1565 63.1802 38.017 63.1802 37.7338V32.4075C63.1802 31.3683 63.1933 30.1617 63.2952 29.1734H63.2429L59.6219 37.504C59.5441 37.7284 59.3212 37.8676 59.087 37.8382C58.8545 37.8595 58.6362 37.7231 58.552 37.504L54.931 29.1734H54.8787C54.9815 30.1617 54.9937 31.3657 54.9937 32.4075V37.7329C54.9937 38.0162 54.8535 38.1556 54.5485 38.1556C54.2436 38.1556 54.1016 38.0162 54.1016 37.7329V27.9291Z" fill="#103831" stroke="#103831" stroke-width="0.2"/>
<path fill-rule="evenodd" clip-rule="evenodd" d="M73.8713 38.1281C74.1902 38.0395 74.293 37.8729 74.1649 37.5897L70.0717 27.7306C69.9698 27.4588 69.8966 27.3711 69.6125 27.3711C69.3285 27.3711 69.2553 27.4623 69.1542 27.7306L65.0357 37.552C64.9828 37.6525 64.9779 37.7717 65.0224 37.8763C65.0669 37.9809 65.156 38.0596 65.2649 38.0904C65.5585 38.2193 65.7511 38.1667 65.8382 37.9492L66.9107 35.3694H72.2777L73.298 37.8071C73.4121 38.0904 73.5524 38.2167 73.8713 38.1281ZM71.9169 34.5097H67.2634L68.5041 31.558C68.7977 30.8776 69.2551 29.8121 69.5871 28.9273H69.6245C69.9082 29.6572 70.2616 30.5085 70.5346 31.1663C70.5929 31.3067 70.6476 31.4383 70.6971 31.558L71.9169 34.5097Z" fill="#103831"/>
<path d="M74.1649 37.5897L74.0725 37.628L74.0738 37.6309L74.1649 37.5897ZM73.8713 38.1281L73.8981 38.2244L73.8713 38.1281ZM70.0717 27.7306L69.978 27.7658L69.9793 27.769L70.0717 27.7306ZM69.1542 27.7306L69.2465 27.7693L69.2478 27.7659L69.1542 27.7306ZM65.0357 37.552L65.1246 37.5988L65.128 37.5906L65.0357 37.552ZM65.0224 37.8763L64.9304 37.9155H64.9304L65.0224 37.8763ZM65.2649 38.0904L65.3055 37.9979L65.2921 37.9942L65.2649 38.0904ZM65.8382 37.9492L65.7458 37.9108L65.7454 37.912L65.8382 37.9492ZM66.9107 35.3694V35.2694H66.844L66.8184 35.331L66.9107 35.3694ZM72.2777 35.3694L72.37 35.3307L72.3443 35.2694H72.2777V35.3694ZM73.298 37.8071L73.3908 37.7698L73.3903 37.7685L73.298 37.8071ZM67.2634 34.5097L67.1712 34.4709L67.1129 34.6097H67.2634V34.5097ZM71.9169 34.5097V34.6097H72.0664L72.0093 34.4715L71.9169 34.5097ZM68.5041 31.558L68.4123 31.5184L68.4119 31.5193L68.5041 31.558ZM69.5871 28.9273V28.8273H69.5178L69.4934 28.8922L69.5871 28.9273ZM69.6245 28.9273L69.7178 28.8911L69.693 28.8273H69.6245V28.9273ZM70.5346 31.1663L70.627 31.128V31.128L70.5346 31.1663ZM70.6971 31.558L70.7895 31.5198L70.7895 31.5198L70.6971 31.558ZM74.0738 37.6309C74.1317 37.759 74.1257 37.8345 74.0986 37.8829C74.0688 37.9358 73.9957 37.9898 73.8445 38.0317L73.8981 38.2244C74.0658 38.1779 74.2035 38.1042 74.2729 37.9809C74.3448 37.853 74.3262 37.7036 74.256 37.5485L74.0738 37.6309ZM69.9793 27.769L74.0726 37.628L74.2573 37.5513L70.164 27.6923L69.9793 27.769ZM69.6125 27.4711C69.7466 27.4711 69.8067 27.4924 69.8461 27.5255C69.8902 27.5626 69.9266 27.6286 69.9781 27.7657L70.1653 27.6955C70.1148 27.5608 70.0637 27.4471 69.9747 27.3724C69.881 27.2936 69.7625 27.2711 69.6125 27.2711V27.4711ZM69.2478 27.7659C69.2988 27.6304 69.3351 27.5641 69.3795 27.5265C69.4189 27.493 69.4791 27.4711 69.6125 27.4711V27.2711C69.4619 27.2711 69.3435 27.2948 69.2501 27.374C69.1616 27.449 69.1107 27.5625 69.0607 27.6954L69.2478 27.7659ZM65.128 37.5906L69.2465 27.7693L69.062 27.692L64.9435 37.5133L65.128 37.5906ZM65.1144 37.8372C65.0817 37.7602 65.0853 37.6725 65.1242 37.5986L64.9473 37.5054C64.8803 37.6325 64.8741 37.7832 64.9304 37.9155L65.1144 37.8372ZM65.2921 37.9942C65.2125 37.9717 65.1471 37.9141 65.1144 37.8372L64.9304 37.9155C64.9867 38.0478 65.0995 38.1476 65.2377 38.1866L65.2921 37.9942ZM65.7454 37.912C65.711 37.9978 65.6628 38.038 65.6044 38.0527C65.5396 38.0691 65.4426 38.0592 65.3051 37.9988L65.2247 38.182C65.3808 38.2505 65.5269 38.2787 65.6535 38.2466C65.7866 38.2129 65.8782 38.1181 65.931 37.9864L65.7454 37.912ZM66.8184 35.331L65.7458 37.9108L65.9305 37.9876L67.0031 35.4077L66.8184 35.331ZM72.2777 35.2694H66.9107V35.4694H72.2777V35.2694ZM73.3903 37.7685L72.37 35.3307L72.1855 35.408L73.2058 37.8458L73.3903 37.7685ZM73.8445 38.0317C73.6998 38.0719 73.6173 38.0576 73.561 38.0223C73.4997 37.9839 73.446 37.9068 73.3908 37.7698L73.2053 37.8445C73.2642 37.9907 73.3377 38.1184 73.4548 38.1918C73.5768 38.2683 73.7239 38.2728 73.8981 38.2244L73.8445 38.0317ZM67.2634 34.6097H71.9169V34.4097H67.2634V34.6097ZM68.4119 31.5193L67.1712 34.4709L67.3556 34.5484L68.5963 31.5968L68.4119 31.5193ZM69.4934 28.8922C69.1625 29.7744 68.706 30.8376 68.4123 31.5184L68.5959 31.5977C68.8894 30.9175 69.3478 29.8499 69.6807 28.9624L69.4934 28.8922ZM69.6245 28.8273H69.5871V29.0273H69.6245V28.8273ZM70.627 31.128C70.3538 30.47 70.0009 29.6197 69.7178 28.8911L69.5313 28.9635C69.8154 29.6947 70.1693 30.5471 70.4423 31.2047L70.627 31.128ZM70.7895 31.5198C70.7399 31.4 70.6853 31.2684 70.627 31.128L70.4423 31.2047C70.5006 31.3451 70.5552 31.4766 70.6047 31.5962L70.7895 31.5198ZM72.0093 34.4715L70.7895 31.5198L70.6047 31.5962L71.8244 34.5479L72.0093 34.4715Z" fill="#103831"/>
<path fill-rule="evenodd" clip-rule="evenodd" d="M83.5029 37.9571C83.7843 37.8159 83.847 37.6493 83.7068 37.3678L81.5826 33.27C82.6708 33.0839 83.4421 32.0985 83.367 30.9901V29.6931C83.367 28.3357 82.5532 27.3711 80.666 27.3711H76.4717C76.0892 27.3711 75.8984 27.5377 75.8984 27.9481V37.6379C75.8984 37.8834 76.0126 38.0229 76.3437 38.0229C76.6747 38.0229 76.8028 37.8799 76.8028 37.5844V33.3621H80.6277L82.893 37.7519C82.9319 37.8735 83.026 37.9693 83.1464 38.0098C83.2668 38.0503 83.3991 38.0308 83.5029 37.9571ZM76.8066 32.5038V28.2315L80.6568 28.2359C81.8051 28.2359 82.4429 28.684 82.4429 29.9424V30.75C82.4429 32.0048 81.8051 32.5038 80.6568 32.5038H76.8066Z" fill="#103831"/>
<path d="M83.7068 37.3678L83.7963 37.3232L83.7956 37.3218L83.7068 37.3678ZM83.5029 37.9571L83.4581 37.8677L83.4512 37.8711L83.445 37.8756L83.5029 37.9571ZM81.5826 33.27L81.5658 33.1715L81.4308 33.1945L81.4938 33.3161L81.5826 33.27ZM83.367 30.9901H83.2667L83.2672 30.9968L83.367 30.9901ZM76.8028 33.3621V33.2621H76.7028V33.3621H76.8028ZM80.6277 33.3621L80.7166 33.3163L80.6886 33.2621H80.6277V33.3621ZM82.893 37.7519L82.9883 37.7215L82.9857 37.7135L82.9819 37.706L82.893 37.7519ZM76.8066 28.2315L76.8068 28.1315L76.7066 28.1314V28.2315H76.8066ZM76.8066 32.5038H76.7066V32.6038H76.8066V32.5038ZM80.6568 28.2359L80.6567 28.3359H80.6568V28.2359ZM83.6173 37.4124C83.6827 37.5436 83.6887 37.625 83.6687 37.6818C83.6483 37.7397 83.5907 37.8012 83.4581 37.8677L83.5477 38.0465C83.6966 37.9718 83.811 37.8795 83.8573 37.7483C83.9039 37.6161 83.8712 37.4735 83.7963 37.3232L83.6173 37.4124ZM81.4938 33.3161L83.618 37.4138L83.7956 37.3218L81.6714 33.224L81.4938 33.3161ZM83.2672 30.9968C83.3389 32.0545 82.6029 32.9941 81.5658 33.1715L81.5995 33.3686C82.7387 33.1738 83.5453 32.1424 83.4667 30.9833L83.2672 30.9968ZM83.267 29.6931V30.9901H83.467V29.6931H83.267ZM80.666 27.4711C81.5935 27.4711 82.2409 27.708 82.6559 28.0961C83.07 28.4834 83.267 29.0344 83.267 29.6931H83.467C83.467 28.9944 83.257 28.3844 82.7925 27.95C82.3288 27.5164 81.6257 27.2711 80.666 27.2711V27.4711ZM76.4717 27.4711H80.666V27.2711H76.4717V27.4711ZM75.9984 27.9481C75.9984 27.7564 76.0431 27.6438 76.1114 27.5774C76.1802 27.5104 76.2926 27.4711 76.4717 27.4711V27.2711C76.2684 27.2711 76.0941 27.3151 75.9719 27.434C75.8491 27.5535 75.7984 27.7294 75.7984 27.9481H75.9984ZM75.9984 37.6379V27.9481H75.7984V37.6379H75.9984ZM76.3437 37.9229C76.1893 37.9229 76.1084 37.8899 76.0653 37.8495C76.0238 37.8106 75.9984 37.7469 75.9984 37.6379H75.7984C75.7984 37.7744 75.8301 37.9032 75.9285 37.9954C76.0252 38.0861 76.167 38.1229 76.3437 38.1229V37.9229ZM76.7028 37.5844C76.7028 37.7203 76.6731 37.7978 76.627 37.8434C76.5807 37.8893 76.4975 37.9229 76.3437 37.9229V38.1229C76.5209 38.1229 76.6673 38.085 76.7677 37.9855C76.8685 37.8857 76.9028 37.7441 76.9028 37.5844H76.7028ZM76.7028 33.3621V37.5844H76.9028V33.3621H76.7028ZM80.6277 33.2621H76.8028V33.4621H80.6277V33.2621ZM82.9819 37.706L80.7166 33.3163L80.5388 33.408L82.8041 37.7978L82.9819 37.706ZM83.1782 37.915C83.0882 37.8847 83.0175 37.813 82.9883 37.7215L82.7977 37.7823C82.8463 37.9341 82.9637 38.0539 83.1145 38.1046L83.1782 37.915ZM83.445 37.8756C83.3673 37.9307 83.2683 37.9453 83.1782 37.915L83.1145 38.1046C83.2653 38.1553 83.431 38.1308 83.5608 38.0386L83.445 37.8756ZM76.7066 28.2315V32.5038H76.9066V28.2315H76.7066ZM80.6569 28.1359L76.8068 28.1315L76.8065 28.3315L80.6567 28.3359L80.6569 28.1359ZM82.5429 29.9424C82.5429 29.2975 82.3793 28.8379 82.0469 28.5425C81.717 28.2493 81.2408 28.1359 80.6568 28.1359V28.3359C81.2211 28.3359 81.6379 28.4466 81.914 28.692C82.1876 28.9352 82.3429 29.3289 82.3429 29.9424H82.5429ZM82.5429 30.75V29.9424H82.3429V30.75H82.5429ZM80.6568 32.6038C81.2431 32.6038 81.7193 32.4767 82.0485 32.1707C82.3793 31.8633 82.5429 31.3932 82.5429 30.75H82.3429C82.3429 31.3616 82.1876 31.7684 81.9124 32.0242C81.6357 32.2814 81.2188 32.4038 80.6568 32.4038V32.6038ZM76.8066 32.6038H80.6568V32.4038H76.8066V32.6038Z" fill="#103831"/>
<path d="M83.8868 27.3711H91.6516C91.906 27.3711 92.021 27.4728 92.021 27.7938C92.021 28.1147 91.906 28.2182 91.6516 28.2182H88.2092V37.5853C88.2092 37.8808 88.1064 38.0237 87.7622 38.0237C87.4181 38.0237 87.317 37.8843 87.317 37.5853V28.2182H83.8868C83.6184 28.2182 83.5156 28.1147 83.5156 27.7938C83.5156 27.4728 83.6184 27.3711 83.8868 27.3711Z" fill="#103831" stroke="#103831" stroke-width="0.2"/>
<path fill-rule="evenodd" clip-rule="evenodd" d="M97.9445 27.207C97.2814 27.207 97 27.4245 97 28.1558V37.6264C97 37.9597 97.2152 38.1903 97.7519 38.1903C98.2886 38.1903 98.5178 37.9605 98.5178 37.4975V33.7645H101.857C104 33.7645 104.943 32.493 104.943 31.0181V29.9535C104.943 28.4768 104 27.207 101.857 27.207H97.9445ZM101.861 32.3131H98.5332V28.6555H101.861C102.652 28.6555 103.418 29.0282 103.418 30.3374V30.6329C103.418 31.9413 102.652 32.3131 101.861 32.3131Z" fill="#103831"/>
<path d="M98.5178 33.7645V33.6645H98.4178V33.7645H98.5178ZM98.5332 32.3131H98.4332V32.4131H98.5332V32.3131ZM98.5332 28.6555V28.5555H98.4332V28.6555H98.5332ZM97.1 28.1558C97.1 27.7986 97.1696 27.5966 97.2925 27.4796C97.4166 27.3616 97.6188 27.307 97.9445 27.307V27.107C97.6071 27.107 97.3371 27.1612 97.1547 27.3347C96.9711 27.5094 96.9 27.7817 96.9 28.1558H97.1ZM97.1 37.6264V28.1558H96.9V37.6264H97.1ZM97.7519 38.0903C97.4958 38.0903 97.3342 38.035 97.2382 37.956C97.1454 37.8799 97.1 37.7703 97.1 37.6264H96.9C96.9 37.8158 96.9622 37.9881 97.1112 38.1106C97.2569 38.2303 97.4713 38.2903 97.7519 38.2903V38.0903ZM98.4178 37.4975C98.4178 37.7138 98.3644 37.855 98.2681 37.9442C98.1702 38.035 98.0086 38.0903 97.7519 38.0903V38.2903C98.0319 38.2903 98.2532 38.2307 98.4041 38.0909C98.5566 37.9495 98.6178 37.7442 98.6178 37.4975H98.4178ZM98.4178 33.7645V37.4975H98.6178V33.7645H98.4178ZM101.857 33.6645H98.5178V33.8645H101.857V33.6645ZM104.843 31.0181C104.843 31.7344 104.614 32.3937 104.133 32.8736C103.652 33.3531 102.908 33.6645 101.857 33.6645V33.8645C102.949 33.8645 103.748 33.5402 104.274 33.0152C104.8 32.4907 105.043 31.7766 105.043 31.0181H104.843ZM104.843 29.9535V31.0181H105.043V29.9535H104.843ZM101.857 27.307C102.909 27.307 103.652 27.6181 104.133 28.0973C104.614 28.577 104.843 29.2362 104.843 29.9535H105.043C105.043 29.1941 104.8 28.48 104.274 27.9557C103.748 27.4309 102.949 27.107 101.857 27.107V27.307ZM97.9445 27.307H101.857V27.107H97.9445V27.307ZM98.5332 32.4131H101.861V32.2131H98.5332V32.4131ZM98.4332 28.6555V32.3131H98.6332V28.6555H98.4332ZM101.861 28.5555H98.5332V28.7555H101.861V28.5555ZM103.518 30.3374C103.518 29.6629 103.32 29.2115 103.002 28.9306C102.687 28.6517 102.27 28.5555 101.861 28.5555V28.7555C102.242 28.7555 102.604 28.8456 102.869 29.0804C103.133 29.3131 103.318 29.7027 103.318 30.3374H103.518ZM103.518 30.6329V30.3374H103.318V30.6329H103.518ZM101.861 32.4131C102.27 32.4131 102.687 32.3171 103.002 32.0386C103.32 31.758 103.518 31.307 103.518 30.6329H103.318C103.318 31.2672 103.133 31.6563 102.87 31.8887C102.604 32.1232 102.242 32.2131 101.861 32.2131V32.4131Z" fill="#103831"/>
<path d="M106.445 38.0386C105.936 38.0386 105.719 37.8062 105.719 37.2932V27.9506C105.719 27.4377 105.935 27.207 106.445 27.207H112.502C112.937 27.207 113.127 27.4122 113.127 27.9086C113.127 28.4049 112.936 28.6101 112.502 28.6101H107.221V31.7792H112.218C112.654 31.7792 112.842 31.9967 112.842 32.4807C112.842 32.9648 112.651 33.2007 112.218 33.2007H107.221V36.6127H112.623C113.058 36.6127 113.26 36.8319 113.26 37.3142C113.26 37.7965 113.057 38.0219 112.623 38.0219L106.445 38.0386Z" fill="#103831" stroke="#103831" stroke-width="0.2"/>
<path d="M115.064 27.207H122.511C122.931 27.207 123.135 27.4122 123.135 27.9086C123.135 28.4049 122.931 28.6267 122.511 28.6267H119.539V37.508C119.539 37.9693 119.31 38.199 118.787 38.199C118.264 38.199 118.035 37.9684 118.035 37.508V28.6311H115.063C114.627 28.6311 114.438 28.4259 114.438 27.9129C114.438 27.4 114.631 27.207 115.064 27.207V27.207Z" fill="#103831" stroke="#103831" stroke-width="0.2"/>
<path d="M127.125 27.8353C127.125 27.3618 127.354 27.1426 127.889 27.1426C128.424 27.1426 128.643 27.3618 128.643 27.8353V36.6921H133.5C133.936 36.6921 134.126 36.8841 134.126 37.3936C134.126 37.9031 133.935 38.0951 133.5 38.0951H127.865C127.355 38.0951 127.126 37.8645 127.126 37.3515L127.125 27.8353Z" fill="#103831" stroke="#103831" stroke-width="0.2"/>
<path d="M134.75 37.576V27.8353C134.75 27.3618 134.968 27.1426 135.504 27.1426C136.039 27.1426 136.256 27.3618 136.256 27.8353V37.576C136.256 38.039 136.039 38.2688 135.504 38.2688C134.968 38.2688 134.75 38.0381 134.75 37.576Z" fill="#103831" stroke="#103831" stroke-width="0.2"/>
<path d="M138.023 37.4383V27.8862C138.023 27.3732 138.254 27.1426 138.752 27.1426H144.832C145.268 27.1426 145.458 27.3478 145.458 27.8441C145.458 28.3404 145.267 28.5456 144.832 28.5456H139.539V31.6508H144.551C144.987 31.6508 145.175 31.87 145.175 32.3523C145.175 32.8346 144.984 33.0599 144.551 33.0599H139.539V37.4225C139.539 37.8978 139.309 38.1241 138.774 38.1241C138.24 38.1241 138.023 37.9136 138.023 37.4383H138.023Z" fill="#103831" stroke="#103831" stroke-width="0.2"/>
<path d="M147.469 37.9776C146.959 37.9776 146.742 37.747 146.742 37.234V27.8862C146.742 27.3732 146.958 27.1426 147.469 27.1426H153.526C153.962 27.1426 154.15 27.3478 154.15 27.8441C154.15 28.3404 153.959 28.5456 153.526 28.5456H148.247V31.7165H153.245C153.681 31.7165 153.871 31.934 153.871 32.418C153.871 32.9021 153.678 33.1362 153.245 33.1362H148.248V36.5676H153.65C154.085 36.5676 154.287 36.785 154.287 37.2691C154.287 37.7531 154.084 37.9706 153.65 37.9706L147.469 37.9776Z" fill="#103831" stroke="#103831" stroke-width="0.2"/>
<mask id="mask1_1653_20257" style="mask-type:alpha" maskUnits="userSpaceOnUse" x="0" y="0" width="40" height="40">
<rect width="40" height="40" fill="#C4C4C4"/>
</mask>
<g mask="url(#mask1_1653_20257)">
<path d="M7.59719 30.8317L7.59719 30.8315C7.59719 30.7953 7.60763 30.7644 7.63157 30.743C7.6551 30.722 7.6884 30.713 7.72794 30.713C7.76749 30.713 7.80079 30.722 7.82432 30.743C7.84825 30.7644 7.8587 30.7953 7.8587 30.8315V30.8714C7.8587 31.038 7.92372 31.1735 8.04898 31.2677C8.17493 31.3624 8.36376 31.4166 8.61323 31.4152L8.61335 31.4152C8.85724 31.4152 9.03441 31.3685 9.15339 31.291C9.27164 31.2139 9.33372 31.1054 9.34688 30.9773L9.36678 30.9794M7.59719 30.8317L7.67309 29.6521M7.59719 30.8317L7.59824 30.9177H7.61824M7.59719 30.8317L8.16213 30.2526L8.94646 30.502C9.20369 30.5819 9.39452 30.6991 9.36678 30.9794M9.36678 30.9794L9.34687 30.9774C9.36019 30.8429 9.32126 30.7497 9.24954 30.6799C9.17665 30.609 9.06843 30.5608 8.94052 30.5211L8.9404 30.521L8.15608 30.2717L8.15604 30.2717C7.98955 30.2184 7.86184 30.146 7.7766 30.0447C7.691 29.9429 7.64997 29.8141 7.65309 29.6517M9.36678 30.9794C9.33925 31.2473 9.10555 31.4352 8.61335 31.4352C8.10917 31.4381 7.8387 31.2161 7.8387 30.8714V30.8315C7.8387 30.7667 7.80171 30.733 7.72794 30.733C7.65418 30.733 7.61719 30.7667 7.61719 30.8315L7.61824 30.9177M7.65309 29.6517L7.67309 29.6521M7.65309 29.6517C7.65309 29.6517 7.65309 29.6517 7.65309 29.6518L7.67309 29.6521M7.65309 29.6517C7.65647 29.4483 7.7435 29.2913 7.90407 29.186C8.06354 29.0814 8.29396 29.0288 8.58351 29.0288C8.92889 29.0288 9.16853 29.1016 9.32221 29.2228C9.47661 29.3446 9.54167 29.5133 9.54167 29.6986V29.7386C9.54167 29.7699 9.53284 29.799 9.51032 29.8201C9.48802 29.841 9.45546 29.8509 9.41427 29.8509C9.37152 29.8509 9.33813 29.8411 9.31537 29.8203C9.29228 29.7991 9.28352 29.7699 9.28352 29.7386V29.7137C9.28352 29.5796 9.21766 29.4685 9.09909 29.3902C8.97992 29.3114 8.80729 29.2658 8.59612 29.2658C8.39447 29.2658 8.22214 29.2949 8.10056 29.3581C7.98024 29.4206 7.9102 29.5161 7.90871 29.6521L7.90871 29.6521C7.9073 29.7686 7.94452 29.8503 8.00866 29.9125C8.07369 29.9755 8.16769 30.0199 8.28222 30.0581M7.67309 29.6521C7.67961 29.2582 8.0083 29.0488 8.58351 29.0488C9.26947 29.0488 9.52167 29.3381 9.52167 29.6986V29.7386C9.52167 29.7939 9.49077 29.8309 9.41427 29.8309C9.3342 29.8309 9.30352 29.7939 9.30352 29.7386V29.7137C9.30352 29.4303 9.02358 29.2458 8.59612 29.2458C8.19009 29.2458 7.89187 29.3626 7.88872 29.6519C7.88577 29.8951 8.04529 30.0001 8.27604 30.0771M8.28222 30.0581L8.28207 30.0581L8.27604 30.0771M8.28222 30.0581C8.28227 30.0581 8.28232 30.0581 8.28237 30.0582L8.27604 30.0771M8.28222 30.0581L9.10345 30.3387L8.27604 30.0771M7.61824 30.9177C7.61824 31.1824 7.78132 31.635 8.62386 31.635C9.27914 31.635 9.56202 31.3613 9.58682 30.976L7.59824 30.9179L7.59824 30.918L7.61824 30.9177Z" fill="#103831" stroke="#103831" stroke-width="0.04"/>
<path d="M12.0817 29.1398L12.0817 29.1398L11.1713 31.2046L10.2616 29.1415C10.2433 29.0672 10.1727 29.0179 10.0966 29.0265C10.051 29.0267 10.0129 29.0373 9.98645 29.0639C9.95981 29.0907 9.94875 29.13 9.94875 29.1788V31.5313C9.94875 31.5684 9.95813 31.6 9.9813 31.622C10.0043 31.6438 10.0372 31.6527 10.0766 31.6527C10.116 31.6527 10.1488 31.6438 10.1717 31.6219C10.1947 31.5999 10.204 31.5683 10.204 31.5313V30.2534C10.204 30.0332 10.2017 29.7819 10.1841 29.5623L11.0238 31.484C11.0471 31.544 11.1069 31.5815 11.171 31.5766C11.2358 31.5837 11.2971 31.5453 11.319 31.4837L12.1586 29.5621C12.1411 29.7819 12.1386 30.0337 12.1386 30.2534V31.5315C12.1386 31.5686 12.148 31.6002 12.1712 31.6222C12.1941 31.644 12.227 31.6529 12.2664 31.6529C12.3058 31.6529 12.3387 31.644 12.3615 31.6221C12.3846 31.6001 12.3938 31.5685 12.3938 31.5315V29.1804C12.4003 29.138 12.3862 29.0949 12.3559 29.0645C12.3255 29.0341 12.2825 29.02 12.24 29.0265C12.2018 29.0267 12.1705 29.0333 12.1442 29.0522C12.1179 29.0711 12.0991 29.1004 12.0817 29.1398Z" fill="#103831" stroke="#103831" stroke-width="0.04"/>
<mask id="path-20-outside-1_1653_20257" maskUnits="userSpaceOnUse" x="11.6797" y="28.0469" width="4" height="4" fill="black">
<rect fill="white" x="11.6797" y="28.0469" width="4" height="4"/>
<path fill-rule="evenodd" clip-rule="evenodd" d="M14.8214 31.628C14.8984 31.6068 14.9232 31.5668 14.8923 31.4988L13.9049 29.1331C13.8803 29.0679 13.8627 29.0469 13.7942 29.0469C13.7257 29.0469 13.708 29.0688 13.6836 29.1331L12.6902 31.4898C12.6774 31.5139 12.6762 31.5425 12.687 31.5676C12.6977 31.5927 12.7192 31.6116 12.7455 31.619C12.8163 31.6499 12.8627 31.6373 12.8838 31.5851L13.1425 30.9661H14.4371L14.6832 31.551C14.7107 31.619 14.7445 31.6493 14.8214 31.628ZM14.3518 30.7596H13.2294L13.5286 30.0513C13.5994 29.888 13.7098 29.6324 13.7899 29.4201H13.7989C13.8673 29.5952 13.9526 29.7995 14.0184 29.9573C14.0325 29.991 14.0457 30.0226 14.0576 30.0513L14.3518 30.7596Z"/>
</mask>
<path fill-rule="evenodd" clip-rule="evenodd" d="M14.8214 31.628C14.8984 31.6068 14.9232 31.5668 14.8923 31.4988L13.9049 29.1331C13.8803 29.0679 13.8627 29.0469 13.7942 29.0469C13.7257 29.0469 13.708 29.0688 13.6836 29.1331L12.6902 31.4898C12.6774 31.5139 12.6762 31.5425 12.687 31.5676C12.6977 31.5927 12.7192 31.6116 12.7455 31.619C12.8163 31.6499 12.8627 31.6373 12.8838 31.5851L13.1425 30.9661H14.4371L14.6832 31.551C14.7107 31.619 14.7445 31.6493 14.8214 31.628ZM14.3518 30.7596H13.2294L13.5286 30.0513C13.5994 29.888 13.7098 29.6324 13.7899 29.4201H13.7989C13.8673 29.5952 13.9526 29.7995 14.0184 29.9573C14.0325 29.991 14.0457 30.0226 14.0576 30.0513L14.3518 30.7596Z" fill="#103831"/>
<path d="M14.8923 31.4988L14.8553 31.5143L14.8558 31.5154L14.8923 31.4988ZM14.8214 31.628L14.8108 31.5895L14.8214 31.628ZM13.9049 29.1331L13.8675 29.1473L13.868 29.1486L13.9049 29.1331ZM13.6836 29.1331L13.7205 29.1487L13.721 29.1473L13.6836 29.1331ZM12.6902 31.4898L12.7257 31.5086L12.7271 31.5053L12.6902 31.4898ZM12.687 31.5676L12.6502 31.5834H12.6502L12.687 31.5676ZM12.7455 31.619L12.7616 31.582L12.7563 31.5805L12.7455 31.619ZM12.8838 31.5851L12.8468 31.5697L12.8466 31.5702L12.8838 31.5851ZM13.1425 30.9661V30.9261H13.1158L13.1056 30.9507L13.1425 30.9661ZM14.4371 30.9661L14.4739 30.9506L14.4636 30.9261H14.4371V30.9661ZM14.6832 31.551L14.7202 31.536L14.72 31.5355L14.6832 31.551ZM13.2294 30.7596L13.1925 30.744L13.169 30.7996H13.2294V30.7596ZM14.3518 30.7596V30.7996H14.4118L14.3888 30.7442L14.3518 30.7596ZM13.5286 30.0513L13.4919 30.0354L13.4918 30.0357L13.5286 30.0513ZM13.7899 29.4201V29.3801H13.7622L13.7524 29.4059L13.7899 29.4201ZM13.7989 29.4201L13.8361 29.4055L13.8262 29.3801H13.7989V29.4201ZM14.0184 29.9573L14.0553 29.9419V29.9419L14.0184 29.9573ZM14.0576 30.0513L14.0945 30.036L14.0945 30.036L14.0576 30.0513ZM14.8558 31.5154C14.8688 31.544 14.8654 31.5561 14.8625 31.5613C14.8585 31.5684 14.846 31.5798 14.8108 31.5895L14.8321 31.6666C14.8738 31.6551 14.9122 31.6359 14.9321 31.6006C14.9531 31.5635 14.9466 31.5217 14.9287 31.4823L14.8558 31.5154ZM13.868 29.1486L14.8553 31.5143L14.9292 31.4834L13.9418 29.1177L13.868 29.1486ZM13.7942 29.0869C13.8253 29.0869 13.8352 29.0919 13.8404 29.0962C13.8474 29.1021 13.855 29.1142 13.8675 29.1473L13.9424 29.119C13.9302 29.0869 13.9167 29.0558 13.8917 29.0349C13.8648 29.0124 13.8316 29.0069 13.7942 29.0069V29.0869ZM13.721 29.1473C13.7334 29.1146 13.741 29.1025 13.7481 29.0964C13.7534 29.092 13.7633 29.0869 13.7942 29.0869V29.0069C13.7565 29.0069 13.7233 29.0127 13.6966 29.0353C13.6717 29.0563 13.6582 29.0873 13.6462 29.119L13.721 29.1473ZM12.7271 31.5053L13.7205 29.1487L13.6468 29.1176L12.6533 31.4743L12.7271 31.5053ZM12.7237 31.5519C12.7178 31.5379 12.7184 31.522 12.7255 31.5085L12.6548 31.4711C12.6364 31.5059 12.6347 31.5472 12.6502 31.5834L12.7237 31.5519ZM12.7563 31.5805C12.7417 31.5764 12.7297 31.5659 12.7237 31.5519L12.6502 31.5834C12.6657 31.6196 12.6967 31.6468 12.7346 31.6575L12.7563 31.5805ZM12.8466 31.5702C12.8399 31.587 12.8317 31.5924 12.8235 31.5944C12.8127 31.5971 12.7932 31.5962 12.7615 31.5823L12.7295 31.6557C12.7686 31.6727 12.8077 31.6809 12.8431 31.672C12.881 31.6624 12.9066 31.6354 12.9209 31.6001L12.8466 31.5702ZM13.1056 30.9507L12.8468 31.5697L12.9207 31.6005L13.1794 30.9815L13.1056 30.9507ZM14.4371 30.9261H13.1425V31.0061H14.4371V30.9261ZM14.72 31.5355L14.4739 30.9506L14.4002 30.9816L14.6463 31.5665L14.72 31.5355ZM14.8108 31.5895C14.7782 31.5985 14.7633 31.5943 14.7549 31.589C14.7446 31.5826 14.7332 31.5681 14.7202 31.536L14.6461 31.566C14.6606 31.6019 14.6799 31.6366 14.7126 31.6569C14.7472 31.6785 14.7878 31.6788 14.8321 31.6666L14.8108 31.5895ZM13.2294 30.7996H14.3518V30.7196H13.2294V30.7996ZM13.4918 30.0357L13.1925 30.744L13.2662 30.7751L13.5655 30.0669L13.4918 30.0357ZM13.7524 29.4059C13.6728 29.6172 13.5628 29.872 13.4919 30.0354L13.5653 30.0672C13.6361 29.9041 13.7468 29.6475 13.8273 29.4342L13.7524 29.4059ZM13.7989 29.3801H13.7899V29.4601H13.7989V29.3801ZM14.0553 29.9419C13.9894 29.784 13.9044 29.5801 13.8361 29.4055L13.7616 29.4346C13.8302 29.6103 13.9157 29.815 13.9815 29.9727L14.0553 29.9419ZM14.0945 30.036C14.0826 30.0072 14.0694 29.9756 14.0553 29.9419L13.9815 29.9727C13.9956 30.0064 14.0087 30.038 14.0207 30.0667L14.0945 30.036ZM14.3888 30.7442L14.0945 30.036L14.0207 30.0667L14.3149 30.7749L14.3888 30.7442Z" fill="#103831" mask="url(#path-20-outside-1_1653_20257)"/>
<mask id="path-22-outside-2_1653_20257" maskUnits="userSpaceOnUse" x="14.1953" y="28.0781" width="3" height="4" fill="black">
<rect fill="white" x="14.1953" y="28.0781" width="3" height="4"/>
<path fill-rule="evenodd" clip-rule="evenodd" d="M17.0296 31.6183C17.0975 31.5844 17.1126 31.5444 17.0788 31.4769L16.5664 30.4936C16.8289 30.4489 17.0149 30.2125 16.9968 29.9465V29.6353C16.9968 29.3096 16.8005 29.0781 16.3453 29.0781H15.3336C15.2413 29.0781 15.1953 29.1181 15.1953 29.2166V31.5417C15.1953 31.6006 15.2228 31.634 15.3027 31.634C15.3826 31.634 15.4135 31.5997 15.4135 31.5288V30.5157H16.3361L16.8825 31.569C16.8919 31.5982 16.9146 31.6212 16.9436 31.6309C16.9726 31.6406 17.0046 31.6359 17.0296 31.6183ZM15.4129 30.3097V29.2846L16.3416 29.2857C16.6186 29.2857 16.7725 29.3932 16.7725 29.6951V29.8889C16.7725 30.19 16.6186 30.3097 16.3416 30.3097H15.4129Z"/>
</mask>
<path fill-rule="evenodd" clip-rule="evenodd" d="M17.0296 31.6183C17.0975 31.5844 17.1126 31.5444 17.0788 31.4769L16.5664 30.4936C16.8289 30.4489 17.0149 30.2125 16.9968 29.9465V29.6353C16.9968 29.3096 16.8005 29.0781 16.3453 29.0781H15.3336C15.2413 29.0781 15.1953 29.1181 15.1953 29.2166V31.5417C15.1953 31.6006 15.2228 31.634 15.3027 31.634C15.3826 31.634 15.4135 31.5997 15.4135 31.5288V30.5157H16.3361L16.8825 31.569C16.8919 31.5982 16.9146 31.6212 16.9436 31.6309C16.9726 31.6406 17.0046 31.6359 17.0296 31.6183ZM15.4129 30.3097V29.2846L16.3416 29.2857C16.6186 29.2857 16.7725 29.3932 16.7725 29.6951V29.8889C16.7725 30.19 16.6186 30.3097 16.3416 30.3097H15.4129Z" fill="#103831"/>
<path d="M17.0788 31.4769L17.1145 31.4589L17.1142 31.4584L17.0788 31.4769ZM17.0296 31.6183L17.0115 31.5821L17.0065 31.5856L17.0296 31.6183ZM16.5664 30.4936L16.5597 30.4542L16.5056 30.4634L16.5309 30.5121L16.5664 30.4936ZM16.9968 29.9465H16.9567L16.9569 29.9492L16.9968 29.9465ZM15.4135 30.5157V30.4757H15.3735V30.5157H15.4135ZM16.3361 30.5157L16.3716 30.4973L16.3604 30.4757H16.3361V30.5157ZM16.8825 31.569L16.9211 31.5566L16.918 31.5506L16.8825 31.569ZM16.9436 31.6309L16.9563 31.593L16.9436 31.6309ZM15.4129 29.2846L15.413 29.2446L15.3729 29.2446V29.2846H15.4129ZM15.4129 30.3097H15.3729V30.3497H15.4129V30.3097ZM16.3416 29.2857L16.3416 29.3257H16.3416V29.2857ZM17.043 31.4948C17.058 31.5247 17.0573 31.5393 17.0546 31.5468C17.0518 31.5548 17.0425 31.5671 17.0117 31.5825L17.0475 31.6541C17.0846 31.6355 17.1168 31.6109 17.13 31.5736C17.1434 31.5357 17.1334 31.4965 17.1145 31.4589L17.043 31.4948ZM16.5309 30.5121L17.0433 31.4954L17.1142 31.4584L16.6019 30.4751L16.5309 30.5121ZM16.9569 29.9492C16.9736 30.1947 16.8019 30.413 16.5597 30.4542L16.5731 30.533C16.8559 30.4849 17.0562 30.2302 17.0367 29.9438L16.9569 29.9492ZM16.9568 29.6353V29.9465H17.0368V29.6353H16.9568ZM16.3453 29.1181C16.5665 29.1181 16.7183 29.1743 16.8145 29.2639C16.9104 29.353 16.9568 29.4805 16.9568 29.6353H17.0368C17.0368 29.4644 16.9851 29.3133 16.869 29.2053C16.7533 29.0976 16.5793 29.0381 16.3453 29.0381V29.1181ZM15.3336 29.1181H16.3453V29.0381H15.3336V29.1181ZM15.2353 29.2166C15.2353 29.1728 15.2456 29.1509 15.2577 29.1392C15.27 29.1272 15.2923 29.1181 15.3336 29.1181V29.0381C15.2827 29.0381 15.2358 29.049 15.202 29.0817C15.168 29.1146 15.1553 29.1619 15.1553 29.2166H15.2353ZM15.2353 31.5417V29.2166H15.1553V31.5417H15.2353ZM15.3027 31.594C15.2672 31.594 15.2525 31.5864 15.2463 31.5807C15.2409 31.5756 15.2353 31.5656 15.2353 31.5417H15.1553C15.1553 31.5767 15.1635 31.6128 15.1918 31.6392C15.2194 31.6649 15.2584 31.674 15.3027 31.674V31.594ZM15.3735 31.5288C15.3735 31.5595 15.3667 31.5729 15.36 31.5795C15.3531 31.5863 15.338 31.594 15.3027 31.594V31.674C15.3473 31.674 15.3876 31.6646 15.4161 31.6365C15.4448 31.6083 15.4535 31.5691 15.4535 31.5288H15.3735ZM15.3735 30.5157V31.5288H15.4535V30.5157H15.3735ZM16.3361 30.4757H15.4135V30.5557H16.3361V30.4757ZM16.918 31.5506L16.3716 30.4973L16.3006 30.5341L16.847 31.5874L16.918 31.5506ZM16.9563 31.593C16.9393 31.5873 16.9261 31.5739 16.9206 31.5568L16.8444 31.5813C16.8577 31.6226 16.8898 31.6551 16.9309 31.6688L16.9563 31.593ZM17.0065 31.5856C16.9919 31.5959 16.9733 31.5987 16.9563 31.593L16.9309 31.6688C16.972 31.6826 17.0172 31.676 17.0527 31.6509L17.0065 31.5856ZM15.3729 29.2846V30.3097H15.4529V29.2846H15.3729ZM16.3417 29.2457L15.413 29.2446L15.4129 29.3246L16.3416 29.3257L16.3417 29.2457ZM16.8125 29.6951C16.8125 29.5378 16.7723 29.4222 16.6874 29.3472C16.6036 29.2731 16.4841 29.2457 16.3416 29.2457V29.3257C16.4762 29.3257 16.5721 29.352 16.6344 29.4071C16.6957 29.4613 16.7325 29.5505 16.7325 29.6951H16.8125ZM16.8125 29.8889V29.6951H16.7325V29.8889H16.8125ZM16.3416 30.3497C16.485 30.3497 16.6045 30.3189 16.6881 30.2416C16.7723 30.1637 16.8125 30.0458 16.8125 29.8889H16.7325C16.7325 30.0331 16.6957 30.1256 16.6338 30.1829C16.5712 30.2407 16.4753 30.2697 16.3416 30.2697V30.3497ZM15.4129 30.3497H16.3416V30.2697H15.4129V30.3497Z" fill="#103831" mask="url(#path-22-outside-2_1653_20257)"/>
<path d="M19.1734 29.0581H17.3005C17.2664 29.0581 17.2367 29.0644 17.2166 29.0865C17.1971 29.1081 17.1909 29.14 17.1909 29.1795C17.1909 29.2191 17.1971 29.2511 17.2166 29.2727C17.2367 29.295 17.2664 29.3014 17.3005 29.3014H18.1079V31.529C18.1079 31.5663 18.114 31.5992 18.1359 31.6223C18.1581 31.6456 18.1918 31.6543 18.2353 31.6543C18.2788 31.6543 18.3126 31.6454 18.3348 31.622C18.3568 31.5989 18.3631 31.566 18.3631 31.529V29.3014H19.1734C19.2062 29.3014 19.2354 29.2949 19.2557 29.2729C19.2755 29.2514 19.2825 29.2196 19.2825 29.1795C19.2825 29.1395 19.2755 29.1077 19.2556 29.0863C19.2354 29.0645 19.2061 29.0581 19.1734 29.0581Z" fill="#103831" stroke="#103831" stroke-width="0.04"/>
<mask id="path-25-outside-3_1653_20257" maskUnits="userSpaceOnUse" x="6.61719" y="31.668" width="3" height="4" fill="black">
<rect fill="white" x="6.61719" y="31.668" width="3" height="4"/>
<path fill-rule="evenodd" clip-rule="evenodd" d="M7.845 32.668C7.68507 32.668 7.61719 32.7202 7.61719 32.8956V35.1681C7.61719 35.2481 7.6691 35.3034 7.79856 35.3034C7.92802 35.3034 7.98329 35.2483 7.98329 35.1372V34.2415H8.78883C9.30562 34.2415 9.53301 33.9364 9.53301 33.5824V33.327C9.53301 32.9727 9.30562 32.668 8.78883 32.668H7.845ZM8.7881 33.893H7.98549V33.0153H8.7881C8.97892 33.0153 9.16365 33.1048 9.16365 33.4189V33.4898C9.16365 33.8038 8.97892 33.893 8.7881 33.893Z"/>
</mask>
<path fill-rule="evenodd" clip-rule="evenodd" d="M7.845 32.668C7.68507 32.668 7.61719 32.7202 7.61719 32.8956V35.1681C7.61719 35.2481 7.6691 35.3034 7.79856 35.3034C7.92802 35.3034 7.98329 35.2483 7.98329 35.1372V34.2415H8.78883C9.30562 34.2415 9.53301 33.9364 9.53301 33.5824V33.327C9.53301 32.9727 9.30562 32.668 8.78883 32.668H7.845ZM8.7881 33.893H7.98549V33.0153H8.7881C8.97892 33.0153 9.16365 33.1048 9.16365 33.4189V33.4898C9.16365 33.8038 8.97892 33.893 8.7881 33.893Z" fill="#103831"/>
<path d="M7.98329 34.2415V34.2015H7.94329V34.2415H7.98329ZM7.98549 33.893H7.94549V33.933H7.98549V33.893ZM7.98549 33.0153V32.9753H7.94549V33.0153H7.98549ZM7.65719 32.8956C7.65719 32.8113 7.67384 32.7685 7.69862 32.745C7.7239 32.7211 7.76733 32.708 7.845 32.708V32.628C7.76274 32.628 7.69226 32.6409 7.64362 32.6869C7.59448 32.7335 7.57719 32.8045 7.57719 32.8956H7.65719ZM7.65719 35.1681V32.8956H7.57719V35.1681H7.65719ZM7.79856 35.2634C7.73867 35.2634 7.70387 35.2505 7.68464 35.2348C7.66677 35.2202 7.65719 35.1989 7.65719 35.1681H7.57719C7.57719 35.2173 7.59356 35.2637 7.63401 35.2967C7.6731 35.3287 7.72898 35.3434 7.79856 35.3434V35.2634ZM7.94329 35.1372C7.94329 35.1866 7.93106 35.2153 7.91235 35.2326C7.89294 35.2505 7.85866 35.2634 7.79856 35.2634V35.3434C7.86792 35.3434 7.926 35.3288 7.96659 35.2914C8.00788 35.2533 8.02329 35.1989 8.02329 35.1372H7.94329ZM7.94329 34.2415V35.1372H8.02329V34.2415H7.94329ZM8.78883 34.2015H7.98329V34.2815H8.78883V34.2015ZM9.49301 33.5824C9.49301 33.7509 9.43902 33.9047 9.32654 34.0163C9.21424 34.1277 9.03925 34.2015 8.78883 34.2015V34.2815C9.05521 34.2815 9.25231 34.2026 9.38289 34.0731C9.51331 33.9436 9.57301 33.7679 9.57301 33.5824H9.49301ZM9.49301 33.327V33.5824H9.57301V33.327H9.49301ZM8.78883 32.708C9.03926 32.708 9.21425 32.7816 9.32655 32.893C9.43901 33.0046 9.49301 33.1583 9.49301 33.327H9.57301C9.57301 33.1413 9.51332 32.9656 9.38289 32.8362C9.2523 32.7067 9.05519 32.628 8.78883 32.628V32.708ZM7.845 32.708H8.78883V32.628H7.845V32.708ZM7.98549 33.933H8.7881V33.853H7.98549V33.933ZM7.94549 33.0153V33.893H8.02549V33.0153H7.94549ZM8.7881 32.9753H7.98549V33.0553H8.7881V32.9753ZM9.20365 33.4189C9.20365 33.2538 9.15483 33.1405 9.07386 33.0693C8.99386 32.9989 8.88899 32.9753 8.7881 32.9753V33.0553C8.87803 33.0553 8.96094 33.0765 9.02101 33.1294C9.08011 33.1814 9.12365 33.2699 9.12365 33.4189H9.20365ZM9.20365 33.4898V33.4189H9.12365V33.4898H9.20365ZM8.7881 33.933C8.88897 33.933 8.99384 33.9095 9.07384 33.8392C9.15483 33.768 9.20365 33.6548 9.20365 33.4898H9.12365C9.12365 33.6388 9.08011 33.7272 9.02103 33.7791C8.96096 33.8319 8.87805 33.853 8.7881 33.853V33.933Z" fill="#103831" mask="url(#path-25-outside-3_1653_20257)"/>
<path d="M10.0191 35.287H10.019C9.95497 35.287 9.90474 35.2725 9.87093 35.2377C9.83724 35.203 9.82375 35.152 9.82375 35.0882V32.8464C9.82375 32.7826 9.83718 32.7317 9.87087 32.6971C9.90467 32.6623 9.95491 32.648 10.019 32.648H11.4799C11.5351 32.648 11.5796 32.6609 11.6095 32.6941C11.6391 32.7267 11.6508 32.7749 11.6508 32.8363C11.6508 32.8977 11.639 32.9459 11.6095 32.9785C11.5795 33.0117 11.535 33.0246 11.4799 33.0246H10.2261V33.7451H11.4116C11.4671 33.7451 11.5114 33.7589 11.5411 33.7924C11.5704 33.8254 11.582 33.8734 11.582 33.9334C11.582 33.9935 11.5702 34.0424 11.5411 34.0764C11.5115 34.1109 11.4673 34.1262 11.4116 34.1262H10.2261V34.9049H11.5091C11.5647 34.9049 11.6096 34.9188 11.6401 34.9521C11.6703 34.9851 11.6829 35.0331 11.6829 35.0932C11.6829 35.1534 11.6702 35.2017 11.64 35.235C11.6095 35.2686 11.5647 35.283 11.5091 35.283L10.0191 35.287ZM10.0191 35.287L11.5091 35.283L10.0191 35.287Z" fill="#103831" stroke="#103831" stroke-width="0.04"/>
<path d="M11.9827 32.6486C11.9371 32.6513 11.8996 32.6642 11.8732 32.693C11.8434 32.7255 11.8316 32.774 11.8316 32.8374C11.8316 32.9006 11.8432 32.9498 11.8726 32.983C11.9026 33.0167 11.9472 33.0297 12.0025 33.0297H12.6993V35.1397C12.6993 35.1981 12.7139 35.2458 12.7491 35.2787C12.7839 35.3112 12.8352 35.3255 12.9007 35.3255C12.9662 35.3255 13.0175 35.3113 13.0523 35.2788C13.0874 35.2459 13.1021 35.1981 13.1021 35.1397V33.0286H13.7989C13.8529 33.0286 13.897 33.0144 13.9271 32.9804C13.9567 32.9469 13.9694 32.898 13.9694 32.8363C13.9694 32.7746 13.9567 32.7265 13.9269 32.694C13.8966 32.661 13.8525 32.648 13.7989 32.648H12.0027H11.9827V32.6486Z" fill="#103831" stroke="#103831" stroke-width="0.04"/>
<path d="M15.0671 32.6323C15.0005 32.6323 14.9484 32.6458 14.9131 32.6781C14.8774 32.7107 14.8628 32.7588 14.8628 32.8186L14.863 35.102C14.863 35.1661 14.8774 35.217 14.9119 35.2515C14.9464 35.2861 14.9972 35.3004 15.0612 35.3004H16.4206C16.4754 35.3004 16.5199 35.2884 16.5501 35.2556C16.5798 35.2233 16.5915 35.175 16.5915 35.1121C16.5915 35.0493 16.5798 35.0009 16.5501 34.9686C16.5201 34.9358 16.4755 34.9238 16.4206 34.9238H15.2689V32.8186C15.2689 32.7591 15.2551 32.7109 15.2201 32.6782C15.1853 32.6458 15.1337 32.6323 15.0671 32.6323Z" fill="#103831" stroke="#103831" stroke-width="0.04"/>
<path d="M16.8316 32.8186V35.1559C16.8316 35.2141 16.8454 35.2621 16.8802 35.2951C16.9149 35.3278 16.9664 35.3421 17.0334 35.3421C17.1003 35.3421 17.1517 35.3279 17.1863 35.2952C17.2211 35.2622 17.2347 35.2142 17.2347 35.1559V32.8186C17.2347 32.7591 17.2211 32.711 17.1862 32.6783C17.1516 32.6458 17.1001 32.6323 17.0334 32.6323C16.9666 32.6323 16.9151 32.6458 16.8803 32.6782C16.8453 32.711 16.8316 32.7591 16.8316 32.8186Z" fill="#103831" stroke="#103831" stroke-width="0.04"/>
<path d="M17.6212 35.1721C17.624 35.2225 17.6382 35.2633 17.6693 35.2919C17.7039 35.3238 17.7553 35.3367 17.8218 35.3367C17.8886 35.3367 17.9407 35.3227 17.9759 35.2899C18.0116 35.2568 18.0261 35.2083 18.0261 35.1483V34.1215H19.2152C19.2707 34.1215 19.3149 34.1071 19.3446 34.0732C19.3738 34.0399 19.3856 33.9916 19.3856 33.9317C19.3856 33.8719 19.374 33.8239 19.3448 33.7909C19.315 33.7574 19.2708 33.7434 19.2152 33.7434H18.0261V33.0383H19.283C19.3382 33.0383 19.3826 33.0254 19.4126 32.9922C19.4422 32.9596 19.4539 32.9114 19.4539 32.85C19.4539 32.7886 19.4422 32.7404 19.4127 32.7077C19.3828 32.6746 19.3383 32.6616 19.283 32.6616H17.8163C17.7536 32.6616 17.7035 32.6761 17.6693 32.7106C17.6351 32.7451 17.6206 32.7959 17.6206 32.8601V35.1521V35.1721H17.6212Z" fill="#103831" stroke="#103831" stroke-width="0.04"/>
<path d="M19.9097 35.3015H19.9096C19.8456 35.3015 19.7954 35.2872 19.7616 35.2524C19.7279 35.2178 19.7144 35.1669 19.7144 35.1031V32.8601C19.7144 32.7963 19.7278 32.7454 19.7615 32.7108C19.7953 32.676 19.8455 32.6616 19.9096 32.6616H21.3707C21.426 32.6616 21.4703 32.6746 21.5002 32.7078C21.5296 32.7404 21.5412 32.7886 21.5412 32.85C21.5412 32.9114 21.5294 32.9596 21.4999 32.9922C21.47 33.0253 21.4257 33.0383 21.3707 33.0383H20.1173V33.7592H21.303C21.3586 33.7592 21.4029 33.773 21.4328 33.8065C21.4622 33.8394 21.4739 33.8874 21.4739 33.9475C21.4739 34.0077 21.462 34.0565 21.4328 34.0903C21.403 34.1248 21.3587 34.1398 21.303 34.1398H20.1175V34.9232H21.4005C21.4561 34.9232 21.501 34.937 21.5316 34.9703C21.5618 35.0031 21.5744 35.0512 21.5744 35.1115C21.5744 35.1719 21.5617 35.2199 21.5314 35.2528C21.5008 35.286 21.4559 35.2998 21.4006 35.2999L19.9097 35.3015ZM19.9097 35.3015L21.4005 35.2999L19.9097 35.3015Z" fill="#103831" stroke="#103831" stroke-width="0.04"/>
<mask id="path-33-outside-4_1653_20257" maskUnits="userSpaceOnUse" x="3.80469" y="2.19922" width="32" height="37" fill="black">
<rect fill="white" x="3.80469" y="2.19922" width="32" height="37"/>
<path fill-rule="evenodd" clip-rule="evenodd" d="M5.02262 38.6659H34.9865C35.1067 38.666 35.2043 38.5686 35.2047 38.4483V18.7248C35.2047 18.669 35.1832 18.6153 35.1448 18.5749L20.6552 3.26721C20.6154 3.22478 20.5602 3.20027 20.502 3.19924C20.4442 3.19841 20.3882 3.22031 20.3463 3.26026L4.87131 18.2084C4.82874 18.2494 4.80469 18.306 4.80469 18.3652V38.4477C4.80469 38.5682 4.90226 38.6659 5.02262 38.6659ZM34.771 38.2298H5.24338L5.24275 18.4577L20.4922 3.72691L34.771 18.8116V38.2298Z"/>
</mask>
<path fill-rule="evenodd" clip-rule="evenodd" d="M5.02262 38.6659H34.9865C35.1067 38.666 35.2043 38.5686 35.2047 38.4483V18.7248C35.2047 18.669 35.1832 18.6153 35.1448 18.5749L20.6552 3.26721C20.6154 3.22478 20.5602 3.20027 20.502 3.19924C20.4442 3.19841 20.3882 3.22031 20.3463 3.26026L4.87131 18.2084C4.82874 18.2494 4.80469 18.306 4.80469 18.3652V38.4477C4.80469 38.5682 4.90226 38.6659 5.02262 38.6659ZM34.771 38.2298H5.24338L5.24275 18.4577L20.4922 3.72691L34.771 18.8116V38.2298Z" fill="#103831"/>
<path d="M34.9865 38.6659L34.9869 38.2659H34.9865V38.6659ZM35.2047 38.4483L35.6047 38.4494V38.4483H35.2047ZM35.2047 18.7248H35.6047V18.7247L35.2047 18.7248ZM35.1448 18.5749L34.8543 18.8499L34.8551 18.8508L35.1448 18.5749ZM20.6552 3.26721L20.3636 3.54092L20.3647 3.54218L20.6552 3.26721ZM20.502 3.19924L20.5091 2.7993L20.5078 2.79928L20.502 3.19924ZM20.3463 3.26026L20.0704 2.97062L20.0684 2.97256L20.3463 3.26026ZM4.87131 18.2084L5.14885 18.4964L5.14921 18.4961L4.87131 18.2084ZM5.24338 38.2298L4.84338 38.2298L4.84339 38.6298H5.24338V38.2298ZM34.771 38.2298V38.6298H35.171V38.2298H34.771ZM5.24275 18.4577L4.96484 18.17L4.84274 18.2879L4.84275 18.4577L5.24275 18.4577ZM20.4922 3.72691L20.7827 3.45194L20.505 3.15848L20.2143 3.43922L20.4922 3.72691ZM34.771 18.8116H35.171V18.6523L35.0615 18.5366L34.771 18.8116ZM34.9865 38.2659H5.02262V39.0659H34.9865V38.2659ZM34.8047 38.4471C34.805 38.3473 34.8861 38.2658 34.9869 38.2659L34.9862 39.0659C35.3274 39.0662 35.6037 38.79 35.6047 38.4494L34.8047 38.4471ZM34.8047 18.7248V38.4483H35.6047V18.7248H34.8047ZM34.8551 18.8508C34.8227 18.8167 34.8047 18.7716 34.8047 18.7248L35.6047 18.7247C35.6047 18.5663 35.5438 18.4139 35.4345 18.2991L34.8551 18.8508ZM20.3647 3.54218L34.8543 18.8499L35.4353 18.3L20.9457 2.99223L20.3647 3.54218ZM20.495 3.59918C20.445 3.5983 20.3976 3.57723 20.3636 3.54092L20.9469 2.99349C20.8332 2.87233 20.6753 2.80223 20.5091 2.7993L20.495 3.59918ZM20.6222 3.54989C20.5884 3.58212 20.5432 3.59988 20.4963 3.5992L20.5078 2.79928C20.3451 2.79693 20.1881 2.8585 20.0704 2.97063L20.6222 3.54989ZM5.14921 18.4961L20.6242 3.54796L20.0684 2.97256L4.59341 17.9207L5.14921 18.4961ZM5.20469 18.3652C5.20469 18.4146 5.18458 18.462 5.14885 18.4964L4.59376 17.9204C4.4729 18.0368 4.40469 18.1974 4.40469 18.3652H5.20469ZM5.20469 38.4477V18.3652H4.40469V38.4477H5.20469ZM5.02262 38.2659C5.12363 38.2659 5.20469 38.3477 5.20469 38.4477H4.40469C4.40469 38.7886 4.68089 39.0659 5.02262 39.0659V38.2659ZM5.24338 38.6298H34.771V37.8298H5.24338V38.6298ZM4.84275 18.4577L4.84338 38.2298L5.64338 38.2298L5.64275 18.4577L4.84275 18.4577ZM20.2143 3.43922L4.96484 18.17L5.52065 18.7454L20.7701 4.0146L20.2143 3.43922ZM35.0615 18.5366L20.7827 3.45194L20.2017 4.00189L34.4805 19.0866L35.0615 18.5366ZM35.171 38.2298V18.8116H34.371V38.2298H35.171Z" fill="#103831" mask="url(#path-33-outside-4_1653_20257)"/>
</g>
</g>
</svg>
