<svg width="40" height="40" viewBox="0 0 40 40" fill="none" xmlns="http://www.w3.org/2000/svg">
<path d="M20 0C8.97156 0 0 8.97156 0 20C0 31.0284 8.97156 40 20 40C31.0284 40 40 31.0284 40 20C40 8.97156 31.0284 0 20 0Z" fill="#34B039"/>
<path d="M29.2517 15.7615L18.4183 26.5946C18.0933 26.9196 17.6666 27.0832 17.24 27.0832C16.8134 27.0832 16.3867 26.9196 16.0617 26.5946L10.6451 21.178C9.99329 20.5265 9.99329 19.473 10.6451 18.8215C11.2967 18.1696 12.3499 18.1696 13.0017 18.8215L17.24 23.0598L26.8951 13.4049C27.5467 12.7531 28.5999 12.7531 29.2517 13.4049C29.9033 14.0565 29.9033 15.1096 29.2517 15.7615Z" fill="#FAFAFA"/>
</svg>
