<svg width="102" height="38" viewBox="0 0 102 38" fill="none" xmlns="http://www.w3.org/2000/svg">
<rect x="1" y="1" width="100" height="36" rx="4" fill="white" fill-opacity="0.1" stroke="white" stroke-opacity="0.5"/>
<path d="M39.6055 22.1367H40.5137C40.25 20.7695 39.0977 19.832 37.6035 19.832C35.7871 19.832 34.5029 21.2285 34.5078 23.4648C34.5029 25.7012 35.7725 27.0977 37.6621 27.0977C39.3467 27.0977 40.5527 25.9697 40.5527 24.2168V23.4551H37.8477V24.2266H39.6934C39.6787 25.4814 38.8535 26.2725 37.6621 26.2773C36.3535 26.2725 35.3623 25.2861 35.3574 23.4648C35.3623 21.6387 36.3535 20.6523 37.6035 20.6523C38.6143 20.6523 39.3027 21.2285 39.6055 22.1367ZM43.9316 27.1074C45.3721 27.1123 46.3389 26.0186 46.334 24.373C46.3389 22.7178 45.3721 21.6289 43.9316 21.6289C42.4863 21.6289 41.5098 22.7178 41.5098 24.373C41.5098 26.0186 42.4863 27.1123 43.9316 27.1074ZM42.3496 24.373C42.3545 23.3184 42.8525 22.3711 43.9316 22.3711C45.001 22.3711 45.4941 23.3184 45.4941 24.373C45.4941 25.4326 45.001 26.3652 43.9316 26.3652C42.8525 26.3652 42.3545 25.4326 42.3496 24.373ZM49.6055 27.1074C51.0459 27.1123 52.0127 26.0186 52.0078 24.373C52.0127 22.7178 51.0459 21.6289 49.6055 21.6289C48.1602 21.6289 47.1836 22.7178 47.1836 24.373C47.1836 26.0186 48.1602 27.1123 49.6055 27.1074ZM48.0234 24.373C48.0283 23.3184 48.5264 22.3711 49.6055 22.3711C50.6748 22.3711 51.168 23.3184 51.168 24.373C51.168 25.4326 50.6748 26.3652 49.6055 26.3652C48.5264 26.3652 48.0283 25.4326 48.0234 24.373ZM55.2598 29.0996C56.5537 29.0996 57.5596 28.5137 57.5645 27.1465V21.6973H56.7441V22.5371H56.6758C56.4854 22.2539 56.1533 21.6289 55.123 21.6289C53.79 21.6289 52.8574 22.6445 52.8574 24.2754C52.8574 25.9453 53.8242 26.917 55.1133 26.9219C56.1387 26.917 56.4756 26.3164 56.6562 26.0234H56.7246V27.0977C56.7246 27.9717 56.168 28.3672 55.2598 28.3672C54.5078 28.3672 54.0049 28.0986 53.8926 27.5566H53.0137C53.1064 28.5381 53.9756 29.0996 55.2598 29.0996ZM53.707 24.3047C53.707 23.2354 54.21 22.3809 55.2305 22.3809C56.2168 22.3809 56.7393 23.167 56.7441 24.3047C56.7393 25.4717 56.2021 26.1699 55.2305 26.1699C54.2246 26.1699 53.707 25.4033 53.707 24.3047ZM59.7422 19.9297H58.9023V27H59.7422V19.9297ZM63.3066 27.1074C64.4004 27.1123 65.1865 26.5654 65.4355 25.7598H64.5371C64.3418 26.0869 63.9414 26.3652 63.3066 26.3652C62.3643 26.3652 61.71 25.75 61.666 24.627H65.5137V24.2754C65.5186 22.3125 64.3418 21.6289 63.2285 21.6289C61.7881 21.6289 60.8262 22.7617 60.8262 24.3926C60.8262 26.0186 61.7734 27.1123 63.3066 27.1074ZM61.6709 23.9141C61.7295 23.0938 62.3105 22.3711 63.2285 22.3711C64.1025 22.3711 64.6592 23.0303 64.6641 23.9141H61.6709ZM69.2246 27H70.1035V24.4316H71.6367C73.2822 24.4316 74.0391 23.4307 74.0391 22.1758C74.0391 20.916 73.2822 19.9297 71.627 19.9297H69.2246V27ZM70.1035 23.6504V20.7109H71.5879C72.7256 20.7109 73.165 21.3311 73.1699 22.1758C73.165 23.0156 72.7256 23.6504 71.5977 23.6504H70.1035ZM76.002 19.9297H75.1621V27H76.002V19.9297ZM77.0859 25.4961C77.0859 26.5312 77.8867 27.1221 78.8926 27.127C79.8154 27.1221 80.2988 26.6338 80.4746 26.2773H80.5137V27H81.3438V23.5039C81.3486 21.834 80.0449 21.6289 79.3516 21.6289C78.1797 21.6289 77.3496 22.2197 77.2422 23.0742H78.1211C78.2383 22.6689 78.6436 22.3613 79.3125 22.3613C80.1133 22.3613 80.5137 22.752 80.5137 23.4258V23.8555C80.2744 23.8604 79.4199 23.9092 79.0781 23.9336C78.1602 24.002 77.0859 24.2803 77.0859 25.4961ZM77.9258 25.5352C77.9307 24.9541 78.4141 24.6855 79.1758 24.6367C79.4297 24.6221 80.2646 24.5586 80.5137 24.5439V25.0762C80.5137 25.7451 79.9863 26.3799 79.0391 26.375C78.3945 26.3799 77.9307 26.0967 77.9258 25.5352ZM83.0332 28.9922C83.7852 28.9873 84.3027 28.5967 84.6152 27.7617L86.8613 21.6973H85.9434L84.498 25.9062H84.4395L82.9941 21.6973H82.0762L84.0391 27.0391L83.8828 27.4395C83.6045 28.2158 83.3164 28.2354 82.9746 28.2402C82.8428 28.2354 82.6523 28.2305 82.5645 28.2207V28.9727C82.6719 28.9824 82.8525 28.9873 83.0332 28.9922Z" fill="white"/>
<path d="M37.9238 12.5957H38.5596C38.375 11.6387 37.5684 10.9824 36.5225 10.9824C35.251 10.9824 34.3521 11.96 34.3555 13.5254C34.3521 15.0908 35.2407 16.0684 36.5635 16.0684C37.7427 16.0684 38.5869 15.2788 38.5869 14.0518V13.5186H36.6934V14.0586H37.9854C37.9751 14.937 37.3975 15.4907 36.5635 15.4941C35.6475 15.4907 34.9536 14.8003 34.9502 13.5254C34.9536 12.2471 35.6475 11.5566 36.5225 11.5566C37.23 11.5566 37.7119 11.96 37.9238 12.5957ZM39.5098 16H42.5449V15.4531H40.125V13.792H42.3535V13.252H40.125V11.5977H42.5107V11.0508H39.5098V16ZM43.208 11.5977H44.7666V16H45.3887V11.5977H46.9404V11.0508H43.208V11.5977ZM50.1328 11.0508H49.5176V16H50.1328V11.0508ZM50.9531 11.5977H52.5117V16H53.1338V11.5977H54.6855V11.0508H50.9531V11.5977ZM61.4463 13.5254C61.4497 11.96 60.5269 10.9824 59.2588 10.9824C57.9873 10.9824 57.0679 11.96 57.0713 13.5254C57.0679 15.0908 57.9873 16.0684 59.2588 16.0684C60.5269 16.0684 61.4497 15.0908 61.4463 13.5254ZM57.666 13.5254C57.6694 12.2471 58.3633 11.5566 59.2588 11.5566C60.1543 11.5566 60.8481 12.2471 60.8516 13.5254C60.8481 14.8003 60.1543 15.4907 59.2588 15.4941C58.3633 15.4907 57.6694 14.8003 57.666 13.5254ZM66.2793 11.0508H65.6709V14.9131H65.623L62.9434 11.0508H62.3486V16H62.9639V12.1445H63.0117L65.6914 16H66.2793V11.0508Z" fill="white"/>
<mask id="mask0_296_7346" style="mask-type:alpha" maskUnits="userSpaceOnUse" x="14" y="12" width="14" height="14">
<rect x="14" y="12" width="14" height="14" fill="#C4C4C4"/>
</mask>
<g mask="url(#mask0_296_7346)">
<path d="M26.8934 18.6086C26.8934 19.0217 26.6621 19.3852 26.3261 19.5724L23.4623 21.1641L21.0391 18.6086L23.4623 16.0532L26.3261 17.6449C26.6621 17.8321 26.8934 18.1956 26.8934 18.6086Z" fill="#FFC107"/>
<path d="M21.0392 18.6088L15.0913 24.8817C14.893 24.6834 14.7773 24.4136 14.7773 24.1162V13.1015C14.7773 12.8041 14.893 12.5342 15.0913 12.3359L21.0392 18.6088Z" fill="#03A9F4"/>
<path d="M21.0378 18.6089L23.461 21.1643C16.2062 25.1434 15.9022 25.7393 15.0898 24.8818L21.0378 18.6089Z" fill="#F44336"/>
<path d="M23.461 16.0534L21.0378 18.6089L15.0898 12.336C15.4302 11.9763 15.976 11.8976 16.4116 12.1377L23.461 16.0534Z" fill="#4CAF50"/>
</g>
</svg>
