<svg width="102" height="38" viewBox="0 0 102 38" fill="none" xmlns="http://www.w3.org/2000/svg">
<rect x="1" y="1" width="100" height="36" rx="4" fill="white" fill-opacity="0.1" stroke="white" stroke-opacity="0.5"/>
<g clip-path="url(#clip0_296_7336)">
<path d="M24.8353 19.8473C24.4502 17.9091 26.2898 16.7725 26.2898 16.7725C26.2898 16.7725 25.573 15.7355 24.3685 15.4687C23.1645 15.2014 22.5619 15.5354 21.9605 15.7859C21.3585 16.0371 21.0581 16.0371 21.0581 16.0371C20.1894 16.0371 19.5543 15.1173 17.8992 15.536C16.7589 15.8238 15.5585 17.1401 15.3416 18.7112C15.1247 20.2829 15.5928 22.2883 16.4951 23.8425C17.3975 25.398 18.3167 25.9825 18.9692 25.9994C19.6216 26.0156 20.2729 25.532 21.0581 25.4142C21.844 25.2976 22.3276 25.699 23.0984 25.9159C23.8662 26.1322 24.1354 25.9315 25.0197 25.1793C25.9065 24.4271 26.7091 22.2697 26.7091 22.2697C26.7091 22.2697 25.2204 21.7866 24.8353 19.8473Z" fill="white"/>
<path d="M23.1296 14.2151C23.9827 13.3458 23.6938 12 23.6938 12C23.6938 12 22.4958 12.2103 21.6931 13.0454C20.8911 13.8811 21.0238 15.201 21.0238 15.201C21.0238 15.201 22.2765 15.0839 23.1296 14.2151Z" fill="white"/>
</g>
<path d="M35.0938 27L35.8018 25.0078H38.6436L39.3516 27H40.2793L37.6914 19.9297H36.7637L34.1758 27H35.0938ZM36.0703 24.2363L37.1934 21.0723H37.252L38.375 24.2363H36.0703ZM41.1289 28.9922H41.9688V26.1895H42.0371C42.2178 26.4824 42.5693 27.1123 43.5801 27.1074C44.9033 27.1123 45.8262 26.0479 45.8262 24.3633C45.8262 22.6836 44.9033 21.6289 43.5703 21.6289C42.54 21.6289 42.2178 22.2539 42.0371 22.5371H41.9395V21.6973H41.1289V28.9922ZM41.9492 24.3438C41.9541 23.167 42.4717 22.3809 43.4629 22.3809C44.4834 22.3809 44.9863 23.2354 44.9863 24.3438C44.9863 25.4717 44.4688 26.3555 43.4629 26.3555C42.4863 26.3555 41.9541 25.5352 41.9492 24.3438ZM46.9199 28.9922H47.7598V26.1895H47.8281C48.0088 26.4824 48.3604 27.1123 49.3711 27.1074C50.6943 27.1123 51.6172 26.0479 51.6172 24.3633C51.6172 22.6836 50.6943 21.6289 49.3613 21.6289C48.3311 21.6289 48.0088 22.2539 47.8281 22.5371H47.7305V21.6973H46.9199V28.9922ZM47.7402 24.3438C47.7451 23.167 48.2627 22.3809 49.2539 22.3809C50.2744 22.3809 50.7773 23.2354 50.7773 24.3438C50.7773 25.4717 50.2598 26.3555 49.2539 26.3555C48.2773 26.3555 47.7451 25.5352 47.7402 24.3438ZM59.1855 21.707H60.0449C60.0107 20.6328 59.0244 19.832 57.6523 19.832C56.2803 19.832 55.2158 20.6182 55.2207 21.8145C55.2158 22.7715 55.9092 23.3379 57.0176 23.6602L57.8867 23.8945C58.6289 24.1045 59.2832 24.3682 59.2832 25.0566C59.2832 25.8281 58.5508 26.3311 57.5742 26.3262C56.7344 26.3311 55.9971 25.9551 55.9238 25.1641H55.0254C55.1084 26.3359 56.0508 27.1221 57.5742 27.127C59.2148 27.1221 60.1426 26.2285 60.1426 25.0762C60.1426 23.7529 58.8975 23.3184 58.1406 23.123L57.4375 22.9277C56.9004 22.7959 56.0752 22.5176 56.0703 21.7754C56.0752 21.1016 56.6855 20.6133 57.623 20.6133C58.4678 20.6133 59.1123 21.0137 59.1855 21.707ZM63.6094 21.6973H62.4961V20.4277H61.6465V21.6973H60.8457V22.4004H61.6465V25.6914C61.6514 26.6289 62.3936 27.0684 63.1016 27.0684C63.3506 27.0684 63.5557 27.0488 63.6875 27.0293V26.248C63.5654 26.2529 63.3408 26.2676 63.1895 26.2676C62.833 26.2676 62.4912 26.1553 62.4961 25.4766V22.4004H63.6094V21.6973ZM66.8027 27.1074C68.2432 27.1123 69.21 26.0186 69.2051 24.373C69.21 22.7178 68.2432 21.6289 66.8027 21.6289C65.3574 21.6289 64.3809 22.7178 64.3809 24.373C64.3809 26.0186 65.3574 27.1123 66.8027 27.1074ZM65.2207 24.373C65.2256 23.3184 65.7236 22.3711 66.8027 22.3711C67.8721 22.3711 68.3652 23.3184 68.3652 24.373C68.3652 25.4326 67.8721 26.3652 66.8027 26.3652C65.7236 26.3652 65.2256 25.4326 65.2207 24.373ZM70.3086 27H71.1484V23.6602C71.1484 22.9473 71.7148 22.4199 72.4766 22.4199C72.6963 22.4199 72.9209 22.4639 72.9844 22.4785V21.6289C72.8867 21.6191 72.6719 21.6143 72.5449 21.6094C71.9199 21.6143 71.3682 21.9707 71.1777 22.5078H71.1191V21.6973H70.3086V27ZM75.8555 27.1074C76.9492 27.1123 77.7354 26.5654 77.9844 25.7598H77.0859C76.8906 26.0869 76.4902 26.3652 75.8555 26.3652C74.9131 26.3652 74.2588 25.75 74.2148 24.627H78.0625V24.2754C78.0674 22.3125 76.8906 21.6289 75.7773 21.6289C74.3369 21.6289 73.375 22.7617 73.375 24.3926C73.375 26.0186 74.3223 27.1123 75.8555 27.1074ZM74.2197 23.9141C74.2783 23.0938 74.8594 22.3711 75.7773 22.3711C76.6514 22.3711 77.208 23.0303 77.2129 23.9141H74.2197Z" fill="white"/>
<path d="M36.085 16C37.5923 16 38.4434 15.0635 38.4434 13.5186C38.4434 11.9771 37.5923 11.0508 36.1465 11.0508H34.5469V16H36.085ZM35.1621 15.4531V11.5977H36.1055C37.2573 11.5977 37.8418 12.3223 37.8418 13.5186C37.8418 14.7183 37.2573 15.4531 36.0439 15.4531H35.1621ZM40.7881 16.0752C41.7964 16.0786 42.4731 15.313 42.4697 14.1611C42.4731 13.0024 41.7964 12.2402 40.7881 12.2402C39.7764 12.2402 39.0928 13.0024 39.0928 14.1611C39.0928 15.313 39.7764 16.0786 40.7881 16.0752ZM39.6807 14.1611C39.6841 13.4229 40.0327 12.7598 40.7881 12.7598C41.5366 12.7598 41.8818 13.4229 41.8818 14.1611C41.8818 14.9028 41.5366 15.5557 40.7881 15.5557C40.0327 15.5557 39.6841 14.9028 39.6807 14.1611ZM43.9531 16H44.541L45.3408 13.1699H45.3955L46.2021 16H46.7832L47.9111 12.2881H47.2959L46.5029 15.1045H46.4619L45.6895 12.2881H45.0605L44.2744 15.1182H44.2402L43.4473 12.2881H42.8252L43.9531 16ZM49.1484 13.7715C49.1484 13.1289 49.5449 12.7666 50.085 12.7666C50.6113 12.7666 50.9258 13.1084 50.9258 13.6826V16H51.5137V13.6416C51.5171 12.6982 51.0146 12.2402 50.2627 12.2402C49.6987 12.2402 49.3501 12.4897 49.1758 12.8691H49.1279V12.2881H48.5605V16H49.1484V13.7715ZM53.0449 11.0508H52.457V16H53.0449V11.0508ZM55.499 16.0752C56.5073 16.0786 57.1841 15.313 57.1807 14.1611C57.1841 13.0024 56.5073 12.2402 55.499 12.2402C54.4873 12.2402 53.8037 13.0024 53.8037 14.1611C53.8037 15.313 54.4873 16.0786 55.499 16.0752ZM54.3916 14.1611C54.395 13.4229 54.7437 12.7598 55.499 12.7598C56.2476 12.7598 56.5928 13.4229 56.5928 14.1611C56.5928 14.9028 56.2476 15.5557 55.499 15.5557C54.7437 15.5557 54.395 14.9028 54.3916 14.1611ZM57.7754 14.9473C57.7754 15.6719 58.3359 16.0854 59.04 16.0889C59.686 16.0854 60.0244 15.7437 60.1475 15.4941H60.1748V16H60.7559V13.5527C60.7593 12.3838 59.8467 12.2402 59.3613 12.2402C58.541 12.2402 57.96 12.6538 57.8848 13.252H58.5C58.582 12.9683 58.8657 12.7529 59.334 12.7529C59.8945 12.7529 60.1748 13.0264 60.1748 13.498V13.7988C60.0073 13.8022 59.4092 13.8364 59.1699 13.8535C58.5273 13.9014 57.7754 14.0962 57.7754 14.9473ZM58.3633 14.9746C58.3667 14.5679 58.7051 14.3799 59.2383 14.3457C59.416 14.3354 60.0005 14.291 60.1748 14.2808V14.6533C60.1748 15.1216 59.8057 15.5659 59.1426 15.5625C58.6914 15.5659 58.3667 15.3677 58.3633 14.9746ZM63.1006 16.0752C63.8081 16.0786 64.0508 15.6377 64.1807 15.4326H64.2422V16H64.8164V11.0508H64.2217V12.876H64.1807C64.0542 12.6777 63.8286 12.2402 63.1074 12.2402C62.1743 12.2402 61.5215 12.9785 61.5215 14.1543C61.5215 15.3335 62.1743 16.0786 63.1006 16.0752ZM62.1162 14.1406C62.1162 13.3647 62.4683 12.7666 63.1826 12.7666C63.873 12.7666 64.2388 13.3169 64.2422 14.1406C64.2388 14.9746 63.8628 15.5488 63.1826 15.5488C62.4785 15.5488 62.1162 14.9302 62.1162 14.1406ZM69.1094 16.0752C70.1177 16.0786 70.7944 15.313 70.791 14.1611C70.7944 13.0024 70.1177 12.2402 69.1094 12.2402C68.0977 12.2402 67.4141 13.0024 67.4141 14.1611C67.4141 15.313 68.0977 16.0786 69.1094 16.0752ZM68.002 14.1611C68.0054 13.4229 68.354 12.7598 69.1094 12.7598C69.8579 12.7598 70.2031 13.4229 70.2031 14.1611C70.2031 14.9028 69.8579 15.5557 69.1094 15.5557C68.354 15.5557 68.0054 14.9028 68.002 14.1611ZM72.1514 13.7715C72.1514 13.1289 72.5479 12.7666 73.0879 12.7666C73.6143 12.7666 73.9287 13.1084 73.9287 13.6826V16H74.5166V13.6416C74.52 12.6982 74.0176 12.2402 73.2656 12.2402C72.7017 12.2402 72.353 12.4897 72.1787 12.8691H72.1309V12.2881H71.5635V16H72.1514V13.7715ZM78.8369 12.2881H78.0576V11.3994H77.4629V12.2881H76.9023V12.7803H77.4629V15.084C77.4663 15.7402 77.9858 16.0479 78.4814 16.0479C78.6558 16.0479 78.7993 16.0342 78.8916 16.0205V15.4736C78.8062 15.4771 78.6489 15.4873 78.543 15.4873C78.2935 15.4873 78.0542 15.4087 78.0576 14.9336V12.7803H78.8369V12.2881ZM80.2656 13.7715C80.2656 13.1289 80.6758 12.7666 81.2295 12.7666C81.7627 12.7666 82.084 13.0981 82.084 13.6826V16H82.6719V13.6416C82.6719 12.688 82.166 12.2402 81.4072 12.2402C80.8193 12.2402 80.4878 12.4863 80.3135 12.8691H80.2656V11.0508H79.6777V16H80.2656V13.7715ZM85.1738 16.0752C85.9395 16.0786 86.4897 15.6958 86.6641 15.1318H86.0352C85.8984 15.3608 85.6182 15.5557 85.1738 15.5557C84.5142 15.5557 84.0562 15.125 84.0254 14.3389H86.7188V14.0928C86.7222 12.7188 85.8984 12.2402 85.1191 12.2402C84.1108 12.2402 83.4375 13.0332 83.4375 14.1748C83.4375 15.313 84.1006 16.0786 85.1738 16.0752ZM84.0288 13.8398C84.0698 13.2656 84.4766 12.7598 85.1191 12.7598C85.731 12.7598 86.1206 13.2212 86.124 13.8398H84.0288Z" fill="white"/>
<defs>
<clipPath id="clip0_296_7336">
<rect width="14" height="14" fill="white" transform="translate(14 12)"/>
</clipPath>
</defs>
</svg>
