<svg width="20" height="20" viewBox="0 0 20 20" fill="none" xmlns="http://www.w3.org/2000/svg">
<path d="M2.5013 3.33374C2.28029 3.33374 2.06833 3.42155 1.91205 3.57783C1.75577 3.73411 1.66797 3.94606 1.66797 4.16707C1.66797 4.38808 1.75577 4.60003 1.91205 4.75631C2.06833 4.91259 2.28029 5.0004 2.5013 5.0004H17.5013C17.7223 5.0004 17.9343 4.91259 18.0906 4.75631C18.2468 4.60003 18.3346 4.38808 18.3346 4.16707C18.3346 3.94606 18.2468 3.73411 18.0906 3.57783C17.9343 3.42155 17.7223 3.33374 17.5013 3.33374H2.5013Z" fill="black"/>
<path d="M2.5013 15.0005C2.28029 15.0005 2.06833 15.0883 1.91205 15.2446C1.75577 15.4009 1.66797 15.6128 1.66797 15.8338C1.66797 16.0548 1.75577 16.2668 1.91205 16.4231C2.06833 16.5794 2.28029 16.6672 2.5013 16.6672H17.5013C17.7223 16.6672 17.9343 16.5794 18.0906 16.4231C18.2468 16.2668 18.3346 16.0548 18.3346 15.8338C18.3346 15.6128 18.2468 15.4009 18.0906 15.2446C17.9343 15.0883 17.7223 15.0005 17.5013 15.0005H2.5013Z" fill="black"/>
<path d="M2.5013 9.16699C2.28029 9.16699 2.06833 9.2548 1.91205 9.41108C1.75577 9.56737 1.66797 9.77932 1.66797 10.0003C1.66797 10.2213 1.75577 10.4333 1.91205 10.5896C2.06833 10.7459 2.28029 10.8337 2.5013 10.8337H17.5013C17.7223 10.8337 17.9343 10.7459 18.0906 10.5896C18.2468 10.4333 18.3346 10.2213 18.3346 10.0003C18.3346 9.77932 18.2468 9.56737 18.0906 9.41108C17.9343 9.2548 17.7223 9.16699 17.5013 9.16699H2.5013Z" fill="black"/>
</svg>
