<svg width="84" height="20" viewBox="0 0 84 20" fill="none" xmlns="http://www.w3.org/2000/svg">
<mask id="mask0_421_6691" style="mask-type:alpha" maskUnits="userSpaceOnUse" x="0" y="0" width="84" height="20">
<rect width="84" height="20" fill="#C4C4C4"/>
</mask>
<g mask="url(#mask0_421_6691)">
<path d="M17.9105 8.88801V19.4517H1.81641V8.69559L10.1285 0.666497L17.9105 8.88801ZM9.87386 0.397457L9.87492 0.398577L9.87386 0.397457Z" stroke="#103831"/>
<path d="M18.2764 19.939C18.3439 19.939 18.3987 19.8844 18.3988 19.8168V8.74269C18.3988 8.71132 18.3868 8.68124 18.3653 8.65858L10.2298 0.0636332C10.2074 0.039821 10.1764 0.0261253 10.1438 0.0254833C10.1113 0.0251013 10.0799 0.0373906 10.0563 0.0597914L1.36754 8.45273C1.34373 8.47578 1.33016 8.50752 1.33016 8.54068V19.8165C1.33016 19.8841 1.38495 19.939 1.45254 19.939H18.2764ZM18.2764 19.9645H1.45254C1.37102 19.9645 1.30469 19.8981 1.30469 19.8165V8.54068C1.30469 8.50091 1.32114 8.46219 1.34983 8.43443L10.0386 0.0414693C10.0668 0.0146791 10.1036 0 10.1423 0L10.144 1.01889e-05C10.1835 0.00078465 10.2215 0.0176113 10.2483 0.0461772L18.3838 8.64107C18.4099 8.66859 18.4243 8.70468 18.4243 8.74269V19.8168C18.4241 19.8983 18.3578 19.9645 18.2764 19.9645Z" fill="#103831"/>
<path d="M3.47639 16.0037C3.26439 16.0037 3.10668 15.9534 3.00767 15.8543C2.91314 15.7597 2.89903 15.647 2.89903 15.5882L2.89844 15.5399C2.89844 15.4959 2.92504 15.4717 2.97336 15.4717C3.02167 15.4717 3.04828 15.4959 3.04828 15.5398V15.5622C3.04828 15.6541 3.08454 15.7302 3.15315 15.7824C3.22499 15.8371 3.33281 15.866 3.46494 15.866L3.47042 15.866C3.71891 15.866 3.86464 15.7792 3.88085 15.6215C3.89637 15.4646 3.78087 15.4064 3.65374 15.3669L3.21329 15.2269C3.01382 15.1631 2.92641 15.0553 2.92983 14.8773C2.93357 14.6509 3.11963 14.5261 3.45373 14.5261C3.92313 14.5261 3.99322 14.7627 3.99322 14.9037V14.9261C3.99322 14.9672 3.9666 14.9907 3.92019 14.9907C3.855 14.9907 3.84526 14.9503 3.84526 14.9261V14.9122C3.84526 14.7603 3.69436 14.6622 3.46081 14.6622C3.31811 14.6622 3.07841 14.6902 3.07637 14.8776C3.0748 15.0073 3.15869 15.0619 3.28513 15.1041L3.7495 15.2509C3.94932 15.3149 4.04099 15.4362 4.02978 15.6217C4.0222 15.7393 3.9742 15.832 3.88711 15.8973C3.79278 15.9679 3.6546 16.0037 3.47639 16.0037Z" fill="#103831"/>
<path d="M3.47741 15.991C3.84533 15.991 4.00416 15.8373 4.01808 15.621C4.02811 15.455 3.95731 15.3306 3.74668 15.2631L3.28212 15.1163C3.15256 15.073 3.063 15.0141 3.06465 14.8775C3.06642 14.7151 3.23386 14.6495 3.46183 14.6495C3.70184 14.6495 3.85902 14.7531 3.85902 14.9122V14.9262C3.85902 14.9572 3.87625 14.978 3.9212 14.978C3.96416 14.978 3.9815 14.9572 3.9815 14.9262V14.9037C3.9815 14.7013 3.8399 14.5389 3.45475 14.5389C3.13179 14.5389 2.94724 14.6565 2.94358 14.8776C2.94016 15.0557 3.03338 15.1557 3.21816 15.2148L3.65854 15.3548C3.80297 15.3997 3.91011 15.4655 3.89454 15.6229C3.87908 15.7733 3.74786 15.8788 3.47151 15.8788C3.18843 15.8804 3.03656 15.7558 3.03656 15.5623V15.5398C3.03656 15.5034 3.0158 15.4845 2.97438 15.4845C2.93296 15.4845 2.91219 15.5034 2.91219 15.5398L2.91278 15.5882C2.91278 15.7369 3.00435 15.991 3.47741 15.991ZM3.47741 16.0165C3.2619 16.0165 3.10117 15.965 2.99968 15.8634C2.90191 15.7655 2.88731 15.649 2.88731 15.5882L2.88672 15.5401C2.88672 15.4892 2.91949 15.459 2.97438 15.459C3.02927 15.459 3.06204 15.4892 3.06204 15.5398V15.5623C3.06204 15.7472 3.20926 15.8533 3.46596 15.8533L3.47135 15.8533C3.71252 15.8533 3.85375 15.7705 3.86919 15.6203C3.88117 15.4993 3.81999 15.4317 3.65098 15.3791L3.21045 15.2391C3.00749 15.1742 2.91461 15.0592 2.91811 14.8771C2.92199 14.6426 3.11257 14.5134 3.45475 14.5134C3.93524 14.5134 4.00698 14.758 4.00698 14.9037V14.9262C4.00698 14.9746 3.97491 15.0035 3.9212 15.0035C3.86631 15.0035 3.83354 14.9746 3.83354 14.9262V14.9122C3.83354 14.7681 3.68764 14.675 3.46183 14.675C3.32384 14.675 3.09205 14.7013 3.09012 14.8778C3.08865 14.9998 3.16903 15.0517 3.29018 15.0921L3.75436 15.2388C3.96057 15.3049 4.05512 15.4304 4.04351 15.6225C4.03404 15.7697 3.9479 16.0165 3.47741 16.0165Z" fill="#103831"/>
<path d="M5.52157 16.0035C5.46102 16.0035 5.4483 15.9656 5.4483 15.9338V15.2162C5.4483 15.0946 5.44968 14.9574 5.45881 14.8368L4.99099 15.9075C4.97958 15.9396 4.94915 15.9611 4.91512 15.9611C4.91224 15.9611 4.90934 15.9609 4.90647 15.9606C4.90438 15.9608 4.9023 15.9609 4.90023 15.9609C4.866 15.9609 4.8347 15.9394 4.82235 15.9074L4.35461 14.837C4.36366 14.9552 4.36506 15.0882 4.36506 15.2162V15.9337C4.36506 15.9792 4.3398 16.0033 4.29202 16.0033C4.23146 16.0033 4.21875 15.9654 4.21875 15.9337V14.6128C4.21875 14.5553 4.24716 14.526 4.30318 14.5258C4.30641 14.5254 4.30968 14.5252 4.31292 14.5252C4.35314 14.5252 4.38768 14.5524 4.39736 14.5914L4.90668 15.7465L5.41646 14.5903C5.43736 14.543 5.46103 14.526 5.50663 14.5258C5.51046 14.5252 5.51434 14.5249 5.51819 14.5249C5.53884 14.5249 5.55825 14.533 5.57285 14.5476C5.59017 14.5649 5.59826 14.5896 5.59461 14.6138V15.9338C5.59461 15.9794 5.56936 16.0035 5.52157 16.0035Z" fill="#103831"/>
<path d="M5.51922 14.5377C5.51571 14.5377 5.51218 14.538 5.50867 14.5386C5.46725 14.5386 5.44814 14.5525 5.42914 14.5955L4.9077 15.7781L4.38626 14.5955C4.37763 14.5585 4.3426 14.534 4.30496 14.5386C4.25611 14.5386 4.23251 14.561 4.23251 14.6129V15.9337C4.23251 15.9719 4.25174 15.9906 4.29304 15.9906C4.33434 15.9906 4.35334 15.9719 4.35334 15.9337V15.2162C4.35334 15.0759 4.35169 14.9137 4.33776 14.7805H4.34484L4.83525 15.9029C4.84665 15.9324 4.87622 15.9507 4.9077 15.9479C4.93943 15.9518 4.96961 15.9331 4.98015 15.9029L5.47056 14.7805H5.47764C5.46383 14.9137 5.46206 15.0762 5.46206 15.2162V15.9338C5.46206 15.972 5.48129 15.9908 5.52259 15.9908C5.56389 15.9908 5.58289 15.972 5.58289 15.9338V14.6129C5.58629 14.5923 5.57958 14.5714 5.56485 14.5566C5.55265 14.5444 5.53619 14.5377 5.51922 14.5377ZM5.51921 14.5122C5.51922 14.5122 5.51922 14.5122 5.51922 14.5122C5.54326 14.5122 5.56587 14.5216 5.58288 14.5386C5.60282 14.5586 5.61226 14.5869 5.60837 14.6148V15.9338C5.60837 15.9862 5.5771 16.0162 5.52259 16.0162C5.46793 16.0162 5.43658 15.9862 5.43658 15.9338V15.2162C5.43658 15.118 5.43748 15.0097 5.44262 14.9081L5.00385 15.9122C4.99051 15.9491 4.95539 15.9739 4.91614 15.9739C4.91319 15.9739 4.91023 15.9737 4.90729 15.9734C4.86569 15.9761 4.82683 15.951 4.81171 15.9126L4.37289 14.9083C4.37792 15.0074 4.37882 15.1135 4.37882 15.2162V15.9337C4.37882 15.9861 4.34755 16.0161 4.29304 16.0161C4.23838 16.0161 4.20703 15.9861 4.20703 15.9337V14.6129C4.20703 14.5481 4.24038 14.5136 4.30348 14.5131C4.30695 14.5127 4.31046 14.5125 4.31394 14.5125C4.35967 14.5125 4.399 14.5431 4.41046 14.5872L4.9077 15.715L5.40583 14.5852C5.42876 14.5333 5.45622 14.5136 5.50668 14.5131C5.51083 14.5125 5.51504 14.5122 5.51921 14.5122Z" fill="#103831"/>
<path d="M5.82177 16.0041C5.80941 16.0041 5.79528 16.0008 5.77976 15.9941C5.76162 15.9887 5.74698 15.9757 5.73952 15.9582C5.73202 15.9407 5.73275 15.921 5.74151 15.9041L6.29909 14.5814C6.31404 14.5419 6.32767 14.5251 6.37289 14.5251C6.4183 14.5251 6.43193 14.5419 6.447 14.5818L7.00119 15.9097C7.01066 15.9305 7.01198 15.9488 7.00498 15.9638C6.9973 15.9802 6.98031 15.9919 6.95306 15.9994C6.94278 16.0023 6.93369 16.0036 6.92525 16.0036C6.88757 16.0036 6.87123 15.9759 6.86022 15.9487L6.72539 15.6282H6.01546L5.87347 15.9679C5.86396 15.9916 5.84606 16.0041 5.82177 16.0041Z" fill="#103831"/>
<path d="M5.82279 15.9915C5.84184 15.9914 5.85521 15.9818 5.86275 15.9631L6.008 15.6155H6.73488L6.87306 15.9439C6.88851 15.9821 6.90751 15.9991 6.9507 15.9872C6.99389 15.9752 7.00781 15.9528 6.99047 15.9146L6.43611 14.5864C6.4223 14.5497 6.41239 14.5379 6.37392 14.5379C6.33545 14.5379 6.32554 14.5502 6.31185 14.5864L5.75407 15.9096C5.74689 15.9231 5.74623 15.9392 5.75226 15.9533C5.75829 15.9674 5.77036 15.978 5.7851 15.9821C5.79946 15.9884 5.81203 15.9915 5.82279 15.9915ZM5.8228 16.0169C5.82279 16.0169 5.82279 16.0169 5.82279 16.0169C5.80888 16.0169 5.79328 16.0133 5.77642 16.0061C5.75497 15.9995 5.7377 15.984 5.72883 15.9633C5.7199 15.9424 5.72069 15.9189 5.73099 15.8987L6.28819 14.5769C6.30444 14.5342 6.32226 14.5125 6.37392 14.5125C6.42577 14.5125 6.44359 14.5342 6.45978 14.5769L7.01384 15.9045C7.02491 15.929 7.02616 15.9508 7.01755 15.9692C7.00819 15.9892 6.98854 16.0032 6.95748 16.0117C6.94608 16.0149 6.93588 16.0164 6.92628 16.0164C6.87493 16.0164 6.85641 15.9707 6.84945 15.9535L6.71796 15.641H6.02497L5.88625 15.9729C5.87486 16.0012 5.85228 16.0169 5.82279 16.0169H5.8228Z" fill="#103831"/>
<path d="M6.70759 15.5124H6.6885H6.05827H6.03906L6.04654 15.4947L6.21457 15.0971C6.24691 15.0225 6.31412 14.8676 6.36106 14.7431L6.36417 14.7349H6.37298H6.37805H6.38675L6.38991 14.743C6.42828 14.8412 6.47531 14.9539 6.5131 15.0444C6.52098 15.0633 6.52837 15.081 6.53507 15.0971L6.70027 15.4948L6.70759 15.5124Z" fill="white"/>
<path d="M6.68818 15.4997L6.52299 15.1021C6.48487 15.0104 6.42434 14.867 6.37773 14.7476H6.37266C6.3277 14.8668 6.26575 15.0104 6.22598 15.1021L6.05795 15.4997H6.68818ZM6.72635 15.5252H6.01953L6.20251 15.0922C6.23487 15.0176 6.30199 14.8628 6.34882 14.7387L6.35504 14.7222H6.39513L6.40146 14.7384C6.43977 14.8365 6.48677 14.9491 6.52453 15.0396C6.53242 15.0585 6.53981 15.0762 6.54651 15.0923L6.72635 15.5252Z" fill="#103831"/>
<path d="M8.16382 16.0048C8.15661 16.0048 8.14949 16.0036 8.14265 16.0013C8.12294 15.9947 8.1073 15.9791 8.10061 15.9595L7.79784 15.3758H7.3003V15.932C7.3003 15.9803 7.2758 16.0038 7.22538 16.0038C7.17692 16.0038 7.15234 15.982 7.15234 15.9392V14.6337C7.15234 14.5728 7.18191 14.5432 7.24273 14.5432H7.81077C7.9364 14.5432 8.0331 14.5739 8.09819 14.6345C8.1578 14.6899 8.18931 14.7709 8.18931 14.8688V15.0431C8.19935 15.1936 8.09925 15.3267 7.95405 15.3599L8.23389 15.8969C8.2451 15.9193 8.24781 15.937 8.24251 15.9529C8.23719 15.9689 8.22415 15.9817 8.2015 15.9931C8.19036 16.0008 8.17735 16.0048 8.16382 16.0048Z" fill="#103831"/>
<path d="M8.16484 15.9921C8.17586 15.9921 8.18677 15.9887 8.196 15.9822C8.23411 15.9632 8.24261 15.9407 8.22361 15.9028L7.93593 15.3507C8.08331 15.3257 8.18776 15.1929 8.17759 15.0436V14.8688C8.17759 14.686 8.06738 14.556 7.81179 14.556H7.24374C7.19194 14.556 7.1661 14.5784 7.1661 14.6337V15.9392C7.1661 15.9723 7.18156 15.9911 7.2264 15.9911C7.27124 15.9911 7.28858 15.9718 7.28858 15.932V15.3631H7.8066L8.1134 15.9546C8.11866 15.971 8.13141 15.9839 8.14771 15.9893C8.15331 15.9912 8.15909 15.9921 8.16484 15.9921ZM8.16484 16.0176C8.15626 16.0176 8.14777 16.0162 8.13963 16.0135C8.11647 16.0057 8.09804 15.9875 8.0899 15.9646L7.79112 15.3886H7.31406V15.932C7.31406 15.9873 7.28375 16.0165 7.2264 16.0165C7.15177 16.0165 7.14062 15.9681 7.14062 15.9392V14.6337C7.14062 14.5662 7.17628 14.5305 7.24374 14.5305H7.81179C8.06045 14.5305 8.20307 14.6538 8.20307 14.8688V15.0427C8.21295 15.1938 8.1163 15.328 7.9738 15.3683L8.2462 15.891C8.25895 15.9165 8.26197 15.9379 8.25561 15.957C8.24732 15.9819 8.22545 15.9958 8.209 16.0042C8.19588 16.013 8.18066 16.0176 8.16484 16.0176Z" fill="#103831"/>
<path d="M7.81152 15.26H7.29008H7.27734V15.2473V14.6717V14.6589L7.2901 14.6589L7.81153 14.6595C7.98524 14.6595 8.06616 14.7366 8.06616 14.9022V15.011C8.06616 15.1786 7.98286 15.26 7.81152 15.26Z" fill="white"/>
<path d="M7.2911 14.6717V15.2473H7.81254C7.96806 15.2473 8.05444 15.1801 8.05444 15.0111V14.9022C8.05444 14.7327 7.96806 14.6723 7.81254 14.6723L7.2911 14.6717ZM7.26562 14.6462L7.81257 14.6469C7.90056 14.6469 7.96472 14.6658 8.00868 14.7046C8.05661 14.747 8.07991 14.8116 8.07991 14.9022V15.0111C8.07991 15.1847 7.98995 15.2728 7.81254 15.2728H7.26562V14.6462Z" fill="#103831"/>
<path d="M8.86912 16.0039C8.81792 16.0039 8.79608 15.9824 8.79608 15.9321V14.6828H8.34426C8.30009 14.6828 8.28125 14.6619 8.28125 14.6129C8.28125 14.5641 8.30009 14.5432 8.34426 14.5432H9.39586C9.43928 14.5432 9.45863 14.5647 9.45863 14.6129C9.45863 14.6613 9.43928 14.6828 9.39586 14.6828H8.94239V15.9321C8.94239 15.9817 8.91979 16.0039 8.86912 16.0039Z" fill="#103831"/>
<path d="M8.34527 14.556C8.30893 14.556 8.29501 14.5697 8.29501 14.6129C8.29501 14.6562 8.30893 14.6701 8.34527 14.6701H8.80984V15.9321C8.80984 15.9724 8.82353 15.9912 8.87014 15.9912C8.91674 15.9912 8.93067 15.9719 8.93067 15.9321V14.6701H9.39688C9.43134 14.6701 9.44691 14.6562 9.44691 14.6129C9.44691 14.5697 9.43134 14.556 9.39688 14.556H8.34527ZM8.34527 14.5305H9.39688C9.44769 14.5305 9.47239 14.5575 9.47239 14.6129C9.47239 14.6686 9.44769 14.6956 9.39688 14.6956H8.95614V15.9321C8.95614 15.989 8.92801 16.0167 8.87014 16.0167C8.81242 16.0167 8.78436 15.989 8.78436 15.9321V14.6956H8.34527C8.27738 14.6956 8.26953 14.6484 8.26953 14.6129C8.26953 14.5776 8.27738 14.5305 8.34527 14.5305Z" fill="#103831"/>
<path d="M3.01301 18.0636C2.91332 18.0636 2.89844 18.008 2.89844 17.9749V16.6989C2.89844 16.5978 2.93787 16.5583 3.03909 16.5583H3.56902C3.88648 16.5583 3.99959 16.7561 3.99959 16.9411V17.0845C3.99959 17.2696 3.88648 17.4673 3.56902 17.4673H3.12947V17.9575C3.12947 18.0289 3.09137 18.0636 3.01301 18.0636Z" fill="#103831"/>
<path d="M3.04011 16.5711C2.95031 16.5711 2.91219 16.6004 2.91219 16.699V17.9749C2.91219 18.0198 2.94134 18.0509 3.01403 18.0509C3.08671 18.0509 3.11775 18.0199 3.11775 17.9575V17.4546H3.57004C3.8602 17.4546 3.98788 17.2833 3.98788 17.0846V16.9412C3.98788 16.7422 3.8602 16.5711 3.57004 16.5711H3.04011ZM3.04011 16.5457H3.57004C3.89689 16.5457 4.01335 16.75 4.01335 16.9412V17.0846C4.01335 17.2758 3.89689 17.4801 3.57004 17.4801H3.14322V17.9575C3.14322 18.0117 3.12081 18.0763 3.01403 18.0763C2.89912 18.0763 2.88672 18.0054 2.88672 17.9749V16.699C2.88672 16.5901 2.93116 16.5457 3.04011 16.5457Z" fill="#103831"/>
<path d="M3.56885 17.2717H3.11821H3.10547V17.2589V16.7662V16.7534H3.11821H3.56885C3.65235 16.7534 3.79245 16.7845 3.79245 16.9928V17.0326C3.79245 17.2406 3.65235 17.2717 3.56885 17.2717Z" fill="white"/>
<path d="M3.56987 17.259C3.67701 17.259 3.78073 17.2089 3.78073 17.0326V16.9928C3.78073 16.8164 3.67701 16.7662 3.56987 16.7662H3.11923V17.259H3.56987ZM3.56987 17.2844H3.09375V16.7407H3.56987C3.6373 16.7407 3.69196 16.7587 3.73231 16.7942C3.78134 16.8374 3.80621 16.9042 3.80621 16.9928V17.0326C3.80621 17.2517 3.65813 17.2844 3.56987 17.2844Z" fill="white"/>
<path d="M4.25571 18.0429H4.2557H4.25568C4.17985 18.0429 4.14453 18.0069 4.14453 17.9297V16.671C4.14453 16.594 4.17985 16.5581 4.25568 16.5581H5.07589C5.14239 16.5581 5.17336 16.5922 5.17336 16.6654C5.17336 16.7385 5.14239 16.7726 5.07589 16.7726H4.37344V17.1741H5.03754C5.10297 17.1741 5.13477 17.2092 5.13477 17.2814C5.13477 17.3542 5.10206 17.3911 5.03754 17.3911H4.37344V17.8253H5.0923C5.15899 17.8253 5.19141 17.8604 5.19141 17.9326C5.19141 18.0043 5.15806 18.0406 5.0923 18.0406L4.25571 18.0429Z" fill="#103831"/>
<path d="M4.2567 18.0302L5.09331 18.0279C5.15208 18.0279 5.17969 17.9976 5.17969 17.9326C5.17969 17.8676 5.15231 17.8381 5.09331 17.8381H4.36172V17.3784H5.03856C5.09721 17.3784 5.12305 17.3466 5.12305 17.2814C5.12305 17.2162 5.09756 17.1869 5.03856 17.1869H4.36172V16.7599H5.07691C5.13579 16.7599 5.16164 16.7323 5.16164 16.6654C5.16164 16.5985 5.13591 16.5709 5.07691 16.5709H4.2567C4.18755 16.5709 4.15829 16.602 4.15829 16.6711V17.9298C4.15829 17.9989 4.18767 18.0302 4.2567 18.0302ZM4.25677 18.0557H4.2567C4.17449 18.0557 4.13281 18.0133 4.13281 17.9298V16.6711C4.13281 16.5877 4.17449 16.5454 4.2567 16.5454H5.07691C5.15107 16.5454 5.18711 16.5847 5.18711 16.6654C5.18711 16.7461 5.15107 16.7854 5.07691 16.7854H4.38719V17.1614H5.03856C5.11153 17.1614 5.14853 17.2018 5.14853 17.2814C5.14853 17.3826 5.08873 17.4039 5.03856 17.4039H4.38719V17.8126H5.09331C5.14434 17.8126 5.20517 17.8334 5.20517 17.9326C5.20517 18.0324 5.14434 18.0534 5.09331 18.0534L4.25677 18.0557Z" fill="#103831"/>
<path d="M5.87523 18.0645C5.7992 18.0645 5.76066 18.0289 5.76066 17.9587V16.7754H5.3709C5.30441 16.7754 5.27344 16.7407 5.27344 16.6659C5.27344 16.5914 5.30353 16.5581 5.37102 16.5581H6.37956C6.44498 16.5581 6.47678 16.5932 6.47678 16.6654C6.47678 16.738 6.44407 16.7749 6.37956 16.7749H5.9898V17.9587C5.9898 18.0289 5.95125 18.0645 5.87523 18.0645Z" fill="#103831"/>
<path d="M5.37204 16.5709C5.31339 16.5709 5.28719 16.5969 5.28719 16.666C5.28719 16.7351 5.31292 16.7627 5.37192 16.7627H5.77441V17.9587C5.77441 18.0207 5.80545 18.0518 5.87625 18.0518C5.94705 18.0518 5.97808 18.0208 5.97808 17.9587V16.7622H6.38058C6.43745 16.7622 6.46506 16.7323 6.46506 16.6654C6.46506 16.5985 6.43745 16.5709 6.38058 16.5709H5.37204ZM5.37204 16.5454H6.38058C6.45354 16.5454 6.49054 16.5858 6.49054 16.6654C6.49054 16.7664 6.43074 16.7876 6.38058 16.7876H6.00356V17.9587C6.00356 18.0128 5.98147 18.0773 5.87625 18.0773C5.77103 18.0773 5.74894 18.0128 5.74894 17.9587V16.7882H5.37192C5.29777 16.7882 5.26172 16.7482 5.26172 16.666C5.26172 16.5849 5.2978 16.5454 5.37204 16.5454Z" fill="#103831"/>
<path d="M7.8527 18.0504H7.08948C7.01358 18.0504 6.97668 18.0135 6.97668 17.9375L6.97656 16.6554C6.97656 16.584 7.01458 16.5493 7.09278 16.5493C7.17111 16.5493 7.20759 16.583 7.20759 16.6554V17.8359H7.8527C7.9201 17.8359 7.95016 17.869 7.95016 17.9431C7.95016 18.0173 7.9201 18.0504 7.8527 18.0504Z" fill="#103831"/>
<path d="M7.0938 16.5621C7.02135 16.5621 6.99032 16.5916 6.99032 16.6554L6.99044 17.9375C6.99044 18.0066 7.02147 18.0377 7.0905 18.0377H7.85372C7.9126 18.0377 7.93844 18.0118 7.93844 17.9432C7.93844 17.8745 7.91272 17.8487 7.85372 17.8487H7.19587V16.6554C7.19587 16.5916 7.16626 16.5621 7.0938 16.5621ZM7.0938 16.5366C7.17844 16.5366 7.22135 16.5766 7.22135 16.6554V17.8232H7.85372C7.92787 17.8232 7.96392 17.8624 7.96392 17.9432C7.96392 18.0239 7.92787 18.0632 7.85372 18.0632H7.0905C7.0072 18.0632 6.96496 18.0209 6.96496 17.9375L6.96484 16.6554C6.96484 16.5766 7.00823 16.5366 7.0938 16.5366Z" fill="#103831"/>
<path d="M8.19684 18.0738C8.11958 18.0738 8.08203 18.0391 8.08203 17.9677V16.6554C8.08203 16.583 8.11851 16.5493 8.19684 16.5493C8.275 16.5493 8.31141 16.583 8.31141 16.6554V17.9677C8.31141 18.0391 8.27393 18.0738 8.19684 18.0738Z" fill="#103831"/>
<path d="M8.19786 18.0611C8.27043 18.0611 8.29969 18.0301 8.29969 17.9678V16.6554C8.29969 16.5916 8.27043 16.5621 8.19786 16.5621C8.12529 16.5621 8.09579 16.5916 8.09579 16.6554V17.9678C8.09579 18.03 8.12529 18.0611 8.19786 18.0611ZM8.19786 18.0866C8.11322 18.0866 8.07031 18.0466 8.07031 17.9678V16.6554C8.07031 16.5766 8.11322 16.5366 8.19786 16.5366C8.28233 16.5366 8.32517 16.5766 8.32517 16.6554V17.9678C8.32517 18.0466 8.28233 18.0866 8.19786 18.0866Z" fill="#103831"/>
<path d="M8.6418 18.0714C8.56371 18.0714 8.52734 18.038 8.52734 17.9662V16.6793C8.52734 16.6033 8.56378 16.5664 8.63873 16.5664H9.46225C9.52874 16.5664 9.55971 16.6005 9.55971 16.6737C9.55971 16.7468 9.52874 16.7809 9.46225 16.7809H8.75802V17.1738H9.42413C9.48956 17.1738 9.52136 17.2089 9.52136 17.281C9.52136 17.3538 9.48956 17.3891 9.42413 17.3891H8.75802V17.9641C8.75802 18.0363 8.72 18.0714 8.6418 18.0714Z" fill="#103831"/>
<path d="M8.64282 18.0587C8.71527 18.0587 8.7463 18.0282 8.7463 17.9642V17.3764H9.42515C9.4838 17.3764 9.50964 17.3461 9.50964 17.2811C9.50964 17.2161 9.48415 17.1866 9.42515 17.1866H8.7463V16.7682H9.46326C9.52215 16.7682 9.54799 16.7406 9.54799 16.6737C9.54799 16.6068 9.52226 16.5792 9.46326 16.5792H8.63975C8.57237 16.5792 8.5411 16.6103 8.5411 16.6794V17.9663C8.5411 18.0303 8.57036 18.0587 8.64282 18.0587ZM8.64282 18.0842C8.55723 18.0842 8.51562 18.0456 8.51562 17.9663V16.6794C8.51562 16.596 8.55739 16.5537 8.63975 16.5537H9.46326C9.53742 16.5537 9.57346 16.593 9.57346 16.6737C9.57346 16.7544 9.53742 16.7937 9.46326 16.7937H8.77178V17.1611H9.42515C9.49812 17.1611 9.53511 17.2015 9.53511 17.2811C9.53511 17.3809 9.47531 17.4019 9.42515 17.4019H8.77178V17.9642C8.77178 18.0438 8.72839 18.0842 8.64282 18.0842Z" fill="#103831"/>
<path d="M9.80648 18.0517H9.80647H9.80646C9.73063 18.0517 9.69531 18.0158 9.69531 17.9387V16.6793C9.69531 16.6023 9.73063 16.5664 9.80646 16.5664H10.6268C10.6931 16.5664 10.724 16.6005 10.724 16.6737C10.724 16.7468 10.6931 16.7809 10.6268 16.7809H9.92457V17.1826H10.5888C10.6544 17.1826 10.6863 17.2177 10.6863 17.2899C10.6863 17.3625 10.6535 17.3994 10.5888 17.3994H9.92469V17.8362H10.6435C10.7102 17.8362 10.7427 17.8713 10.7427 17.9435C10.7427 18.0156 10.7102 18.0507 10.6435 18.0507L9.80648 18.0517Z" fill="#103831"/>
<path d="M9.80748 18.039L10.6446 18.038C10.7033 18.038 10.7309 18.0087 10.7309 17.9435C10.7309 17.8783 10.7036 17.849 10.6446 17.849H9.91297V17.3867H10.5898C10.6485 17.3867 10.6745 17.3551 10.6745 17.2899C10.6745 17.2247 10.6488 17.1954 10.5898 17.1954H9.91285V16.7682H10.6278C10.6865 16.7682 10.7123 16.7406 10.7123 16.6737C10.7123 16.6068 10.6868 16.5792 10.6278 16.5792H9.80748C9.73833 16.5792 9.70907 16.6103 9.70907 16.6794V17.9388C9.70907 18.0079 9.73845 18.039 9.80748 18.039ZM9.80751 18.0644H9.80748C9.72528 18.0644 9.68359 18.0222 9.68359 17.9388V16.6794C9.68359 16.596 9.72528 16.5537 9.80748 16.5537H10.6278C10.7018 16.5537 10.7378 16.593 10.7378 16.6737C10.7378 16.7544 10.7018 16.7937 10.6278 16.7937H9.93833V17.1699H10.5898C10.6629 17.1699 10.7 17.2103 10.7 17.2899C10.7 17.391 10.6401 17.4122 10.5898 17.4122H9.93845V17.8235H10.6446C10.6956 17.8235 10.7564 17.8443 10.7564 17.9435C10.7564 18.0427 10.6956 18.0635 10.6446 18.0635L9.80751 18.0644Z" fill="#103831"/>
<mask id="mask1_421_6691" style="mask-type:alpha" maskUnits="userSpaceOnUse" x="24" y="13" width="60" height="7">
<rect x="24" y="13" width="60" height="7" fill="#C4C4C4"/>
</mask>
<g mask="url(#mask1_421_6691)">
<path d="M26.7941 19.2799C25.9727 19.2799 25.3616 19.0852 24.9779 18.7011C24.6117 18.3345 24.557 17.8977 24.557 17.67L24.5547 17.4829C24.5547 17.3124 24.6578 17.2187 24.845 17.2187C25.0322 17.2187 25.1353 17.3124 25.1353 17.4823V17.5693C25.1353 17.9253 25.2758 18.2203 25.5416 18.4226C25.82 18.6344 26.2378 18.7464 26.7498 18.7464L26.771 18.7463C27.7338 18.7463 28.2985 18.4099 28.3613 17.7991C28.4215 17.1912 27.9739 16.9657 27.4813 16.8126L25.7747 16.27C25.0018 16.023 24.6631 15.6052 24.6763 14.9155C24.6908 14.038 25.4118 13.5547 26.7063 13.5547C28.5252 13.5547 28.7967 14.4713 28.7967 15.0177V15.1046C28.7967 15.2637 28.6936 15.355 28.5137 15.355C28.2612 15.355 28.2234 15.1981 28.2234 15.1046V15.0506C28.2234 14.4621 27.6387 14.0819 26.7338 14.0819C26.1808 14.0819 25.252 14.1903 25.2441 14.9166C25.238 15.419 25.5631 15.6309 26.0531 15.7944L27.8524 16.3632C28.6267 16.6111 28.9818 17.081 28.9384 17.7998C28.9091 18.2557 28.7231 18.6149 28.3856 18.8675C28.0201 19.1412 27.4847 19.2799 26.7941 19.2799Z" fill="#103831"/>
<path d="M26.7927 19.2306C28.2183 19.2306 28.8338 18.6351 28.8877 17.7969C28.9266 17.1537 28.6522 16.6717 27.8361 16.4103L26.036 15.8412C25.534 15.6737 25.1869 15.4453 25.1933 14.9161C25.2002 14.2866 25.849 14.0326 26.7324 14.0326C27.6623 14.0326 28.2714 14.434 28.2714 15.0507V15.1047C28.2714 15.2251 28.3381 15.3056 28.5123 15.3056C28.6788 15.3056 28.746 15.2251 28.746 15.1047V15.0177C28.746 14.2335 28.1973 13.6041 26.7049 13.6041C25.4535 13.6041 24.7384 14.0596 24.7242 14.9165C24.711 15.6064 25.0722 15.9941 25.7882 16.223L27.4946 16.7655C28.0542 16.9394 28.4693 17.1944 28.409 17.8042C28.3491 18.3869 27.8407 18.7957 26.7698 18.7957C25.673 18.8021 25.0845 18.3192 25.0845 17.5694V17.4824C25.0845 17.3414 25.0041 17.2681 24.8436 17.2681C24.6831 17.2681 24.6026 17.3414 24.6026 17.4824L24.6049 17.6701C24.6049 18.2459 24.9597 19.2306 26.7927 19.2306ZM26.7927 19.3293C25.9577 19.3293 25.3349 19.1297 24.9416 18.7361C24.5628 18.3568 24.5062 17.9054 24.5062 17.6701L24.5039 17.4836C24.5039 17.2864 24.6309 17.1694 24.8436 17.1694C25.0563 17.1694 25.1832 17.2864 25.1832 17.4824V17.5694C25.1832 18.286 25.7537 18.6971 26.7483 18.6971L26.7692 18.697C27.7037 18.697 28.251 18.3764 28.3108 17.7941C28.3572 17.3254 28.1201 17.0633 27.4653 16.8598L25.7583 16.3171C24.9719 16.0657 24.612 15.6201 24.6255 14.9146C24.6406 14.006 25.379 13.5054 26.7049 13.5054C28.5667 13.5054 28.8447 14.4529 28.8447 15.0177V15.1047C28.8447 15.2923 28.7204 15.4044 28.5123 15.4044C28.2996 15.4044 28.1727 15.2923 28.1727 15.1047V15.0507C28.1727 14.4922 27.6073 14.1313 26.7324 14.1313C26.1976 14.1313 25.2995 14.2334 25.2921 14.9172C25.2863 15.3898 25.5978 15.5909 26.0673 15.7476L27.8658 16.3161C28.6649 16.572 29.0312 17.0583 28.9862 17.8028C28.9495 18.3732 28.6158 19.3293 26.7927 19.3293Z" fill="#103831"/>
<path d="M34.7161 19.2789C34.4815 19.2789 34.4322 19.132 34.4322 19.0089V16.2283C34.4322 15.7571 34.4376 15.2255 34.473 14.7584L32.6602 18.907C32.616 19.0313 32.4981 19.1147 32.3662 19.1147C32.3551 19.1147 32.3439 19.1141 32.3327 19.1129C32.3246 19.1135 32.3166 19.1138 32.3085 19.1138C32.1759 19.1139 32.0547 19.0306 32.0068 18.9067L30.1944 14.759C30.2295 15.217 30.2349 15.7326 30.2349 16.2283V19.0084C30.2349 19.1851 30.137 19.2784 29.9519 19.2784C29.7172 19.2784 29.668 19.1316 29.668 19.0084V13.8905C29.668 13.6677 29.778 13.5542 29.9951 13.5532C30.0077 13.5518 30.0203 13.5511 30.0328 13.5511C30.1887 13.5511 30.3225 13.6562 30.36 13.8073L32.3336 18.2832L34.3089 13.8033C34.3898 13.62 34.4815 13.5541 34.6583 13.5532C34.6731 13.5509 34.6881 13.5498 34.703 13.5498C34.783 13.5498 34.8583 13.581 34.9148 13.6376C34.9819 13.7048 35.0133 13.8005 34.9991 13.8943V19.0089C34.9991 19.1855 34.9013 19.2789 34.7161 19.2789Z" fill="#103831"/>
<path d="M34.7016 13.599C34.6881 13.599 34.6744 13.6001 34.6608 13.6023C34.5003 13.6023 34.4262 13.6563 34.3526 13.823L32.3321 18.4053L30.3117 13.823C30.2782 13.6798 30.1425 13.5847 29.9966 13.6023C29.8073 13.6023 29.7159 13.6893 29.7159 13.8903V19.0082C29.7159 19.1561 29.7904 19.2289 29.9505 19.2289C30.1105 19.2289 30.1841 19.1561 30.1841 19.0082V16.2281C30.1841 15.6843 30.1777 15.0558 30.1237 14.5398H30.1512L32.0514 18.8887C32.0956 19.0031 32.2102 19.0743 32.3321 19.0631C32.4551 19.0785 32.572 19.0058 32.6129 18.8887L34.5131 14.5398H34.5405C34.487 15.0558 34.4802 15.6857 34.4802 16.2281V19.0087C34.4802 19.1565 34.5547 19.2293 34.7147 19.2293C34.8748 19.2293 34.9484 19.1565 34.9484 19.0087V13.8903C34.9615 13.8106 34.9355 13.7294 34.8785 13.6723C34.8312 13.625 34.7674 13.599 34.7016 13.599ZM34.7016 13.5002C34.7016 13.5002 34.7016 13.5002 34.7016 13.5002C34.7948 13.5002 34.8824 13.5366 34.9483 13.6025C35.0256 13.6799 35.0621 13.7896 35.0471 13.8977V19.0087C35.0471 19.2116 34.9259 19.328 34.7147 19.328C34.5029 19.328 34.3815 19.2116 34.3815 19.0087V16.2281C34.3815 15.8477 34.3849 15.428 34.4048 15.0341L32.7047 18.9251C32.653 19.0681 32.5169 19.1639 32.3648 19.1639C32.3534 19.1639 32.3419 19.1633 32.3305 19.1623C32.1694 19.1724 32.0188 19.0753 31.9602 18.9265L30.2598 15.0351C30.2793 15.4192 30.2828 15.8301 30.2828 16.2281V19.0082C30.2828 19.2112 30.1617 19.3276 29.9505 19.3276C29.7387 19.3276 29.6172 19.2112 29.6172 19.0082V13.8903C29.6172 13.6393 29.7464 13.5057 29.9909 13.5036C30.0044 13.5022 30.018 13.5015 30.0314 13.5015C30.2086 13.5015 30.361 13.62 30.4054 13.791L32.3321 18.1606L34.2623 13.7831C34.3511 13.582 34.4575 13.5056 34.6531 13.5036C34.6691 13.5014 34.6854 13.5002 34.7016 13.5002Z" fill="#103831"/>
<path d="M35.8855 19.2821C35.8376 19.2821 35.7829 19.2689 35.7227 19.243C35.6524 19.2222 35.5957 19.1718 35.5668 19.1042C35.5377 19.0362 35.5406 18.9599 35.5745 18.8944L37.735 13.7691C37.793 13.616 37.8458 13.5513 38.021 13.5513C38.1969 13.5513 38.2498 13.616 38.3081 13.7709L40.4555 18.9161C40.4922 18.9967 40.4973 19.0677 40.4702 19.1257C40.4404 19.1894 40.3746 19.2346 40.269 19.2637C40.2292 19.2747 40.194 19.2801 40.1613 19.2801C40.0153 19.2801 39.952 19.1725 39.9093 19.0672L39.3869 17.8254H36.636L36.0859 19.1418C36.049 19.2334 35.9796 19.2821 35.8855 19.2821Z" fill="#103831"/>
<path d="M35.8841 19.2325C35.9579 19.2325 36.0097 19.1951 36.0389 19.1226L36.6017 17.7758H39.4183L39.9537 19.0484C40.0136 19.1963 40.0872 19.2622 40.2545 19.216C40.4219 19.1697 40.4758 19.0828 40.4086 18.9349L38.2606 13.7881C38.2071 13.6462 38.1687 13.6004 38.0196 13.6004C37.8705 13.6004 37.8321 13.648 37.7791 13.7881L35.6178 18.9152C35.59 18.9677 35.5874 19.0299 35.6108 19.0845C35.6342 19.1391 35.6809 19.1802 35.7381 19.1963C35.7937 19.2206 35.8424 19.2325 35.8841 19.2325ZM35.8841 19.3312C35.8841 19.3312 35.8841 19.3312 35.8841 19.3312C35.8302 19.3312 35.7698 19.3171 35.7044 19.2893C35.6213 19.2637 35.5544 19.2036 35.52 19.1234C35.4854 19.0424 35.4885 18.9515 35.5284 18.8732L37.6874 13.7514C37.7504 13.5858 37.8194 13.5017 38.0196 13.5017C38.2205 13.5017 38.2896 13.5859 38.3523 13.7516L40.4992 18.8956C40.542 18.9907 40.5469 19.0751 40.5135 19.1464C40.4773 19.224 40.4011 19.2779 40.2808 19.3111C40.2366 19.3233 40.1971 19.3293 40.1599 19.3293C39.9609 19.3293 39.8892 19.1522 39.8622 19.0855L39.3527 17.8745H36.6675L36.13 19.1606C36.0859 19.2702 35.9984 19.3312 35.8841 19.3312H35.8841Z" fill="#103831"/>
<path d="M39.3092 17.3762H39.2352H36.7932H36.7188L36.7477 17.3076L37.3988 15.7668C37.5241 15.4778 37.7845 14.8775 37.9664 14.3952L37.9785 14.3633H38.0126H38.0323H38.066L38.0782 14.3947C38.2269 14.7753 38.4091 15.2119 38.5555 15.5628C38.5861 15.636 38.6147 15.7046 38.6407 15.767L39.2808 17.3079L39.3092 17.3762Z" fill="white"/>
<path d="M39.2354 17.3269L38.5953 15.786C38.4476 15.4308 38.2131 14.875 38.0325 14.4127H38.0128C37.8386 14.8746 37.5986 15.4308 37.4445 15.786L36.7934 17.3269H39.2354ZM39.3833 17.4256H36.6445L37.3536 15.7476C37.4789 15.4586 37.739 14.859 37.9205 14.3778L37.9445 14.314H38.0999L38.1244 14.3768C38.2729 14.7568 38.455 15.1932 38.6013 15.5438C38.6319 15.617 38.6605 15.6857 38.6865 15.7481L39.3833 17.4256Z" fill="#103831"/>
<path d="M44.9622 19.2842C44.9343 19.2842 44.9067 19.2797 44.8802 19.2708C44.8038 19.2453 44.7432 19.1848 44.7173 19.1086L43.5441 16.8471H41.6163V19.0019C41.6163 19.1892 41.5213 19.2802 41.326 19.2802C41.1382 19.2802 41.043 19.196 41.043 19.0299V13.9714C41.043 13.7355 41.1575 13.6208 41.3932 13.6208H43.5942C44.081 13.6208 44.4557 13.7398 44.7079 13.9744C44.9389 14.1893 45.061 14.5033 45.061 14.8824V15.5578C45.0999 16.141 44.712 16.6569 44.1494 16.7852L45.2337 18.8661C45.2772 18.9528 45.2877 19.0216 45.2671 19.0832C45.2465 19.1451 45.196 19.1947 45.1082 19.239C45.0651 19.2686 45.0147 19.2842 44.9622 19.2842Z" fill="#103831"/>
<path d="M44.9608 19.2349C45.0035 19.2349 45.0458 19.2218 45.0815 19.1965C45.2292 19.1228 45.2622 19.0359 45.1885 18.8889L44.0738 16.7497C44.6449 16.6526 45.0496 16.1381 45.0102 15.5595V14.8824C45.0102 14.1738 44.5832 13.6702 43.5928 13.6702H41.3918C41.191 13.6702 41.0909 13.7572 41.0909 13.9715V19.0299C41.0909 19.1581 41.1508 19.2309 41.3245 19.2309C41.4983 19.2309 41.5655 19.1563 41.5655 19.002V16.7978H43.5727L44.7615 19.0894C44.7819 19.1529 44.8313 19.2029 44.8944 19.2241C44.9161 19.2313 44.9385 19.2349 44.9608 19.2349ZM44.9608 19.3336C44.9276 19.3336 44.8947 19.3282 44.8631 19.3177C44.7734 19.2876 44.702 19.2172 44.6704 19.1282L43.5127 16.8965H41.6642V19.002C41.6642 19.2163 41.5468 19.3296 41.3245 19.3296C41.0354 19.3296 40.9922 19.1418 40.9922 19.0299V13.9715C40.9922 13.7098 41.1304 13.5715 41.3918 13.5715H43.5928C44.5563 13.5715 45.1089 14.0493 45.1089 14.8824V15.5562C45.1472 16.1416 44.7727 16.6617 44.2206 16.8177L45.2761 18.8433C45.3255 18.9419 45.3372 19.025 45.3125 19.0989C45.2804 19.1953 45.1956 19.2492 45.1319 19.2817C45.0811 19.3157 45.0221 19.3336 44.9608 19.3336Z" fill="#103831"/>
<path d="M43.5815 16.3989H41.5611H41.5117V16.3495V14.1192V14.0698L41.5611 14.0699L43.5816 14.0722C44.2547 14.0722 44.5682 14.3709 44.5682 15.0124V15.434C44.5682 16.0832 44.2455 16.3989 43.5815 16.3989Z" fill="white"/>
<path d="M41.5597 14.1191V16.3494H43.5801C44.1827 16.3494 44.5174 16.0889 44.5174 15.4338V15.0122C44.5174 14.3553 44.1827 14.1214 43.5801 14.1214L41.5597 14.1191ZM41.4609 14.0203L43.5802 14.0227C43.9212 14.0227 44.1698 14.0959 44.3401 14.2465C44.5259 14.4107 44.6161 14.6612 44.6161 15.0122V15.4338C44.6161 16.1068 44.2676 16.4481 43.5801 16.4481H41.4609V14.0203Z" fill="#103831"/>
<path d="M47.6958 19.2807C47.4975 19.2807 47.4128 19.1974 47.4128 19.0024V14.1618H45.6621C45.491 14.1618 45.418 14.0808 45.418 13.8909C45.418 13.7016 45.491 13.6208 45.6621 13.6208H49.7369C49.9051 13.6208 49.9801 13.7041 49.9801 13.8909C49.9801 14.0782 49.9051 14.1618 49.7369 14.1618H47.9797V19.0024C47.9797 19.1948 47.8922 19.2807 47.6958 19.2807Z" fill="#103831"/>
<path d="M45.6607 13.6702C45.5199 13.6702 45.4659 13.7233 45.4659 13.8909C45.4659 14.0584 45.5199 14.1125 45.6607 14.1125H47.4608V19.0024C47.4608 19.1585 47.5138 19.2313 47.6944 19.2313C47.875 19.2313 47.929 19.1567 47.929 19.0024V14.1125H49.7354C49.869 14.1125 49.9293 14.0584 49.9293 13.8909C49.9293 13.7233 49.869 13.6702 49.7354 13.6702H45.6607ZM45.6607 13.5715H49.7354C49.9323 13.5715 50.028 13.676 50.028 13.8909C50.028 14.1064 49.9323 14.2112 49.7354 14.2112H48.0277V19.0024C48.0277 19.2229 47.9187 19.33 47.6944 19.33C47.4708 19.33 47.362 19.2229 47.362 19.0024V14.2112H45.6607C45.3976 14.2112 45.3672 14.0284 45.3672 13.8909C45.3672 13.7538 45.3976 13.5715 45.6607 13.5715Z" fill="#103831"/>
<path d="M53.4986 19.4168C53.1124 19.4168 53.0547 19.2015 53.0547 19.0731V14.1291C53.0547 13.7372 53.2075 13.5845 53.5997 13.5845H55.6531C56.8832 13.5845 57.3214 14.3506 57.3214 15.0676V15.6233C57.3214 16.3403 56.8832 17.1064 55.6531 17.1064H53.9499V19.0058C53.9499 19.2824 53.8023 19.4168 53.4986 19.4168Z" fill="#103831"/>
<path d="M53.5982 13.6336C53.2503 13.6336 53.1026 13.7472 53.1026 14.1289V19.0729C53.1026 19.2469 53.2156 19.3673 53.4972 19.3673C53.7788 19.3673 53.8991 19.2474 53.8991 19.0056V17.0569H55.6516C56.7759 17.0569 57.2707 16.3931 57.2707 15.6231V15.0674C57.2707 14.2965 56.7759 13.6336 55.6516 13.6336H53.5982ZM53.5982 13.5349H55.6516C56.9181 13.5349 57.3694 14.3265 57.3694 15.0674V15.6231C57.3694 16.364 56.9181 17.1556 55.6516 17.1556H53.9978V19.0056C53.9978 19.2157 53.911 19.466 53.4972 19.466C53.052 19.466 53.0039 19.1911 53.0039 19.0729V14.1289C53.0039 13.707 53.1761 13.5349 53.5982 13.5349Z" fill="#103831"/>
<path d="M55.6471 16.3489H53.9009H53.8516V16.2996V14.3902V14.3408H53.9009H55.6471C55.9706 14.3408 56.5135 14.4613 56.5135 15.2682V15.4225C56.5135 16.2286 55.9706 16.3489 55.6471 16.3489Z" fill="white"/>
<path d="M55.6456 16.2996C56.0608 16.2996 56.4627 16.1055 56.4627 15.4225V15.2682C56.4627 14.5848 56.0608 14.3902 55.6456 14.3902H53.8995V16.2996H55.6456ZM55.6456 16.3983H53.8008V14.2915H55.6456C55.9069 14.2915 56.1187 14.3613 56.2751 14.4988C56.4651 14.666 56.5614 14.9249 56.5614 15.2682V15.4225C56.5614 16.2715 55.9876 16.3983 55.6456 16.3983Z" fill="white"/>
<path d="M58.3175 19.3367H58.3175H58.3174C58.0236 19.3367 57.8867 19.1973 57.8867 18.8982V14.021C57.8867 13.7225 58.0236 13.5835 58.3174 13.5835H61.4956C61.7532 13.5835 61.8732 13.7155 61.8732 13.9991C61.8732 14.2826 61.7532 14.4147 61.4956 14.4147H58.7737V15.9703H61.347C61.6005 15.9703 61.7237 16.1063 61.7237 16.3859C61.7237 16.6681 61.5969 16.8111 61.347 16.8111H58.7737V18.4936H61.5591C61.8175 18.4936 61.9432 18.6296 61.9432 18.9092C61.9432 19.1871 61.8139 19.328 61.5591 19.328L58.3175 19.3367Z" fill="#103831"/>
<path d="M58.316 19.2871L61.5577 19.2784C61.7854 19.2784 61.8924 19.1608 61.8924 18.909C61.8924 18.6572 61.7863 18.5428 61.5577 18.5428H58.7229V16.7616H61.3455C61.5728 16.7616 61.6729 16.6384 61.6729 16.3857C61.6729 16.133 61.5741 16.0195 61.3455 16.0195H58.7229V14.3651H61.4941C61.7223 14.3651 61.8224 14.258 61.8224 13.9989C61.8224 13.7398 61.7227 13.6326 61.4941 13.6326H58.316C58.048 13.6326 57.9347 13.753 57.9347 14.0208V18.898C57.9347 19.1658 58.0485 19.2871 58.316 19.2871ZM58.3162 19.3858H58.316C57.9974 19.3858 57.8359 19.2217 57.8359 18.898V14.0208C57.8359 13.6978 57.9974 13.5339 58.316 13.5339H61.4941C61.7815 13.5339 61.9211 13.686 61.9211 13.9989C61.9211 14.3117 61.7815 14.4638 61.4941 14.4638H58.8216V15.9208H61.3455C61.6283 15.9208 61.7716 16.0772 61.7716 16.3857C61.7716 16.7779 61.5399 16.8603 61.3455 16.8603H58.8216V18.444H61.5577C61.7554 18.444 61.9911 18.5247 61.9911 18.909C61.9911 19.2959 61.7554 19.3771 61.5577 19.3771L58.3162 19.3858Z" fill="#103831"/>
<path d="M64.5896 19.4204C64.295 19.4204 64.1457 19.2825 64.1457 19.0104V14.4256H62.6355C62.3778 14.4256 62.2578 14.2908 62.2578 14.0014C62.2578 13.7124 62.3744 13.5835 62.6359 13.5835H66.5438C66.7973 13.5835 66.9205 13.7194 66.9205 13.9991C66.9205 14.2806 66.7938 14.4234 66.5438 14.4234H65.0336V19.0104C65.0336 19.2825 64.8842 19.4204 64.5896 19.4204Z" fill="#103831"/>
<path d="M62.6345 13.6329C62.4072 13.6329 62.3057 13.7336 62.3057 14.0014C62.3057 14.2692 62.4054 14.3763 62.634 14.3763H64.1936V19.0104C64.1936 19.2507 64.3139 19.3711 64.5882 19.3711C64.8625 19.3711 64.9828 19.2512 64.9828 19.0104V14.374H66.5424C66.7628 14.374 66.8697 14.2582 66.8697 13.9991C66.8697 13.74 66.7628 13.6329 66.5424 13.6329H62.6345ZM62.6345 13.5342H66.5424C66.8251 13.5342 66.9685 13.6906 66.9685 13.9991C66.9685 14.3906 66.7367 14.4727 66.5424 14.4727H65.0815V19.0104C65.0815 19.22 64.9959 19.4698 64.5882 19.4698C64.1805 19.4698 64.0949 19.22 64.0949 19.0104V14.475H62.634C62.3467 14.475 62.207 14.3201 62.207 14.0014C62.207 13.687 62.3469 13.5342 62.6345 13.5342Z" fill="#103831"/>
<path d="M72.2581 19.3662H69.3008C69.0067 19.3662 68.8637 19.223 68.8637 18.9286L68.8633 13.9608C68.8633 13.6842 69.0106 13.5498 69.3136 13.5498C69.6171 13.5498 69.7585 13.6804 69.7585 13.9608V18.535H72.2581C72.5193 18.535 72.6358 18.6632 72.6358 18.9506C72.6358 19.238 72.5193 19.3662 72.2581 19.3662Z" fill="#103831"/>
<path d="M69.3122 13.599C69.0315 13.599 68.9112 13.7134 68.9112 13.9606L68.9117 18.9284C68.9117 19.1962 69.0319 19.3166 69.2994 19.3166H72.2567C72.4849 19.3166 72.585 19.2163 72.585 18.9504C72.585 18.6844 72.4853 18.5842 72.2567 18.5842H69.7077V13.9606C69.7077 13.7134 69.5929 13.599 69.3122 13.599ZM69.3122 13.5002C69.6401 13.5002 69.8064 13.6551 69.8064 13.9606V18.4854H72.2567C72.544 18.4854 72.6837 18.6375 72.6837 18.9504C72.6837 19.2632 72.544 19.4153 72.2567 19.4153H69.2994C68.9766 19.4153 68.813 19.2515 68.813 18.9284L68.8125 13.9606C68.8125 13.6551 68.9806 13.5002 69.3122 13.5002Z" fill="#103831"/>
<path d="M73.5777 19.4568C73.2783 19.4568 73.1328 19.3223 73.1328 19.0458V13.9608C73.1328 13.6804 73.2742 13.5498 73.5777 13.5498C73.8805 13.5498 74.0216 13.6804 74.0216 13.9608V19.0458C74.0216 19.3223 73.8764 19.4568 73.5777 19.4568Z" fill="#103831"/>
<path d="M73.5762 19.4072C73.8574 19.4072 73.9708 19.2873 73.9708 19.0456V13.9606C73.9708 13.7134 73.8574 13.599 73.5762 13.599C73.295 13.599 73.1807 13.7134 73.1807 13.9606V19.0456C73.1807 19.2868 73.295 19.4072 73.5762 19.4072ZM73.5762 19.5059C73.2483 19.5059 73.082 19.351 73.082 19.0456V13.9606C73.082 13.6551 73.2483 13.5002 73.5762 13.5002C73.9036 13.5002 74.0695 13.6551 74.0695 13.9606V19.0456C74.0695 19.351 73.9036 19.5059 73.5762 19.5059Z" fill="#103831"/>
<path d="M75.3068 19.4472C75.0042 19.4472 74.8633 19.3177 74.8633 19.0398V14.0533C74.8633 13.7588 75.0045 13.6157 75.2949 13.6157H78.4858C78.7435 13.6157 78.8635 13.7478 78.8635 14.0313C78.8635 14.3148 78.7435 14.4469 78.4858 14.4469H75.7571V15.9692H78.3382C78.5917 15.9692 78.7149 16.1051 78.7149 16.3847C78.7149 16.6665 78.5917 16.8035 78.3382 16.8035H75.7571V19.0316C75.7571 19.3112 75.6098 19.4472 75.3068 19.4472Z" fill="#103831"/>
<path d="M75.3053 19.3976C75.5861 19.3976 75.7063 19.2795 75.7063 19.0314V16.754H78.3367C78.564 16.754 78.6641 16.6363 78.6641 16.3845C78.6641 16.1328 78.5653 16.0183 78.3367 16.0183H75.7063V14.3973H78.4844C78.7126 14.3973 78.8127 14.2902 78.8127 14.0311C78.8127 13.772 78.713 13.6649 78.4844 13.6649H75.2935C75.0324 13.6649 74.9112 13.7853 74.9112 14.0531V19.0397C74.9112 19.2878 75.0246 19.3976 75.3053 19.3976ZM75.3053 19.4963C74.9737 19.4963 74.8125 19.347 74.8125 19.0397V14.0531C74.8125 13.73 74.9743 13.5662 75.2935 13.5662H78.4844C78.7717 13.5662 78.9114 13.7182 78.9114 14.0311C78.9114 14.3439 78.7717 14.496 78.4844 14.496H75.805V15.9196H78.3367C78.6195 15.9196 78.7628 16.076 78.7628 16.3845C78.7628 16.7715 78.5311 16.8527 78.3367 16.8527H75.805V19.0314C75.805 19.3399 75.6369 19.4963 75.3053 19.4963Z" fill="#103831"/>
<path d="M79.8253 19.3708H79.8252H79.8252C79.5314 19.3708 79.3945 19.2317 79.3945 18.9332V14.0533C79.3945 13.7548 79.5314 13.6157 79.8252 13.6157H83.0038C83.2609 13.6157 83.3806 13.7478 83.3806 14.0313C83.3806 14.3148 83.2609 14.4469 83.0038 14.4469H80.2829V16.0035H82.8566C83.1107 16.0035 83.2342 16.1394 83.2342 16.4191C83.2342 16.7006 83.1072 16.8434 82.8566 16.8434H80.2833V18.5359H83.0688C83.3272 18.5359 83.4528 18.6719 83.4528 18.9515C83.4528 19.2312 83.3272 19.3671 83.0688 19.3671L79.8253 19.3708Z" fill="#103831"/>
<path d="M79.8238 19.3212L83.0673 19.3175C83.295 19.3175 83.402 19.204 83.402 18.9513C83.402 18.6986 83.2959 18.5851 83.0673 18.5851H80.2325V16.7938H82.8552C83.0824 16.7938 83.1835 16.6716 83.1835 16.4189C83.1835 16.1662 83.0838 16.0526 82.8552 16.0526H80.2321V14.3973H83.0024C83.2296 14.3973 83.3298 14.2902 83.3298 14.0311C83.3298 13.772 83.231 13.6649 83.0024 13.6649H79.8238C79.5559 13.6649 79.4425 13.7853 79.4425 14.0531V18.933C79.4425 19.2008 79.5563 19.3212 79.8238 19.3212ZM79.8239 19.4199H79.8238C79.5053 19.4199 79.3438 19.2561 79.3438 18.933V14.0531C79.3438 13.73 79.5053 13.5662 79.8238 13.5662H83.0024C83.2891 13.5662 83.4285 13.7182 83.4285 14.0311C83.4285 14.3439 83.2891 14.496 83.0024 14.496H80.3308V15.9539H82.8552C83.1385 15.9539 83.2822 16.1104 83.2822 16.4189C83.2822 16.8103 83.05 16.8925 82.8552 16.8925H80.3313V18.4864H83.0673C83.265 18.4864 83.5007 18.567 83.5007 18.9513C83.5007 19.3356 83.265 19.4162 83.0673 19.4162L79.8239 19.4199Z" fill="#103831"/>
</g>
</g>
</svg>
