<svg width="162" height="54" viewBox="0 0 162 54" fill="none" xmlns="http://www.w3.org/2000/svg">
<rect x="1" y="1" width="160" height="52" rx="4" fill="white" fill-opacity="0.1" stroke="white" stroke-opacity="0.5"/>
<g clip-path="url(#clip0_246_7965)">
<path d="M38.0285 28.3314C37.4234 25.2858 40.3142 23.4996 40.3142 23.4996C40.3142 23.4996 39.1879 21.8701 37.295 21.4509C35.403 21.0307 34.4561 21.5556 33.511 21.9493C32.565 22.344 32.093 22.344 32.093 22.344C30.7279 22.344 29.7299 20.8986 27.129 21.5566C25.3371 22.0088 23.4507 24.0773 23.1099 26.5462C22.7691 29.0159 23.5046 32.1673 24.9226 34.6097C26.3406 37.054 27.7851 37.9726 28.8104 37.999C29.8357 38.0245 30.8591 37.2645 32.093 37.0795C33.3279 36.8963 34.0879 37.527 35.2991 37.8678C36.5057 38.2077 36.9287 37.8924 38.3184 36.7103C39.7118 35.5283 40.9732 32.1381 40.9732 32.1381C40.9732 32.1381 38.6337 31.379 38.0285 28.3314Z" fill="white"/>
<path d="M35.3493 19.4809C36.6899 18.1148 36.2358 16 36.2358 16C36.2358 16 34.3533 16.3304 33.092 17.6427C31.8316 18.956 32.0403 21.0301 32.0403 21.0301C32.0403 21.0301 34.0087 20.8461 35.3493 19.4809Z" fill="white"/>
</g>
<path d="M55.125 40L56.1562 37.0156H60.5625L61.5938 40H63.4219L59.3438 28.6875H57.3594L53.2969 40H55.125ZM56.6484 35.5781L58.3125 30.75H58.3906L60.0625 35.5781H56.6484ZM64.7188 43.1875H66.3906V38.6719H66.4844C66.7891 39.2266 67.3984 40.1641 68.9375 40.1719C70.9922 40.1641 72.4844 38.5156 72.4844 35.7812C72.4844 33.0156 70.9766 31.4062 68.9219 31.4062C67.3516 31.4062 66.7812 32.3594 66.4844 32.8906H66.3438V31.5156H64.7188V43.1875ZM66.3594 35.75C66.3594 33.9844 67.125 32.8203 68.5625 32.8281C70.0547 32.8203 70.7969 34.0781 70.7969 35.75C70.7969 37.4531 70.0312 38.7422 68.5625 38.75C67.1406 38.7422 66.3594 37.5312 66.3594 35.75ZM74.1406 43.1875H75.8125V38.6719H75.9062C76.2109 39.2266 76.8203 40.1641 78.3594 40.1719C80.4141 40.1641 81.9062 38.5156 81.9062 35.7812C81.9062 33.0156 80.3984 31.4062 78.3438 31.4062C76.7734 31.4062 76.2031 32.3594 75.9062 32.8906H75.7656V31.5156H74.1406V43.1875ZM75.7812 35.75C75.7812 33.9844 76.5469 32.8203 77.9844 32.8281C79.4766 32.8203 80.2188 34.0781 80.2188 35.75C80.2188 37.4531 79.4531 38.7422 77.9844 38.75C76.5625 38.7422 75.7812 37.5312 75.7812 35.75ZM93.7656 31.6719H95.4375C95.3828 29.8438 93.7812 28.5312 91.4844 28.5312C89.1953 28.5312 87.4609 29.8281 87.4531 31.7812C87.4609 33.3594 88.5859 34.2812 90.4062 34.7812L91.75 35.1406C92.9453 35.4609 93.8828 35.8594 93.8906 36.8438C93.8828 37.9531 92.8359 38.6797 91.3906 38.6875C90.0703 38.6797 88.9766 38.0938 88.875 36.8594H87.1562C87.2656 38.9219 88.8594 40.1875 91.3906 40.1875C94.0625 40.1875 95.5859 38.7891 95.5938 36.875C95.5859 34.8281 93.7734 34.0391 92.3281 33.6875L91.2344 33.3906C90.3359 33.1797 89.1719 32.7578 89.1719 31.6875C89.1797 30.7266 90.0547 30.0156 91.4375 30.0156C92.7344 30.0156 93.6562 30.6172 93.7656 31.6719ZM101.266 31.5156H99.5312V29.4844H97.875V31.5156H96.625V32.8438H97.875V37.8438C97.8594 39.3906 99.0391 40.1094 100.344 40.1094C100.805 40.1094 101.164 40.0781 101.391 40.0469V38.5938C101.156 38.6172 100.789 38.6406 100.547 38.6406C100.008 38.6328 99.5391 38.4609 99.5312 37.5V32.8438H101.266V31.5156ZM106.391 40.1719C108.781 40.1719 110.344 38.4219 110.344 35.7969C110.344 33.1562 108.781 31.4062 106.391 31.4062C103.984 31.4062 102.414 33.1562 102.422 35.7969C102.414 38.4219 103.984 40.1719 106.391 40.1719ZM104.094 35.7969C104.094 34.1719 104.836 32.7891 106.391 32.7812C107.922 32.7891 108.656 34.1719 108.656 35.7969C108.656 37.4141 107.922 38.7812 106.391 38.7812C104.836 38.7812 104.094 37.4141 104.094 35.7969ZM111.984 40H113.656V34.8281C113.656 33.7188 114.516 32.9141 115.672 32.9219C116.016 32.9141 116.406 32.9844 116.547 33.0156V31.4219C116.375 31.4062 116.047 31.3828 115.844 31.3906C114.852 31.3828 114 31.9531 113.688 32.8594H113.594V31.5156H111.984V40ZM121.172 40.1719C123.039 40.1719 124.344 39.25 124.719 37.875H123.031C122.75 38.3906 122.133 38.7969 121.188 38.7969C119.797 38.7969 118.844 37.8828 118.797 36.2656H124.828V35.6719C124.828 32.6016 122.992 31.4062 121.062 31.4062C118.695 31.4062 117.133 33.2031 117.141 35.8125C117.133 38.4453 118.672 40.1719 121.172 40.1719ZM118.805 35.0156C118.875 33.8203 119.742 32.7734 121.078 32.7812C122.352 32.7734 123.188 33.7266 123.188 35.0156H118.805Z" fill="white"/>
<path d="M56.0176 22C58.1709 22 59.4111 20.6621 59.416 18.4551C59.4111 16.2529 58.1709 14.9297 56.0859 14.9297H53.7227V22H56.0176ZM54.7969 21.0625V15.8672H56.0176C57.5605 15.8672 58.3516 16.79 58.3516 18.4551C58.3516 20.125 57.5605 21.0576 55.959 21.0625H54.7969ZM62.7852 22.1074C64.2793 22.1074 65.2559 21.0137 65.2559 19.373C65.2559 17.7227 64.2793 16.6289 62.7852 16.6289C61.2812 16.6289 60.2998 17.7227 60.3047 19.373C60.2998 21.0137 61.2812 22.1074 62.7852 22.1074ZM61.3496 19.373C61.3496 18.3574 61.8135 17.4932 62.7852 17.4883C63.7422 17.4932 64.2012 18.3574 64.2012 19.373C64.2012 20.3838 63.7422 21.2383 62.7852 21.2383C61.8135 21.2383 61.3496 20.3838 61.3496 19.373ZM67.2578 22H68.332L69.3965 18.1816H69.4746L70.5488 22H71.6133L73.166 16.6973H72.0918L71.0664 20.5645H71.0078L69.9824 16.6973H68.9082L67.873 20.584H67.8145L66.7793 16.6973H65.7051L67.2578 22ZM75.0703 18.8555C75.0703 18.0107 75.583 17.5273 76.3008 17.5273C77.0039 17.5273 77.4189 17.9863 77.4238 18.7578V22H78.459V18.6309C78.4639 17.3174 77.7412 16.6289 76.6523 16.6289C75.8613 16.6289 75.3389 16.9951 75.0898 17.5664H75.0312V16.6973H74.0254V22H75.0703V18.8555ZM80.7734 14.9297H79.7285V22H80.7734V14.9297ZM84.2891 22.1074C85.7832 22.1074 86.7598 21.0137 86.7598 19.373C86.7598 17.7227 85.7832 16.6289 84.2891 16.6289C82.7852 16.6289 81.8037 17.7227 81.8086 19.373C81.8037 21.0137 82.7852 22.1074 84.2891 22.1074ZM82.8535 19.373C82.8535 18.3574 83.3174 17.4932 84.2891 17.4883C85.2461 17.4932 85.7051 18.3574 85.7051 19.373C85.7051 20.3838 85.2461 21.2383 84.2891 21.2383C83.3174 21.2383 82.8535 20.3838 82.8535 19.373ZM87.541 20.5059C87.5361 21.541 88.3223 22.1172 89.3281 22.1172C90.207 22.1172 90.6953 21.6729 90.9004 21.2773H90.9395V22H91.9551V18.4746C91.9502 16.9365 90.7197 16.6289 89.875 16.6289C88.6201 16.6289 87.7998 17.2637 87.707 18.1426H88.7422C88.8496 17.752 89.2207 17.4688 89.8359 17.4688C90.5439 17.4688 90.915 17.8154 90.9102 18.416L90.915 18.8408C90.6709 18.8506 89.875 18.8945 89.5234 18.9141C88.5664 18.9824 87.5361 19.2949 87.541 20.5059ZM88.5566 20.5156C88.5566 19.9932 88.9863 19.7344 89.6699 19.6855C89.9189 19.6709 90.6758 19.6172 90.915 19.6025L90.9199 20.0859C90.9199 20.7158 90.4121 21.2822 89.5625 21.2871C88.9766 21.2822 88.5566 21.0234 88.5566 20.5156ZM95.1973 22.1074C96.1641 22.1025 96.5449 21.5166 96.7402 21.1699H96.8184V22H97.834V14.9297H96.7891V17.5566H96.7402C96.5498 17.2246 96.1934 16.6289 95.207 16.6289C93.9326 16.6289 92.9805 17.6348 92.9805 19.3633C92.9805 21.0723 93.918 22.1025 95.1973 22.1074ZM94.0449 19.3438C94.04 18.2988 94.5088 17.5127 95.4316 17.5176C96.3301 17.5127 96.8184 18.2402 96.8184 19.3438C96.8184 20.457 96.3203 21.2139 95.4316 21.2188C94.5186 21.2139 94.04 20.4082 94.0449 19.3438ZM103.879 22.1074C105.373 22.1074 106.35 21.0137 106.35 19.373C106.35 17.7227 105.373 16.6289 103.879 16.6289C102.375 16.6289 101.394 17.7227 101.398 19.373C101.394 21.0137 102.375 22.1074 103.879 22.1074ZM102.443 19.373C102.443 18.3574 102.907 17.4932 103.879 17.4883C104.836 17.4932 105.295 18.3574 105.295 19.373C105.295 20.3838 104.836 21.2383 103.879 21.2383C102.907 21.2383 102.443 20.3838 102.443 19.373ZM108.42 18.8555C108.42 18.0107 108.933 17.5273 109.65 17.5273C110.354 17.5273 110.769 17.9863 110.773 18.7578V22H111.809V18.6309C111.813 17.3174 111.091 16.6289 110.002 16.6289C109.211 16.6289 108.688 16.9951 108.439 17.5664H108.381V16.6973H107.375V22H108.42V18.8555ZM118 16.6973H116.916V15.4277H115.881V16.6973H115.1V17.5273H115.881V20.6523C115.871 21.6191 116.608 22.0684 117.424 22.0684C117.712 22.0684 117.937 22.0488 118.078 22.0293V21.1211C117.932 21.1357 117.702 21.1504 117.551 21.1504C117.214 21.1455 116.921 21.0381 116.916 20.4375V17.5273H118V16.6973ZM120.178 18.8555C120.178 18.0107 120.71 17.5273 121.447 17.5273C122.15 17.5273 122.57 17.9766 122.57 18.7578V22H123.615V18.6309C123.615 17.3027 122.888 16.6289 121.799 16.6289C120.974 16.6289 120.476 16.9902 120.227 17.5664H120.158V14.9297H119.133V22H120.178V18.8555ZM127.16 22.1074C128.327 22.1074 129.143 21.5312 129.377 20.6719H128.322C128.146 20.9941 127.761 21.248 127.17 21.248C126.301 21.248 125.705 20.6768 125.676 19.666H129.445V19.2949C129.445 17.376 128.298 16.6289 127.092 16.6289C125.612 16.6289 124.636 17.752 124.641 19.3828C124.636 21.0283 125.598 22.1074 127.16 22.1074ZM125.681 18.8848C125.725 18.1377 126.267 17.4834 127.102 17.4883C127.897 17.4834 128.42 18.0791 128.42 18.8848H125.681Z" fill="white"/>
<defs>
<clipPath id="clip0_246_7965">
<rect width="22" height="22" fill="white" transform="translate(21 16)"/>
</clipPath>
</defs>
</svg>
