<svg width="162" height="54" viewBox="0 0 162 54" fill="none" xmlns="http://www.w3.org/2000/svg">
<rect x="1" y="1" width="160" height="52" rx="4" fill="white" fill-opacity="0.1" stroke="white" stroke-opacity="0.5"/>
<g clip-path="url(#clip0_246_7940)">
<path d="M38.0285 28.3319C37.4234 25.2863 40.3142 23.5001 40.3142 23.5001C40.3142 23.5001 39.1879 21.8706 37.295 21.4514C35.403 21.0312 34.4561 21.5561 33.511 21.9498C32.565 22.3445 32.093 22.3445 32.093 22.3445C30.7279 22.3445 29.7299 20.899 27.129 21.5571C25.3371 22.0093 23.4507 24.0778 23.1099 26.5467C22.7691 29.0164 23.5046 32.1678 24.9226 34.6102C26.3406 37.0545 27.7851 37.9731 28.8104 37.9995C29.8357 38.025 30.8591 37.265 32.093 37.0799C33.3279 36.8968 34.0879 37.5275 35.2991 37.8683C36.5057 38.2082 36.9287 37.8928 38.3184 36.7108C39.7118 35.5288 40.9732 32.1386 40.9732 32.1386C40.9732 32.1386 38.6337 31.3795 38.0285 28.3319Z" fill="white"/>
<path d="M35.3493 19.4809C36.6899 18.1148 36.2358 16 36.2358 16C36.2358 16 34.3533 16.3304 33.092 17.6427C31.8316 18.956 32.0403 21.0301 32.0403 21.0301C32.0403 21.0301 34.0087 20.8461 35.3493 19.4809Z" fill="white"/>
</g>
<path d="M57.125 40L58.1562 37.0156H62.5625L63.5938 40H65.4219L61.3438 28.6875H59.3594L55.2969 40H57.125ZM58.6484 35.5781L60.3125 30.75H60.3906L62.0625 35.5781H58.6484ZM66.7188 43.1875H68.3906V38.6719H68.4844C68.7891 39.2266 69.3984 40.1641 70.9375 40.1719C72.9922 40.1641 74.4844 38.5156 74.4844 35.7812C74.4844 33.0156 72.9766 31.4062 70.9219 31.4062C69.3516 31.4062 68.7812 32.3594 68.4844 32.8906H68.3438V31.5156H66.7188V43.1875ZM68.3594 35.75C68.3594 33.9844 69.125 32.8203 70.5625 32.8281C72.0547 32.8203 72.7969 34.0781 72.7969 35.75C72.7969 37.4531 72.0312 38.7422 70.5625 38.75C69.1406 38.7422 68.3594 37.5312 68.3594 35.75ZM76.1406 43.1875H77.8125V38.6719H77.9062C78.2109 39.2266 78.8203 40.1641 80.3594 40.1719C82.4141 40.1641 83.9062 38.5156 83.9062 35.7812C83.9062 33.0156 82.3984 31.4062 80.3438 31.4062C78.7734 31.4062 78.2031 32.3594 77.9062 32.8906H77.7656V31.5156H76.1406V43.1875ZM77.7812 35.75C77.7812 33.9844 78.5469 32.8203 79.9844 32.8281C81.4766 32.8203 82.2188 34.0781 82.2188 35.75C82.2188 37.4531 81.4531 38.7422 79.9844 38.75C78.5625 38.7422 77.7812 37.5312 77.7812 35.75ZM95.7656 31.6719H97.4375C97.3828 29.8438 95.7812 28.5312 93.4844 28.5312C91.1953 28.5312 89.4609 29.8281 89.4531 31.7812C89.4609 33.3594 90.5859 34.2812 92.4062 34.7812L93.75 35.1406C94.9453 35.4609 95.8828 35.8594 95.8906 36.8438C95.8828 37.9531 94.8359 38.6797 93.3906 38.6875C92.0703 38.6797 90.9766 38.0938 90.875 36.8594H89.1562C89.2656 38.9219 90.8594 40.1875 93.3906 40.1875C96.0625 40.1875 97.5859 38.7891 97.5938 36.875C97.5859 34.8281 95.7734 34.0391 94.3281 33.6875L93.2344 33.3906C92.3359 33.1797 91.1719 32.7578 91.1719 31.6875C91.1797 30.7266 92.0547 30.0156 93.4375 30.0156C94.7344 30.0156 95.6562 30.6172 95.7656 31.6719ZM103.266 31.5156H101.531V29.4844H99.875V31.5156H98.625V32.8438H99.875V37.8438C99.8594 39.3906 101.039 40.1094 102.344 40.1094C102.805 40.1094 103.164 40.0781 103.391 40.0469V38.5938C103.156 38.6172 102.789 38.6406 102.547 38.6406C102.008 38.6328 101.539 38.4609 101.531 37.5V32.8438H103.266V31.5156ZM108.391 40.1719C110.781 40.1719 112.344 38.4219 112.344 35.7969C112.344 33.1562 110.781 31.4062 108.391 31.4062C105.984 31.4062 104.414 33.1562 104.422 35.7969C104.414 38.4219 105.984 40.1719 108.391 40.1719ZM106.094 35.7969C106.094 34.1719 106.836 32.7891 108.391 32.7812C109.922 32.7891 110.656 34.1719 110.656 35.7969C110.656 37.4141 109.922 38.7812 108.391 38.7812C106.836 38.7812 106.094 37.4141 106.094 35.7969ZM113.984 40H115.656V34.8281C115.656 33.7188 116.516 32.9141 117.672 32.9219C118.016 32.9141 118.406 32.9844 118.547 33.0156V31.4219C118.375 31.4062 118.047 31.3828 117.844 31.3906C116.852 31.3828 116 31.9531 115.688 32.8594H115.594V31.5156H113.984V40ZM123.172 40.1719C125.039 40.1719 126.344 39.25 126.719 37.875H125.031C124.75 38.3906 124.133 38.7969 123.188 38.7969C121.797 38.7969 120.844 37.8828 120.797 36.2656H126.828V35.6719C126.828 32.6016 124.992 31.4062 123.062 31.4062C120.695 31.4062 119.133 33.2031 119.141 35.8125C119.133 38.4453 120.672 40.1719 123.172 40.1719ZM120.805 35.0156C120.875 33.8203 121.742 32.7734 123.078 32.7812C124.352 32.7734 125.188 33.7266 125.188 35.0156H120.805Z" fill="white"/>
<path d="M58.0176 22C60.1709 22 61.4111 20.6621 61.416 18.4551C61.4111 16.2529 60.1709 14.9297 58.0859 14.9297H55.7227V22H58.0176ZM56.7969 21.0625V15.8672H58.0176C59.5605 15.8672 60.3516 16.79 60.3516 18.4551C60.3516 20.125 59.5605 21.0576 57.959 21.0625H56.7969ZM64.7852 22.1074C66.2793 22.1074 67.2559 21.0137 67.2559 19.373C67.2559 17.7227 66.2793 16.6289 64.7852 16.6289C63.2812 16.6289 62.2998 17.7227 62.3047 19.373C62.2998 21.0137 63.2812 22.1074 64.7852 22.1074ZM63.3496 19.373C63.3496 18.3574 63.8135 17.4932 64.7852 17.4883C65.7422 17.4932 66.2012 18.3574 66.2012 19.373C66.2012 20.3838 65.7422 21.2383 64.7852 21.2383C63.8135 21.2383 63.3496 20.3838 63.3496 19.373ZM69.2578 22H70.332L71.3965 18.1816H71.4746L72.5488 22H73.6133L75.166 16.6973H74.0918L73.0664 20.5645H73.0078L71.9824 16.6973H70.9082L69.873 20.584H69.8145L68.7793 16.6973H67.7051L69.2578 22ZM77.0703 18.8555C77.0703 18.0107 77.583 17.5273 78.3008 17.5273C79.0039 17.5273 79.4189 17.9863 79.4238 18.7578V22H80.459V18.6309C80.4639 17.3174 79.7412 16.6289 78.6523 16.6289C77.8613 16.6289 77.3389 16.9951 77.0898 17.5664H77.0312V16.6973H76.0254V22H77.0703V18.8555ZM82.7734 14.9297H81.7285V22H82.7734V14.9297ZM86.2891 22.1074C87.7832 22.1074 88.7598 21.0137 88.7598 19.373C88.7598 17.7227 87.7832 16.6289 86.2891 16.6289C84.7852 16.6289 83.8037 17.7227 83.8086 19.373C83.8037 21.0137 84.7852 22.1074 86.2891 22.1074ZM84.8535 19.373C84.8535 18.3574 85.3174 17.4932 86.2891 17.4883C87.2461 17.4932 87.7051 18.3574 87.7051 19.373C87.7051 20.3838 87.2461 21.2383 86.2891 21.2383C85.3174 21.2383 84.8535 20.3838 84.8535 19.373ZM89.541 20.5059C89.5361 21.541 90.3223 22.1172 91.3281 22.1172C92.207 22.1172 92.6953 21.6729 92.9004 21.2773H92.9395V22H93.9551V18.4746C93.9502 16.9365 92.7197 16.6289 91.875 16.6289C90.6201 16.6289 89.7998 17.2637 89.707 18.1426H90.7422C90.8496 17.752 91.2207 17.4688 91.8359 17.4688C92.5439 17.4688 92.915 17.8154 92.9102 18.416L92.915 18.8408C92.6709 18.8506 91.875 18.8945 91.5234 18.9141C90.5664 18.9824 89.5361 19.2949 89.541 20.5059ZM90.5566 20.5156C90.5566 19.9932 90.9863 19.7344 91.6699 19.6855C91.9189 19.6709 92.6758 19.6172 92.915 19.6025L92.9199 20.0859C92.9199 20.7158 92.4121 21.2822 91.5625 21.2871C90.9766 21.2822 90.5566 21.0234 90.5566 20.5156ZM97.1973 22.1074C98.1641 22.1025 98.5449 21.5166 98.7402 21.1699H98.8184V22H99.834V14.9297H98.7891V17.5566H98.7402C98.5498 17.2246 98.1934 16.6289 97.207 16.6289C95.9326 16.6289 94.9805 17.6348 94.9805 19.3633C94.9805 21.0723 95.918 22.1025 97.1973 22.1074ZM96.0449 19.3438C96.04 18.2988 96.5088 17.5127 97.4316 17.5176C98.3301 17.5127 98.8184 18.2402 98.8184 19.3438C98.8184 20.457 98.3203 21.2139 97.4316 21.2188C96.5186 21.2139 96.04 20.4082 96.0449 19.3438ZM105.879 22.1074C107.373 22.1074 108.35 21.0137 108.35 19.373C108.35 17.7227 107.373 16.6289 105.879 16.6289C104.375 16.6289 103.394 17.7227 103.398 19.373C103.394 21.0137 104.375 22.1074 105.879 22.1074ZM104.443 19.373C104.443 18.3574 104.907 17.4932 105.879 17.4883C106.836 17.4932 107.295 18.3574 107.295 19.373C107.295 20.3838 106.836 21.2383 105.879 21.2383C104.907 21.2383 104.443 20.3838 104.443 19.373ZM110.42 18.8555C110.42 18.0107 110.933 17.5273 111.65 17.5273C112.354 17.5273 112.769 17.9863 112.773 18.7578V22H113.809V18.6309C113.813 17.3174 113.091 16.6289 112.002 16.6289C111.211 16.6289 110.688 16.9951 110.439 17.5664H110.381V16.6973H109.375V22H110.42V18.8555ZM120 16.6973H118.916V15.4277H117.881V16.6973H117.1V17.5273H117.881V20.6523C117.871 21.6191 118.608 22.0684 119.424 22.0684C119.712 22.0684 119.937 22.0488 120.078 22.0293V21.1211C119.932 21.1357 119.702 21.1504 119.551 21.1504C119.214 21.1455 118.921 21.0381 118.916 20.4375V17.5273H120V16.6973ZM122.178 18.8555C122.178 18.0107 122.71 17.5273 123.447 17.5273C124.15 17.5273 124.57 17.9766 124.57 18.7578V22H125.615V18.6309C125.615 17.3027 124.888 16.6289 123.799 16.6289C122.974 16.6289 122.476 16.9902 122.227 17.5664H122.158V14.9297H121.133V22H122.178V18.8555ZM129.16 22.1074C130.327 22.1074 131.143 21.5312 131.377 20.6719H130.322C130.146 20.9941 129.761 21.248 129.17 21.248C128.301 21.248 127.705 20.6768 127.676 19.666H131.445V19.2949C131.445 17.376 130.298 16.6289 129.092 16.6289C127.612 16.6289 126.636 17.752 126.641 19.3828C126.636 21.0283 127.598 22.1074 129.16 22.1074ZM127.681 18.8848C127.725 18.1377 128.267 17.4834 129.102 17.4883C129.897 17.4834 130.42 18.0791 130.42 18.8848H127.681Z" fill="white"/>
<defs>
<clipPath id="clip0_246_7940">
<rect width="22" height="22" fill="white" transform="translate(21 16)"/>
</clipPath>
</defs>
</svg>
