<svg width="162" height="54" viewBox="0 0 162 54" fill="none" xmlns="http://www.w3.org/2000/svg">
<rect x="1" y="1" width="160" height="52" rx="4" fill="white" fill-opacity="0.1" stroke="white" stroke-opacity="0.5"/>
<g clip-path="url(#clip0_246_7941)">
<path d="M42.084 26.9999C42.084 27.6874 41.699 28.2924 41.1398 28.6041L36.3732 31.2533L32.3398 26.9999L36.3732 22.7466L41.1398 25.3958C41.699 25.7074 42.084 26.3124 42.084 26.9999Z" fill="#FFC107"/>
<path d="M32.3405 26.9999L22.4405 37.4407C22.1105 37.1107 21.918 36.6616 21.918 36.1666V17.8332C21.918 17.3382 22.1105 16.8891 22.4405 16.5591L32.3405 26.9999Z" fill="#03A9F4"/>
<path d="M32.3375 27L36.3708 31.2533C24.2956 37.8763 23.7896 38.8681 22.4375 37.4408L32.3375 27Z" fill="#F44336"/>
<path d="M36.3708 22.7467L32.3375 27.0001L22.4375 16.5592C23.004 15.9606 23.9124 15.8295 24.6375 16.2292L36.3708 22.7467Z" fill="#4CAF50"/>
</g>
<path d="M61.7969 32.2656H63.5625C63.1797 30.0547 61.2891 28.5312 58.8438 28.5312C55.9219 28.5312 53.7812 30.7344 53.7812 34.3438C53.7812 37.9297 55.8594 40.1562 58.9219 40.1562C61.6719 40.1562 63.6406 38.3516 63.6406 35.4844V34.2031H59.1875V35.625H61.9688C61.9375 37.4375 60.7422 38.5859 58.9375 38.5781C56.9375 38.5859 55.4922 37.0781 55.4844 34.3438C55.4922 31.6016 56.9531 30.1016 58.8594 30.1094C60.3516 30.1016 61.375 30.9297 61.7969 32.2656ZM69.0781 40.1719C71.4688 40.1719 73.0312 38.4219 73.0312 35.7969C73.0312 33.1562 71.4688 31.4062 69.0781 31.4062C66.6719 31.4062 65.1016 33.1562 65.1094 35.7969C65.1016 38.4219 66.6719 40.1719 69.0781 40.1719ZM66.7812 35.7969C66.7812 34.1719 67.5234 32.7891 69.0781 32.7812C70.6094 32.7891 71.3438 34.1719 71.3438 35.7969C71.3438 37.4141 70.6094 38.7812 69.0781 38.7812C67.5234 38.7812 66.7812 37.4141 66.7812 35.7969ZM78.2656 40.1719C80.6562 40.1719 82.2188 38.4219 82.2188 35.7969C82.2188 33.1562 80.6562 31.4062 78.2656 31.4062C75.8594 31.4062 74.2891 33.1562 74.2969 35.7969C74.2891 38.4219 75.8594 40.1719 78.2656 40.1719ZM75.9688 35.7969C75.9688 34.1719 76.7109 32.7891 78.2656 32.7812C79.7969 32.7891 80.5312 34.1719 80.5312 35.7969C80.5312 37.4141 79.7969 38.7812 78.2656 38.7812C76.7109 38.7812 75.9688 37.4141 75.9688 35.7969ZM87.4219 43.3594C89.6094 43.3594 91.2578 42.3672 91.25 40.1875V31.5156H89.625V32.8906H89.5156C89.2031 32.3594 88.625 31.4062 87.0469 31.4062C85.0078 31.4062 83.4844 32.9609 83.4844 35.6719C83.4844 38.3828 85.0312 39.875 87.0312 39.875C88.5938 39.875 89.2031 39 89.5 38.4531H89.6094V40.125C89.6016 41.4453 88.7656 42.0234 87.4375 42.0156C86.3359 42.0234 85.5859 41.6328 85.4219 40.8281H83.7188C83.8672 42.4141 85.2812 43.3594 87.4219 43.3594ZM85.1875 35.7031C85.1797 34.0781 85.9297 32.8203 87.4062 32.8281C88.8438 32.8203 89.625 33.9844 89.625 35.7031C89.625 37.4531 88.8281 38.4922 87.4062 38.5C85.9453 38.4922 85.1797 37.3672 85.1875 35.7031ZM94.9531 28.6875H93.2812V40H94.9531V28.6875ZM100.641 40.1719C102.508 40.1719 103.812 39.25 104.188 37.875H102.5C102.219 38.3906 101.602 38.7969 100.656 38.7969C99.2656 38.7969 98.3125 37.8828 98.2656 36.2656H104.297V35.6719C104.297 32.6016 102.461 31.4062 100.531 31.4062C98.1641 31.4062 96.6016 33.2031 96.6094 35.8125C96.6016 38.4453 98.1406 40.1719 100.641 40.1719ZM98.2734 35.0156C98.3438 33.8203 99.2109 32.7734 100.547 32.7812C101.82 32.7734 102.656 33.7266 102.656 35.0156H98.2734ZM110 40H111.719V36.0312H114.031C116.656 36.0312 117.953 34.4453 117.953 32.3594C117.953 30.2656 116.664 28.6875 114.031 28.6875H110V40ZM111.719 34.5625V30.1562H113.859C115.523 30.1641 116.219 31.0781 116.219 32.3594C116.219 33.6328 115.523 34.5703 113.859 34.5625H111.719ZM121.297 28.6875H119.625V40H121.297V28.6875ZM122.938 37.6094C122.93 39.2656 124.188 40.1875 125.797 40.1875C127.203 40.1875 127.984 39.4766 128.312 38.8438H128.375V40H130V34.3594C129.992 31.8984 128.023 31.4062 126.672 31.4062C124.664 31.4062 123.352 32.4219 123.203 33.8281H124.859C125.031 33.2031 125.625 32.75 126.609 32.75C127.742 32.75 128.336 33.3047 128.328 34.2656L128.336 34.9453C127.945 34.9609 126.672 35.0312 126.109 35.0625C124.578 35.1719 122.93 35.6719 122.938 37.6094ZM124.562 37.625C124.562 36.7891 125.25 36.375 126.344 36.2969C126.742 36.2734 127.953 36.1875 128.336 36.1641L128.344 36.9375C128.344 37.9453 127.531 38.8516 126.172 38.8594C125.234 38.8516 124.562 38.4375 124.562 37.625ZM132.734 43.1875C134.133 43.1797 134.992 42.4688 135.484 41.125L138.984 31.5156H137.188L135.047 38.0938H134.953L132.812 31.5156H131.031L134.141 40.1094L133.938 40.6719C133.539 41.7422 133.109 41.7734 132.594 41.7812C132.359 41.7734 132.031 41.7656 131.844 41.75V43.1406C132.055 43.1719 132.391 43.1797 132.734 43.1875Z" fill="white"/>
<path d="M58.498 17.166H59.6016C59.3623 15.7842 58.1807 14.832 56.6523 14.832C54.8262 14.832 53.4883 16.209 53.4883 18.4648C53.4883 20.7061 54.7871 22.0977 56.7012 22.0977C58.4199 22.0977 59.6504 20.9697 59.6504 19.1777V18.377H56.8672V19.2656H58.6055C58.5859 20.3984 57.8389 21.1162 56.7109 21.1113C55.4609 21.1162 54.5576 20.1738 54.5527 18.4648C54.5576 16.751 55.4707 15.8135 56.6621 15.8184C57.5947 15.8135 58.2344 16.3311 58.498 17.166ZM60.8906 22H65.3633V21.0723H61.9648V18.9141H65.0898V17.9961H61.9648V15.8574H65.3242V14.9297H60.8906V22ZM66.291 15.8574H68.498V22H69.5723V15.8574H71.7695V14.9297H66.291V15.8574ZM76.3789 14.9297H75.3047V22H76.3789V14.9297ZM77.4629 15.8574H79.6699V22H80.7441V15.8574H82.9414V14.9297H77.4629V15.8574ZM92.6191 18.4648C92.6191 16.2041 91.2617 14.832 89.4355 14.832C87.5947 14.832 86.2422 16.2041 86.2422 18.4648C86.2422 20.7207 87.5947 22.0977 89.4355 22.0977C91.2617 22.0977 92.6191 20.7256 92.6191 18.4648ZM87.3066 18.4648C87.3115 16.7461 88.2148 15.8135 89.4355 15.8184C90.6465 15.8135 91.5498 16.7461 91.5547 18.4648C91.5498 20.1836 90.6465 21.1162 89.4355 21.1113C88.2148 21.1162 87.3115 20.1836 87.3066 18.4648ZM99.5332 14.9297H98.4785V20.1055H98.4102L94.8262 14.9297H93.8301V22H94.9043V16.834H94.9629L98.5469 22H99.5332V14.9297Z" fill="white"/>
<defs>
<clipPath id="clip0_246_7941">
<rect width="22" height="22" fill="white" transform="translate(21 16)"/>
</clipPath>
</defs>
</svg>
