<svg width="30" height="30" viewBox="0 0 30 30" fill="none" xmlns="http://www.w3.org/2000/svg">
<path d="M3.75 5.00049C3.41848 5.00049 3.10054 5.1322 2.86612 5.36662C2.6317 5.60104 2.5 5.91897 2.5 6.25048C2.5 6.582 2.6317 6.89993 2.86612 7.13435C3.10054 7.36877 3.41848 7.50048 3.75 7.50048H26.25C26.5815 7.50048 26.8995 7.36877 27.1339 7.13435C27.3683 6.89993 27.5 6.582 27.5 6.25048C27.5 5.91897 27.3683 5.60104 27.1339 5.36662C26.8995 5.1322 26.5815 5.00049 26.25 5.00049H3.75Z" fill="black"/>
<path d="M3.75 22.5005C3.41848 22.5005 3.10054 22.6322 2.86612 22.8666C2.6317 23.101 2.5 23.419 2.5 23.7505C2.5 24.082 2.6317 24.4 2.86612 24.6344C3.10054 24.8688 3.41848 25.0005 3.75 25.0005H26.25C26.5815 25.0005 26.8995 24.8688 27.1339 24.6344C27.3683 24.4 27.5 24.082 27.5 23.7505C27.5 23.419 27.3683 23.101 27.1339 22.8666C26.8995 22.6322 26.5815 22.5005 26.25 22.5005H3.75Z" fill="black"/>
<path d="M3.75 13.7505C3.41848 13.7505 3.10054 13.8822 2.86612 14.1166C2.6317 14.351 2.5 14.669 2.5 15.0005C2.5 15.332 2.6317 15.65 2.86612 15.8844C3.10054 16.1188 3.41848 16.2505 3.75 16.2505H26.25C26.5815 16.2505 26.8995 16.1188 27.1339 15.8844C27.3683 15.65 27.5 15.332 27.5 15.0005C27.5 14.669 27.3683 14.351 27.1339 14.1166C26.8995 13.8822 26.5815 13.7505 26.25 13.7505H3.75Z" fill="black"/>
</svg>
