<svg width="120" height="34" viewBox="0 0 120 34" fill="none" xmlns="http://www.w3.org/2000/svg">
<mask id="mask0_421_6688" style="mask-type:alpha" maskUnits="userSpaceOnUse" x="0" y="0" width="120" height="34">
<rect width="120" height="34" fill="#C4C4C4"/>
</mask>
<g mask="url(#mask0_421_6688)">
<path d="M30.8022 14.9704V33.4181H2.74219V14.6341L17.2339 0.635812L30.8022 14.9704Z" stroke="#103831"/>
<path d="M31.0707 33.8964C31.1854 33.8964 31.2786 33.8034 31.2788 33.6885V14.8626C31.2788 14.8092 31.2583 14.7581 31.2218 14.7196L17.3914 0.108176C17.3533 0.0676958 17.3007 0.044413 17.2452 0.0433217C17.19 0.0426722 17.1366 0.063564 17.0965 0.101645L2.3256 14.3696C2.28512 14.4088 2.26206 14.4628 2.26206 14.5192V33.6881C2.26206 33.803 2.3552 33.8964 2.4701 33.8964H31.0707ZM31.0707 33.9397H2.4701C2.33151 33.9397 2.21875 33.8268 2.21875 33.6881V14.5192C2.21875 14.4516 2.24672 14.3857 2.29548 14.3385L17.0664 0.0704978C17.1143 0.0249544 17.1768 0 17.2427 0L17.2456 1.73212e-05C17.3128 0.0013339 17.3773 0.0299393 17.423 0.0785013L31.2532 14.6898C31.2976 14.7366 31.3221 14.798 31.3221 14.8626V33.6885C31.3218 33.827 31.2091 33.9397 31.0707 33.9397Z" fill="#103831"/>
<path d="M5.91221 27.2064C5.5518 27.2064 5.28371 27.121 5.11538 26.9525C4.95468 26.7916 4.93069 26.6 4.93069 26.5001L4.92969 26.418C4.92969 26.3432 4.97492 26.3021 5.05706 26.3021C5.13919 26.3021 5.18442 26.3432 5.18442 26.4178V26.4559C5.18442 26.6121 5.24607 26.7415 5.36269 26.8303C5.48483 26.9232 5.66812 26.9724 5.89274 26.9724L5.90205 26.9723C6.32449 26.9723 6.57224 26.8247 6.59978 26.5567C6.62618 26.29 6.42982 26.1911 6.2137 26.1239L5.46493 25.8859C5.12584 25.7775 4.97723 25.5942 4.98305 25.2916C4.98942 24.9066 5.30572 24.6946 5.87369 24.6946C6.67167 24.6946 6.79082 25.0967 6.79082 25.3364V25.3746C6.79082 25.4444 6.74556 25.4844 6.66666 25.4844C6.55584 25.4844 6.53929 25.4156 6.53929 25.3746V25.3509C6.53929 25.0927 6.28275 24.9259 5.88573 24.9259C5.64313 24.9259 5.23564 24.9735 5.23217 25.2921C5.2295 25.5125 5.37212 25.6055 5.58707 25.6772L6.3765 25.9267C6.71619 26.0355 6.87202 26.2417 6.85297 26.5571C6.84009 26.7571 6.75849 26.9146 6.61043 27.0255C6.45008 27.1456 6.21516 27.2064 5.91221 27.2064Z" fill="#103831"/>
<path d="M5.91042 27.1847C6.53589 27.1847 6.8059 26.9234 6.82957 26.5557C6.84662 26.2735 6.72626 26.062 6.36819 25.9473L5.57843 25.6977C5.35818 25.6242 5.20592 25.5239 5.20873 25.2918C5.21174 25.0156 5.49639 24.9041 5.88394 24.9041C6.29196 24.9041 6.55916 25.0803 6.55916 25.3508V25.3745C6.55916 25.4273 6.58845 25.4627 6.66488 25.4627C6.73789 25.4627 6.76738 25.4273 6.76738 25.3745V25.3364C6.76738 24.9923 6.52666 24.7162 5.87191 24.7162C5.32287 24.7162 5.00913 24.916 5.00291 25.292C4.9971 25.5946 5.15557 25.7648 5.46971 25.8652L6.21834 26.1032C6.46388 26.1795 6.64602 26.2914 6.61954 26.5589C6.59326 26.8146 6.3702 26.9939 5.90039 26.9939C5.41916 26.9967 5.16099 26.7848 5.16099 26.4559V26.4177C5.16099 26.3558 5.12568 26.3237 5.05527 26.3237C4.98486 26.3237 4.94956 26.3558 4.94956 26.4177L4.95056 26.5C4.95056 26.7527 5.10622 27.1847 5.91042 27.1847ZM5.91042 27.228C5.54406 27.228 5.27081 27.1404 5.09828 26.9677C4.93207 26.8013 4.90725 26.6033 4.90725 26.5L4.90625 26.4182C4.90625 26.3317 4.96196 26.2804 5.05527 26.2804C5.14859 26.2804 5.2043 26.3317 5.2043 26.4177V26.4559C5.2043 26.7703 5.45457 26.9506 5.89096 26.9506L5.90013 26.9506C6.3101 26.9506 6.5502 26.8099 6.57646 26.5545C6.59681 26.3488 6.49281 26.2338 6.20549 26.1445L5.45659 25.9065C5.11156 25.7962 4.95367 25.6006 4.95961 25.2911C4.96621 24.8925 5.2902 24.6729 5.87191 24.6729C6.68873 24.6729 6.81069 25.0886 6.81069 25.3364V25.3745C6.81069 25.4568 6.75618 25.506 6.66488 25.506C6.57156 25.506 6.51585 25.4568 6.51585 25.3745V25.3508C6.51585 25.1058 6.26781 24.9475 5.88394 24.9475C5.64935 24.9475 5.2553 24.9923 5.25204 25.2922C5.24953 25.4996 5.38618 25.5879 5.59214 25.6566L6.38124 25.906C6.7318 26.0183 6.89253 26.2316 6.8728 26.5583C6.85669 26.8085 6.71026 27.228 5.91042 27.228Z" fill="#103831"/>
<path d="M9.39058 27.2059C9.28763 27.2059 9.26602 27.1415 9.26602 27.0875V25.8675C9.26602 25.6608 9.26836 25.4276 9.28389 25.2226L8.48859 27.0428C8.46919 27.0973 8.41746 27.1339 8.3596 27.1339C8.35472 27.1339 8.34979 27.1336 8.34491 27.1331C8.34135 27.1334 8.33781 27.1335 8.33429 27.1335C8.27611 27.1335 8.2229 27.097 8.20189 27.0426L7.40675 25.2229C7.42214 25.4238 7.4245 25.6501 7.4245 25.8675V27.0873C7.4245 27.1648 7.38157 27.2057 7.30034 27.2057C7.19739 27.2057 7.17578 27.1413 7.17578 27.0873V24.8418C7.17578 24.7441 7.22407 24.6943 7.31932 24.6939C7.32481 24.6932 7.33037 24.6929 7.33587 24.6929C7.40424 24.6929 7.46297 24.7391 7.47941 24.8054L8.34526 26.7691L9.21189 24.8036C9.24742 24.7232 9.28765 24.6943 9.36519 24.6939C9.37168 24.6929 9.37828 24.6924 9.38484 24.6924C9.41993 24.6924 9.45293 24.7061 9.47775 24.7309C9.5072 24.7604 9.52095 24.8024 9.51474 24.8435V27.0875C9.51474 27.165 9.47181 27.2059 9.39058 27.2059Z" fill="#103831"/>
<path d="M9.38306 24.714C9.3771 24.714 9.3711 24.7144 9.36513 24.7154C9.29472 24.7154 9.26222 24.7391 9.22993 24.8122L8.34348 26.8227L7.45703 24.8122C7.44236 24.7494 7.38281 24.7077 7.31882 24.7154C7.23577 24.7154 7.19565 24.7536 7.19565 24.8418V27.0872C7.19565 27.1521 7.22835 27.184 7.29856 27.184C7.36877 27.184 7.40107 27.1521 7.40107 27.0872V25.8675C7.40107 25.6289 7.39826 25.3531 7.37459 25.1268H7.38662L8.22031 27.0348C8.2397 27.0849 8.28997 27.1162 8.34348 27.1113C8.39741 27.118 8.44873 27.0861 8.46665 27.0348L9.30034 25.1268H9.31237C9.2889 25.3531 9.28589 25.6295 9.28589 25.8675V27.0874C9.28589 27.1523 9.31859 27.1842 9.3888 27.1842C9.45901 27.1842 9.49131 27.1523 9.49131 27.0874V24.8418C9.49709 24.8068 9.48567 24.7712 9.46064 24.7461C9.4399 24.7254 9.41191 24.714 9.38306 24.714ZM9.38305 24.6707C9.38306 24.6707 9.38306 24.6707 9.38306 24.6707C9.42394 24.6707 9.46237 24.6866 9.49128 24.7155C9.52518 24.7495 9.54123 24.7976 9.53462 24.845V27.0874C9.53462 27.1764 9.48147 27.2275 9.3888 27.2275C9.29588 27.2275 9.24258 27.1764 9.24258 27.0874V25.8675C9.24258 25.7006 9.24411 25.5164 9.25285 25.3436L8.50694 27.0507C8.48425 27.1135 8.42456 27.1555 8.35782 27.1555C8.35282 27.1555 8.34778 27.1552 8.34278 27.1548C8.27206 27.1592 8.206 27.1166 8.18029 27.0513L7.4343 25.344C7.44285 25.5125 7.44438 25.6928 7.44438 25.8675V27.0872C7.44438 27.1762 7.39123 27.2273 7.29856 27.2273C7.20564 27.2273 7.15234 27.1762 7.15234 27.0872V24.8418C7.15234 24.7317 7.20903 24.673 7.31631 24.6721C7.32221 24.6715 7.32818 24.6712 7.33408 24.6712C7.41183 24.6712 7.47869 24.7232 7.49817 24.7982L8.34348 26.7153L9.1903 24.7948C9.22929 24.7065 9.27596 24.673 9.36175 24.6721C9.36881 24.6712 9.37595 24.6707 9.38305 24.6707Z" fill="#103831"/>
<path d="M9.90248 27.2072C9.88147 27.2072 9.85745 27.2014 9.83106 27.19C9.80022 27.1809 9.77534 27.1588 9.76265 27.1291C9.7499 27.0993 9.75115 27.0658 9.76603 27.0371L10.7139 24.7885C10.7393 24.7213 10.7625 24.6929 10.8394 24.6929C10.9166 24.6929 10.9397 24.7213 10.9654 24.7892L11.9075 27.0466C11.9236 27.082 11.9258 27.1131 11.9139 27.1386C11.9009 27.1665 11.872 27.1863 11.8257 27.1991C11.8082 27.204 11.7927 27.2063 11.7784 27.2063C11.7143 27.2063 11.6866 27.1591 11.6678 27.1129L11.4386 26.5681H10.2317L9.99037 27.1456C9.9742 27.1858 9.94377 27.2072 9.90248 27.2072Z" fill="#103831"/>
<path d="M9.9007 27.1854C9.93307 27.1854 9.9558 27.169 9.96862 27.1372L10.2156 26.5463H11.4512L11.6862 27.1047C11.7124 27.1695 11.7447 27.1985 11.8181 27.1782C11.8916 27.1579 11.9152 27.1197 11.8857 27.0549L10.9433 24.7968C10.9199 24.7345 10.903 24.7145 10.8376 24.7145C10.7722 24.7145 10.7554 24.7353 10.7321 24.7968L9.78387 27.0462C9.77167 27.0692 9.77054 27.0966 9.78079 27.1205C9.79104 27.1445 9.81157 27.1625 9.83663 27.1695C9.86104 27.1802 9.88241 27.1854 9.9007 27.1854ZM9.90071 27.2287C9.9007 27.2287 9.9007 27.2287 9.9007 27.2287C9.87705 27.2287 9.85053 27.2226 9.82186 27.2103C9.78541 27.1991 9.75604 27.1728 9.74097 27.1376C9.72578 27.102 9.72713 27.0622 9.74463 27.0278L10.6919 24.7807C10.7195 24.708 10.7498 24.6711 10.8376 24.6711C10.9258 24.6711 10.9561 24.7081 10.9836 24.7808L11.9255 27.0376C11.9443 27.0793 11.9464 27.1164 11.9318 27.1477C11.9159 27.1817 11.8825 27.2053 11.8297 27.2199C11.8103 27.2253 11.7929 27.2279 11.7766 27.2279C11.6893 27.2279 11.6579 27.1502 11.646 27.1209L11.4225 26.5896H10.2444L10.0086 27.1539C9.98922 27.202 9.95083 27.2287 9.9007 27.2287H9.90071Z" fill="#103831"/>
<path d="M11.3982 26.3712H11.3658H10.2944H10.2617L10.2744 26.3411L10.5601 25.6651C10.6151 25.5383 10.7293 25.2749 10.8091 25.0633L10.8144 25.0493H10.8294H10.838H10.8528L10.8582 25.0631C10.9234 25.2301 11.0033 25.4216 11.0676 25.5756C11.081 25.6077 11.0935 25.6378 11.1049 25.6652L11.3858 26.3412L11.3982 26.3712Z" fill="white"/>
<path d="M11.3672 26.3495L11.0863 25.6734C11.0215 25.5176 10.9186 25.2737 10.8394 25.0709H10.8308C10.7544 25.2735 10.649 25.5176 10.5814 25.6734L10.2958 26.3495H11.3672ZM11.4321 26.3928H10.2305L10.5415 25.6566C10.5965 25.5298 10.7106 25.2667 10.7903 25.0556L10.8008 25.0276H10.869L10.8797 25.0551C10.9449 25.2219 11.0248 25.4133 11.089 25.5672C11.1024 25.5993 11.1149 25.6294 11.1263 25.6568L11.4321 26.3928Z" fill="#103831"/>
<path d="M13.8836 27.2081C13.8713 27.2081 13.8592 27.2061 13.8476 27.2022C13.8141 27.191 13.7875 27.1645 13.7761 27.1311L13.2614 26.1389H12.4156V27.0843C12.4156 27.1664 12.3739 27.2063 12.2882 27.2063C12.2058 27.2063 12.1641 27.1694 12.1641 27.0965V24.8772C12.1641 24.7737 12.2143 24.7234 12.3177 24.7234H13.2834C13.497 24.7234 13.6614 24.7756 13.772 24.8785C13.8733 24.9728 13.9269 25.1105 13.9269 25.2769V25.5732C13.944 25.829 13.7738 26.0554 13.527 26.1117L14.0027 27.0246C14.0218 27.0627 14.0264 27.0929 14.0173 27.1199C14.0083 27.1471 13.9861 27.1688 13.9476 27.1883C13.9287 27.2012 13.9066 27.2081 13.8836 27.2081Z" fill="#103831"/>
<path d="M13.8818 27.1864C13.9005 27.1864 13.9191 27.1806 13.9348 27.1695C13.9996 27.1372 14.014 27.099 13.9817 27.0346L13.4926 26.096C13.7432 26.0534 13.9208 25.8277 13.9035 25.5738V25.2768C13.9035 24.9659 13.7161 24.745 13.2816 24.745H12.3159C12.2279 24.745 12.1839 24.7831 12.1839 24.8771V27.0964C12.1839 27.1527 12.2102 27.1846 12.2864 27.1846C12.3627 27.1846 12.3922 27.1519 12.3922 27.0842V26.1171H13.2728L13.7943 27.1225C13.8033 27.1504 13.825 27.1723 13.8527 27.1816C13.8622 27.1848 13.872 27.1864 13.8818 27.1864ZM13.8818 27.2297C13.8672 27.2297 13.8528 27.2273 13.8389 27.2227C13.7996 27.2095 13.7682 27.1786 13.7544 27.1396L13.2465 26.1604H12.4355V27.0842C12.4355 27.1782 12.3839 27.2279 12.2864 27.2279C12.1596 27.2279 12.1406 27.1455 12.1406 27.0964V24.8771C12.1406 24.7623 12.2012 24.7017 12.3159 24.7017H13.2816C13.7043 24.7017 13.9468 24.9113 13.9468 25.2768V25.5724C13.9636 25.8292 13.7993 26.0574 13.557 26.1259L14.0201 27.0146C14.0418 27.0578 14.0469 27.0943 14.0361 27.1267C14.022 27.169 13.9848 27.1927 13.9569 27.2069C13.9346 27.2218 13.9087 27.2297 13.8818 27.2297Z" fill="#103831"/>
<path d="M13.2792 25.942H12.3927H12.3711V25.9203V24.9418V24.9202L12.3928 24.9202L13.2792 24.9212C13.5745 24.9212 13.7121 25.0523 13.7121 25.3337V25.5187C13.7121 25.8035 13.5705 25.942 13.2792 25.942Z" fill="white"/>
<path d="M12.391 24.9418V25.9203H13.2774C13.5418 25.9203 13.6886 25.806 13.6886 25.5186V25.3336C13.6886 25.0454 13.5418 24.9428 13.2774 24.9428L12.391 24.9418ZM12.3477 24.8984L13.2775 24.8995C13.4271 24.8995 13.5361 24.9316 13.6109 24.9977C13.6923 25.0697 13.7319 25.1796 13.7319 25.3336V25.5186C13.7319 25.8139 13.579 25.9636 13.2774 25.9636H12.3477V24.8984Z" fill="#103831"/>
<path d="M15.0853 27.2065C14.9983 27.2065 14.9611 27.17 14.9611 27.0845V24.9607H14.193C14.118 24.9607 14.0859 24.9252 14.0859 24.8418C14.0859 24.7588 14.118 24.7234 14.193 24.7234H15.9808C16.0546 24.7234 16.0875 24.7599 16.0875 24.8418C16.0875 24.9241 16.0546 24.9607 15.9808 24.9607H15.2099V27.0845C15.2099 27.1689 15.1715 27.2065 15.0853 27.2065Z" fill="#103831"/>
<path d="M14.1913 24.745C14.1295 24.745 14.1058 24.7683 14.1058 24.8418C14.1058 24.9153 14.1295 24.939 14.1913 24.939H14.981V27.0844C14.981 27.1529 15.0043 27.1848 15.0835 27.1848C15.1628 27.1848 15.1864 27.1521 15.1864 27.0844V24.939H15.979C16.0376 24.939 16.0641 24.9153 16.0641 24.8418C16.0641 24.7683 16.0376 24.745 15.979 24.745H14.1913ZM14.1913 24.7017H15.979C16.0654 24.7017 16.1074 24.7475 16.1074 24.8418C16.1074 24.9363 16.0654 24.9823 15.979 24.9823H15.2297V27.0844C15.2297 27.1811 15.1819 27.2281 15.0835 27.2281C14.9854 27.2281 14.9377 27.1811 14.9377 27.0844V24.9823H14.1913C14.0758 24.9823 14.0625 24.9021 14.0625 24.8418C14.0625 24.7816 14.0758 24.7017 14.1913 24.7017Z" fill="#103831"/>
<path d="M5.12446 30.7083C4.95499 30.7083 4.92969 30.6138 4.92969 30.5575V28.3884C4.92969 28.2164 4.99672 28.1494 5.16879 28.1494H6.06968C6.60936 28.1494 6.80165 28.4855 6.80165 28.8001V29.0439C6.80165 29.3585 6.60936 29.6946 6.06968 29.6946H5.32244V30.5279C5.32244 30.6493 5.25768 30.7083 5.12446 30.7083Z" fill="#103831"/>
<path d="M5.16701 28.171C5.01435 28.171 4.94956 28.2208 4.94956 28.3883V30.5574C4.94956 30.6337 4.99911 30.6865 5.12267 30.6865C5.24624 30.6865 5.299 30.6339 5.299 30.5279V29.6729H6.0679C6.56117 29.6729 6.77822 29.3817 6.77822 29.0439V28.8C6.77822 28.4618 6.56117 28.171 6.0679 28.171H5.16701ZM5.16701 28.1277H6.0679C6.62355 28.1277 6.82152 28.475 6.82152 28.8V29.0439C6.82152 29.3689 6.62355 29.7162 6.0679 29.7162H5.34231V30.5279C5.34231 30.62 5.3042 30.7298 5.12267 30.7298C4.92734 30.7298 4.90625 30.6092 4.90625 30.5574V28.3883C4.90625 28.2032 4.9818 28.1277 5.16701 28.1277Z" fill="#103831"/>
<path d="M6.06899 29.3622H5.3029H5.28125V29.3406V28.5029V28.4812H5.3029H6.06899C6.21095 28.4812 6.44912 28.5341 6.44912 28.8881V28.9558C6.44912 29.3094 6.21095 29.3622 6.06899 29.3622Z" fill="white"/>
<path d="M6.06721 29.3405C6.24935 29.3405 6.42568 29.2553 6.42568 28.9557V28.888C6.42568 28.5881 6.24935 28.5028 6.06721 28.5028H5.30112V29.3405H6.06721ZM6.06721 29.3838H5.25781V28.4595H6.06721C6.18186 28.4595 6.27477 28.4901 6.34336 28.5504C6.42672 28.6238 6.46899 28.7374 6.46899 28.888V28.9557C6.46899 29.3282 6.21726 29.3838 6.06721 29.3838Z" fill="white"/>
<path d="M7.23979 30.673H7.23976H7.23973C7.11082 30.673 7.05078 30.6119 7.05078 30.4807V28.3409C7.05078 28.2099 7.11082 28.1489 7.23973 28.1489H8.6341C8.74713 28.1489 8.79978 28.2069 8.79978 28.3313C8.79978 28.4556 8.74713 28.5136 8.6341 28.5136H7.43992V29.1961H8.5689C8.68012 29.1961 8.73419 29.2558 8.73419 29.3784C8.73419 29.5022 8.67858 29.565 8.5689 29.565H7.43992V30.3032H8.66198C8.77536 30.3032 8.83047 30.3628 8.83047 30.4855C8.83047 30.6074 8.77378 30.6692 8.66198 30.6692L7.23979 30.673Z" fill="#103831"/>
<path d="M7.23795 30.6513L8.6602 30.6475C8.7601 30.6475 8.80704 30.5959 8.80704 30.4854C8.80704 30.3749 8.7605 30.3247 8.6602 30.3247H7.41649V29.5433H8.56712C8.66682 29.5433 8.71075 29.4892 8.71075 29.3784C8.71075 29.2675 8.66742 29.2177 8.56712 29.2177H7.41649V28.4919H8.63231C8.73241 28.4919 8.77634 28.4449 8.77634 28.3312C8.77634 28.2175 8.73261 28.1705 8.63231 28.1705H7.23795C7.1204 28.1705 7.07065 28.2233 7.07065 28.3408V30.4806C7.07065 30.5981 7.1206 30.6513 7.23795 30.6513ZM7.23807 30.6946H7.23795C7.0982 30.6946 7.02734 30.6226 7.02734 30.4806V28.3408C7.02734 28.1991 7.0982 28.1272 7.23795 28.1272H8.63231C8.75837 28.1272 8.81965 28.1939 8.81965 28.3312C8.81965 28.4684 8.75837 28.5352 8.63231 28.5352H7.45979V29.1744H8.56712C8.69116 29.1744 8.75406 29.243 8.75406 29.3784C8.75406 29.5504 8.6524 29.5866 8.56712 29.5866H7.45979V30.2814H8.6602C8.74694 30.2814 8.85034 30.3168 8.85034 30.4854C8.85034 30.6552 8.74694 30.6908 8.6602 30.6908L7.23807 30.6946Z" fill="#103831"/>
<path d="M9.9957 30.7098C9.86646 30.7098 9.80093 30.6493 9.80093 30.5299V28.5184H9.13834C9.0253 28.5184 8.97266 28.4593 8.97266 28.3323C8.97266 28.2055 9.02382 28.1489 9.13854 28.1489H10.8531C10.9643 28.1489 11.0183 28.2086 11.0183 28.3313C11.0183 28.4548 10.9627 28.5174 10.8531 28.5174H10.1905V30.5299C10.1905 30.6493 10.1249 30.7098 9.9957 30.7098Z" fill="#103831"/>
<path d="M9.13676 28.1705C9.03706 28.1705 8.99253 28.2147 8.99253 28.3322C8.99253 28.4497 9.03626 28.4967 9.13656 28.4967H9.8208V30.5298C9.8208 30.6352 9.87356 30.6881 9.99392 30.6881C10.1143 30.6881 10.167 30.6354 10.167 30.5298V28.4957H10.8513C10.948 28.4957 10.9949 28.4449 10.9949 28.3312C10.9949 28.2175 10.948 28.1705 10.8513 28.1705H9.13676ZM9.13676 28.1272H10.8513C10.9753 28.1272 11.0382 28.1958 11.0382 28.3312C11.0382 28.5029 10.9366 28.539 10.8513 28.539H10.2103V30.5298C10.2103 30.6218 10.1728 30.7314 9.99392 30.7314C9.81504 30.7314 9.77749 30.6218 9.77749 30.5298V28.54H9.13656C9.0105 28.54 8.94922 28.472 8.94922 28.3322C8.94922 28.1942 9.01056 28.1272 9.13676 28.1272Z" fill="#103831"/>
<path d="M13.3566 30.6859H12.0591C11.9301 30.6859 11.8674 30.6231 11.8674 30.4939L11.8672 28.3144C11.8672 28.193 11.9318 28.134 12.0648 28.134C12.1979 28.134 12.2599 28.1913 12.2599 28.3144V30.3212H13.3566C13.4712 30.3212 13.5223 30.3774 13.5223 30.5035C13.5223 30.6296 13.4712 30.6859 13.3566 30.6859Z" fill="#103831"/>
<path d="M12.063 28.1556C11.9398 28.1556 11.8871 28.2058 11.8871 28.3143L11.8873 30.4938C11.8873 30.6113 11.94 30.6641 12.0574 30.6641H13.3548C13.4549 30.6641 13.4989 30.6202 13.4989 30.5035C13.4989 30.3868 13.4551 30.3428 13.3548 30.3428H12.2365V28.3143C12.2365 28.2058 12.1862 28.1556 12.063 28.1556ZM12.063 28.1123C12.2069 28.1123 12.2798 28.1803 12.2798 28.3143V30.2995H13.3548C13.4809 30.2995 13.5422 30.3662 13.5422 30.5035C13.5422 30.6407 13.4809 30.7074 13.3548 30.7074H12.0574C11.9158 30.7074 11.8439 30.6356 11.8439 30.4938L11.8438 28.3143C11.8438 28.1803 11.9175 28.1123 12.063 28.1123Z" fill="#103831"/>
<path d="M13.9374 30.7256C13.806 30.7256 13.7422 30.6666 13.7422 30.5453V28.3144C13.7422 28.1913 13.8042 28.134 13.9374 28.134C14.0702 28.134 14.1321 28.1913 14.1321 28.3144V30.5453C14.1321 30.6666 14.0684 30.7256 13.9374 30.7256Z" fill="#103831"/>
<path d="M13.9356 30.7039C14.0589 30.7039 14.1087 30.6513 14.1087 30.5452V28.3143C14.1087 28.2058 14.0589 28.1556 13.9356 28.1556C13.8122 28.1556 13.7621 28.2058 13.7621 28.3143V30.5452C13.7621 30.6511 13.8122 30.7039 13.9356 30.7039ZM13.9356 30.7472C13.7917 30.7472 13.7188 30.6792 13.7188 30.5452V28.3143C13.7188 28.1803 13.7917 28.1123 13.9356 28.1123C14.0792 28.1123 14.152 28.1803 14.152 28.3143V30.5452C14.152 30.6792 14.0792 30.7472 13.9356 30.7472Z" fill="#103831"/>
<path d="M14.6946 30.7213C14.5618 30.7213 14.5 30.6645 14.5 30.5426V28.3548C14.5 28.2256 14.5619 28.1628 14.6894 28.1628H16.0893C16.2024 28.1628 16.255 28.2208 16.255 28.3452C16.255 28.4696 16.2024 28.5275 16.0893 28.5275H14.8922V29.1954H16.0245C16.1358 29.1954 16.1898 29.255 16.1898 29.3777C16.1898 29.5013 16.1358 29.5614 16.0245 29.5614H14.8922V30.539C14.8922 30.6616 14.8275 30.7213 14.6946 30.7213Z" fill="#103831"/>
<path d="M14.6928 30.6996C14.816 30.6996 14.8687 30.6478 14.8687 30.5389V29.5397H16.0228C16.1225 29.5397 16.1664 29.4881 16.1664 29.3776C16.1664 29.2672 16.1231 29.217 16.0228 29.217H14.8687V28.5058H16.0876C16.1876 28.5058 16.2316 28.4588 16.2316 28.3451C16.2316 28.2314 16.1878 28.1844 16.0876 28.1844H14.6876C14.573 28.1844 14.5199 28.2372 14.5199 28.3547V30.5425C14.5199 30.6514 14.5696 30.6996 14.6928 30.6996ZM14.6928 30.7429C14.5473 30.7429 14.4766 30.6773 14.4766 30.5425V28.3547C14.4766 28.213 14.5476 28.1411 14.6876 28.1411H16.0876C16.2136 28.1411 16.2749 28.2078 16.2749 28.3451C16.2749 28.4824 16.2136 28.5491 16.0876 28.5491H14.912V29.1736H16.0228C16.1468 29.1736 16.2097 29.2423 16.2097 29.3776C16.2097 29.5474 16.108 29.583 16.0228 29.583H14.912V30.5389C14.912 30.6743 14.8383 30.7429 14.6928 30.7429Z" fill="#103831"/>
<path d="M16.6773 30.6878H16.6772H16.6772C16.5483 30.6878 16.4883 30.6268 16.4883 30.4958V28.3548C16.4883 28.2238 16.5483 28.1628 16.6772 28.1628H18.0718C18.1846 28.1628 18.2371 28.2208 18.2371 28.3452C18.2371 28.4696 18.1846 28.5275 18.0718 28.5275H16.878V29.2104H18.0072C18.1187 29.2104 18.1729 29.2701 18.1729 29.3928C18.1729 29.5163 18.1171 29.5789 18.0072 29.5789H16.8782V30.3215H18.1003C18.2137 30.3215 18.2688 30.3811 18.2688 30.5038C18.2688 30.6265 18.2137 30.6862 18.1003 30.6862L16.6773 30.6878Z" fill="#103831"/>
<path d="M16.6755 30.666L18.0985 30.6644C18.1984 30.6644 18.2453 30.6146 18.2453 30.5037C18.2453 30.3929 18.1988 30.3431 18.0985 30.3431H16.8548V29.5572H18.0054C18.1051 29.5572 18.1495 29.5036 18.1495 29.3927C18.1495 29.2818 18.1057 29.232 18.0054 29.232H16.8546V28.5058H18.07C18.1697 28.5058 18.2136 28.4588 18.2136 28.3451C18.2136 28.2314 18.1703 28.1844 18.07 28.1844H16.6755C16.5579 28.1844 16.5082 28.2372 16.5082 28.3547V30.4957C16.5082 30.6132 16.5581 30.666 16.6755 30.666ZM16.6755 30.7093H16.6755C16.5357 30.7093 16.4648 30.6375 16.4648 30.4957V28.3547C16.4648 28.213 16.5357 28.1411 16.6755 28.1411H18.07C18.1958 28.1411 18.257 28.2078 18.257 28.3451C18.257 28.4824 18.1958 28.5491 18.07 28.5491H16.8979V29.1887H18.0054C18.1297 29.1887 18.1928 29.2573 18.1928 29.3927C18.1928 29.5644 18.0909 29.6005 18.0054 29.6005H16.8981V30.2998H18.0985C18.1852 30.2998 18.2886 30.3352 18.2886 30.5037C18.2886 30.6723 18.1852 30.7077 18.0985 30.7077L16.6755 30.7093Z" fill="#103831"/>
<mask id="mask1_421_6688" style="mask-type:alpha" maskUnits="userSpaceOnUse" x="40" y="25" width="80" height="10">
<rect x="40" y="25" width="80" height="9.33333" fill="#C4C4C4"/>
</mask>
<g mask="url(#mask1_421_6688)">
<path d="M43.7242 33.3732C42.6289 33.3732 41.8142 33.1135 41.3026 32.6014C40.8142 32.1126 40.7413 31.5302 40.7413 31.2266L40.7383 30.9772C40.7383 30.7497 40.8757 30.6249 41.1254 30.6249C41.375 30.6249 41.5124 30.7497 41.5124 30.9764V31.0923C41.5124 31.5669 41.6998 31.9604 42.0542 32.23C42.4254 32.5125 42.9824 32.6618 43.6651 32.6618L43.6933 32.6617C44.9772 32.6617 45.7301 32.2132 45.8138 31.3987C45.894 30.5882 45.2973 30.2875 44.6405 30.0834L42.3649 29.36C41.3344 29.0305 40.8828 28.4736 40.9004 27.554C40.9198 26.384 41.8811 25.7395 43.6072 25.7395C46.0323 25.7395 46.3944 26.9616 46.3944 27.6901V27.8061C46.3944 28.0182 46.2568 28.1399 46.017 28.1399C45.6802 28.1399 45.6299 27.9307 45.6299 27.8061V27.7341C45.6299 26.9494 44.8503 26.4424 43.6437 26.4424C42.9065 26.4424 41.6681 26.587 41.6575 27.5553C41.6494 28.2253 42.0828 28.5077 42.7361 28.7258L45.1352 29.4841C46.1676 29.8148 46.6411 30.4413 46.5832 31.3997C46.5441 32.0075 46.2961 32.4864 45.8462 32.8233C45.3588 33.1882 44.6449 33.3732 43.7242 33.3732Z" fill="#103831"/>
<path d="M43.7236 33.3075C45.6244 33.3075 46.445 32.5134 46.5169 31.3958C46.5688 30.5383 46.203 29.8955 45.1148 29.547L42.7147 28.7883C42.0453 28.5649 41.5826 28.2603 41.5911 27.5548C41.6003 26.7155 42.4653 26.3768 43.6431 26.3768C44.8831 26.3768 45.6952 26.912 45.6952 27.7342V27.8062C45.6952 27.9668 45.7842 28.0742 46.0164 28.0742C46.2383 28.0742 46.328 27.9668 46.328 27.8062V27.6903C46.328 26.6447 45.5964 25.8054 43.6066 25.8054C41.938 25.8054 40.9845 26.4128 40.9656 27.5554C40.948 28.4752 41.4296 28.9922 42.3843 29.2974L44.6594 30.0207C45.4056 30.2526 45.9591 30.5926 45.8787 31.4056C45.7988 32.1826 45.1209 32.7277 43.6931 32.7277C42.2306 32.7361 41.446 32.0923 41.446 31.0925V30.9765C41.446 30.7885 41.3387 30.6908 41.1248 30.6908C40.9108 30.6908 40.8035 30.7885 40.8035 30.9765L40.8065 31.2268C40.8065 31.9946 41.2796 33.3075 43.7236 33.3075ZM43.7236 33.4391C42.6102 33.4391 41.7798 33.173 41.2555 32.6481C40.7503 32.1424 40.6749 31.5405 40.6749 31.2268L40.6719 30.9781C40.6719 30.7152 40.8412 30.5592 41.1248 30.5592C41.4083 30.5592 41.5777 30.7152 41.5777 30.9765V31.0925C41.5777 32.0481 42.3383 32.5961 43.6645 32.5961L43.6923 32.596C44.9383 32.596 45.6679 32.1685 45.7477 31.3921C45.8096 30.7672 45.4935 30.4178 44.6203 30.1464L42.3444 29.4228C41.2958 29.0876 40.816 28.4934 40.8341 27.5528C40.8541 26.3413 41.8387 25.6738 43.6066 25.6738C46.0889 25.6738 46.4596 26.9372 46.4596 27.6903V27.8062C46.4596 28.0564 46.2939 28.2058 46.0164 28.2058C45.7328 28.2058 45.5635 28.0564 45.5635 27.8062V27.7342C45.5635 26.9895 44.8097 26.5084 43.6431 26.5084C42.9302 26.5084 41.7327 26.6445 41.7227 27.5562C41.7151 28.1864 42.1304 28.4546 42.7563 28.6635L45.1545 29.4215C46.2198 29.7627 46.7083 30.4111 46.6483 31.4038C46.5994 32.1642 46.1544 33.4391 43.7236 33.4391Z" fill="#103831"/>
<path d="M54.2856 33.3714C53.9727 33.3714 53.907 33.1757 53.907 33.0114V29.304C53.907 28.6757 53.9141 27.967 53.9613 27.3441L51.5444 32.8756C51.4854 33.0414 51.3282 33.1526 51.1524 33.1526C51.1376 33.1526 51.1226 33.1518 51.1077 33.1502C51.0969 33.151 51.0862 33.1514 51.0755 33.1514C50.8986 33.1514 50.7369 33.0404 50.6731 32.8752L48.2566 27.3449C48.3034 27.9556 48.3106 28.6431 48.3106 29.304V33.0108C48.3106 33.2463 48.1801 33.3708 47.9332 33.3708C47.6204 33.3708 47.5547 33.175 47.5547 33.0108V26.1869C47.5547 25.8898 47.7014 25.7385 47.9909 25.7372C48.0076 25.7353 48.0245 25.7344 48.0412 25.7344C48.249 25.7344 48.4275 25.8745 48.4774 26.076L51.1088 32.0438L53.7425 26.0706C53.8505 25.8262 53.9728 25.7384 54.2084 25.7372C54.2281 25.7342 54.2482 25.7327 54.2681 25.7327C54.3748 25.7327 54.4751 25.7743 54.5505 25.8498C54.64 25.9394 54.6818 26.0669 54.6629 26.192V33.0114C54.6629 33.2469 54.5324 33.3714 54.2856 33.3714Z" fill="#103831"/>
<path d="M54.2675 25.7984C54.2494 25.7984 54.2312 25.7998 54.2131 25.8029C53.9991 25.8029 53.9003 25.8749 53.8022 26.0971L51.1082 32.2068L48.4143 26.0971C48.3697 25.9061 48.1887 25.7793 47.9942 25.8029C47.7418 25.8029 47.6199 25.9188 47.6199 26.1868V33.0107C47.6199 33.2079 47.7193 33.3049 47.9326 33.3049C48.146 33.3049 48.2442 33.2079 48.2442 33.0107V29.3039C48.2442 28.5788 48.2356 27.7408 48.1637 27.0529H48.2003L50.7339 32.8514C50.7928 33.0039 50.9456 33.0988 51.1082 33.0839C51.2721 33.1044 51.4281 33.0075 51.4825 32.8514L54.0161 27.0529H54.0527C53.9814 27.7408 53.9723 28.5806 53.9723 29.3039V33.0113C53.9723 33.2085 54.0716 33.3055 54.285 33.3055C54.4984 33.3055 54.5965 33.2085 54.5965 33.0113V26.1868C54.6141 26.0805 54.5794 25.9723 54.5033 25.8962C54.4403 25.833 54.3552 25.7984 54.2675 25.7984ZM54.2675 25.6667C54.2675 25.6667 54.2675 25.6667 54.2675 25.6667C54.3918 25.6667 54.5086 25.7152 54.5964 25.8031C54.6995 25.9063 54.7482 26.0526 54.7281 26.1967V33.0113C54.7281 33.2819 54.5666 33.4371 54.285 33.4371C54.0026 33.4371 53.8406 33.2819 53.8406 33.0113V29.3039C53.8406 28.7968 53.8453 28.2371 53.8718 27.7119L51.605 32.8999C51.536 33.0906 51.3546 33.2183 51.1518 33.2183C51.1366 33.2183 51.1213 33.2176 51.1061 33.2161C50.8912 33.2296 50.6904 33.1001 50.6123 32.9018L48.3451 27.7132C48.3711 28.2253 48.3758 28.7732 48.3758 29.3039V33.0107C48.3758 33.2813 48.2143 33.4365 47.9326 33.4365C47.6502 33.4365 47.4883 33.2813 47.4883 33.0107V26.1868C47.4883 25.8521 47.6606 25.674 47.9866 25.6713C48.0045 25.6694 48.0227 25.6684 48.0406 25.6684C48.2769 25.6684 48.4801 25.8265 48.5393 26.0544L51.1082 31.8806L53.6817 26.044C53.8002 25.7757 53.9421 25.6739 54.2028 25.6713C54.2242 25.6683 54.246 25.6667 54.2675 25.6667Z" fill="#103831"/>
<path d="M55.846 33.3757C55.7822 33.3757 55.7092 33.3582 55.629 33.3236C55.5353 33.2959 55.4597 33.2286 55.4211 33.1385C55.3824 33.0479 55.3861 32.9461 55.4314 32.8587L58.3121 26.0251C58.3893 25.8209 58.4597 25.7346 58.6934 25.7346C58.928 25.7346 58.9984 25.8209 59.0762 26.0275L61.9394 32.8877C61.9883 32.9952 61.9952 33.0898 61.959 33.1672C61.9193 33.2522 61.8315 33.3124 61.6908 33.3512C61.6377 33.3659 61.5906 33.3731 61.5471 33.3731C61.3524 33.3731 61.268 33.2295 61.2111 33.0891L60.5145 31.4334H56.8467L56.1132 33.1887C56.064 33.3108 55.9715 33.3757 55.846 33.3757Z" fill="#103831"/>
<path d="M55.8455 33.3098C55.9439 33.3098 56.0129 33.2599 56.0519 33.1632L56.8023 31.3675H60.5577L61.2715 33.0643C61.3514 33.2615 61.4496 33.3494 61.6727 33.2877C61.8958 33.2261 61.9677 33.1101 61.8781 32.913L59.0141 26.0506C58.9428 25.8614 58.8915 25.8003 58.6928 25.8003C58.4941 25.8003 58.4429 25.8638 58.3721 26.0506L55.4904 32.8867C55.4533 32.9567 55.4499 33.0397 55.4811 33.1125C55.5122 33.1853 55.5746 33.2401 55.6507 33.2615C55.7249 33.2939 55.7899 33.3098 55.8455 33.3098ZM55.8455 33.4414C55.8455 33.4414 55.8455 33.4414 55.8455 33.4414C55.7736 33.4414 55.693 33.4226 55.6059 33.3855C55.4951 33.3514 55.4058 33.2713 55.36 33.1643C55.3139 33.0563 55.318 32.9351 55.3712 32.8307L58.2499 26.0017C58.3339 25.7808 58.4259 25.6687 58.6928 25.6687C58.9607 25.6687 59.0528 25.7809 59.1364 26.0019L61.9989 32.8605C62.0561 32.9874 62.0625 33.0999 62.0181 33.195C61.9697 33.2984 61.8682 33.3703 61.7077 33.4146C61.6488 33.4309 61.5961 33.4388 61.5465 33.4388C61.2812 33.4388 61.1856 33.2026 61.1496 33.1137L60.4702 31.4991H56.89L56.1733 33.214C56.1145 33.3601 55.9978 33.4414 55.8455 33.4414H55.8455Z" fill="#103831"/>
<path d="M60.4109 30.8351H60.3123H57.0563H56.957L56.9957 30.7437L57.8638 28.6892C58.0309 28.3039 58.3781 27.5035 58.6206 26.8605L58.6366 26.8179H58.6822H58.7084H58.7533L58.7697 26.8597C58.9679 27.3672 59.2109 27.9494 59.4061 28.4172C59.4468 28.5148 59.485 28.6063 59.5196 28.6895L60.3731 30.744L60.4109 30.8351Z" fill="white"/>
<path d="M60.3139 30.7692L59.4604 28.7147C59.2635 28.241 58.9508 27.5 58.71 26.8836H58.6838C58.4515 27.4994 58.1314 28.241 57.926 28.7147L57.0579 30.7692H60.3139ZM60.5111 30.9008H56.8594L57.8047 28.6635C57.9719 28.2781 58.3187 27.4786 58.5606 26.8371L58.5927 26.752H58.7999L58.8326 26.8357C59.0305 27.3424 59.2733 27.9243 59.4684 28.3917C59.5092 28.4894 59.5473 28.5809 59.582 28.6642L60.5111 30.9008Z" fill="#103831"/>
<path d="M67.9523 33.3788C67.915 33.3788 67.8782 33.3728 67.8429 33.3609C67.741 33.3269 67.6602 33.2463 67.6257 33.1447L66.0614 30.1293H63.491V33.0024C63.491 33.2521 63.3644 33.3734 63.1039 33.3734C62.8535 33.3734 62.7266 33.2611 62.7266 33.0397V26.2951C62.7266 25.9805 62.8793 25.8276 63.1935 25.8276H66.1283C66.7773 25.8276 67.2769 25.9862 67.6132 26.2991C67.9212 26.5856 68.0839 27.0042 68.0839 27.5097V28.4102C68.1358 29.1878 67.6187 29.8757 66.8685 30.0468L68.3142 32.8213C68.3722 32.9369 68.3862 33.0286 68.3588 33.1108C68.3313 33.1933 68.2639 33.2594 68.1469 33.3186C68.0893 33.358 68.0222 33.3788 67.9523 33.3788Z" fill="#103831"/>
<path d="M67.9517 33.3131C68.0086 33.3131 68.0649 33.2957 68.1126 33.262C68.3095 33.1637 68.3534 33.0477 68.2553 32.8518L66.769 29.9995C67.5304 29.87 68.0701 29.1841 68.0175 28.4126V27.5098C68.0175 26.565 67.4481 25.8936 66.1277 25.8936H63.1929C62.9253 25.8936 62.7918 26.0096 62.7918 26.2952V33.0398C62.7918 33.2107 62.8716 33.3078 63.1033 33.3078C63.335 33.3078 63.4246 33.2083 63.4246 33.0026V30.0636H66.1009L67.6859 33.1191C67.7131 33.2038 67.7789 33.2705 67.8632 33.2987C67.8921 33.3083 67.9219 33.3131 67.9517 33.3131ZM67.9517 33.4447C67.9073 33.4447 67.8635 33.4376 67.8214 33.4235C67.7018 33.3834 67.6065 33.2895 67.5645 33.1709L66.0209 30.1953H63.5562V33.0026C63.5562 33.2883 63.3996 33.4394 63.1033 33.4394C62.7177 33.4394 62.6602 33.189 62.6602 33.0398V26.2952C62.6602 25.9464 62.8444 25.762 63.1929 25.762H66.1277C67.4124 25.762 68.1492 26.399 68.1492 27.5098V28.4082C68.2002 29.1887 67.7009 29.8821 66.9646 30.0902L68.372 32.791C68.4379 32.9224 68.4535 33.0333 68.4206 33.1318C68.3778 33.2604 68.2648 33.3322 68.1798 33.3755C68.112 33.4208 68.0334 33.4447 67.9517 33.4447Z" fill="#103831"/>
<path d="M66.1113 29.5314H63.4174H63.3516V29.4656V26.4919V26.426L63.4174 26.4261L66.1114 26.4292C67.0089 26.4292 67.4269 26.8275 67.4269 27.6827V28.2449C67.4269 29.1106 66.9966 29.5314 66.1113 29.5314Z" fill="white"/>
<path d="M63.4168 26.4919V29.4656H66.1107C66.9142 29.4656 67.3605 29.1183 67.3605 28.2449V27.6827C67.3605 26.8068 66.9142 26.4949 66.1107 26.4949L63.4168 26.4919ZM63.2852 26.3601L66.1109 26.3633C66.5655 26.3633 66.897 26.4609 67.1241 26.6618C67.3717 26.8807 67.4921 27.2147 67.4921 27.6827V28.2449C67.4921 29.1422 67.0273 29.5972 66.1107 29.5972H63.2852V26.3601Z" fill="#103831"/>
<path d="M71.5918 33.374C71.3274 33.374 71.2145 33.2631 71.2145 33.003V26.5489H68.8802C68.652 26.5489 68.5547 26.4408 68.5547 26.1876C68.5547 25.9353 68.652 25.8276 68.8802 25.8276H74.3132C74.5375 25.8276 74.6375 25.9387 74.6375 26.1876C74.6375 26.4375 74.5375 26.5489 74.3132 26.5489H71.9704V33.003C71.9704 33.2596 71.8536 33.374 71.5918 33.374Z" fill="#103831"/>
<path d="M68.8796 25.8936C68.6918 25.8936 68.6199 25.9644 68.6199 26.1878C68.6199 26.4112 68.6918 26.4832 68.8796 26.4832H71.2797V33.0032C71.2797 33.2113 71.3504 33.3083 71.5912 33.3083C71.832 33.3083 71.904 33.2089 71.904 33.0032V26.4832H74.3126C74.4906 26.4832 74.5711 26.4112 74.5711 26.1878C74.5711 25.9644 74.4906 25.8936 74.3126 25.8936H68.8796ZM68.8796 25.762H74.3126C74.5751 25.762 74.7027 25.9012 74.7027 26.1878C74.7027 26.4751 74.5751 26.6148 74.3126 26.6148H72.0356V33.0032C72.0356 33.2971 71.8902 33.44 71.5912 33.44C71.293 33.44 71.1481 33.2971 71.1481 33.0032V26.6148H68.8796C68.5288 26.6148 68.4883 26.3711 68.4883 26.1878C68.4883 26.005 68.5288 25.762 68.8796 25.762Z" fill="#103831"/>
<path d="M79.3302 33.5558C78.8152 33.5558 78.7383 33.2687 78.7383 33.0975V26.5055C78.7383 25.9829 78.942 25.7793 79.4649 25.7793H82.2028C83.8429 25.7793 84.4273 26.8008 84.4273 27.7568V28.4978C84.4273 29.4537 83.8429 30.4752 82.2028 30.4752H79.9319V33.0078C79.9319 33.3765 79.7351 33.5558 79.3302 33.5558Z" fill="#103831"/>
<path d="M79.4643 25.845C79.0004 25.845 78.8035 25.9964 78.8035 26.5054V33.0974C78.8035 33.3294 78.9541 33.4899 79.3296 33.4899C79.7051 33.4899 79.8655 33.33 79.8655 33.0077V30.4093H82.2022C83.7013 30.4093 84.3609 29.5243 84.3609 28.4977V27.7567C84.3609 26.7288 83.7013 25.845 82.2022 25.845H79.4643ZM79.4643 25.7134H82.2022C83.8908 25.7134 84.4925 26.7689 84.4925 27.7567V28.4977C84.4925 29.4855 83.8908 30.541 82.2022 30.541H79.9971V33.0077C79.9971 33.2877 79.8813 33.6215 79.3296 33.6215C78.736 33.6215 78.6719 33.255 78.6719 33.0974V26.5054C78.6719 25.9428 78.9015 25.7134 79.4643 25.7134Z" fill="#103831"/>
<path d="M82.1948 29.4653H79.8666H79.8008V29.3995V26.8537V26.7878H79.8666H82.1948C82.6262 26.7878 83.35 26.9485 83.35 28.0243V28.23C83.35 29.3048 82.6262 29.4653 82.1948 29.4653Z" fill="white"/>
<path d="M82.1942 29.3994C82.7477 29.3994 83.2836 29.1406 83.2836 28.2299V28.0242C83.2836 27.1129 82.7477 26.8535 82.1942 26.8535H79.866V29.3994H82.1942ZM82.1942 29.531H79.7344V26.7219H82.1942C82.5426 26.7219 82.825 26.8149 83.0334 26.9983C83.2867 27.2213 83.4152 27.5664 83.4152 28.0242V28.2299C83.4152 29.362 82.6502 29.531 82.1942 29.531Z" fill="white"/>
<path d="M85.7541 33.4487H85.754H85.7539C85.3622 33.4487 85.1797 33.263 85.1797 32.8641V26.3612C85.1797 25.9632 85.3622 25.7778 85.7539 25.7778H89.9915C90.335 25.7778 90.495 25.9539 90.495 26.3319C90.495 26.71 90.335 26.886 89.9915 26.886H86.3623V28.9603H89.7933C90.1313 28.9603 90.2956 29.1415 90.2956 29.5144C90.2956 29.8906 90.1266 30.0813 89.7933 30.0813H86.3623V32.3247H90.0762C90.4208 32.3247 90.5883 32.5059 90.5883 32.8788C90.5883 33.2493 90.416 33.4371 90.0762 33.4371L85.7541 33.4487Z" fill="#103831"/>
<path d="M85.7533 33.3828L90.0756 33.3712C90.3792 33.3712 90.5219 33.2143 90.5219 32.8786C90.5219 32.5429 90.3804 32.3903 90.0756 32.3903H86.2959V30.0154H89.7927C90.0957 30.0154 90.2292 29.8512 90.2292 29.5143C90.2292 29.1774 90.0976 29.026 89.7927 29.026H86.2959V26.8201H89.9909C90.2951 26.8201 90.4286 26.6773 90.4286 26.3318C90.4286 25.9864 90.2957 25.8435 89.9909 25.8435H85.7533C85.3961 25.8435 85.2449 26.0041 85.2449 26.3611V32.864C85.2449 33.2211 85.3967 33.3828 85.7533 33.3828ZM85.7537 33.5144H85.7533C85.3286 33.5144 85.1133 33.2956 85.1133 32.864V26.3611C85.1133 25.9303 85.3286 25.7119 85.7533 25.7119H89.9909C90.374 25.7119 90.5602 25.9147 90.5602 26.3318C90.5602 26.749 90.374 26.9517 89.9909 26.9517H86.4275V28.8944H89.7927C90.1697 28.8944 90.3609 29.1029 90.3609 29.5143C90.3609 30.0372 90.0519 30.147 89.7927 30.147H86.4275V32.2587H90.0756C90.3392 32.2587 90.6535 32.3663 90.6535 32.8786C90.6535 33.3945 90.3392 33.5028 90.0756 33.5028L85.7537 33.5144Z" fill="#103831"/>
<path d="M94.1208 33.5607C93.728 33.5607 93.5289 33.3767 93.5289 33.0139V26.9009H91.5152C91.1717 26.9009 91.0117 26.7212 91.0117 26.3352C91.0117 25.9499 91.1672 25.7781 91.5159 25.7781H96.7264C97.0644 25.7781 97.2287 25.9593 97.2287 26.3322C97.2287 26.7076 97.0597 26.8979 96.7264 26.8979H94.7127V33.0139C94.7127 33.3767 94.5136 33.5607 94.1208 33.5607Z" fill="#103831"/>
<path d="M91.5153 25.8438C91.2123 25.8438 91.0769 25.9781 91.0769 26.3351C91.0769 26.6922 91.2098 26.835 91.5146 26.835H93.5941V33.0138C93.5941 33.3342 93.7544 33.4948 94.1202 33.4948C94.486 33.4948 94.6463 33.3348 94.6463 33.0138V26.832H96.7258C97.0196 26.832 97.1623 26.6775 97.1623 26.3321C97.1623 25.9866 97.0196 25.8438 96.7258 25.8438H91.5153ZM91.5153 25.7122H96.7258C97.1027 25.7122 97.2939 25.9207 97.2939 26.3321C97.2939 26.854 96.9849 26.9636 96.7258 26.9636H94.7779V33.0138C94.7779 33.2932 94.6638 33.6264 94.1202 33.6264C93.5766 33.6264 93.4625 33.2932 93.4625 33.0138V26.9666H91.5146C91.1315 26.9666 90.9453 26.7601 90.9453 26.3351C90.9453 25.9159 91.1317 25.7122 91.5153 25.7122Z" fill="#103831"/>
<path d="M104.343 33.488H100.4C100.008 33.488 99.817 33.2972 99.817 32.9046L99.8164 26.2809C99.8164 25.9122 100.013 25.7329 100.417 25.7329C100.822 25.7329 101.01 25.907 101.01 26.2809V32.3798H104.343C104.691 32.3798 104.846 32.5507 104.846 32.9339C104.846 33.3171 104.691 33.488 104.343 33.488Z" fill="#103831"/>
<path d="M100.416 25.7986C100.042 25.7986 99.8816 25.9512 99.8816 26.2808L99.8822 32.9045C99.8822 33.2616 100.043 33.4221 100.399 33.4221H104.342C104.646 33.4221 104.78 33.2885 104.78 32.9338C104.78 32.5792 104.647 32.4455 104.342 32.4455H100.944V26.2808C100.944 25.9512 100.791 25.7986 100.416 25.7986ZM100.416 25.667C100.854 25.667 101.075 25.8735 101.075 26.2808V32.3139H104.342C104.725 32.3139 104.912 32.5167 104.912 32.9338C104.912 33.351 104.725 33.5538 104.342 33.5538H100.399C99.9688 33.5538 99.7506 33.3353 99.7506 32.9045L99.75 26.2808C99.75 25.8735 99.9742 25.667 100.416 25.667Z" fill="#103831"/>
<path d="M106.105 33.6089C105.706 33.6089 105.512 33.4296 105.512 33.0609V26.2809C105.512 25.907 105.7 25.7329 106.105 25.7329C106.509 25.7329 106.697 25.907 106.697 26.2809V33.0609C106.697 33.4296 106.503 33.6089 106.105 33.6089Z" fill="#103831"/>
<path d="M106.104 33.543C106.479 33.543 106.63 33.383 106.63 33.0608V26.2808C106.63 25.9512 106.479 25.7986 106.104 25.7986C105.729 25.7986 105.577 25.9512 105.577 26.2808V33.0608C105.577 33.3824 105.729 33.543 106.104 33.543ZM106.104 33.6746C105.667 33.6746 105.445 33.4681 105.445 33.0608V26.2808C105.445 25.8735 105.667 25.667 106.104 25.667C106.541 25.667 106.762 25.8735 106.762 26.2808V33.0608C106.762 33.4681 106.541 33.6746 106.104 33.6746Z" fill="#103831"/>
<path d="M108.412 33.5961C108.008 33.5961 107.82 33.4235 107.82 33.0529V26.4042C107.82 26.0116 108.009 25.8208 108.396 25.8208H112.65C112.994 25.8208 113.154 25.9969 113.154 26.3749C113.154 26.7529 112.994 26.929 112.65 26.929H109.012V28.9587H112.453C112.791 28.9587 112.956 29.14 112.956 29.5128C112.956 29.8885 112.791 30.0712 112.453 30.0712H109.012V33.042C109.012 33.4148 108.816 33.5961 108.412 33.5961Z" fill="#103831"/>
<path d="M108.411 33.5302C108.785 33.5302 108.946 33.3727 108.946 33.0419V30.0053H112.453C112.756 30.0053 112.889 29.8484 112.889 29.5127C112.889 29.177 112.758 29.0244 112.453 29.0244H108.946V26.8631H112.65C112.954 26.8631 113.088 26.7203 113.088 26.3748C113.088 26.0293 112.955 25.8865 112.65 25.8865H108.395C108.047 25.8865 107.886 26.047 107.886 26.4041V33.0529C107.886 33.3837 108.037 33.5302 108.411 33.5302ZM108.411 33.6618C107.969 33.6618 107.754 33.4626 107.754 33.0529V26.4041C107.754 25.9733 107.97 25.7549 108.395 25.7549H112.65C113.033 25.7549 113.219 25.9577 113.219 26.3748C113.219 26.7919 113.033 26.9947 112.65 26.9947H109.077V28.8928H112.453C112.83 28.8928 113.021 29.1014 113.021 29.5127C113.021 30.0286 112.712 30.1369 112.453 30.1369H109.077V33.0419C109.077 33.4532 108.853 33.6618 108.411 33.6618Z" fill="#103831"/>
<path d="M114.434 33.4942H114.434H114.434C114.042 33.4942 113.859 33.3088 113.859 32.9108V26.4042C113.859 26.0062 114.042 25.8208 114.434 25.8208H118.672C119.014 25.8208 119.174 25.9969 119.174 26.3749C119.174 26.7529 119.014 26.929 118.672 26.929H115.044V29.0045H118.475C118.814 29.0045 118.979 29.1857 118.979 29.5586C118.979 29.934 118.81 30.1243 118.475 30.1243H115.044V32.3811H118.758C119.103 32.3811 119.27 32.5623 119.27 32.9352C119.27 33.308 119.103 33.4893 118.758 33.4893L114.434 33.4942Z" fill="#103831"/>
<path d="M114.433 33.4282L118.758 33.4234C119.061 33.4234 119.204 33.272 119.204 32.9351C119.204 32.5981 119.063 32.4468 118.758 32.4468H114.978V30.0584H118.475C118.778 30.0584 118.913 29.8954 118.913 29.5585C118.913 29.2216 118.78 29.0702 118.475 29.0702H114.977V26.8631H118.671C118.974 26.8631 119.108 26.7203 119.108 26.3748C119.108 26.0293 118.976 25.8865 118.671 25.8865H114.433C114.076 25.8865 113.925 26.047 113.925 26.4041V32.9106C113.925 33.2677 114.076 33.4282 114.433 33.4282ZM114.433 33.5599H114.433C114.008 33.5599 113.793 33.3414 113.793 32.9106V26.4041C113.793 25.9733 114.008 25.7549 114.433 25.7549H118.671C119.053 25.7549 119.239 25.9577 119.239 26.3748C119.239 26.7919 119.053 26.9947 118.671 26.9947H115.109V28.9386H118.475C118.853 28.9386 119.044 29.1471 119.044 29.5585C119.044 30.0804 118.735 30.19 118.475 30.19H115.11V32.3151H118.758C119.021 32.3151 119.336 32.4227 119.336 32.9351C119.336 33.4474 119.021 33.555 118.758 33.555L114.433 33.5599Z" fill="#103831"/>
</g>
</g>
</svg>
