<svg width="30" height="30" viewBox="0 0 30 30" fill="none" xmlns="http://www.w3.org/2000/svg">
<path d="M30 15C30 6.71573 23.2843 0 15 0C6.71573 0 0 6.71573 0 15C0 23.2843 6.71573 30 15 30C23.2843 30 30 23.2843 30 15Z" fill="#EEEEEE"/>
<path d="M16.1614 17.1476L16.5193 8.86523H13.5312L13.8892 17.1476H16.1614Z" fill="white"/>
<path d="M16.1142 18.715C15.8008 18.4609 15.4096 18.3223 15.0062 18.3223C14.6028 18.3223 14.2116 18.4609 13.8983 18.715C13.758 18.8436 13.646 18.9999 13.5693 19.1741C13.4927 19.3482 13.4531 19.5364 13.4531 19.7267C13.4531 19.917 13.4927 20.1051 13.5693 20.2793C13.646 20.4535 13.758 20.6098 13.8983 20.7383C14.2116 20.9924 14.6028 21.1311 15.0062 21.1311C15.4096 21.1311 15.8008 20.9924 16.1142 20.7383C16.2544 20.6098 16.3665 20.4535 16.4431 20.2793C16.5197 20.1051 16.5593 19.917 16.5593 19.7267C16.5593 19.5364 16.5197 19.3482 16.4431 19.1741C16.3665 18.9999 16.2544 18.8436 16.1142 18.715Z" fill="white"/>
</svg>
