<svg width="18" height="18" viewBox="0 0 18 18" fill="none" xmlns="http://www.w3.org/2000/svg">
<g clip-path="url(#clip0_1617_20231)">
<path d="M17.7491 4.71184C17.6546 3.92366 16.9118 3.16788 16.1346 3.06663C11.3956 2.47779 6.60347 2.47779 1.86599 3.06663C1.08818 3.16766 0.345406 3.92366 0.250922 4.71184C-0.0836405 7.60046 -0.0836405 10.4013 0.250922 13.2893C0.345406 14.0774 1.08818 14.8339 1.86599 14.9345C6.60347 15.5233 11.3958 15.5233 16.1346 14.9345C16.9118 14.8341 17.6546 14.0774 17.7491 13.2893C18.0837 10.4015 18.0837 7.60046 17.7491 4.71184ZM7.49989 12.0011V6.00091L12 9.00112L7.49989 12.0011Z" fill="#111111"/>
</g>
<defs>
<clipPath id="clip0_1617_20231">
<rect width="18" height="18" fill="white"/>
</clipPath>
</defs>
</svg>
