<svg width="18" height="18" viewBox="0 0 18 18" fill="none" xmlns="http://www.w3.org/2000/svg">
<path d="M7.04495 10.3148C6.98133 10.3148 5.58161 10.3148 4.94537 10.3148C4.60604 10.3148 4.5 10.1875 4.5 9.86942C4.5 9.0211 4.5 8.15157 4.5 7.30326C4.5 6.96393 4.62725 6.85789 4.94537 6.85789H7.04495C7.04495 6.79427 7.04495 5.5642 7.04495 4.99159C7.04495 4.14327 7.19341 3.33737 7.61757 2.59509C8.06294 1.83161 8.69917 1.32261 9.50508 1.0257C10.0353 0.834832 10.5655 0.75 11.1381 0.75H13.2165C13.5134 0.75 13.6406 0.877248 13.6406 1.17416V3.59187C13.6406 3.88878 13.5134 4.01602 13.2165 4.01602C12.6439 4.01602 12.0712 4.01602 11.4986 4.03723C10.926 4.03723 10.6291 4.31294 10.6291 4.90676C10.6079 5.543 10.6291 6.15803 10.6291 6.81547H13.0892C13.4285 6.81547 13.5558 6.94272 13.5558 7.28205V9.84821C13.5558 10.1875 13.4498 10.2936 13.0892 10.2936C12.3257 10.2936 10.6927 10.2936 10.6291 10.2936V17.2074C10.6291 17.5679 10.5231 17.6952 10.1413 17.6952C9.25058 17.6952 8.38105 17.6952 7.49032 17.6952C7.1722 17.6952 7.04495 17.5679 7.04495 17.2498C7.04495 15.023 7.04495 10.3784 7.04495 10.3148Z" fill="#111111"/>
</svg>
