<svg width="26" height="26" viewBox="0 0 26 26" fill="none" xmlns="http://www.w3.org/2000/svg">
<path fill-rule="evenodd" clip-rule="evenodd" d="M13 26C5.83172 26 0 20.1683 0 13C0 5.83172 5.83172 0 13 0C20.1683 0 26 5.83167 26 13C26 20.1683 20.1683 26 13 26ZM18.0747 9.45547C17.9373 9.31827 17.7512 9.24121 17.557 9.24121C17.3629 9.24121 17.1767 9.31827 17.0394 9.45547L11.5034 14.9911L8.96086 12.4479C8.89301 12.379 8.8122 12.3242 8.72307 12.2867C8.63395 12.2492 8.53828 12.2297 8.44159 12.2294C8.3449 12.2291 8.2491 12.2479 8.15971 12.2847C8.07032 12.3216 7.98912 12.3758 7.92079 12.4442C7.85246 12.5127 7.79836 12.5939 7.76159 12.6834C7.72483 12.7728 7.70614 12.8686 7.7066 12.9653C7.70706 13.062 7.72666 13.1576 7.76427 13.2467C7.80188 13.3358 7.85676 13.4165 7.92573 13.4843L10.9859 16.5445C11.1233 16.6818 11.3096 16.7589 11.5039 16.7589C11.6981 16.7589 11.8844 16.6818 12.0219 16.5445L18.075 10.4914C18.1431 10.4234 18.1971 10.3427 18.2339 10.2538C18.2707 10.1649 18.2897 10.0696 18.2896 9.97337C18.2896 9.87715 18.2706 9.78188 18.2337 9.69302C18.1968 9.60415 18.1428 9.52343 18.0747 9.45547Z" fill="#24AC32"/>
</svg>
