<svg width="110" height="28" viewBox="0 0 110 28" fill="none" xmlns="http://www.w3.org/2000/svg">
<mask id="mask0_1229_28278" style="mask-type:alpha" maskUnits="userSpaceOnUse" x="0" y="0" width="110" height="28">
<rect width="110" height="28" fill="#C4C4C4"/>
</mask>
<g mask="url(#mask0_1229_28278)">
<path d="M30.4453 24.3606C30.4453 24.1715 30.5507 24.0733 30.761 24.0733C30.9712 24.0733 31.0767 24.1715 31.0767 24.3606V24.4772C31.0767 25.4826 31.8476 26.1302 33.2846 26.1216C34.6874 26.1216 35.3535 25.5735 35.432 24.7921C35.511 23.9745 34.9672 23.6325 34.234 23.3993L31.9985 22.6719C31.0605 22.365 30.5873 21.8451 30.6046 20.92C30.6232 19.7709 31.5601 19.1602 33.1995 19.1602C35.1546 19.1602 35.8734 20.0042 35.8734 21.0557V21.1723C35.8734 21.3337 35.7854 21.4418 35.5674 21.4418C35.3391 21.4418 35.2517 21.3337 35.2517 21.1723V21.0999C35.2517 20.273 34.4538 19.7347 33.2355 19.7347C32.0782 19.7347 31.2282 20.0754 31.2192 20.9194C31.2108 21.629 31.6655 21.9353 32.3232 22.16L34.6814 22.923C35.7506 23.2735 36.11 23.9198 36.0591 24.7823C35.9885 25.9062 35.1822 26.7048 33.3145 26.7048C30.9131 26.7048 30.4483 25.3844 30.4483 24.6122L30.4453 24.3606Z" fill="#103831" stroke="#103831" stroke-width="0.2"/>
<path d="M37.1875 19.5508C37.1875 19.2813 37.3073 19.1647 37.5553 19.1647C37.7464 19.141 37.9242 19.2685 37.968 19.4605L40.615 25.605L43.2619 19.4605C43.3584 19.2371 43.4554 19.1647 43.6657 19.1647C43.7699 19.147 43.8761 19.1819 43.9509 19.2585C44.0256 19.3351 44.0597 19.4439 44.0424 19.5508V26.414C44.0424 26.6123 43.946 26.7099 43.7364 26.7099C43.5267 26.7099 43.4291 26.6123 43.4291 26.414V22.6856C43.4291 21.9582 43.4381 21.1136 43.5081 20.4218H43.4722L40.9828 26.2532C40.9292 26.4102 40.776 26.5077 40.615 26.4871C40.4552 26.502 40.3051 26.4066 40.2472 26.2532L37.7577 20.4218H37.7218C37.7925 21.1136 37.8009 21.9564 37.8009 22.6856V26.4134C37.8009 26.6117 37.7044 26.7093 37.4948 26.7093C37.2851 26.7093 37.1875 26.6117 37.1875 26.4134V19.5508Z" fill="#103831" stroke="#103831" stroke-width="0.2"/>
<path fill-rule="evenodd" clip-rule="evenodd" d="M50.7841 26.6901C51.0033 26.6281 51.074 26.5114 50.9859 26.3132L48.1718 19.4118C48.1018 19.2215 48.0514 19.1602 47.8562 19.1602C47.6609 19.1602 47.6106 19.224 47.5411 19.4118L44.7096 26.2868C44.6732 26.3571 44.6698 26.4406 44.7004 26.5138C44.731 26.587 44.7923 26.6421 44.8672 26.6637C45.069 26.7539 45.2014 26.7171 45.2613 26.5648L45.9987 24.7589H49.6885L50.3899 26.4654C50.4684 26.6637 50.5648 26.7521 50.7841 26.6901ZM49.4404 24.1572H46.2411L47.0941 22.091C47.296 21.6147 47.6105 20.8689 47.8387 20.2495H47.8644C48.0594 20.7604 48.3024 21.3564 48.4901 21.8168C48.5302 21.9151 48.5678 22.0072 48.6018 22.091L49.4404 24.1572Z" fill="#103831"/>
<path d="M50.9859 26.3132L50.8933 26.3509L50.8946 26.3538L50.9859 26.3132ZM50.7841 26.6901L50.7569 26.5938H50.7569L50.7841 26.6901ZM48.1718 19.4118L48.078 19.4464L48.0792 19.4496L48.1718 19.4118ZM47.5411 19.4118L47.6336 19.4499L47.6349 19.4465L47.5411 19.4118ZM44.7096 26.2868L44.7988 26.3329L44.8021 26.3249L44.7096 26.2868ZM44.7004 26.5138L44.7927 26.4753L44.7927 26.4753L44.7004 26.5138ZM44.8672 26.6637L44.9084 26.5715L44.8948 26.5676L44.8672 26.6637ZM45.2613 26.5648L45.1687 26.527L45.1683 26.5282L45.2613 26.5648ZM45.9987 24.7589V24.6589H45.9315L45.9061 24.7211L45.9987 24.7589ZM49.6885 24.7589L49.781 24.7209L49.7555 24.6589H49.6885V24.7589ZM50.3899 26.4654L50.4829 26.4286L50.4824 26.4274L50.3899 26.4654ZM46.2411 24.1572L46.1487 24.119L46.0917 24.2572H46.2411V24.1572ZM49.4404 24.1572V24.2572H49.5889L49.5331 24.1196L49.4404 24.1572ZM47.0941 22.091L47.002 22.052L47.0017 22.0529L47.0941 22.091ZM47.8387 20.2495V20.1495H47.7689L47.7448 20.2149L47.8387 20.2495ZM47.8644 20.2495L47.9579 20.2139L47.9333 20.1495H47.8644V20.2495ZM48.4901 21.8168L48.3975 21.8546V21.8546L48.4901 21.8168ZM48.6018 22.091L48.6945 22.0534L48.6944 22.0534L48.6018 22.091ZM50.8946 26.3538C50.9326 26.4395 50.9251 26.482 50.9127 26.5044C50.8981 26.5308 50.8578 26.5653 50.7569 26.5938L50.8113 26.7863C50.9296 26.7528 51.0342 26.698 51.0878 26.6011C51.1436 26.5001 51.1273 26.3851 51.0773 26.2726L50.8946 26.3538ZM48.0792 19.4496L50.8933 26.3509L51.0785 26.2754L48.2644 19.3741L48.0792 19.4496ZM47.8562 19.2602C47.9456 19.2602 47.9774 19.2748 47.996 19.2906C48.0196 19.3108 48.0425 19.3499 48.078 19.4464L48.2657 19.3773C48.2312 19.2835 48.1939 19.1967 48.126 19.1386C48.053 19.0762 47.962 19.0602 47.8562 19.0602V19.2602ZM47.6349 19.4465C47.6701 19.3512 47.6929 19.3119 47.7168 19.2912C47.7355 19.2751 47.7675 19.2602 47.8562 19.2602V19.0602C47.7496 19.0602 47.6588 19.0771 47.5861 19.1399C47.5186 19.1981 47.4815 19.2846 47.4473 19.3771L47.6349 19.4465ZM44.8021 26.3249L47.6336 19.4499L47.4486 19.3737L44.6172 26.2487L44.8021 26.3249ZM44.7927 26.4753C44.7735 26.4293 44.7757 26.3768 44.7984 26.3327L44.6208 26.2408C44.5708 26.3375 44.5662 26.4519 44.6082 26.5524L44.7927 26.4753ZM44.8948 26.5676C44.8498 26.5546 44.8119 26.5211 44.7927 26.4753L44.6082 26.5524C44.6502 26.653 44.7349 26.7296 44.8395 26.7598L44.8948 26.5676ZM45.1683 26.5282C45.1472 26.5818 45.1204 26.6012 45.0925 26.6083C45.0582 26.6172 44.9995 26.6133 44.908 26.5724L44.8264 26.755C44.9367 26.8043 45.0451 26.8271 45.1424 26.802C45.2462 26.7753 45.3156 26.7001 45.3544 26.6015L45.1683 26.5282ZM45.9061 24.7211L45.1687 26.527L45.3539 26.6026L46.0913 24.7967L45.9061 24.7211ZM49.6885 24.6589H45.9987V24.8589H49.6885V24.6589ZM50.4824 26.4274L49.781 24.7209L49.596 24.797L50.2974 26.5034L50.4824 26.4274ZM50.7569 26.5938C50.6622 26.6206 50.6162 26.609 50.588 26.591C50.5545 26.5696 50.5204 26.5234 50.4829 26.4286L50.297 26.5022C50.3379 26.6057 50.3913 26.7028 50.4804 26.7596C50.5749 26.8199 50.6867 26.8215 50.8113 26.7863L50.7569 26.5938ZM46.2411 24.2572H49.4404V24.0572H46.2411V24.2572ZM47.0017 22.0529L46.1487 24.119L46.3336 24.1953L47.1866 22.1292L47.0017 22.0529ZM47.7448 20.2149C47.5176 20.8317 47.204 21.5754 47.002 22.052L47.1862 22.13C47.3879 21.654 47.7033 20.906 47.9325 20.2841L47.7448 20.2149ZM47.8644 20.1495H47.8387V20.3495H47.8644V20.1495ZM48.5827 21.779C48.3949 21.3184 48.1524 20.7235 47.9579 20.2139L47.771 20.2852C47.9665 20.7973 48.2099 21.3944 48.3975 21.8546L48.5827 21.779ZM48.6944 22.0534C48.6604 21.9695 48.6228 21.8773 48.5827 21.779L48.3975 21.8546C48.4376 21.9529 48.4751 22.0449 48.5091 22.1286L48.6944 22.0534ZM49.5331 24.1196L48.6945 22.0534L48.5091 22.1286L49.3477 24.1948L49.5331 24.1196Z" fill="#103831"/>
<path fill-rule="evenodd" clip-rule="evenodd" d="M57.3999 26.5704C57.5934 26.4715 57.6365 26.3549 57.5401 26.1579L56.0797 23.2894C56.8279 23.1591 57.3581 22.4693 57.3065 21.6934V20.7856C57.3065 19.8354 56.747 19.1602 55.4496 19.1602H52.566C52.3031 19.1602 52.1719 19.2768 52.1719 19.5641V26.3469C52.1719 26.5188 52.2503 26.6164 52.478 26.6164C52.7056 26.6164 52.7936 26.5163 52.7936 26.3095V23.3539H55.4232L56.9806 26.4267C57.0074 26.5119 57.072 26.5789 57.1548 26.6073C57.2376 26.6356 57.3286 26.6219 57.3999 26.5704ZM52.7963 22.753V19.7624L55.4432 19.7655C56.2327 19.7655 56.6712 20.0792 56.6712 20.96V21.5254C56.6712 22.4038 56.2327 22.753 55.4432 22.753H52.7963Z" fill="#103831"/>
<path d="M57.5401 26.1579L57.6299 26.1139L57.6292 26.1125L57.5401 26.1579ZM57.3999 26.5704L57.3544 26.4813L57.3476 26.4848L57.3414 26.4893L57.3999 26.5704ZM56.0797 23.2894L56.0626 23.1909L55.9292 23.2141L55.9906 23.3348L56.0797 23.2894ZM57.3065 21.6934H57.2063L57.2067 21.7001L57.3065 21.6934ZM52.7936 23.3539V23.2539H52.6936V23.3539H52.7936ZM55.4232 23.3539L55.5124 23.3087L55.4847 23.2539H55.4232V23.3539ZM56.9806 26.4267L57.076 26.3968L57.0736 26.3889L57.0698 26.3815L56.9806 26.4267ZM52.7963 19.7624L52.7964 19.6624L52.6963 19.6623V19.7624H52.7963ZM52.7963 22.753H52.6963V22.853H52.7963V22.753ZM55.4432 19.7655L55.4431 19.8655H55.4432V19.7655ZM57.4503 26.2018C57.4938 26.2908 57.4943 26.3392 57.4842 26.3682C57.4739 26.398 57.4427 26.4362 57.3544 26.4813L57.4454 26.6594C57.5506 26.6057 57.6377 26.5362 57.6732 26.4337C57.709 26.3304 57.6828 26.2219 57.6299 26.1139L57.4503 26.2018ZM55.9906 23.3348L57.451 26.2032L57.6292 26.1125L56.1689 23.244L55.9906 23.3348ZM57.2067 21.7001C57.2551 22.4268 56.7585 23.0697 56.0626 23.1909L56.0969 23.3879C56.8973 23.2486 57.4612 22.5118 57.4063 21.6868L57.2067 21.7001ZM57.2065 20.7856V21.6934H57.4065V20.7856H57.2065ZM55.4496 19.2602C56.0818 19.2602 56.5179 19.4245 56.7956 19.689C57.0728 19.9529 57.2065 20.33 57.2065 20.7856H57.4065C57.4065 20.291 57.2605 19.8554 56.9335 19.5441C56.6072 19.2334 56.1148 19.0602 55.4496 19.0602V19.2602ZM52.566 19.2602H55.4496V19.0602H52.566V19.2602ZM52.2719 19.5641C52.2719 19.4335 52.3019 19.3639 52.3407 19.3254C52.3797 19.2868 52.447 19.2602 52.566 19.2602V19.0602C52.422 19.0602 52.2923 19.0918 52.1999 19.1833C52.1075 19.275 52.0719 19.4074 52.0719 19.5641H52.2719ZM52.2719 26.3469V19.5641H52.0719V26.3469H52.2719ZM52.478 26.5164C52.3757 26.5164 52.3299 26.4941 52.3086 26.4738C52.2886 26.4546 52.2719 26.4196 52.2719 26.3469H52.0719C52.0719 26.4462 52.0944 26.5458 52.1705 26.6184C52.2454 26.6899 52.3526 26.7164 52.478 26.7164V26.5164ZM52.6936 26.3095C52.6936 26.4014 52.6737 26.4464 52.6502 26.4701C52.6267 26.4937 52.5797 26.5164 52.478 26.5164V26.7164C52.6038 26.7164 52.7147 26.689 52.7922 26.6109C52.8695 26.5329 52.8936 26.4244 52.8936 26.3095H52.6936ZM52.6936 23.3539V26.3095H52.8936V23.3539H52.6936ZM55.4232 23.2539H52.7936V23.4539H55.4232V23.2539ZM57.0698 26.3815L55.5124 23.3087L55.334 23.3991L56.8914 26.4719L57.0698 26.3815ZM57.1872 26.5127C57.1352 26.4948 57.0935 26.4523 57.076 26.3968L56.8852 26.4567C56.9213 26.5714 57.0088 26.663 57.1224 26.7019L57.1872 26.5127ZM57.3414 26.4893C57.2962 26.522 57.2391 26.5304 57.1872 26.5127L57.1224 26.7019C57.2361 26.7408 57.3611 26.7219 57.4585 26.6514L57.3414 26.4893ZM52.6963 19.7624V22.753H52.8963V19.7624H52.6963ZM55.4434 19.6655L52.7964 19.6624L52.7961 19.8624L55.4431 19.8655L55.4434 19.6655ZM56.7712 20.96C56.7712 20.5044 56.6577 20.1731 56.4204 19.9583C56.1852 19.7454 55.8482 19.6655 55.4432 19.6655V19.8655C55.8277 19.8655 56.1048 19.9424 56.2862 20.1066C56.4655 20.2689 56.5712 20.5348 56.5712 20.96H56.7712ZM56.7712 21.5254V20.96H56.5712V21.5254H56.7712ZM55.4432 22.853C55.8505 22.853 56.1874 22.7632 56.422 22.5412C56.6576 22.3183 56.7712 21.9799 56.7712 21.5254H56.5712C56.5712 21.9493 56.4655 22.2247 56.2845 22.396C56.1025 22.5682 55.8255 22.653 55.4432 22.653V22.853ZM52.7963 22.853H55.4432V22.653H52.7963V22.853Z" fill="#103831"/>
<path d="M57.6692 19.1602H63.0075C63.1824 19.1602 63.2615 19.2314 63.2615 19.456C63.2615 19.6807 63.1824 19.7531 63.0075 19.7531H60.6409V26.3101C60.6409 26.517 60.5702 26.617 60.3336 26.617C60.097 26.617 60.0275 26.5194 60.0275 26.3101V19.7531H57.6692C57.4847 19.7531 57.4141 19.6807 57.4141 19.456C57.4141 19.2314 57.4847 19.1602 57.6692 19.1602Z" fill="#103831" stroke="#103831" stroke-width="0.2"/>
<path fill-rule="evenodd" clip-rule="evenodd" d="M67.329 19.0449C66.8732 19.0449 66.6797 19.1972 66.6797 19.7091V26.3385C66.6797 26.5718 66.8276 26.7332 67.1966 26.7332C67.5656 26.7332 67.7231 26.5724 67.7231 26.2483V23.6352H70.0191C71.492 23.6352 72.1402 22.7451 72.1402 21.7126V20.9674C72.1402 19.9338 71.492 19.0449 70.0191 19.0449H67.329ZM70.0213 22.6191H67.7338V20.0588H70.0213C70.5652 20.0588 71.0918 20.3197 71.0918 21.2362V21.443C71.0918 22.3589 70.5652 22.6191 70.0213 22.6191Z" fill="#103831"/>
<path d="M67.7231 23.6352V23.5352H67.6231V23.6352H67.7231ZM67.7338 22.6191H67.6338V22.7191H67.7338V22.6191ZM67.7338 20.0588V19.9588H67.6338V20.0588H67.7338ZM66.7797 19.7091C66.7797 19.4612 66.8275 19.33 66.903 19.2569C66.9791 19.1831 67.1072 19.1449 67.329 19.1449V18.9449C67.0949 18.9449 66.8984 18.9829 66.7638 19.1132C66.6287 19.2441 66.5797 19.4451 66.5797 19.7091H66.7797ZM66.7797 26.3385V19.7091H66.5797V26.3385H66.7797ZM67.1966 26.6332C67.0247 26.6332 66.9222 26.5953 66.8639 26.5466C66.8087 26.5004 66.7797 26.433 66.7797 26.3385H66.5797C66.5797 26.4773 66.6246 26.6072 66.7356 26.7C66.8436 26.7903 66.9996 26.8332 67.1966 26.8332V26.6332ZM67.6231 26.2483C67.6231 26.3956 67.5874 26.485 67.5296 26.5395C67.4706 26.5953 67.3691 26.6332 67.1966 26.6332V26.8332C67.3932 26.8332 67.5549 26.7907 67.6669 26.685C67.7801 26.5781 67.8231 26.425 67.8231 26.2483H67.6231ZM67.6231 23.6352V26.2483H67.8231V23.6352H67.6231ZM70.0191 23.5352H67.7231V23.7352H70.0191V23.5352ZM72.0402 21.7126C72.0402 22.2083 71.8848 22.6617 71.5607 22.9909C71.2373 23.3194 70.735 23.5352 70.0191 23.5352V23.7352C70.7762 23.7352 71.3344 23.5059 71.7032 23.1312C72.0714 22.7573 72.2402 22.2495 72.2402 21.7126H72.0402ZM72.0402 20.9674V21.7126H72.2402V20.9674H72.0402ZM70.0191 19.1449C70.735 19.1449 71.2373 19.3604 71.5607 19.6887C71.8848 20.0177 72.0402 20.4712 72.0402 20.9674H72.2402C72.2402 20.43 72.0715 19.9222 71.7032 19.5484C71.3343 19.1739 70.7762 18.9449 70.0191 18.9449V19.1449ZM67.329 19.1449H70.0191V18.9449H67.329V19.1449ZM67.7338 22.7191H70.0213V22.5191H67.7338V22.7191ZM67.6338 20.0588V22.6191H67.8338V20.0588H67.6338ZM70.0213 19.9588H67.7338V20.1588H70.0213V19.9588ZM71.1918 21.2362C71.1918 20.7586 71.054 20.4335 70.8274 20.2295C70.6029 20.0273 70.3075 19.9588 70.0213 19.9588V20.1588C70.2791 20.1588 70.5189 20.2208 70.6936 20.3781C70.8663 20.5336 70.9918 20.7973 70.9918 21.2362H71.1918ZM71.1918 21.443V21.2362H70.9918V21.443H71.1918ZM70.0213 22.7191C70.3074 22.7191 70.6028 22.6508 70.8274 22.4489C71.054 22.2451 71.1918 21.9203 71.1918 21.443H70.9918C70.9918 21.8816 70.8663 22.1449 70.6936 22.3002C70.5189 22.4573 70.2791 22.5191 70.0213 22.5191V22.7191Z" fill="#103831"/>
<path d="M73.1714 26.627C72.821 26.627 72.6719 26.4643 72.6719 26.1052V19.5655C72.6719 19.2064 72.8204 19.0449 73.1714 19.0449H77.3351C77.6346 19.0449 77.7652 19.1886 77.7652 19.536C77.7652 19.8834 77.634 20.0271 77.3351 20.0271H73.7045V22.2455H77.1404C77.4399 22.2455 77.5693 22.3977 77.5693 22.7365C77.5693 23.0754 77.4381 23.2405 77.1404 23.2405H73.7045V25.6289H77.4183C77.7178 25.6289 77.8568 25.7824 77.8568 26.12C77.8568 26.4576 77.7166 26.6153 77.4183 26.6153L73.1714 26.627Z" fill="#103831" stroke="#103831" stroke-width="0.2"/>
<path d="M79.0947 19.0449H84.2144C84.5031 19.0449 84.6433 19.1886 84.6433 19.536C84.6433 19.8834 84.5031 20.0387 84.2144 20.0387H82.1712V26.2556C82.1712 26.5785 82.0137 26.7393 81.6543 26.7393C81.2949 26.7393 81.1373 26.5779 81.1373 26.2556V20.0418H79.0941C78.7946 20.0418 78.6641 19.8982 78.6641 19.5391C78.6641 19.18 78.797 19.0449 79.0947 19.0449V19.0449Z" fill="#103831" stroke="#103831" stroke-width="0.2"/>
<path d="M87.3906 19.4849C87.3906 19.1535 87.5482 19 87.9159 19C88.2837 19 88.4341 19.1535 88.4341 19.4849V25.6847H91.7735C92.073 25.6847 92.2036 25.8191 92.2036 26.1757C92.2036 26.5324 92.0724 26.6668 91.7735 26.6668H87.8992C87.5488 26.6668 87.3912 26.5053 87.3912 26.1463L87.3906 19.4849Z" fill="#103831" stroke="#103831" stroke-width="0.2"/>
<path d="M92.6328 26.3034V19.4849C92.6328 19.1535 92.7826 19 93.151 19C93.5193 19 93.6679 19.1535 93.6679 19.4849V26.3034C93.6679 26.6275 93.5193 26.7883 93.151 26.7883C92.7826 26.7883 92.6328 26.6269 92.6328 26.3034Z" fill="#103831" stroke="#103831" stroke-width="0.2"/>
<path d="M94.8828 26.207V19.5205C94.8828 19.1614 95.0415 19 95.3836 19H99.564C99.8635 19 99.9941 19.1436 99.9941 19.4911C99.9941 19.8385 99.8629 19.9821 99.564 19.9821H95.9245V22.1557H99.3705C99.67 22.1557 99.7994 22.3092 99.7994 22.6468C99.7994 22.9844 99.6682 23.1422 99.3705 23.1422H95.9245V26.196C95.9245 26.5287 95.7669 26.687 95.3992 26.687C95.0314 26.687 94.8828 26.5397 94.8828 26.207H94.8828Z" fill="#103831" stroke="#103831" stroke-width="0.2"/>
<path d="M101.375 26.5845C101.024 26.5845 100.875 26.4231 100.875 26.064V19.5205C100.875 19.1614 101.024 19 101.375 19H105.539C105.838 19 105.968 19.1436 105.968 19.4911C105.968 19.8385 105.837 19.9821 105.539 19.9821H101.909V22.2018H105.346C105.645 22.2018 105.776 22.354 105.776 22.6928C105.776 23.0317 105.644 23.1956 105.346 23.1956H101.91V25.5975H105.624C105.923 25.5975 106.062 25.7497 106.062 26.0886C106.062 26.4274 105.922 26.5796 105.624 26.5796L101.375 26.5845Z" fill="#103831" stroke="#103831" stroke-width="0.2"/>
<mask id="mask1_1229_28278" style="mask-type:alpha" maskUnits="userSpaceOnUse" x="0" y="0" width="28" height="28">
<rect width="27.5" height="28" fill="#C4C4C4"/>
</mask>
<g mask="url(#mask1_1229_28278)">
<path d="M5.21438 21.5821L5.21437 21.5818C5.21438 21.5554 5.22187 21.532 5.23996 21.5156C5.25772 21.4994 5.28242 21.4929 5.31052 21.4929C5.33862 21.4929 5.36332 21.4994 5.38107 21.5156C5.39917 21.532 5.40666 21.5554 5.40666 21.5818V21.6098C5.40666 21.7248 5.45067 21.8178 5.53512 21.8825C5.62024 21.9476 5.74849 21.9854 5.91912 21.9844L5.91924 21.9844C6.08617 21.9844 6.20657 21.9519 6.28696 21.8985C6.36665 21.8456 6.40844 21.7713 6.41732 21.6834L6.43722 21.6854M5.21438 21.5821L5.33908 21.0348C5.39869 21.107 5.48772 21.1582 5.60284 21.1957L5.60287 21.1957L6.14209 21.3702L6.14221 21.3702C6.2299 21.398 6.30311 21.4313 6.35213 21.4799C6.40003 21.5274 6.42631 21.5908 6.41731 21.6834L6.43722 21.6854M5.21438 21.5821L5.2151 21.6422H5.2351M5.21438 21.5821L5.60903 21.1766M6.43722 21.6854C6.45629 21.4892 6.3251 21.4071 6.14825 21.3512L5.60903 21.1766M6.43722 21.6854C6.41829 21.8729 6.25762 22.0044 5.91924 22.0044C5.57262 22.0065 5.38666 21.8511 5.38666 21.6098V21.5818C5.38666 21.5365 5.36123 21.5129 5.31052 21.5129C5.2598 21.5129 5.23438 21.5365 5.23438 21.5818L5.2351 21.6422M5.60903 21.1766C5.38276 21.103 5.26862 20.9782 5.27281 20.7563M5.60903 21.1766L5.25281 20.7559L5.27281 20.7563M5.2351 21.6422L5.2151 21.6425L5.2151 21.6423C5.21512 21.7387 5.24427 21.8697 5.34929 21.9768C5.45456 22.0841 5.63322 22.1643 5.92646 22.1643C6.15422 22.1643 6.32036 22.1159 6.43215 22.0307C6.54453 21.945 6.59962 21.824 6.60845 21.6843L6.60846 21.6842C6.61478 21.5777 6.59571 21.4823 6.54006 21.4025C6.48448 21.3227 6.39407 21.2608 6.26238 21.2179L6.2623 21.2178L5.69362 21.0348M5.2351 21.6422C5.2351 21.8275 5.34722 22.1443 5.92646 22.1443C6.37697 22.1443 6.57144 21.9527 6.58849 21.683C6.60078 21.4761 6.51408 21.321 6.25618 21.2369L5.68734 21.0538M5.68734 21.0538L5.69377 21.0349C5.69372 21.0348 5.69367 21.0348 5.69362 21.0348M5.68734 21.0538L5.69346 21.0348L5.69362 21.0348M5.68734 21.0538C5.52869 20.9999 5.41903 20.9264 5.42105 20.7561C5.42322 20.5536 5.62824 20.4718 5.90739 20.4718C6.20127 20.4718 6.39373 20.601 6.39373 20.7994V20.8168C6.39373 20.8555 6.41482 20.8815 6.46987 20.8815C6.52246 20.8815 6.5437 20.8555 6.5437 20.8168V20.7888C6.5437 20.5365 6.37032 20.334 5.89872 20.334C5.50326 20.334 5.27729 20.4805 5.27281 20.7563M5.69362 21.0348C5.61518 21.0081 5.55167 20.9775 5.50799 20.9344C5.46517 20.8921 5.4401 20.8365 5.44105 20.7564L5.44105 20.7563C5.44204 20.6635 5.48873 20.5986 5.56971 20.5557C5.65196 20.5122 5.76922 20.4918 5.90739 20.4918C6.05171 20.4918 6.16902 20.5236 6.2496 20.5778C6.32958 20.6316 6.37373 20.7076 6.37373 20.7994V20.8168C6.37373 20.8397 6.38004 20.862 6.39752 20.8783C6.41476 20.8943 6.43955 20.9015 6.46987 20.9015C6.49919 20.9015 6.52341 20.8942 6.54031 20.8781C6.55736 20.8619 6.5637 20.8397 6.5637 20.8168V20.7888C6.5637 20.6578 6.51845 20.5378 6.41059 20.4512C6.3034 20.3651 6.13699 20.314 5.89872 20.314C5.699 20.314 5.53914 20.3509 5.42804 20.4251C5.31587 20.5 5.25516 20.6118 5.25281 20.7559C5.25281 20.7559 5.25281 20.7559 5.25281 20.7559L5.27281 20.7563" fill="#103831" stroke="#103831" stroke-width="0.04"/>
<path d="M7.67831 21.8282L7.05888 20.3978C7.04545 20.3434 6.99451 20.3069 6.93908 20.3131C6.90692 20.3133 6.8789 20.321 6.85917 20.3412C6.8393 20.3616 6.83156 20.3909 6.83156 20.4258V22.0725C6.83156 22.0993 6.83822 22.1232 6.85576 22.1402C6.87317 22.157 6.89769 22.1635 6.92568 22.1635C6.95367 22.1635 6.97816 22.157 6.99551 22.1402C7.01297 22.1232 7.01952 22.0992 7.01952 22.0725V21.178C7.01952 21.036 7.01819 20.8755 7.00852 20.7307L7.57106 22.0415C7.58799 22.0856 7.63125 22.1136 7.67797 22.1102C7.72539 22.1152 7.76979 22.0866 7.78569 22.0413L8.34816 20.7306C8.33852 20.8755 8.3371 21.0363 8.3371 21.178V22.0726C8.3371 22.0994 8.34376 22.1234 8.3613 22.1403C8.37871 22.1572 8.40324 22.1636 8.43123 22.1636C8.45921 22.1636 8.4837 22.1572 8.50105 22.1403C8.51851 22.1233 8.52506 22.0994 8.52506 22.0726V20.4273C8.52961 20.396 8.51938 20.3642 8.49725 20.3416C8.4751 20.319 8.44368 20.3084 8.41256 20.3131C8.38571 20.3133 8.36287 20.3181 8.34338 20.3324C8.32397 20.3466 8.31055 20.3683 8.29845 20.3961L8.29844 20.3962L7.67831 21.8282Z" fill="#103831" stroke="#103831" stroke-width="0.04"/>
<mask id="path-20-outside-1_1229_28278" maskUnits="userSpaceOnUse" x="7.71875" y="19.334" width="3" height="3" fill="black">
<rect fill="white" x="7.71875" y="19.334" width="3" height="3"/>
<path fill-rule="evenodd" clip-rule="evenodd" d="M10.1912 22.1408C10.2441 22.1259 10.2611 22.0979 10.2399 22.0504L9.5611 20.3944C9.5442 20.3487 9.53206 20.334 9.48496 20.334C9.43785 20.334 9.42572 20.3493 9.40896 20.3944L8.72597 22.044C8.71719 22.0609 8.71638 22.0809 8.72376 22.0985C8.73114 22.1161 8.74592 22.1293 8.76397 22.1345C8.81266 22.1561 8.8446 22.1473 8.85904 22.1108L9.03691 21.6774H9.92694L10.0961 22.0869C10.1151 22.1345 10.1383 22.1557 10.1912 22.1408ZM9.86834 21.5329H9.09665L9.30239 21.0371C9.35108 20.9228 9.42694 20.7438 9.48199 20.5952H9.4882C9.53523 20.7178 9.59385 20.8608 9.63913 20.9713C9.6488 20.9949 9.65785 21.017 9.66606 21.0371L9.86834 21.5329Z"/>
</mask>
<path fill-rule="evenodd" clip-rule="evenodd" d="M10.1912 22.1408C10.2441 22.1259 10.2611 22.0979 10.2399 22.0504L9.5611 20.3944C9.5442 20.3487 9.53206 20.334 9.48496 20.334C9.43785 20.334 9.42572 20.3493 9.40896 20.3944L8.72597 22.044C8.71719 22.0609 8.71638 22.0809 8.72376 22.0985C8.73114 22.1161 8.74592 22.1293 8.76397 22.1345C8.81266 22.1561 8.8446 22.1473 8.85904 22.1108L9.03691 21.6774H9.92694L10.0961 22.0869C10.1151 22.1345 10.1383 22.1557 10.1912 22.1408ZM9.86834 21.5329H9.09665L9.30239 21.0371C9.35108 20.9228 9.42694 20.7438 9.48199 20.5952H9.4882C9.53523 20.7178 9.59385 20.8608 9.63913 20.9713C9.6488 20.9949 9.65785 21.017 9.66606 21.0371L9.86834 21.5329Z" fill="#103831"/>
<path d="M10.2399 22.0504L10.2029 22.0655L10.2034 22.0667L10.2399 22.0504ZM10.1912 22.1408L10.202 22.1793L10.1912 22.1408ZM9.5611 20.3944L9.52357 20.4083L9.52409 20.4095L9.5611 20.3944ZM9.40896 20.3944L9.44594 20.4097L9.44645 20.4083L9.40896 20.3944ZM8.72597 22.044L8.76159 22.0626L8.76293 22.0593L8.72597 22.044ZM8.72376 22.0985L8.76063 22.083L8.76063 22.083L8.72376 22.0985ZM8.76397 22.1345L8.78038 22.0976L8.77498 22.096L8.76397 22.1345ZM8.85904 22.1108L8.82204 22.0956L8.82185 22.096L8.85904 22.1108ZM9.03691 21.6774V21.6374H9.01009L8.9999 21.6622L9.03691 21.6774ZM9.92694 21.6774L9.96391 21.6622L9.95369 21.6374H9.92694V21.6774ZM10.0961 22.0869L10.1333 22.0721L10.1331 22.0716L10.0961 22.0869ZM9.09665 21.5329L9.0597 21.5175L9.03674 21.5729H9.09665V21.5329ZM9.86834 21.5329V21.5729H9.92786L9.90538 21.5178L9.86834 21.5329ZM9.30239 21.0371L9.26559 21.0214L9.26545 21.0218L9.30239 21.0371ZM9.48199 20.5952V20.5552H9.45415L9.44448 20.5813L9.48199 20.5952ZM9.4882 20.5952L9.52555 20.5809L9.5157 20.5552H9.4882V20.5952ZM9.63913 20.9713L9.67614 20.9561L9.67614 20.9561L9.63913 20.9713ZM9.66606 21.0371L9.7031 21.022L9.7031 21.022L9.66606 21.0371ZM10.2034 22.0667C10.2074 22.0756 10.2086 22.0815 10.2088 22.0848C10.2089 22.0877 10.2084 22.0884 10.2084 22.0884C10.208 22.0891 10.2034 22.0958 10.1804 22.1023L10.202 22.1793C10.2319 22.1709 10.2623 22.1562 10.2783 22.1273C10.2953 22.0967 10.2894 22.0632 10.2764 22.0341L10.2034 22.0667ZM9.52409 20.4095L10.2029 22.0655L10.2769 22.0352L9.59811 20.3792L9.52409 20.4095ZM9.48496 20.374C9.50526 20.374 9.50828 20.3774 9.50843 20.3775C9.51058 20.3793 9.51494 20.3849 9.52359 20.4083L9.59861 20.3805C9.59036 20.3582 9.5802 20.3335 9.56027 20.3166C9.53836 20.2979 9.51176 20.294 9.48496 20.294V20.374ZM9.44645 20.4083C9.45503 20.3852 9.45937 20.3796 9.46164 20.3776C9.46186 20.3774 9.46494 20.374 9.48496 20.374V20.294C9.45787 20.294 9.43133 20.2982 9.40951 20.3169C9.38975 20.3339 9.37964 20.3584 9.37147 20.3804L9.44645 20.4083ZM8.76293 22.0593L9.44591 20.4097L9.372 20.3791L8.68902 22.0287L8.76293 22.0593ZM8.76063 22.083C8.75785 22.0764 8.75817 22.0688 8.76146 22.0625L8.69049 22.0256C8.67621 22.053 8.6749 22.0855 8.68688 22.114L8.76063 22.083ZM8.77498 22.096C8.76879 22.0942 8.7634 22.0896 8.76063 22.083L8.68688 22.114C8.69888 22.1426 8.72305 22.1644 8.75296 22.1729L8.77498 22.096ZM8.82185 22.096C8.81987 22.1011 8.81799 22.1033 8.81705 22.1042C8.81631 22.105 8.81565 22.1054 8.81442 22.1057C8.81107 22.1065 8.80083 22.1071 8.78023 22.0979L8.74772 22.171C8.77581 22.1835 8.80588 22.1905 8.83428 22.1832C8.86527 22.1752 8.88543 22.1528 8.89624 22.1255L8.82185 22.096ZM8.9999 21.6622L8.82204 22.0956L8.89605 22.1259L9.07391 21.6926L8.9999 21.6622ZM9.92694 21.6374H9.03691V21.7174H9.92694V21.6374ZM10.1331 22.0716L9.96391 21.6622L9.88997 21.6927L10.0592 22.1022L10.1331 22.0716ZM10.1804 22.1023C10.1599 22.1081 10.1539 22.1045 10.1524 22.1035C10.1487 22.1012 10.1421 22.0941 10.1333 22.0721L10.059 22.1017C10.0691 22.1272 10.0836 22.1546 10.1095 22.171C10.1375 22.1888 10.1696 22.1884 10.202 22.1793L10.1804 22.1023ZM9.09665 21.5729H9.86834V21.4929H9.09665V21.5729ZM9.26545 21.0218L9.0597 21.5175L9.13359 21.5482L9.33934 21.0524L9.26545 21.0218ZM9.44448 20.5813C9.38982 20.7289 9.31434 20.907 9.26559 21.0214L9.33919 21.0528C9.38783 20.9386 9.46406 20.7588 9.5195 20.6091L9.44448 20.5813ZM9.4882 20.5552H9.48199V20.6352H9.4882V20.5552ZM9.67614 20.9561C9.63082 20.8455 9.57239 20.703 9.52555 20.5809L9.45086 20.6095C9.49808 20.7326 9.55687 20.8761 9.60212 20.9865L9.67614 20.9561ZM9.7031 21.022C9.69487 21.0018 9.6858 20.9797 9.67614 20.9561L9.60212 20.9865C9.61179 21.0101 9.62083 21.0321 9.62903 21.0522L9.7031 21.022ZM9.90538 21.5178L9.7031 21.022L9.62903 21.0522L9.83131 21.548L9.90538 21.5178Z" fill="#103831" mask="url(#path-20-outside-1_1229_28278)"/>
<mask id="path-22-outside-2_1229_28278" maskUnits="userSpaceOnUse" x="9.45312" y="19.3555" width="3" height="3" fill="black">
<rect fill="white" x="9.45312" y="19.3555" width="3" height="3"/>
<path fill-rule="evenodd" clip-rule="evenodd" d="M11.7142 22.1336C11.7609 22.1099 11.7713 22.0819 11.748 22.0346L11.3957 21.3463C11.5762 21.315 11.7041 21.1495 11.6917 20.9633V20.7455C11.6917 20.5175 11.5567 20.3555 11.2438 20.3555H10.5482C10.4848 20.3555 10.4531 20.3835 10.4531 20.4524V22.08C10.4531 22.1212 10.4721 22.1446 10.527 22.1446C10.5819 22.1446 10.6031 22.1206 10.6031 22.071V21.3618H11.2374L11.6131 22.0991C11.6195 22.1195 11.6351 22.1356 11.6551 22.1424C11.675 22.1492 11.697 22.1459 11.7142 22.1336ZM10.6027 21.2176V20.5L11.2412 20.5007C11.4317 20.5007 11.5374 20.576 11.5374 20.7874V20.923C11.5374 21.1338 11.4317 21.2176 11.2412 21.2176H10.6027Z"/>
</mask>
<path fill-rule="evenodd" clip-rule="evenodd" d="M11.7142 22.1336C11.7609 22.1099 11.7713 22.0819 11.748 22.0346L11.3957 21.3463C11.5762 21.315 11.7041 21.1495 11.6917 20.9633V20.7455C11.6917 20.5175 11.5567 20.3555 11.2438 20.3555H10.5482C10.4848 20.3555 10.4531 20.3835 10.4531 20.4524V22.08C10.4531 22.1212 10.4721 22.1446 10.527 22.1446C10.5819 22.1446 10.6031 22.1206 10.6031 22.071V21.3618H11.2374L11.6131 22.0991C11.6195 22.1195 11.6351 22.1356 11.6551 22.1424C11.675 22.1492 11.697 22.1459 11.7142 22.1336ZM10.6027 21.2176V20.5L11.2412 20.5007C11.4317 20.5007 11.5374 20.576 11.5374 20.7874V20.923C11.5374 21.1338 11.4317 21.2176 11.2412 21.2176H10.6027Z" fill="#103831"/>
<path d="M11.748 22.0346L11.7839 22.0169L11.7836 22.0164L11.748 22.0346ZM11.7142 22.1336L11.6959 22.0975L11.6908 22.1011L11.7142 22.1336ZM11.3957 21.3463L11.3889 21.3069L11.3354 21.3162L11.3601 21.3645L11.3957 21.3463ZM11.6917 20.9633H11.6516L11.6517 20.966L11.6917 20.9633ZM10.6031 21.3618V21.3218H10.5631V21.3618H10.6031ZM11.2374 21.3618L11.273 21.3436L11.2619 21.3218H11.2374V21.3618ZM11.6131 22.0991L11.6517 22.0869L11.6487 22.0809L11.6131 22.0991ZM10.6027 20.5L10.6028 20.46L10.5627 20.46V20.5H10.6027ZM10.6027 21.2176H10.5627V21.2576H10.6027V21.2176ZM11.2412 20.5007L11.2412 20.5407H11.2412V20.5007ZM11.7121 22.0522C11.7219 22.0721 11.7199 22.0788 11.7196 22.0798C11.7191 22.081 11.7161 22.0877 11.6961 22.0979L11.7323 22.1692C11.759 22.1557 11.7845 22.1365 11.7951 22.1061C11.8058 22.0753 11.7974 22.0444 11.7839 22.0169L11.7121 22.0522ZM11.3601 21.3645L11.7124 22.0528L11.7836 22.0164L11.4314 21.3281L11.3601 21.3645ZM11.6517 20.966C11.6629 21.1324 11.5486 21.2792 11.3889 21.3069L11.4026 21.3857C11.6038 21.3509 11.7453 21.1667 11.7316 20.9607L11.6517 20.966ZM11.6517 20.7455V20.9633H11.7317V20.7455H11.6517ZM11.2438 20.3955C11.3937 20.3955 11.4944 20.4342 11.5576 20.494C11.6204 20.5536 11.6517 20.6394 11.6517 20.7455H11.7317C11.7317 20.6236 11.6954 20.5144 11.6126 20.4359C11.53 20.3577 11.4068 20.3155 11.2438 20.3155V20.3955ZM10.5482 20.3955H11.2438V20.3155H10.5482V20.3955ZM10.4931 20.4524C10.4931 20.4232 10.4999 20.4116 10.505 20.4066C10.5101 20.4015 10.5214 20.3955 10.5482 20.3955V20.3155C10.5115 20.3155 10.4753 20.3234 10.4488 20.3496C10.4222 20.3758 10.4131 20.4126 10.4131 20.4524H10.4931ZM10.4931 22.08V20.4524H10.4131V22.08H10.4931ZM10.527 22.1046C10.5041 22.1046 10.4979 22.0996 10.497 22.0987C10.4967 22.0984 10.4931 22.0952 10.4931 22.08H10.4131C10.4131 22.1059 10.4191 22.1351 10.4419 22.1568C10.4642 22.178 10.4949 22.1846 10.527 22.1846V22.1046ZM10.5631 22.071C10.5631 22.0911 10.5586 22.0968 10.5573 22.0982C10.5559 22.0995 10.5496 22.1046 10.527 22.1046V22.1846C10.5592 22.1846 10.591 22.1777 10.6139 22.1546C10.6369 22.1316 10.6431 22.1004 10.6431 22.071H10.5631ZM10.5631 21.3618V22.071H10.6431V21.3618H10.5631ZM11.2374 21.3218H10.6031V21.4018H11.2374V21.3218ZM11.6487 22.0809L11.273 21.3436L11.2018 21.3799L11.5774 22.1173L11.6487 22.0809ZM11.668 22.1046C11.6603 22.1019 11.6539 22.0956 11.6512 22.0871L11.5749 22.1111C11.5851 22.1435 11.6099 22.1693 11.6422 22.1803L11.668 22.1046ZM11.6908 22.1011C11.6841 22.106 11.6756 22.1072 11.668 22.1046L11.6422 22.1803C11.6744 22.1913 11.7099 22.1859 11.7375 22.166L11.6908 22.1011ZM10.5627 20.5V21.2176H10.6427V20.5H10.5627ZM11.2413 20.4607L10.6028 20.46L10.6027 20.54L11.2412 20.5407L11.2413 20.4607ZM11.5774 20.7874C11.5774 20.6756 11.5494 20.5908 11.4875 20.5351C11.4265 20.4801 11.3405 20.4607 11.2412 20.4607V20.5407C11.3324 20.5407 11.3945 20.559 11.434 20.5945C11.4726 20.6293 11.4974 20.6878 11.4974 20.7874H11.5774ZM11.5774 20.923V20.7874H11.4974V20.923H11.5774ZM11.2412 21.2576C11.3414 21.2576 11.4274 21.2357 11.4882 21.1785C11.5494 21.1208 11.5774 21.0346 11.5774 20.923H11.4974C11.4974 21.0222 11.4726 21.0833 11.4333 21.1202C11.3936 21.1576 11.3315 21.1776 11.2412 21.1776V21.2576ZM10.6027 21.2576H11.2412V21.1776H10.6027V21.2576Z" fill="#103831" mask="url(#path-22-outside-2_1229_28278)"/>
<path d="M13.1851 20.3355H11.8975C11.8735 20.3355 11.8507 20.3399 11.8351 20.3574C11.8201 20.3742 11.8159 20.3985 11.8159 20.4265C11.8159 20.4544 11.8201 20.4787 11.8351 20.4956C11.8507 20.5132 11.8734 20.5178 11.8975 20.5178H12.4463V22.0711C12.4463 22.0975 12.4505 22.1225 12.4672 22.1404C12.4842 22.1586 12.5096 22.1648 12.5402 22.1648C12.5708 22.1648 12.5962 22.1584 12.6132 22.1402C12.63 22.1223 12.6343 22.0973 12.6343 22.0711V20.5178H13.1851C13.2084 20.5178 13.2307 20.5131 13.2464 20.4958C13.2616 20.479 13.2664 20.4549 13.2664 20.4265C13.2664 20.3981 13.2616 20.3739 13.2464 20.3573C13.2307 20.3401 13.2083 20.3355 13.1851 20.3355Z" fill="#103831" stroke="#103831" stroke-width="0.04"/>
<mask id="path-25-outside-3_1229_28278" maskUnits="userSpaceOnUse" x="4.23438" y="21.8691" width="3" height="3" fill="black">
<rect fill="white" x="4.23438" y="21.8691" width="3" height="3"/>
<path fill-rule="evenodd" clip-rule="evenodd" d="M5.391 22.8691C5.28104 22.8691 5.23438 22.9057 5.23438 23.0285V24.6193C5.23438 24.6752 5.27006 24.714 5.35907 24.714C5.44807 24.714 5.48607 24.6754 5.48607 24.5976V23.9706H6.03988C6.39517 23.9706 6.55151 23.757 6.55151 23.5093V23.3305C6.55151 23.0824 6.39517 22.8691 6.03988 22.8691H5.391ZM6.03937 23.7267H5.48758V23.1123H6.03937C6.17057 23.1123 6.29757 23.1749 6.29757 23.3948V23.4444C6.29757 23.6642 6.17057 23.7267 6.03937 23.7267Z"/>
</mask>
<path fill-rule="evenodd" clip-rule="evenodd" d="M5.391 22.8691C5.28104 22.8691 5.23438 22.9057 5.23438 23.0285V24.6193C5.23438 24.6752 5.27006 24.714 5.35907 24.714C5.44807 24.714 5.48607 24.6754 5.48607 24.5976V23.9706H6.03988C6.39517 23.9706 6.55151 23.757 6.55151 23.5093V23.3305C6.55151 23.0824 6.39517 22.8691 6.03988 22.8691H5.391ZM6.03937 23.7267H5.48758V23.1123H6.03937C6.17057 23.1123 6.29757 23.1749 6.29757 23.3948V23.4444C6.29757 23.6642 6.17057 23.7267 6.03937 23.7267Z" fill="#103831"/>
<path d="M5.48607 23.9706V23.9306H5.44607V23.9706H5.48607ZM5.48758 23.7267H5.44758V23.7667H5.48758V23.7267ZM5.48758 23.1123V23.0723H5.44758V23.1123H5.48758ZM5.27437 23.0285C5.27437 22.9704 5.28578 22.9445 5.29921 22.9316C5.31294 22.9183 5.33844 22.9091 5.391 22.9091V22.8291C5.3336 22.8291 5.28079 22.8382 5.2437 22.874C5.2063 22.91 5.19438 22.9638 5.19438 23.0285H5.27437ZM5.27437 24.6193V23.0285H5.19438V24.6193H5.27437ZM5.35907 24.674C5.31955 24.674 5.29903 24.6653 5.28893 24.6568C5.28007 24.6495 5.27437 24.6383 5.27437 24.6193H5.19438C5.19438 24.6562 5.20653 24.6924 5.23776 24.7183C5.26775 24.7433 5.30958 24.754 5.35907 24.754V24.674ZM5.44607 24.5976C5.44607 24.6305 5.43805 24.6469 5.42856 24.6558C5.41852 24.6652 5.39879 24.674 5.35907 24.674V24.754C5.40835 24.754 5.45212 24.7434 5.48333 24.7141C5.51509 24.6843 5.52607 24.6424 5.52607 24.5976H5.44607ZM5.44607 23.9706V24.5976H5.52607V23.9706H5.44607ZM6.03988 23.9306H5.48607V24.0106H6.03988V23.9306ZM6.51151 23.5093C6.51151 23.6248 6.47514 23.7293 6.4005 23.8047C6.32611 23.8799 6.20934 23.9306 6.03988 23.9306V24.0106C6.22572 24.0106 6.36476 23.9545 6.45736 23.861C6.54971 23.7677 6.59151 23.6414 6.59151 23.5093H6.51151ZM6.51151 23.3305V23.5093H6.59151V23.3305H6.51151ZM6.03988 22.9091C6.20936 22.9091 6.32612 22.9598 6.4005 23.0349C6.47514 23.1103 6.51151 23.2147 6.51151 23.3305H6.59151C6.59151 23.1982 6.54971 23.0719 6.45735 22.9786C6.36475 22.8851 6.2257 22.8291 6.03988 22.8291V22.9091ZM5.391 22.9091H6.03988V22.8291H5.391V22.9091ZM5.48758 23.7667H6.03937V23.6867H5.48758V23.7667ZM5.44758 23.1123V23.7267H5.52758V23.1123H5.44758ZM6.03937 23.0723H5.48758V23.1523H6.03937V23.0723ZM6.33757 23.3948C6.33757 23.2771 6.30332 23.1941 6.24436 23.1413C6.18625 23.0892 6.11061 23.0723 6.03937 23.0723V23.1523C6.09934 23.1523 6.15279 23.1667 6.19098 23.2009C6.22832 23.2343 6.25757 23.2926 6.25757 23.3948H6.33757ZM6.33757 23.4444V23.3948H6.25757V23.4444H6.33757ZM6.03937 23.7667C6.11059 23.7667 6.18622 23.7498 6.24434 23.6978C6.30332 23.645 6.33757 23.5621 6.33757 23.4444H6.25757C6.25757 23.5465 6.22832 23.6048 6.191 23.6381C6.15282 23.6723 6.09936 23.6867 6.03937 23.6867V23.7667Z" fill="#103831" mask="url(#path-25-outside-3_1229_28278)"/>
<path d="M6.88618 24.7065L6.88613 24.7065C6.8412 24.7065 6.80461 24.6962 6.7797 24.67C6.75499 24.6441 6.74563 24.6066 6.74563 24.5613V22.9921C6.74563 22.9468 6.75495 22.9094 6.77966 22.8835C6.80457 22.8574 6.84117 22.8472 6.88613 22.8472H7.89045C7.92941 22.8472 7.9621 22.8565 7.98436 22.8816C8.00611 22.9061 8.01419 22.9415 8.01419 22.985C8.01419 23.0285 8.00607 23.064 7.9843 23.0885C7.96203 23.1135 7.92935 23.1229 7.89045 23.1229H7.03472V23.6152H7.84349C7.88276 23.6152 7.91531 23.6251 7.93738 23.6504C7.9589 23.6751 7.96694 23.7105 7.96694 23.753C7.96694 23.7956 7.95875 23.8315 7.93745 23.8568C7.91552 23.8829 7.88305 23.8939 7.84349 23.8939H7.03472V24.427H7.91053C7.94985 24.427 7.98277 24.4371 8.00536 24.4622C8.02755 24.4868 8.03629 24.5222 8.03629 24.5649C8.03629 24.6076 8.02745 24.6431 8.00533 24.668C7.98278 24.6933 7.9499 24.7037 7.91058 24.7037L6.88618 24.7065ZM6.88618 24.7065L7.91053 24.7037L6.88618 24.7065Z" fill="#103831" stroke="#103831" stroke-width="0.04"/>
<path d="M8.23232 22.8481C8.20249 22.8508 8.17705 22.8603 8.15859 22.8808C8.13662 22.9052 8.12844 22.941 8.12844 22.9858C8.12844 23.0305 8.13646 23.0667 8.15814 23.0915C8.18042 23.1171 8.21321 23.1264 8.25218 23.1264H8.72502V24.5974C8.72502 24.6391 8.73527 24.6744 8.76107 24.6989C8.78666 24.7233 8.82383 24.7335 8.86971 24.7335C8.91557 24.7335 8.95275 24.7233 8.97834 24.699C9.00415 24.6745 9.0144 24.6391 9.0144 24.5974V23.1257H9.48724C9.52554 23.1257 9.55793 23.1153 9.58018 23.0897C9.6019 23.0647 9.61069 23.0288 9.61069 22.985C9.61069 22.9412 9.60192 22.9058 9.57994 22.8815C9.55753 22.8566 9.52511 22.8472 9.48724 22.8472H8.25232H8.23232V22.8481Z" fill="#103831" stroke="#103831" stroke-width="0.04"/>
<path d="M10.3611 22.8374C10.3145 22.8374 10.2768 22.847 10.2508 22.8711C10.2246 22.8956 10.2144 22.9312 10.2144 22.9738L10.2145 24.5722C10.2145 24.6177 10.2245 24.6552 10.2498 24.681C10.2752 24.7068 10.3121 24.7171 10.357 24.7171H11.2916C11.3301 24.7171 11.3629 24.7085 11.3853 24.6837C11.4073 24.6594 11.4153 24.6237 11.4153 24.5793C11.4153 24.5348 11.4073 24.4992 11.3854 24.4749C11.363 24.45 11.3302 24.4414 11.2916 24.4414H10.5061V22.9738C10.5061 22.9314 10.4964 22.8958 10.4706 22.8713C10.4451 22.847 10.4076 22.8374 10.3611 22.8374Z" fill="#103831" stroke="#103831" stroke-width="0.04"/>
<path d="M11.5659 22.9738V24.6099C11.5659 24.6514 11.5756 24.6869 11.6012 24.7116C11.6267 24.7361 11.6641 24.7462 11.7109 24.7462C11.7577 24.7462 11.7951 24.7362 11.8205 24.7116C11.8461 24.6869 11.8556 24.6515 11.8556 24.6099V22.9738C11.8556 22.9315 11.8461 22.8959 11.8204 22.8713C11.7949 22.847 11.7575 22.8374 11.7109 22.8374C11.6643 22.8374 11.6269 22.847 11.6013 22.8713C11.5755 22.8958 11.5659 22.9314 11.5659 22.9738Z" fill="#103831" stroke="#103831" stroke-width="0.04"/>
<path d="M12.1136 24.6263C12.1163 24.6599 12.1265 24.6881 12.1481 24.7084C12.1737 24.7324 12.211 24.7415 12.2574 24.7415C12.304 24.7415 12.3418 24.7316 12.3677 24.707C12.3939 24.6823 12.4041 24.6464 12.4041 24.6036V23.8909H13.2153C13.2546 23.8909 13.2871 23.8804 13.3091 23.8549C13.3306 23.83 13.3388 23.7945 13.3388 23.752C13.3388 23.7096 13.3307 23.6743 13.3092 23.6496C13.2871 23.6243 13.2546 23.6142 13.2153 23.6142H12.4041V23.1326H13.262C13.3009 23.1326 13.3336 23.1233 13.3558 23.0983C13.3776 23.0738 13.3857 23.0383 13.3857 22.9948C13.3857 22.9513 13.3776 22.9158 13.3559 22.8913C13.3336 22.8663 13.3009 22.857 13.262 22.857H12.2536C12.2096 22.857 12.1731 22.8673 12.1479 22.8932C12.1229 22.9189 12.1128 22.9563 12.1128 23.0019V24.6063V24.6263H12.1136Z" fill="#103831" stroke="#103831" stroke-width="0.04"/>
<path d="M13.6908 24.7169H13.6908C13.6459 24.7169 13.6093 24.7066 13.5844 24.6806C13.5597 24.6547 13.5503 24.6173 13.5503 24.572V23.0019C13.5503 22.9566 13.5596 22.9191 13.5844 22.8933C13.6093 22.8672 13.6459 22.857 13.6908 22.857H14.6953C14.7342 22.857 14.7669 22.8663 14.7891 22.8914C14.8107 22.9159 14.8187 22.9513 14.8187 22.9948C14.8187 23.0383 14.8106 23.0738 14.7889 23.0982C14.7667 23.1233 14.7341 23.1326 14.6953 23.1326H13.8398V23.6252H14.6488C14.688 23.6252 14.7206 23.6352 14.7428 23.6605C14.7644 23.6851 14.7725 23.7205 14.7725 23.7631C14.7725 23.8057 14.7642 23.8415 14.7428 23.8668C14.7208 23.8928 14.6883 23.9037 14.6488 23.9037H13.84V24.44H14.7158C14.7551 24.44 14.788 24.45 14.8106 24.4751C14.8328 24.4997 14.8416 24.535 14.8416 24.5779C14.8416 24.6207 14.8327 24.6561 14.8105 24.6807C14.7879 24.7057 14.755 24.7157 14.7158 24.7157L13.6908 24.7169ZM13.6908 24.7169L14.7158 24.7157L13.6908 24.7169Z" fill="#103831" stroke="#103831" stroke-width="0.04"/>
<mask id="path-33-outside-4_1229_28278" maskUnits="userSpaceOnUse" x="2.30469" y="1.24023" width="23" height="27" fill="black">
<rect fill="white" x="2.30469" y="1.24023" width="23" height="27"/>
<path fill-rule="evenodd" clip-rule="evenodd" d="M3.45452 27.0669H24.0547C24.1373 27.067 24.2044 26.9988 24.2047 26.9146V13.1081C24.2047 13.0691 24.1899 13.0315 24.1635 13.0032L14.2019 2.28783C14.1746 2.25813 14.1366 2.24097 14.0966 2.24025C14.0568 2.23967 14.0184 2.255 13.9895 2.28296L3.35049 12.7467C3.32123 12.7754 3.30469 12.815 3.30469 12.8564V26.9141C3.30469 26.9985 3.37177 27.0669 3.45452 27.0669ZM23.9065 26.7617H3.60629L3.60585 12.9212L14.0899 2.60962L23.9065 13.1689V26.7617Z"/>
</mask>
<path fill-rule="evenodd" clip-rule="evenodd" d="M3.45452 27.0669H24.0547C24.1373 27.067 24.2044 26.9988 24.2047 26.9146V13.1081C24.2047 13.0691 24.1899 13.0315 24.1635 13.0032L14.2019 2.28783C14.1746 2.25813 14.1366 2.24097 14.0966 2.24025C14.0568 2.23967 14.0184 2.255 13.9895 2.28296L3.35049 12.7467C3.32123 12.7754 3.30469 12.815 3.30469 12.8564V26.9141C3.30469 26.9985 3.37177 27.0669 3.45452 27.0669ZM23.9065 26.7617H3.60629L3.60585 12.9212L14.0899 2.60962L23.9065 13.1689V26.7617Z" fill="#103831"/>
<path d="M24.0547 27.0669L24.0551 26.6669H24.0547V27.0669ZM24.2047 26.9146L24.6047 26.9157V26.9146H24.2047ZM24.2047 13.1081H24.6047V13.1081L24.2047 13.1081ZM24.1635 13.0032L23.8705 13.2756L23.8713 13.2764L24.1635 13.0032ZM14.2019 2.28783L13.9078 2.55891L13.909 2.56018L14.2019 2.28783ZM14.0966 2.24025L14.1038 1.84031L14.1025 1.84029L14.0966 2.24025ZM13.9895 2.28296L13.7111 1.99582L13.7091 1.99778L13.9895 2.28296ZM3.35049 12.7467L3.63062 13.0322L3.63097 13.0318L3.35049 12.7467ZM3.60629 26.7617L3.20629 26.7617L3.2063 27.1617H3.60629V26.7617ZM23.9065 26.7617V27.1617H24.3065V26.7617H23.9065ZM3.60585 12.9212L3.32536 12.636L3.20585 12.7535L3.20585 12.9212L3.60585 12.9212ZM14.0899 2.60962L14.3828 2.33727L14.1027 2.03595L13.8094 2.32444L14.0899 2.60962ZM23.9065 13.1689H24.3065V13.0117L24.1995 12.8966L23.9065 13.1689ZM24.0547 26.6669H3.45452V27.4669H24.0547V26.6669ZM23.8047 26.9135C23.8051 26.7843 23.9099 26.6667 24.0551 26.6669L24.0543 27.4669C24.3648 27.4672 24.6038 27.2133 24.6047 26.9157L23.8047 26.9135ZM23.8047 13.1081V26.9146H24.6047V13.1081H23.8047ZM23.8713 13.2764C23.8278 13.2299 23.8047 13.1695 23.8047 13.1081L24.6047 13.1081C24.6047 12.9686 24.5521 12.8332 24.4557 12.73L23.8713 13.2764ZM13.909 2.56018L23.8705 13.2756L24.4565 12.7309L14.4949 2.01548L13.909 2.56018ZM14.0894 2.64019C14.0189 2.63892 13.9536 2.6086 13.9078 2.55891L14.4961 2.01674C14.3955 1.90765 14.2543 1.84301 14.1038 1.84031L14.0894 2.64019ZM14.268 2.5701C14.2216 2.61517 14.158 2.6412 14.0907 2.64021L14.1025 1.84029C13.9556 1.83813 13.8152 1.89483 13.7111 1.99583L14.268 2.5701ZM3.63097 13.0318L14.27 2.56815L13.7091 1.99778L3.07001 12.4615L3.63097 13.0318ZM3.70469 12.8564C3.70469 12.9212 3.67887 12.9849 3.63062 13.0322L3.07036 12.4611C2.96358 12.5659 2.90469 12.7088 2.90469 12.8564H3.70469ZM3.70469 26.9141V12.8564H2.90469V26.9141H3.70469ZM3.45452 26.6669C3.59989 26.6669 3.70469 26.7849 3.70469 26.9141H2.90469C2.90469 27.2121 3.14365 27.4669 3.45452 27.4669V26.6669ZM3.60629 27.1617H23.9065V26.3617H3.60629V27.1617ZM3.20585 12.9212L3.20629 26.7617L4.00629 26.7616L4.00585 12.9212L3.20585 12.9212ZM13.8094 2.32444L3.32536 12.636L3.88634 13.2063L14.3704 2.8948L13.8094 2.32444ZM24.1995 12.8966L14.3828 2.33727L13.7969 2.88197L23.6136 13.4413L24.1995 12.8966ZM24.3065 26.7617V13.1689H23.5065V26.7617H24.3065Z" fill="#103831" mask="url(#path-33-outside-4_1229_28278)"/>
</g>
</g>
</svg>
