<svg width="30" height="30" viewBox="0 0 30 30" fill="none" xmlns="http://www.w3.org/2000/svg">
<path d="M15 0C6.72867 0 0 6.72867 0 15C0 23.2713 6.72867 30 15 30C23.2713 30 30 23.2713 30 15C30 6.72867 23.2713 0 15 0Z" fill="#34B039"/>
<path d="M21.9388 11.8216L13.8137 19.9464C13.5699 20.1902 13.25 20.3129 12.93 20.3129C12.61 20.3129 12.29 20.1902 12.0463 19.9464L7.98386 15.884C7.49496 15.3954 7.49496 14.6053 7.98386 14.1166C8.47252 13.6277 9.26239 13.6277 9.75128 14.1166L12.93 17.2953L20.1714 10.0542C20.66 9.56528 21.4499 9.56528 21.9388 10.0542C22.4274 10.5428 22.4274 11.3327 21.9388 11.8216Z" fill="#FAFAFA"/>
</svg>
