<svg width="15" height="15" viewBox="0 0 15 15" fill="none" xmlns="http://www.w3.org/2000/svg">
<g clip-path="url(#clip0_1873_22506)">
<path d="M6.60568 0C2.96341 0 0 2.96341 0 6.60568C0 10.2482 2.96341 13.2114 6.60568 13.2114C10.2482 13.2114 13.2114 10.2482 13.2114 6.60568C13.2114 2.96341 10.2482 0 6.60568 0ZM6.60568 11.9919C3.63577 11.9919 1.21951 9.57562 1.21951 6.60571C1.21951 3.6358 3.63577 1.21951 6.60568 1.21951C9.57559 1.21951 11.9919 3.63577 11.9919 6.60568C11.9919 9.57559 9.57559 11.9919 6.60568 11.9919Z" fill="#AAAAAA"/>
<path d="M14.8181 13.9598L11.3221 10.4638C11.0839 10.2256 10.6981 10.2256 10.4599 10.4638C10.2217 10.7018 10.2217 11.088 10.4599 11.326L13.9558 14.822C14.0749 14.9411 14.2309 15.0006 14.387 15.0006C14.5428 15.0006 14.6989 14.9411 14.8181 14.822C15.0563 14.584 15.0563 14.1978 14.8181 13.9598Z" fill="#AAAAAA"/>
</g>
<defs>
<clipPath id="clip0_1873_22506">
<rect width="15" height="15" fill="white"/>
</clipPath>
</defs>
</svg>
