<svg width="176" height="58" viewBox="0 0 176 58" fill="none" xmlns="http://www.w3.org/2000/svg">
<rect x="1" y="1" width="174" height="56" rx="4" fill="white" fill-opacity="0.1" stroke="white" stroke-opacity="0.5"/>
<g clip-path="url(#clip0_296_7153)">
<path d="M39.5759 29.453C38.9157 26.1305 42.0693 24.1818 42.0693 24.1818C42.0693 24.1818 40.8406 22.4042 38.7756 21.9469C36.7117 21.4886 35.6787 22.0612 34.6477 22.4907C33.6157 22.9212 33.1008 22.9212 33.1008 22.9212C31.6115 22.9212 30.5228 21.3444 27.6854 22.0622C25.7306 22.5556 23.6728 24.8121 23.301 27.5054C22.9292 30.1997 23.7316 33.6376 25.2785 36.302C26.8254 38.9685 28.4012 39.9706 29.5197 39.9994C30.6382 40.0272 31.7546 39.1981 33.1008 38.9963C34.4479 38.7964 35.277 39.4845 36.5984 39.8563C37.9146 40.2271 38.376 39.8831 39.892 38.5936C41.4122 37.3041 42.7882 33.6057 42.7882 33.6057C42.7882 33.6057 40.2361 32.7776 39.5759 29.453Z" fill="white"/>
<path d="M36.6513 19.7973C38.1138 18.3071 37.6184 16 37.6184 16C37.6184 16 35.5648 16.3605 34.1888 17.7921C32.8138 19.2247 33.0414 21.4874 33.0414 21.4874C33.0414 21.4874 35.1888 21.2866 36.6513 19.7973Z" fill="white"/>
</g>
<path d="M64.3906 41L65.5508 37.6426H70.5078L71.668 41H73.7246L69.1367 28.2734H66.9043L62.334 41H64.3906ZM66.1045 36.0254L67.9766 30.5938H68.0645L69.9453 36.0254H66.1045ZM75.1836 44.5859H77.0645V39.5059H77.1699C77.5127 40.1299 78.1982 41.1846 79.9297 41.1934C82.2412 41.1846 83.9199 39.3301 83.9199 36.2539C83.9199 33.1426 82.2236 31.332 79.9121 31.332C78.1455 31.332 77.5039 32.4043 77.1699 33.002H77.0117V31.4551H75.1836V44.5859ZM77.0293 36.2188C77.0293 34.2324 77.8906 32.9229 79.5078 32.9316C81.1865 32.9229 82.0215 34.3379 82.0215 36.2188C82.0215 38.1348 81.1602 39.585 79.5078 39.5938C77.9082 39.585 77.0293 38.2227 77.0293 36.2188ZM85.7832 44.5859H87.6641V39.5059H87.7695C88.1123 40.1299 88.7979 41.1846 90.5293 41.1934C92.8408 41.1846 94.5195 39.3301 94.5195 36.2539C94.5195 33.1426 92.8232 31.332 90.5117 31.332C88.7451 31.332 88.1035 32.4043 87.7695 33.002H87.6113V31.4551H85.7832V44.5859ZM87.6289 36.2188C87.6289 34.2324 88.4902 32.9229 90.1074 32.9316C91.7861 32.9229 92.6211 34.3379 92.6211 36.2188C92.6211 38.1348 91.7598 39.585 90.1074 39.5938C88.5078 39.585 87.6289 38.2227 87.6289 36.2188ZM107.861 31.6309H109.742C109.681 29.5742 107.879 28.0977 105.295 28.0977C102.72 28.0977 100.769 29.5566 100.76 31.7539C100.769 33.5293 102.034 34.5664 104.082 35.1289L105.594 35.5332C106.938 35.8936 107.993 36.3418 108.002 37.4492C107.993 38.6973 106.815 39.5146 105.189 39.5234C103.704 39.5146 102.474 38.8555 102.359 37.4668H100.426C100.549 39.7871 102.342 41.2109 105.189 41.2109C108.195 41.2109 109.909 39.6377 109.918 37.4844C109.909 35.1816 107.87 34.2939 106.244 33.8984L105.014 33.5645C104.003 33.3271 102.693 32.8525 102.693 31.6484C102.702 30.5674 103.687 29.7676 105.242 29.7676C106.701 29.7676 107.738 30.4443 107.861 31.6309ZM116.299 31.4551H114.348V29.1699H112.484V31.4551H111.078V32.9492H112.484V38.5742C112.467 40.3145 113.794 41.123 115.262 41.123C115.78 41.123 116.185 41.0879 116.439 41.0527V39.418C116.176 39.4443 115.763 39.4707 115.49 39.4707C114.884 39.4619 114.356 39.2686 114.348 38.1875V32.9492H116.299V31.4551ZM122.064 41.1934C124.754 41.1934 126.512 39.2246 126.512 36.2715C126.512 33.3008 124.754 31.332 122.064 31.332C119.357 31.332 117.591 33.3008 117.6 36.2715C117.591 39.2246 119.357 41.1934 122.064 41.1934ZM119.48 36.2715C119.48 34.4434 120.315 32.8877 122.064 32.8789C123.787 32.8877 124.613 34.4434 124.613 36.2715C124.613 38.0908 123.787 39.6289 122.064 39.6289C120.315 39.6289 119.48 38.0908 119.48 36.2715ZM128.357 41H130.238V35.1816C130.238 33.9336 131.205 33.0283 132.506 33.0371C132.893 33.0283 133.332 33.1074 133.49 33.1426V31.3496C133.297 31.332 132.928 31.3057 132.699 31.3145C131.583 31.3057 130.625 31.9473 130.273 32.9668H130.168V31.4551H128.357V41ZM138.693 41.1934C140.794 41.1934 142.262 40.1562 142.684 38.6094H140.785C140.469 39.1895 139.774 39.6465 138.711 39.6465C137.146 39.6465 136.074 38.6182 136.021 36.7988H142.807V36.1309C142.807 32.6768 140.741 31.332 138.57 31.332C135.907 31.332 134.149 33.3535 134.158 36.2891C134.149 39.251 135.881 41.1934 138.693 41.1934ZM136.03 35.3926C136.109 34.0479 137.085 32.8701 138.588 32.8789C140.021 32.8701 140.961 33.9424 140.961 35.3926H136.03Z" fill="white"/>
<path d="M65.0176 22C67.1709 22 68.4111 20.6621 68.416 18.4551C68.4111 16.2529 67.1709 14.9297 65.0859 14.9297H62.7227V22H65.0176ZM63.7969 21.0625V15.8672H65.0176C66.5605 15.8672 67.3516 16.79 67.3516 18.4551C67.3516 20.125 66.5605 21.0576 64.959 21.0625H63.7969ZM71.7852 22.1074C73.2793 22.1074 74.2559 21.0137 74.2559 19.373C74.2559 17.7227 73.2793 16.6289 71.7852 16.6289C70.2812 16.6289 69.2998 17.7227 69.3047 19.373C69.2998 21.0137 70.2812 22.1074 71.7852 22.1074ZM70.3496 19.373C70.3496 18.3574 70.8135 17.4932 71.7852 17.4883C72.7422 17.4932 73.2012 18.3574 73.2012 19.373C73.2012 20.3838 72.7422 21.2383 71.7852 21.2383C70.8135 21.2383 70.3496 20.3838 70.3496 19.373ZM76.2578 22H77.332L78.3965 18.1816H78.4746L79.5488 22H80.6133L82.166 16.6973H81.0918L80.0664 20.5645H80.0078L78.9824 16.6973H77.9082L76.873 20.584H76.8145L75.7793 16.6973H74.7051L76.2578 22ZM84.0703 18.8555C84.0703 18.0107 84.583 17.5273 85.3008 17.5273C86.0039 17.5273 86.4189 17.9863 86.4238 18.7578V22H87.459V18.6309C87.4639 17.3174 86.7412 16.6289 85.6523 16.6289C84.8613 16.6289 84.3389 16.9951 84.0898 17.5664H84.0312V16.6973H83.0254V22H84.0703V18.8555ZM89.7734 14.9297H88.7285V22H89.7734V14.9297ZM93.2891 22.1074C94.7832 22.1074 95.7598 21.0137 95.7598 19.373C95.7598 17.7227 94.7832 16.6289 93.2891 16.6289C91.7852 16.6289 90.8037 17.7227 90.8086 19.373C90.8037 21.0137 91.7852 22.1074 93.2891 22.1074ZM91.8535 19.373C91.8535 18.3574 92.3174 17.4932 93.2891 17.4883C94.2461 17.4932 94.7051 18.3574 94.7051 19.373C94.7051 20.3838 94.2461 21.2383 93.2891 21.2383C92.3174 21.2383 91.8535 20.3838 91.8535 19.373ZM96.541 20.5059C96.5361 21.541 97.3223 22.1172 98.3281 22.1172C99.207 22.1172 99.6953 21.6729 99.9004 21.2773H99.9395V22H100.955V18.4746C100.95 16.9365 99.7197 16.6289 98.875 16.6289C97.6201 16.6289 96.7998 17.2637 96.707 18.1426H97.7422C97.8496 17.752 98.2207 17.4688 98.8359 17.4688C99.5439 17.4688 99.915 17.8154 99.9102 18.416L99.915 18.8408C99.6709 18.8506 98.875 18.8945 98.5234 18.9141C97.5664 18.9824 96.5361 19.2949 96.541 20.5059ZM97.5566 20.5156C97.5566 19.9932 97.9863 19.7344 98.6699 19.6855C98.9189 19.6709 99.6758 19.6172 99.915 19.6025L99.9199 20.0859C99.9199 20.7158 99.4121 21.2822 98.5625 21.2871C97.9766 21.2822 97.5566 21.0234 97.5566 20.5156ZM104.197 22.1074C105.164 22.1025 105.545 21.5166 105.74 21.1699H105.818V22H106.834V14.9297H105.789V17.5566H105.74C105.55 17.2246 105.193 16.6289 104.207 16.6289C102.933 16.6289 101.98 17.6348 101.98 19.3633C101.98 21.0723 102.918 22.1025 104.197 22.1074ZM103.045 19.3438C103.04 18.2988 103.509 17.5127 104.432 17.5176C105.33 17.5127 105.818 18.2402 105.818 19.3438C105.818 20.457 105.32 21.2139 104.432 21.2188C103.519 21.2139 103.04 20.4082 103.045 19.3438ZM112.879 22.1074C114.373 22.1074 115.35 21.0137 115.35 19.373C115.35 17.7227 114.373 16.6289 112.879 16.6289C111.375 16.6289 110.394 17.7227 110.398 19.373C110.394 21.0137 111.375 22.1074 112.879 22.1074ZM111.443 19.373C111.443 18.3574 111.907 17.4932 112.879 17.4883C113.836 17.4932 114.295 18.3574 114.295 19.373C114.295 20.3838 113.836 21.2383 112.879 21.2383C111.907 21.2383 111.443 20.3838 111.443 19.373ZM117.42 18.8555C117.42 18.0107 117.933 17.5273 118.65 17.5273C119.354 17.5273 119.769 17.9863 119.773 18.7578V22H120.809V18.6309C120.813 17.3174 120.091 16.6289 119.002 16.6289C118.211 16.6289 117.688 16.9951 117.439 17.5664H117.381V16.6973H116.375V22H117.42V18.8555ZM127 16.6973H125.916V15.4277H124.881V16.6973H124.1V17.5273H124.881V20.6523C124.871 21.6191 125.608 22.0684 126.424 22.0684C126.712 22.0684 126.937 22.0488 127.078 22.0293V21.1211C126.932 21.1357 126.702 21.1504 126.551 21.1504C126.214 21.1455 125.921 21.0381 125.916 20.4375V17.5273H127V16.6973ZM129.178 18.8555C129.178 18.0107 129.71 17.5273 130.447 17.5273C131.15 17.5273 131.57 17.9766 131.57 18.7578V22H132.615V18.6309C132.615 17.3027 131.888 16.6289 130.799 16.6289C129.974 16.6289 129.476 16.9902 129.227 17.5664H129.158V14.9297H128.133V22H129.178V18.8555ZM136.16 22.1074C137.327 22.1074 138.143 21.5312 138.377 20.6719H137.322C137.146 20.9941 136.761 21.248 136.17 21.248C135.301 21.248 134.705 20.6768 134.676 19.666H138.445V19.2949C138.445 17.376 137.298 16.6289 136.092 16.6289C134.612 16.6289 133.636 17.752 133.641 19.3828C133.636 21.0283 134.598 22.1074 136.16 22.1074ZM134.681 18.8848C134.725 18.1377 135.267 17.4834 136.102 17.4883C136.897 17.4834 137.42 18.0791 137.42 18.8848H134.681Z" fill="white"/>
<defs>
<clipPath id="clip0_296_7153">
<rect width="24" height="24" fill="white" transform="translate(21 16)"/>
</clipPath>
</defs>
</svg>
