<svg width="176" height="58" viewBox="0 0 176 58" fill="none" xmlns="http://www.w3.org/2000/svg">
<rect x="1" y="1" width="174" height="56" rx="4" fill="white" fill-opacity="0.1" stroke="white" stroke-opacity="0.5"/>
<g clip-path="url(#clip0_296_7164)">
<path d="M43.084 29.0004C43.084 29.6879 42.699 30.2929 42.1398 30.6046L37.3732 33.2537L33.3398 29.0004L37.3732 24.7471L42.1398 27.3962C42.699 27.7079 43.084 28.3129 43.084 29.0004Z" fill="#FFC107"/>
<path d="M33.3405 29.0004L23.4405 39.4412C23.1105 39.1112 22.918 38.6621 22.918 38.1671V19.8337C22.918 19.3387 23.1105 18.8896 23.4405 18.5596L33.3405 29.0004Z" fill="#03A9F4"/>
<path d="M33.3375 29L37.3708 33.2533C25.2956 39.8763 24.7896 40.8681 23.4375 39.4408L33.3375 29Z" fill="#F44336"/>
<path d="M37.3708 24.7467L33.3375 29.0001L23.4375 18.5592C24.004 17.9606 24.9124 17.8295 25.6375 18.2292L37.3708 24.7467Z" fill="#4CAF50"/>
</g>
<path d="M65.8965 32.2988H67.8828C67.4521 29.8115 65.3252 28.0977 62.5742 28.0977C59.2871 28.0977 56.8789 30.5762 56.8789 34.6367C56.8789 38.6709 59.2168 41.1758 62.6621 41.1758C65.7559 41.1758 67.9707 39.1455 67.9707 35.9199V34.4785H62.9609V36.0781H66.0898C66.0547 38.1172 64.71 39.4092 62.6797 39.4004C60.4297 39.4092 58.8037 37.7129 58.7949 34.6367C58.8037 31.5518 60.4473 29.8643 62.5918 29.873C64.2705 29.8643 65.4219 30.7959 65.8965 32.2988ZM74.0879 41.1934C76.7773 41.1934 78.5352 39.2246 78.5352 36.2715C78.5352 33.3008 76.7773 31.332 74.0879 31.332C71.3809 31.332 69.6143 33.3008 69.623 36.2715C69.6143 39.2246 71.3809 41.1934 74.0879 41.1934ZM71.5039 36.2715C71.5039 34.4434 72.3389 32.8877 74.0879 32.8789C75.8105 32.8877 76.6367 34.4434 76.6367 36.2715C76.6367 38.0908 75.8105 39.6289 74.0879 39.6289C72.3389 39.6289 71.5039 38.0908 71.5039 36.2715ZM84.4238 41.1934C87.1133 41.1934 88.8711 39.2246 88.8711 36.2715C88.8711 33.3008 87.1133 31.332 84.4238 31.332C81.7168 31.332 79.9502 33.3008 79.959 36.2715C79.9502 39.2246 81.7168 41.1934 84.4238 41.1934ZM81.8398 36.2715C81.8398 34.4434 82.6748 32.8877 84.4238 32.8789C86.1465 32.8877 86.9727 34.4434 86.9727 36.2715C86.9727 38.0908 86.1465 39.6289 84.4238 39.6289C82.6748 39.6289 81.8398 38.0908 81.8398 36.2715ZM94.7246 44.7793C97.1855 44.7793 99.04 43.6631 99.0312 41.2109V31.4551H97.2031V33.002H97.0801C96.7285 32.4043 96.0781 31.332 94.3027 31.332C92.0088 31.332 90.2949 33.0811 90.2949 36.1309C90.2949 39.1807 92.0352 40.8594 94.2852 40.8594C96.043 40.8594 96.7285 39.875 97.0625 39.2598H97.1855V41.1406C97.1768 42.626 96.2363 43.2764 94.7422 43.2676C93.5029 43.2764 92.6592 42.8369 92.4746 41.9316H90.5586C90.7256 43.7158 92.3164 44.7793 94.7246 44.7793ZM92.2109 36.166C92.2021 34.3379 93.0459 32.9229 94.707 32.9316C96.3242 32.9229 97.2031 34.2324 97.2031 36.166C97.2031 38.1348 96.3066 39.3037 94.707 39.3125C93.0635 39.3037 92.2021 38.0381 92.2109 36.166ZM103.197 28.2734H101.316V41H103.197V28.2734ZM109.596 41.1934C111.696 41.1934 113.164 40.1562 113.586 38.6094H111.688C111.371 39.1895 110.677 39.6465 109.613 39.6465C108.049 39.6465 106.977 38.6182 106.924 36.7988H113.709V36.1309C113.709 32.6768 111.644 31.332 109.473 31.332C106.81 31.332 105.052 33.3535 105.061 36.2891C105.052 39.251 106.783 41.1934 109.596 41.1934ZM106.933 35.3926C107.012 34.0479 107.987 32.8701 109.49 32.8789C110.923 32.8701 111.863 33.9424 111.863 35.3926H106.933ZM120.125 41H122.059V36.5352H124.66C127.613 36.5352 129.072 34.751 129.072 32.4043C129.072 30.0488 127.622 28.2734 124.66 28.2734H120.125V41ZM122.059 34.8828V29.9258H124.467C126.339 29.9346 127.121 30.9629 127.121 32.4043C127.121 33.8369 126.339 34.8916 124.467 34.8828H122.059ZM132.834 28.2734H130.953V41H132.834V28.2734ZM134.68 38.3105C134.671 40.1738 136.086 41.2109 137.896 41.2109C139.479 41.2109 140.357 40.4111 140.727 39.6992H140.797V41H142.625V34.6543C142.616 31.8857 140.401 31.332 138.881 31.332C136.622 31.332 135.146 32.4746 134.979 34.0566H136.842C137.035 33.3535 137.703 32.8438 138.811 32.8438C140.085 32.8438 140.753 33.4678 140.744 34.5488L140.753 35.3135C140.313 35.3311 138.881 35.4102 138.248 35.4453C136.525 35.5684 134.671 36.1309 134.68 38.3105ZM136.508 38.3281C136.508 37.3877 137.281 36.9219 138.512 36.834C138.96 36.8076 140.322 36.7109 140.753 36.6846L140.762 37.5547C140.762 38.6885 139.848 39.708 138.318 39.7168C137.264 39.708 136.508 39.2422 136.508 38.3281ZM145.701 44.5859C147.274 44.5771 148.241 43.7773 148.795 42.2656L152.732 31.4551H150.711L148.303 38.8555H148.197L145.789 31.4551H143.785L147.283 41.123L147.055 41.7559C146.606 42.96 146.123 42.9951 145.543 43.0039C145.279 42.9951 144.91 42.9863 144.699 42.9688V44.5332C144.937 44.5684 145.314 44.5771 145.701 44.5859Z" fill="white"/>
<path d="M61.498 17.166H62.6016C62.3623 15.7842 61.1807 14.832 59.6523 14.832C57.8262 14.832 56.4883 16.209 56.4883 18.4648C56.4883 20.7061 57.7871 22.0977 59.7012 22.0977C61.4199 22.0977 62.6504 20.9697 62.6504 19.1777V18.377H59.8672V19.2656H61.6055C61.5859 20.3984 60.8389 21.1162 59.7109 21.1113C58.4609 21.1162 57.5576 20.1738 57.5527 18.4648C57.5576 16.751 58.4707 15.8135 59.6621 15.8184C60.5947 15.8135 61.2344 16.3311 61.498 17.166ZM63.8906 22H68.3633V21.0723H64.9648V18.9141H68.0898V17.9961H64.9648V15.8574H68.3242V14.9297H63.8906V22ZM69.291 15.8574H71.498V22H72.5723V15.8574H74.7695V14.9297H69.291V15.8574ZM79.3789 14.9297H78.3047V22H79.3789V14.9297ZM80.4629 15.8574H82.6699V22H83.7441V15.8574H85.9414V14.9297H80.4629V15.8574ZM95.6191 18.4648C95.6191 16.2041 94.2617 14.832 92.4355 14.832C90.5947 14.832 89.2422 16.2041 89.2422 18.4648C89.2422 20.7207 90.5947 22.0977 92.4355 22.0977C94.2617 22.0977 95.6191 20.7256 95.6191 18.4648ZM90.3066 18.4648C90.3115 16.7461 91.2148 15.8135 92.4355 15.8184C93.6465 15.8135 94.5498 16.7461 94.5547 18.4648C94.5498 20.1836 93.6465 21.1162 92.4355 21.1113C91.2148 21.1162 90.3115 20.1836 90.3066 18.4648ZM102.533 14.9297H101.479V20.1055H101.41L97.8262 14.9297H96.8301V22H97.9043V16.834H97.9629L101.547 22H102.533V14.9297Z" fill="white"/>
<defs>
<clipPath id="clip0_296_7164">
<rect width="22" height="22" fill="white" transform="translate(22 18)"/>
</clipPath>
</defs>
</svg>
