<svg width="146" height="38" viewBox="0 0 146 38" fill="none" xmlns="http://www.w3.org/2000/svg">
<mask id="mask0_443_8697" style="mask-type:alpha" maskUnits="userSpaceOnUse" x="0" y="0" width="146" height="38">
<rect width="146" height="38" fill="#C4C4C4"/>
</mask>
<g mask="url(#mask0_443_8697)">
<path d="M34.4789 16.7081V37.4083H3V16.3307L19.2573 0.626905L34.4789 16.7081Z" stroke="#103831"/>
<path d="M34.7229 37.8842C34.8511 37.8842 34.9552 37.7803 34.9554 37.6519V16.6111C34.9554 16.5515 34.9326 16.4944 34.8917 16.4513L19.4342 0.120903C19.3917 0.07566 19.3328 0.0496381 19.2708 0.0484183C19.2091 0.0476925 19.1494 0.0710421 19.1047 0.113604L2.59598 16.0602C2.55075 16.104 2.52497 16.1643 2.52497 16.2273V37.6514C2.52497 37.7798 2.62906 37.8842 2.75749 37.8842H34.7229ZM34.7229 37.9326H2.75749C2.60259 37.9326 2.47656 37.8064 2.47656 37.6514V16.2273C2.47656 16.1517 2.50782 16.0782 2.56232 16.0254L19.071 0.0787917C19.1246 0.0278903 19.1944 0 19.268 0L19.2713 1.9359e-05C19.3464 0.00149083 19.4184 0.0334615 19.4695 0.0877367L34.9269 16.418C34.9765 16.4703 35.0038 16.5389 35.0038 16.6111V37.6519C35.0035 37.8067 34.8775 37.9326 34.7229 37.9326Z" fill="#103831"/>
<path d="M6.60202 30.4072C6.19921 30.4072 5.89958 30.3117 5.71144 30.1234C5.53184 29.9436 5.50502 29.7295 5.50502 29.6178L5.50391 29.5261C5.5039 29.4424 5.55446 29.3965 5.64626 29.3965C5.73806 29.3965 5.78861 29.4424 5.78861 29.5258V29.5684C5.78861 29.743 5.85751 29.8876 5.98785 29.9868C6.12436 30.0907 6.32921 30.1456 6.58026 30.1456L6.59067 30.1456C7.0628 30.1456 7.3397 29.9806 7.37048 29.6811C7.39999 29.383 7.18053 29.2724 6.93898 29.1974L6.10212 28.9313C5.72314 28.8102 5.55705 28.6053 5.56354 28.2671C5.57066 27.8369 5.92418 27.5999 6.55897 27.5999C7.45083 27.5999 7.58399 28.0493 7.58399 28.3172V28.3599C7.58399 28.4379 7.53341 28.4826 7.44523 28.4826C7.32137 28.4826 7.30287 28.4057 7.30287 28.3599V28.3334C7.30287 28.0448 7.01615 27.8584 6.57242 27.8584C6.30129 27.8584 5.84585 27.9115 5.84197 28.2677C5.83899 28.514 5.99838 28.6179 6.23863 28.6981L7.12093 28.977C7.50059 29.0986 7.67475 29.329 7.65345 29.6814C7.63906 29.905 7.54786 30.0811 7.38238 30.205C7.20316 30.3392 6.94061 30.4072 6.60202 30.4072Z" fill="#103831"/>
<path d="M6.60278 30.3831C7.30183 30.3831 7.6036 30.091 7.63006 29.68C7.64912 29.3646 7.5146 29.1283 7.1144 29.0001L6.23173 28.7211C5.98556 28.6389 5.8154 28.5269 5.81854 28.2674C5.8219 27.9588 6.14004 27.8342 6.57319 27.8342C7.02921 27.8342 7.32784 28.0311 7.32784 28.3334V28.3599C7.32784 28.4189 7.36057 28.4584 7.44599 28.4584C7.5276 28.4584 7.56056 28.4189 7.56056 28.3599V28.3173C7.56056 27.9327 7.29152 27.6241 6.55974 27.6241C5.9461 27.6241 5.59546 27.8474 5.58851 28.2676C5.58201 28.6059 5.75912 28.796 6.11022 28.9083L6.94693 29.1743C7.22134 29.2596 7.42492 29.3846 7.39532 29.6836C7.36595 29.9694 7.11664 30.1698 6.59157 30.1698C6.05372 30.1729 5.76517 29.9361 5.76517 29.5685V29.5258C5.76517 29.4567 5.72572 29.4207 5.64702 29.4207C5.56833 29.4207 5.52887 29.4567 5.52887 29.5258L5.52999 29.6178C5.52999 29.9002 5.70397 30.3831 6.60278 30.3831ZM6.60278 30.4315C6.19331 30.4315 5.88792 30.3336 5.69509 30.1405C5.50932 29.9546 5.48159 29.7332 5.48159 29.6178L5.48047 29.5264C5.48047 29.4297 5.54273 29.3723 5.64702 29.3723C5.75131 29.3723 5.81358 29.4297 5.81358 29.5258V29.5685C5.81358 29.9199 6.0933 30.1214 6.58103 30.1214L6.59127 30.1214C7.04948 30.1214 7.31783 29.9642 7.34717 29.6787C7.36992 29.4488 7.25368 29.3203 6.93256 29.2205L6.09555 28.9544C5.70994 28.8311 5.53346 28.6126 5.54011 28.2667C5.54748 27.8211 5.90959 27.5757 6.55974 27.5757C7.47265 27.5757 7.60896 28.0403 7.60896 28.3173V28.3599C7.60896 28.4519 7.54804 28.5068 7.44599 28.5068C7.3417 28.5068 7.27943 28.4519 7.27943 28.3599V28.3334C7.27943 28.0596 7.00222 27.8826 6.57319 27.8826C6.31099 27.8826 5.87059 27.9327 5.86694 28.2679C5.86413 28.4997 6.01686 28.5983 6.24705 28.6752L7.12899 28.9539C7.52078 29.0794 7.70043 29.3179 7.67838 29.6829C7.66037 29.9626 7.49672 30.4315 6.60278 30.4315Z" fill="#103831"/>
<path d="M10.4871 30.4064C10.372 30.4064 10.3479 30.3344 10.3479 30.274V28.9106C10.3479 28.6795 10.3505 28.4189 10.3678 28.1898L9.47898 30.2241C9.45729 30.285 9.39948 30.3259 9.33481 30.3259C9.32936 30.3259 9.32384 30.3256 9.31839 30.325C9.31442 30.3253 9.31046 30.3255 9.30652 30.3255C9.24149 30.3255 9.18203 30.2847 9.15855 30.2239L8.26986 28.1901C8.28706 28.4147 8.2897 28.6675 8.2897 28.9106V30.2738C8.2897 30.3604 8.24172 30.4062 8.15093 30.4062C8.03587 30.4062 8.01172 30.3342 8.01172 30.2738V27.7642C8.01172 27.655 8.06569 27.5993 8.17214 27.5988C8.17828 27.5981 8.18449 27.5978 8.19064 27.5978C8.26705 27.5978 8.33269 27.6493 8.35107 27.7234L9.31878 29.9182L10.2874 27.7215C10.3271 27.6316 10.372 27.5993 10.4587 27.5988C10.466 27.5977 10.4733 27.5972 10.4807 27.5972C10.5199 27.5972 10.5568 27.6125 10.5845 27.6402C10.6174 27.6732 10.6328 27.7201 10.6259 27.7661V30.274C10.6259 30.3606 10.5779 30.4064 10.4871 30.4064Z" fill="#103831"/>
<path d="M10.4814 27.6214C10.4748 27.6214 10.4681 27.6219 10.4614 27.6231C10.3827 27.6231 10.3464 27.6495 10.3103 27.7312L9.31955 29.9782L8.32882 27.7312C8.31242 27.661 8.24586 27.6144 8.17434 27.6231C8.08153 27.6231 8.03669 27.6657 8.03669 27.7642V30.2738C8.03669 30.3463 8.07323 30.382 8.1517 30.382C8.23017 30.382 8.26627 30.3463 8.26627 30.2738V28.9106C8.26627 28.6439 8.26313 28.3357 8.23667 28.0828H8.25012L9.18189 30.2152C9.20357 30.2713 9.25974 30.3062 9.31955 30.3008C9.37983 30.3083 9.43718 30.2727 9.45721 30.2152L10.389 28.0828H10.4024C10.3762 28.3357 10.3728 28.6446 10.3728 28.9106V30.274C10.3728 30.3465 10.4094 30.3822 10.4878 30.3822C10.5663 30.3822 10.6024 30.3465 10.6024 30.274V27.7642C10.6089 27.7252 10.5961 27.6854 10.5681 27.6574C10.545 27.6342 10.5137 27.6214 10.4814 27.6214ZM10.4814 27.573C10.4814 27.573 10.4814 27.573 10.4814 27.573C10.5271 27.573 10.5701 27.5908 10.6024 27.6232C10.6403 27.6611 10.6582 27.7149 10.6508 27.7679V30.274C10.6508 30.3736 10.5914 30.4306 10.4878 30.4306C10.384 30.4306 10.3244 30.3736 10.3244 30.274V28.9106C10.3244 28.7241 10.3261 28.5183 10.3359 28.3251L9.50224 30.2331C9.47689 30.3032 9.41017 30.3502 9.33558 30.3502C9.32999 30.3502 9.32436 30.3499 9.31876 30.3494C9.23973 30.3543 9.1659 30.3067 9.13716 30.2338L8.3034 28.3256C8.31297 28.5139 8.31467 28.7154 8.31467 28.9106V30.2738C8.31467 30.3733 8.25527 30.4304 8.1517 30.4304C8.04784 30.4304 7.98828 30.3733 7.98828 30.2738V27.7642C7.98828 27.6412 8.05164 27.5757 8.17153 27.5747C8.17813 27.574 8.1848 27.5736 8.1914 27.5736C8.27829 27.5736 8.35302 27.6317 8.3748 27.7156L9.31955 29.8582L10.266 27.7117C10.3096 27.6131 10.3617 27.5756 10.4576 27.5747C10.4655 27.5736 10.4735 27.573 10.4814 27.573Z" fill="#103831"/>
<path d="M11.0606 30.408C11.0371 30.408 11.0103 30.4016 10.9808 30.3888C10.9463 30.3786 10.9185 30.3539 10.9043 30.3208C10.8901 30.2874 10.8914 30.25 10.9081 30.2179L11.9675 27.7047C11.9959 27.6296 12.0218 27.5979 12.1077 27.5979C12.194 27.5979 12.2199 27.6296 12.2485 27.7056L13.3015 30.2285C13.3195 30.268 13.322 30.3029 13.3087 30.3313C13.2941 30.3626 13.2618 30.3847 13.21 30.399C13.1905 30.4044 13.1732 30.407 13.1572 30.407C13.0856 30.407 13.0546 30.3542 13.0336 30.3026L12.7775 29.6937H11.4286L11.1588 30.3392C11.1407 30.3841 11.1067 30.408 11.0606 30.408Z" fill="#103831"/>
<path d="M11.0614 30.3838C11.0975 30.3838 11.1229 30.3655 11.1373 30.3299L11.4133 29.6695H12.7943L13.0569 30.2936C13.0862 30.3661 13.1223 30.3984 13.2044 30.3757C13.2864 30.353 13.3129 30.3104 13.2799 30.2379L12.2266 27.7142C12.2004 27.6446 12.1816 27.6221 12.1085 27.6221C12.0354 27.6221 12.0166 27.6455 11.9906 27.7142L10.9308 30.2282C10.9171 30.254 10.9159 30.2845 10.9273 30.3113C10.9388 30.338 10.9617 30.3582 10.9897 30.3661C11.017 30.378 11.0409 30.3838 11.0614 30.3838ZM11.0614 30.4322C11.0614 30.4322 11.0614 30.4322 11.0614 30.4322C11.0349 30.4322 11.0053 30.4253 10.9732 30.4117C10.9325 30.3991 10.8997 30.3697 10.8828 30.3303C10.8658 30.2906 10.8674 30.246 10.8869 30.2077L11.9456 27.6962C11.9765 27.615 12.0103 27.5737 12.1085 27.5737C12.207 27.5737 12.2409 27.615 12.2716 27.6963L13.3243 30.2186C13.3454 30.2653 13.3477 30.3066 13.3314 30.3416C13.3136 30.3796 13.2763 30.4061 13.2173 30.4224C13.1956 30.4283 13.1762 30.4313 13.158 30.4313C13.0604 30.4313 13.0252 30.3444 13.012 30.3117L12.7622 29.7179H11.4455L11.1819 30.3486C11.1603 30.4023 11.1174 30.4322 11.0614 30.4322H11.0614Z" fill="#103831"/>
<path d="M12.739 29.4737H12.7027H11.5052H11.4688L11.483 29.4401L11.8022 28.6845C11.8637 28.5428 11.9914 28.2485 12.0805 28.012L12.0864 27.9963H12.1032H12.1128H12.1294L12.1354 28.0117C12.2083 28.1984 12.2976 28.4125 12.3694 28.5845C12.3844 28.6204 12.3984 28.654 12.4112 28.6847L12.725 29.4402L12.739 29.4737Z" fill="white"/>
<path d="M12.704 29.4495L12.3902 28.694C12.3177 28.5198 12.2027 28.2473 12.1142 28.0206H12.1045C12.0191 28.2471 11.9014 28.5198 11.8259 28.694L11.5066 29.4495H12.704ZM12.7766 29.498H11.4336L11.7813 28.6751C11.8427 28.5334 11.9703 28.2394 12.0592 28.0035L12.0711 27.9722H12.1472L12.1593 28.003C12.2321 28.1893 12.3213 28.4033 12.3931 28.5752C12.4081 28.6111 12.4221 28.6448 12.4349 28.6754L12.7766 29.498Z" fill="#103831"/>
<path d="M15.5117 30.4091C15.498 30.4091 15.4844 30.4069 15.4714 30.4025C15.434 30.39 15.4043 30.3604 15.3915 30.323L14.8163 29.2141H13.871V30.2707C13.871 30.3625 13.8244 30.4071 13.7286 30.4071C13.6365 30.4071 13.5898 30.3658 13.5898 30.2844V27.804C13.5898 27.6883 13.646 27.6321 13.7616 27.6321H14.8409C15.0796 27.6321 15.2633 27.6904 15.387 27.8055C15.5002 27.9108 15.5601 28.0648 15.5601 28.2507V28.5819C15.5792 28.8678 15.389 29.1208 15.1131 29.1837L15.6448 30.2041C15.6661 30.2466 15.6712 30.2803 15.6612 30.3106C15.6511 30.3409 15.6263 30.3652 15.5832 30.387C15.5621 30.4014 15.5374 30.4091 15.5117 30.4091Z" fill="#103831"/>
<path d="M15.5124 30.3849C15.5334 30.3849 15.5541 30.3785 15.5716 30.3661C15.644 30.33 15.6602 30.2873 15.6241 30.2153L15.0775 29.1663C15.3575 29.1187 15.556 28.8664 15.5366 28.5827V28.2507C15.5366 27.9032 15.3272 27.6563 14.8416 27.6563H13.7623C13.6639 27.6563 13.6148 27.699 13.6148 27.804V30.2844C13.6148 30.3473 13.6442 30.383 13.7294 30.383C13.8146 30.383 13.8475 30.3464 13.8475 30.2707V29.1899H14.8318L15.4147 30.3136C15.4247 30.3447 15.4489 30.3692 15.4799 30.3796C15.4905 30.3832 15.5015 30.3849 15.5124 30.3849ZM15.5124 30.4333C15.4961 30.4333 15.48 30.4307 15.4645 30.4255C15.4205 30.4108 15.3855 30.3763 15.37 30.3326L14.8023 29.2383H13.8959V30.2707C13.8959 30.3758 13.8383 30.4314 13.7294 30.4314C13.5876 30.4314 13.5664 30.3393 13.5664 30.2844V27.804C13.5664 27.6757 13.6342 27.6079 13.7623 27.6079H14.8416C15.3141 27.6079 15.585 27.8422 15.585 28.2507V28.5811C15.6038 28.8681 15.4202 29.1232 15.1494 29.1997L15.667 30.1929C15.6912 30.2412 15.697 30.282 15.6849 30.3182C15.6691 30.3655 15.6276 30.392 15.5963 30.4079C15.5714 30.4245 15.5425 30.4333 15.5124 30.4333Z" fill="#103831"/>
<path d="M14.8352 28.9941H13.8445H13.8203V28.9699V27.8763V27.8521L13.8445 27.8521L14.8353 27.8532C15.1653 27.8532 15.3191 27.9997 15.3191 28.3142V28.521C15.3191 28.8393 15.1608 28.9941 14.8352 28.9941Z" fill="white"/>
<path d="M13.8453 27.8763V28.97H14.836C15.1315 28.97 15.2956 28.8422 15.2956 28.521V28.3143C15.2956 27.9922 15.1315 27.8775 14.836 27.8775L13.8453 27.8763ZM13.7969 27.8279L14.8361 27.8291C15.0033 27.8291 15.1252 27.865 15.2087 27.9388C15.2998 28.0193 15.344 28.1422 15.344 28.3143V28.521C15.344 28.851 15.1731 29.0184 14.836 29.0184H13.7969V27.8279Z" fill="#103831"/>
<path d="M16.8513 30.4074C16.7541 30.4074 16.7126 30.3666 16.7126 30.2709V27.8973H15.8541C15.7702 27.8973 15.7344 27.8576 15.7344 27.7645C15.7344 27.6717 15.7702 27.6321 15.8541 27.6321H17.8521C17.9346 27.6321 17.9714 27.6729 17.9714 27.7645C17.9714 27.8564 17.9346 27.8973 17.8521 27.8973H16.9905V30.2709C16.9905 30.3653 16.9476 30.4074 16.8513 30.4074Z" fill="#103831"/>
<path d="M15.8548 27.6563C15.7858 27.6563 15.7593 27.6824 15.7593 27.7645C15.7593 27.8467 15.7858 27.8732 15.8548 27.8732H16.7375V30.2709C16.7375 30.3475 16.7635 30.3832 16.8521 30.3832C16.9406 30.3832 16.9671 30.3466 16.9671 30.2709V27.8732H17.8529C17.9184 27.8732 17.948 27.8467 17.948 27.7645C17.948 27.6824 17.9184 27.6563 17.8529 27.6563H15.8548ZM15.8548 27.6079H17.8529C17.9494 27.6079 17.9964 27.6591 17.9964 27.7645C17.9964 27.8702 17.9494 27.9216 17.8529 27.9216H17.0155V30.2709C17.0155 30.379 16.962 30.4316 16.8521 30.4316C16.7424 30.4316 16.6891 30.379 16.6891 30.2709V27.9216H15.8548C15.7259 27.9216 15.7109 27.8319 15.7109 27.7645C15.7109 27.6973 15.7259 27.6079 15.8548 27.6079Z" fill="#103831"/>
<path d="M5.72159 34.3208C5.53219 34.3208 5.50391 34.2152 5.50391 34.1523V31.728C5.50391 31.5358 5.57883 31.4609 5.77114 31.4609H6.77802C7.38119 31.4609 7.5961 31.8366 7.5961 32.1882V32.4607C7.5961 32.8123 7.38119 33.1879 6.77802 33.1879H5.94286V34.1193C5.94286 34.2549 5.87049 34.3208 5.72159 34.3208Z" fill="#103831"/>
<path d="M5.7719 31.4852C5.60129 31.4852 5.52887 31.5408 5.52887 31.7281V34.1523C5.52887 34.2376 5.58425 34.2967 5.72235 34.2967C5.86046 34.2967 5.91943 34.2379 5.91943 34.1193V33.1638H6.77878C7.33008 33.1638 7.57267 32.8383 7.57267 32.4607V32.1882C7.57267 31.8102 7.33008 31.4852 6.77878 31.4852H5.7719ZM5.7719 31.4368H6.77878C7.3998 31.4368 7.62107 31.8249 7.62107 32.1882V32.4607C7.62107 32.824 7.3998 33.2122 6.77878 33.2122H5.96783V34.1193C5.96783 34.2223 5.92524 34.3451 5.72235 34.3451C5.50404 34.3451 5.48047 34.2103 5.48047 34.1523V31.7281C5.48047 31.5212 5.5649 31.4368 5.7719 31.4368Z" fill="#103831"/>
<path d="M6.77495 32.8165H5.91873H5.89453V32.7923V31.856V31.8318H5.91873H6.77495C6.93361 31.8318 7.19979 31.8909 7.19979 32.2865V32.3622C7.19979 32.7574 6.93361 32.8165 6.77495 32.8165Z" fill="white"/>
<path d="M6.77571 32.7923C6.97929 32.7923 7.17636 32.6971 7.17636 32.3622V32.2866C7.17636 31.9514 6.97929 31.856 6.77571 31.856H5.9195V32.7923H6.77571ZM6.77571 32.8407H5.87109V31.8076H6.77571C6.90385 31.8076 7.00769 31.8418 7.08435 31.9093C7.17752 31.9913 7.22476 32.1182 7.22476 32.2866V32.3622C7.22476 32.7785 6.94342 32.8407 6.77571 32.8407Z" fill="white"/>
<path d="M8.08625 34.2815H8.08621H8.08618C7.9421 34.2815 7.875 34.2132 7.875 34.0665V31.675C7.875 31.5286 7.9421 31.4604 8.08618 31.4604H9.64459C9.77092 31.4604 9.82977 31.5252 9.82977 31.6642C9.82977 31.8033 9.77092 31.868 9.64459 31.868H8.30992V32.6308H9.57172C9.69603 32.6308 9.75645 32.6975 9.75645 32.8346C9.75645 32.973 9.6943 33.0431 9.57172 33.0431H8.30992V33.8681H9.67575C9.80247 33.8681 9.86407 33.9348 9.86407 34.0719C9.86407 34.2082 9.80071 34.2772 9.67575 34.2772L8.08625 34.2815Z" fill="#103831"/>
<path d="M8.08695 34.2573L9.67652 34.2531C9.78817 34.2531 9.84063 34.1954 9.84063 34.0719C9.84063 33.9485 9.78862 33.8923 9.67652 33.8923H8.28649V33.0189H9.57249C9.68392 33.0189 9.73301 32.9586 9.73301 32.8346C9.73301 32.7107 9.68459 32.6551 9.57249 32.6551H8.28649V31.8438H9.64535C9.75723 31.8438 9.80633 31.7913 9.80633 31.6643C9.80633 31.5372 9.75745 31.4847 9.64535 31.4847H8.08695C7.95557 31.4847 7.89997 31.5437 7.89997 31.675V34.0665C7.89997 34.1979 7.95579 34.2573 8.08695 34.2573ZM8.08708 34.3057H8.08695C7.93076 34.3057 7.85156 34.2253 7.85156 34.0665V31.675C7.85156 31.5166 7.93076 31.4363 8.08695 31.4363H9.64535C9.78624 31.4363 9.85473 31.5109 9.85473 31.6643C9.85473 31.8177 9.78624 31.8922 9.64535 31.8922H8.33489V32.6067H9.57249C9.71112 32.6067 9.78142 32.6834 9.78142 32.8346C9.78142 33.027 9.6678 33.0673 9.57249 33.0673H8.33489V33.8439H9.67652C9.77347 33.8439 9.88903 33.8835 9.88903 34.0719C9.88903 34.2617 9.77347 34.3015 9.67652 34.3015L8.08708 34.3057Z" fill="#103831"/>
<path d="M11.1629 34.3226C11.0185 34.3226 10.9452 34.2549 10.9452 34.1215V31.8734H10.2047C10.0784 31.8734 10.0195 31.8073 10.0195 31.6653C10.0195 31.5236 10.0767 31.4604 10.2049 31.4604H12.1212C12.2455 31.4604 12.3059 31.5271 12.3059 31.6642C12.3059 31.8023 12.2437 31.8723 12.1212 31.8723H11.3806V34.1215C11.3806 34.2549 11.3074 34.3226 11.1629 34.3226Z" fill="#103831"/>
<path d="M10.2057 31.4847C10.0943 31.4847 10.0445 31.5341 10.0445 31.6654C10.0445 31.7967 10.0934 31.8492 10.2055 31.8492H10.9702V34.1215C10.9702 34.2394 11.0292 34.2984 11.1637 34.2984C11.2982 34.2984 11.3572 34.2396 11.3572 34.1215V31.8481H12.1219C12.23 31.8481 12.2824 31.7913 12.2824 31.6643C12.2824 31.5372 12.23 31.4847 12.1219 31.4847H10.2057ZM10.2057 31.4363H12.1219C12.2606 31.4363 12.3309 31.513 12.3309 31.6643C12.3309 31.8562 12.2172 31.8965 12.1219 31.8965H11.4056V34.1215C11.4056 34.2243 11.3636 34.3468 11.1637 34.3468C10.9638 34.3468 10.9218 34.2243 10.9218 34.1215V31.8976H10.2055C10.0646 31.8976 9.99609 31.8217 9.99609 31.6654C9.99609 31.5112 10.0647 31.4363 10.2057 31.4363Z" fill="#103831"/>
<path d="M14.9186 34.2959H13.4685C13.3242 34.2959 13.2541 34.2257 13.2541 34.0813L13.2539 31.6454C13.2539 31.5098 13.3261 31.4438 13.4747 31.4438C13.6235 31.4438 13.6929 31.5079 13.6929 31.6454V33.8883H14.9186C15.0466 33.8883 15.1037 33.9512 15.1037 34.0921C15.1037 34.233 15.0466 34.2959 14.9186 34.2959Z" fill="#103831"/>
<path d="M13.4755 31.4681C13.3378 31.4681 13.2789 31.5242 13.2789 31.6454L13.2791 34.0814C13.2791 34.2127 13.3381 34.2717 13.4692 34.2717H14.9193C15.0312 34.2717 15.0803 34.2226 15.0803 34.0921C15.0803 33.9617 15.0314 33.9126 14.9193 33.9126H13.6694V31.6454C13.6694 31.5242 13.6132 31.4681 13.4755 31.4681ZM13.4755 31.4197C13.6363 31.4197 13.7178 31.4956 13.7178 31.6454V33.8642H14.9193C15.0602 33.8642 15.1287 33.9387 15.1287 34.0921C15.1287 34.2456 15.0602 34.3201 14.9193 34.3201H13.4692C13.3109 34.3201 13.2307 34.2398 13.2307 34.0814L13.2305 31.6454C13.2305 31.4956 13.3129 31.4197 13.4755 31.4197Z" fill="#103831"/>
<path d="M15.5697 34.3403C15.4229 34.3403 15.3516 34.2744 15.3516 34.1388V31.6454C15.3516 31.5079 15.4209 31.4438 15.5697 31.4438C15.7182 31.4438 15.7874 31.5079 15.7874 31.6454V34.1388C15.7874 34.2744 15.7162 34.3403 15.5697 34.3403Z" fill="#103831"/>
<path d="M15.5705 34.3162C15.7083 34.3162 15.7639 34.2573 15.7639 34.1388V31.6454C15.7639 31.5242 15.7083 31.4681 15.5705 31.4681C15.4326 31.4681 15.3765 31.5242 15.3765 31.6454V34.1388C15.3765 34.2571 15.4326 34.3162 15.5705 34.3162ZM15.5705 34.3646C15.4097 34.3646 15.3281 34.2886 15.3281 34.1388V31.6454C15.3281 31.4956 15.4097 31.4197 15.5705 31.4197C15.731 31.4197 15.8123 31.4956 15.8123 31.6454V34.1388C15.8123 34.2886 15.731 34.3646 15.5705 34.3646Z" fill="#103831"/>
<path d="M16.4167 34.3355C16.2683 34.3355 16.1992 34.272 16.1992 34.1358V31.6906C16.1992 31.5463 16.2684 31.4761 16.4109 31.4761H17.9755C18.1019 31.4761 18.1607 31.5408 18.1607 31.6799C18.1607 31.8189 18.1019 31.8836 17.9755 31.8836H16.6375V32.6301H17.9031C18.0274 32.6301 18.0878 32.6967 18.0878 32.8339C18.0878 32.972 18.0274 33.0392 17.9031 33.0392H16.6375V34.1317C16.6375 34.2689 16.5653 34.3355 16.4167 34.3355Z" fill="#103831"/>
<path d="M16.4174 34.3114C16.5551 34.3114 16.6141 34.2534 16.6141 34.1318V33.015H17.9039C18.0153 33.015 18.0644 32.9573 18.0644 32.8339C18.0644 32.7104 18.016 32.6543 17.9039 32.6543H16.6141V31.8595H17.9763C18.0882 31.8595 18.1373 31.8069 18.1373 31.6799C18.1373 31.5528 18.0884 31.5003 17.9763 31.5003H16.4116C16.2836 31.5003 16.2242 31.5593 16.2242 31.6907V34.1358C16.2242 34.2575 16.2798 34.3114 16.4174 34.3114ZM16.4174 34.3598C16.2548 34.3598 16.1758 34.2865 16.1758 34.1358V31.6907C16.1758 31.5322 16.2551 31.4519 16.4116 31.4519H17.9763C18.1172 31.4519 18.1857 31.5265 18.1857 31.6799C18.1857 31.8333 18.1172 31.9079 17.9763 31.9079H16.6625V32.6059H17.9039C18.0425 32.6059 18.1128 32.6826 18.1128 32.8339C18.1128 33.0236 17.9992 33.0634 17.9039 33.0634H16.6625V34.1318C16.6625 34.2831 16.58 34.3598 16.4174 34.3598Z" fill="#103831"/>
<path d="M18.6331 34.298H18.6331H18.6331C18.489 34.298 18.4219 34.2299 18.4219 34.0835V31.6906C18.4219 31.5442 18.489 31.4761 18.6331 31.4761H20.1917C20.3177 31.4761 20.3764 31.5408 20.3764 31.6799C20.3764 31.8189 20.3177 31.8836 20.1917 31.8836H18.8575V32.6469H20.1195C20.2441 32.6469 20.3047 32.7136 20.3047 32.8507C20.3047 32.9887 20.2424 33.0587 20.1195 33.0587H18.8577V33.8887H20.2235C20.3502 33.8887 20.4118 33.9553 20.4118 34.0925C20.4118 34.2296 20.3502 34.2962 20.2235 34.2962L18.6331 34.298Z" fill="#103831"/>
<path d="M18.6338 34.2739L20.2243 34.2721C20.3359 34.2721 20.3884 34.2164 20.3884 34.0925C20.3884 33.9686 20.3364 33.9129 20.2243 33.9129H18.8343V33.0346H20.1203C20.2317 33.0346 20.2812 32.9746 20.2812 32.8507C20.2812 32.7268 20.2324 32.6711 20.1203 32.6711H18.834V31.8595H20.1925C20.3039 31.8595 20.353 31.8069 20.353 31.6799C20.353 31.5528 20.3046 31.5003 20.1925 31.5003H18.6338C18.5024 31.5003 18.4468 31.5593 18.4468 31.6907V34.0835C18.4468 34.2148 18.5027 34.2739 18.6338 34.2739ZM18.6339 34.3223H18.6338C18.4776 34.3223 18.3984 34.2419 18.3984 34.0835V31.6907C18.3984 31.5322 18.4776 31.4519 18.6338 31.4519H20.1925C20.333 31.4519 20.4014 31.5265 20.4014 31.6799C20.4014 31.8333 20.333 31.9079 20.1925 31.9079H18.8824V32.6227H20.1203C20.2592 32.6227 20.3296 32.6994 20.3296 32.8507C20.3296 33.0427 20.2158 33.083 20.1203 33.083H18.8827V33.8645H20.2243C20.3212 33.8645 20.4368 33.9041 20.4368 34.0925C20.4368 34.2809 20.3212 34.3205 20.2243 34.3205L18.6339 34.3223Z" fill="#103831"/>
<mask id="mask1_443_8697" style="mask-type:alpha" maskUnits="userSpaceOnUse" x="45" y="26" width="100" height="12">
<rect x="45" y="26" width="100" height="11.6667" fill="#C4C4C4"/>
</mask>
<g mask="url(#mask1_443_8697)">
<path d="M49.6504 36.4667C48.2813 36.4667 47.2628 36.1421 46.6234 35.502C46.0129 34.8909 45.9218 34.163 45.9218 33.7835L45.918 33.4716C45.918 33.1873 46.0898 33.0313 46.4018 33.0313C46.7138 33.0313 46.8857 33.1873 46.8857 33.4706V33.6156C46.8857 34.2089 47.1198 34.7006 47.5629 35.0377C48.0269 35.3908 48.7231 35.5774 49.5764 35.5774L49.6118 35.5773C51.2166 35.5773 52.1577 35.0166 52.2624 33.9986C52.3626 32.9854 51.6167 32.6096 50.7957 32.3544L47.9513 31.4501C46.6631 31.0383 46.0986 30.3421 46.1207 29.1927C46.1449 27.7301 47.3464 26.9246 49.5041 26.9246C52.5354 26.9246 52.9881 28.4522 52.9881 29.3628V29.5078C52.9881 29.7729 52.8161 29.925 52.5164 29.925C52.0954 29.925 52.0325 29.6636 52.0325 29.5078V29.4178C52.0325 28.437 51.058 27.8032 49.5498 27.8032C48.6282 27.8032 47.0802 27.984 47.067 29.1944C47.0569 30.0318 47.5987 30.3849 48.4153 30.6574L51.4141 31.6053C52.7046 32.0186 53.2965 32.8018 53.2242 33.9998C53.1753 34.7596 52.8653 35.3582 52.3028 35.7793C51.6937 36.2354 50.8012 36.4667 49.6504 36.4667Z" fill="#103831"/>
<path d="M49.6506 36.3846C52.0267 36.3846 53.0524 35.392 53.1423 33.995C53.207 32.9231 52.7498 32.1197 51.3896 31.684L48.3894 30.7356C47.5527 30.4564 46.9743 30.0757 46.985 29.1937C46.9964 28.1446 48.0778 27.7212 49.55 27.7212C51.1 27.7212 52.115 28.3903 52.115 29.418V29.508C52.115 29.7087 52.2263 29.843 52.5166 29.843C52.794 29.843 52.906 29.7087 52.906 29.508V29.3631C52.906 28.0561 51.9916 27.0071 49.5043 27.0071C47.4186 27.0071 46.2268 27.7662 46.2031 29.1945C46.1811 30.3442 46.7831 30.9905 47.9764 31.372L50.8203 32.2761C51.7531 32.566 52.445 32.991 52.3444 34.0072C52.2446 34.9785 51.3972 35.6598 49.6125 35.6598C47.7844 35.6704 46.8036 34.8656 46.8036 33.6158V33.4709C46.8036 33.2359 46.6695 33.1138 46.402 33.1138C46.1346 33.1138 46.0005 33.2359 46.0005 33.4709L46.0043 33.7837C46.0043 34.7435 46.5956 36.3846 49.6506 36.3846ZM49.6506 36.5491C48.2589 36.5491 47.2208 36.2165 46.5654 35.5604C45.934 34.9283 45.8397 34.1759 45.8397 33.7837L45.8359 33.4729C45.8359 33.1443 46.0476 32.9493 46.402 32.9493C46.7565 32.9493 46.9682 33.1443 46.9682 33.4709V33.6158C46.9682 34.8103 47.9189 35.4954 49.5767 35.4954L49.6115 35.4953C51.1689 35.4953 52.081 34.9608 52.1808 33.9904C52.2581 33.2092 51.863 32.7724 50.7715 32.4332L47.9266 31.5287C46.6159 31.1098 46.0161 30.367 46.0387 29.1913C46.0637 27.6768 47.2945 26.8425 49.5043 26.8425C52.6072 26.8425 53.0706 28.4217 53.0706 29.3631V29.508C53.0706 29.8208 52.8635 30.0075 52.5166 30.0075C52.1621 30.0075 51.9505 29.8208 51.9505 29.508V29.418C51.9505 28.4872 51.0083 27.8857 49.55 27.8857C48.6588 27.8857 47.1619 28.0559 47.1495 29.1955C47.14 29.9832 47.6591 30.3185 48.4415 30.5796L51.4392 31.5271C52.7709 31.9536 53.3815 32.7641 53.3065 34.0049C53.2453 34.9555 52.6891 36.5491 49.6506 36.5491Z" fill="#103831"/>
<path d="M62.8511 36.4642C62.46 36.4642 62.3779 36.2195 62.3779 36.0142V31.38C62.3779 30.5946 62.3868 29.7086 62.4458 28.9301L59.4246 35.8445C59.3509 36.0517 59.1544 36.1907 58.9346 36.1907C58.9161 36.1907 58.8973 36.1897 58.8788 36.1877C58.8653 36.1887 58.8518 36.1892 58.8385 36.1892C58.6174 36.1892 58.4153 36.0505 58.3355 35.844L55.3149 28.9311C55.3734 29.6944 55.3823 30.5538 55.3823 31.38V36.0135C55.3823 36.3079 55.2193 36.4635 54.9107 36.4635C54.5196 36.4635 54.4375 36.2188 54.4375 36.0135V27.4835C54.4375 27.1122 54.621 26.9231 54.9828 26.9214C55.0036 26.9191 55.0248 26.9179 55.0456 26.9179C55.3054 26.9179 55.5285 27.0931 55.5909 27.345L58.8801 34.8047L62.1723 27.3382C62.3073 27.0327 62.4601 26.923 62.7546 26.9214C62.7793 26.9177 62.8044 26.9158 62.8293 26.9158C62.9626 26.9158 63.088 26.9678 63.1822 27.0621C63.2941 27.1742 63.3464 27.3336 63.3228 27.49V36.0142C63.3228 36.3086 63.1597 36.4642 62.8511 36.4642Z" fill="#103831"/>
<path d="M62.8295 26.998C62.8069 26.998 62.7841 26.9999 62.7614 27.0036C62.494 27.0036 62.3705 27.0937 62.2478 27.3714L58.8804 35.0086L55.5129 27.3714C55.4572 27.1327 55.231 26.9742 54.9879 27.0036C54.6724 27.0036 54.52 27.1486 54.52 27.4835V36.0134C54.52 36.2599 54.6442 36.3812 54.9109 36.3812C55.1776 36.3812 55.3003 36.2599 55.3003 36.0134V31.38C55.3003 30.4736 55.2897 29.426 55.1997 28.5662H55.2455L58.4125 35.8143C58.4862 36.0049 58.6771 36.1235 58.8804 36.105C59.0853 36.1306 59.2802 36.0095 59.3483 35.8143L62.5153 28.5662H62.561C62.4719 29.426 62.4604 30.4759 62.4604 31.38V36.0142C62.4604 36.2606 62.5846 36.3819 62.8514 36.3819C63.1181 36.3819 63.2408 36.2606 63.2408 36.0142V27.4835C63.2627 27.3507 63.2194 27.2154 63.1243 27.1203C63.0455 27.0414 62.9392 26.998 62.8295 26.998ZM62.8295 26.8335C62.8295 26.8335 62.8295 26.8335 62.8295 26.8335C62.9848 26.8335 63.1309 26.894 63.2407 27.004C63.3694 27.1329 63.4304 27.3158 63.4053 27.4959V36.0142C63.4053 36.3525 63.2034 36.5465 62.8514 36.5465C62.4984 36.5465 62.2959 36.3525 62.2959 36.0142V31.38C62.2959 30.746 62.3017 30.0465 62.3349 29.3899L59.5013 35.8749C59.4152 36.1133 59.1884 36.2729 58.9349 36.2729C58.9159 36.2729 58.8967 36.272 58.8777 36.2702C58.6091 36.2871 58.3581 36.1252 58.2605 35.8773L55.4266 29.3915C55.4591 30.0317 55.4648 30.7165 55.4648 31.38V36.0134C55.4648 36.3517 55.2629 36.5457 54.9109 36.5457C54.5579 36.5457 54.3555 36.3517 54.3555 36.0134V27.4835C54.3555 27.0652 54.5708 26.8426 54.9783 26.8391C55.0008 26.8368 55.0234 26.8356 55.0459 26.8356C55.3412 26.8356 55.5952 27.0331 55.6692 27.318L58.8804 34.6008L62.0973 27.305C62.2454 26.9697 62.4227 26.8424 62.7486 26.8392C62.7754 26.8354 62.8026 26.8335 62.8295 26.8335Z" fill="#103831"/>
<path d="M64.8027 36.4696C64.7229 36.4696 64.6316 36.4477 64.5314 36.4045C64.4142 36.3698 64.3197 36.2857 64.2715 36.173C64.2231 36.0598 64.2278 35.9326 64.2843 35.8234L67.8852 27.2813C67.9818 27.0261 68.0698 26.9182 68.3618 26.9182C68.6551 26.9182 68.7431 27.0261 68.8404 27.2843L72.4194 35.8596C72.4805 35.9939 72.4891 36.1122 72.4439 36.2089C72.3942 36.3151 72.2845 36.3904 72.1086 36.439C72.0422 36.4573 71.9834 36.4663 71.9289 36.4663C71.6856 36.4663 71.5801 36.2868 71.509 36.1113L70.6383 34.0417H66.0535L65.1366 36.2358C65.0751 36.3884 64.9595 36.4696 64.8027 36.4696Z" fill="#103831"/>
<path d="M64.8029 36.3873C64.9259 36.3873 65.0123 36.325 65.0609 36.2041L65.999 33.9594H70.6932L71.5855 36.0805C71.6854 36.3269 71.808 36.4368 72.0869 36.3597C72.3659 36.2827 72.4558 36.1377 72.3438 35.8913L68.7637 27.3133C68.6745 27.0768 68.6105 27.0005 68.3621 27.0005C68.1137 27.0005 68.0497 27.0798 67.9613 27.3133L64.3591 35.8584C64.3128 35.9459 64.3085 36.0497 64.3474 36.1407C64.3863 36.2317 64.4643 36.3001 64.5595 36.3269C64.6523 36.3674 64.7334 36.3873 64.8029 36.3873ZM64.8029 36.5518C64.8029 36.5518 64.8029 36.5518 64.8029 36.5518C64.7131 36.5518 64.6124 36.5283 64.5034 36.4819C64.3649 36.4393 64.2534 36.3391 64.1962 36.2054C64.1384 36.0704 64.1436 35.919 64.21 35.7885L67.8085 27.2522C67.9134 26.9761 68.0285 26.8359 68.3621 26.8359C68.697 26.8359 68.812 26.9762 68.9166 27.2524L72.4947 35.8257C72.5662 35.9843 72.5742 36.1249 72.5187 36.2438C72.4582 36.3731 72.3313 36.4629 72.1308 36.5183C72.0571 36.5386 71.9912 36.5485 71.9292 36.5485C71.5976 36.5485 71.478 36.2533 71.433 36.1422L70.5839 34.124H66.1086L65.2127 36.2675C65.1392 36.4501 64.9934 36.5518 64.8029 36.5518H64.8029Z" fill="#103831"/>
<path d="M70.5087 33.294H70.3855H66.3155H66.1914L66.2397 33.1797L67.3248 30.6116C67.5337 30.13 67.9677 29.1295 68.2708 28.3257L68.2909 28.2725H68.3478H68.3806H68.4368L68.4572 28.3248C68.705 28.9591 69.0087 29.6869 69.2527 30.2716C69.3036 30.3936 69.3514 30.508 69.3946 30.612L70.4615 33.1802L70.5087 33.294Z" fill="white"/>
<path d="M70.3885 33.2117L69.3216 30.6436C69.0755 30.0515 68.6846 29.1253 68.3835 28.3547H68.3508C68.0604 29.1245 67.6604 30.0515 67.4036 30.6436L66.3184 33.2117H70.3885ZM70.635 33.3762H66.0703L67.252 30.5796C67.4609 30.0979 67.8944 29.0985 68.1969 28.2966L68.237 28.1902H68.4959L68.5368 28.2948C68.7842 28.9283 69.0877 29.6556 69.3316 30.2399C69.3825 30.362 69.4303 30.4764 69.4735 30.5804L70.635 33.3762Z" fill="#103831"/>
<path d="M79.9345 36.4736C79.8879 36.4736 79.8419 36.4661 79.7977 36.4513C79.6704 36.4087 79.5694 36.308 79.5262 36.181L77.5709 32.4118H74.3579V36.0032C74.3579 36.3152 74.1996 36.4669 73.874 36.4669C73.561 36.4669 73.4023 36.3265 73.4023 36.0497V27.619C73.4023 27.2258 73.5933 27.0347 73.986 27.0347H77.6545C78.4658 27.0347 79.0903 27.2329 79.5106 27.624C79.8956 27.9821 80.0991 28.5053 80.0991 29.1373V30.2629C80.1639 31.2349 79.5175 32.0947 78.5798 32.3086L80.3869 35.7767C80.4594 35.9213 80.4769 36.0359 80.4426 36.1386C80.4083 36.2418 80.324 36.3244 80.1778 36.3983C80.1058 36.4476 80.0218 36.4736 79.9345 36.4736Z" fill="#103831"/>
<path d="M79.9347 36.3913C80.0059 36.3913 80.0763 36.3695 80.1359 36.3274C80.3821 36.2046 80.4369 36.0596 80.3142 35.8147L78.4564 32.2494C79.4082 32.0874 80.0827 31.23 80.017 30.2657V29.1372C80.017 27.9562 79.3053 27.1169 77.6547 27.1169H73.9863C73.6517 27.1169 73.4848 27.2619 73.4848 27.6189V36.0497C73.4848 36.2633 73.5847 36.3846 73.8742 36.3846C74.1638 36.3846 74.2758 36.2603 74.2758 36.0031V32.3295H77.6212L79.6025 36.1489C79.6365 36.2547 79.7188 36.338 79.8241 36.3733C79.8602 36.3854 79.8975 36.3913 79.9347 36.3913ZM79.9347 36.5558C79.8793 36.5558 79.8245 36.5469 79.7719 36.5293C79.6223 36.4792 79.5033 36.3618 79.4507 36.2136L77.5212 32.494H74.4404V36.0031C74.4404 36.3603 74.2446 36.5491 73.8742 36.5491C73.3923 36.5491 73.3203 36.2362 73.3203 36.0497V27.6189C73.3203 27.1829 73.5506 26.9524 73.9863 26.9524H77.6547C79.2606 26.9524 80.1816 27.7487 80.1816 29.1372V30.2602C80.2454 31.2359 79.6212 32.1026 78.7009 32.3626L80.4601 35.7387C80.5425 35.903 80.5619 36.0415 80.5209 36.1646C80.4673 36.3254 80.3261 36.4152 80.2198 36.4693C80.1352 36.526 80.0369 36.5558 79.9347 36.5558Z" fill="#103831"/>
<path d="M77.6333 31.6642H74.2659H74.1836V31.5819V27.8648V27.7825L74.2659 27.7826L77.6334 27.7864C78.7552 27.7864 79.2777 28.2843 79.2777 29.3534V30.056C79.2777 31.1382 78.7398 31.6642 77.6333 31.6642Z" fill="white"/>
<path d="M74.2661 27.8649V31.5821H77.6335C78.6379 31.5821 79.1957 31.1479 79.1957 30.0561V29.3534C79.1957 28.2586 78.6379 27.8687 77.6335 27.8687L74.2661 27.8649ZM74.1016 27.7002L77.6337 27.7042C78.202 27.7042 78.6163 27.8262 78.9002 28.0773C79.2098 28.351 79.3602 28.7684 79.3602 29.3534V30.0561C79.3602 31.1778 78.7793 31.7466 77.6335 31.7466H74.1016V27.7002Z" fill="#103831"/>
<path d="M84.4839 36.4677C84.1533 36.4677 84.0123 36.329 84.0123 36.0039V27.9362H81.0944C80.8092 27.9362 80.6875 27.8012 80.6875 27.4847C80.6875 27.1692 80.8092 27.0347 81.0944 27.0347H87.8857C88.166 27.0347 88.291 27.1735 88.291 27.4847C88.291 27.797 88.166 27.9362 87.8857 27.9362H84.9571V36.0039C84.9571 36.3247 84.8112 36.4677 84.4839 36.4677Z" fill="#103831"/>
<path d="M81.0946 27.1169C80.8599 27.1169 80.77 27.2054 80.77 27.4847C80.77 27.7639 80.8599 27.8539 81.0946 27.8539H84.0948V36.0039C84.0948 36.2641 84.1832 36.3854 84.4842 36.3854C84.7852 36.3854 84.8751 36.261 84.8751 36.0039V27.8539H87.8859C88.1084 27.8539 88.209 27.7639 88.209 27.4847C88.209 27.2054 88.1084 27.1169 87.8859 27.1169H81.0946ZM81.0946 26.9524H87.8859C88.214 26.9524 88.3735 27.1265 88.3735 27.4847C88.3735 27.8439 88.214 28.0185 87.8859 28.0185H85.0396V36.0039C85.0396 36.3713 84.8579 36.5499 84.4842 36.5499C84.1114 36.5499 83.9302 36.3713 83.9302 36.0039V28.0185H81.0946C80.6562 28.0185 80.6055 27.7138 80.6055 27.4847C80.6055 27.2562 80.6562 26.9524 81.0946 26.9524Z" fill="#103831"/>
<path d="M94.1579 36.6945C93.5141 36.6945 93.418 36.3356 93.418 36.1216V27.8817C93.418 27.2284 93.6726 26.9739 94.3263 26.9739H97.7486C99.7987 26.9739 100.529 28.2508 100.529 29.4457V30.372C100.529 31.5669 99.7987 32.8438 97.7486 32.8438H94.91V36.0095C94.91 36.4704 94.6639 36.6945 94.1579 36.6945Z" fill="#103831"/>
<path d="M94.3265 27.0561C93.7466 27.0561 93.5005 27.2453 93.5005 27.8817V36.1217C93.5005 36.4116 93.6887 36.6122 94.1581 36.6122C94.6275 36.6122 94.8279 36.4123 94.8279 36.0095V32.7616H97.7488C99.6227 32.7616 100.447 31.6553 100.447 30.372V29.4457C100.447 28.1609 99.6227 27.0561 97.7488 27.0561H94.3265ZM94.3265 26.8916H97.7488C99.8596 26.8916 100.612 28.211 100.612 29.4457V30.372C100.612 31.6067 99.8596 32.9261 97.7488 32.9261H94.9925V36.0095C94.9925 36.3595 94.8477 36.7768 94.1581 36.7768C93.4161 36.7768 93.3359 36.3186 93.3359 36.1217V27.8817C93.3359 27.1784 93.6229 26.8916 94.3265 26.8916Z" fill="#103831"/>
<path d="M97.7386 31.5812H94.8284H94.7461V31.4989V28.3166V28.2344H94.8284H97.7386C98.2779 28.2344 99.1826 28.4352 99.1826 29.78V30.0371C99.1826 31.3806 98.2779 31.5812 97.7386 31.5812Z" fill="white"/>
<path d="M97.7388 31.4989C98.4307 31.4989 99.1006 31.1754 99.1006 30.0371V29.78C99.1006 28.6409 98.4307 28.3166 97.7388 28.3166H94.8286V31.4989H97.7388ZM97.7388 31.6634H94.6641V28.1521H97.7388C98.1743 28.1521 98.5273 28.2684 98.7879 28.4976C99.1045 28.7763 99.2651 29.2077 99.2651 29.78V30.0371C99.2651 31.4522 98.3088 31.6634 97.7388 31.6634Z" fill="white"/>
<path d="M102.187 36.5606H102.187H102.187C101.697 36.5606 101.469 36.3283 101.469 35.8298V27.7012C101.469 27.2036 101.697 26.9719 102.187 26.9719H107.483C107.913 26.9719 108.113 27.192 108.113 27.6646C108.113 28.1371 107.913 28.3572 107.483 28.3572H102.947V30.95H107.236C107.658 30.95 107.864 31.1766 107.864 31.6426C107.864 32.1129 107.652 32.3513 107.236 32.3513H102.947V35.1555H107.589C108.02 35.1555 108.229 35.382 108.229 35.8481C108.229 36.3112 108.014 36.5461 107.589 36.5461L102.187 36.5606Z" fill="#103831"/>
<path d="M102.187 36.4783L107.59 36.4638C107.969 36.4638 108.147 36.2677 108.147 35.8481C108.147 35.4284 107.971 35.2377 107.59 35.2377H102.865V32.269H107.236C107.615 32.269 107.782 32.0638 107.782 31.6426C107.782 31.2215 107.617 31.0322 107.236 31.0322H102.865V28.2749H107.484C107.864 28.2749 108.031 28.0964 108.031 27.6645C108.031 27.2327 107.865 27.0542 107.484 27.0542H102.187C101.74 27.0542 101.551 27.2548 101.551 27.7012V35.8297C101.551 36.2761 101.741 36.4783 102.187 36.4783ZM102.187 36.6428H102.187C101.656 36.6428 101.387 36.3692 101.387 35.8297V27.7012C101.387 27.1627 101.656 26.8896 102.187 26.8896H107.484C107.963 26.8896 108.195 27.1431 108.195 27.6645C108.195 28.186 107.963 28.4394 107.484 28.4394H103.03V30.8677H107.236C107.707 30.8677 107.946 31.1284 107.946 31.6426C107.946 32.2963 107.56 32.4335 107.236 32.4335H103.03V35.0732H107.59C107.919 35.0732 108.312 35.2076 108.312 35.8481C108.312 36.4929 107.919 36.6283 107.59 36.6283L102.187 36.6428Z" fill="#103831"/>
<path d="M112.648 36.7004C112.157 36.7004 111.908 36.4704 111.908 36.0169V28.3757H109.391C108.962 28.3757 108.762 28.151 108.762 27.6686C108.762 27.187 108.956 26.9722 109.392 26.9722H115.905C116.328 26.9722 116.533 27.1987 116.533 27.6648C116.533 28.134 116.322 28.3719 115.905 28.3719H113.388V36.0169C113.388 36.4704 113.139 36.7004 112.648 36.7004Z" fill="#103831"/>
<path d="M109.392 27.0544C109.013 27.0544 108.844 27.2223 108.844 27.6686C108.844 28.1149 109.01 28.2935 109.391 28.2935H111.991V36.0169C111.991 36.4175 112.191 36.6181 112.648 36.6181C113.106 36.6181 113.306 36.4182 113.306 36.0169V28.2897H115.905C116.273 28.2897 116.451 28.0966 116.451 27.6648C116.451 27.233 116.273 27.0544 115.905 27.0544H109.392ZM109.392 26.8899H115.905C116.376 26.8899 116.615 27.1506 116.615 27.6648C116.615 28.3172 116.229 28.4542 115.905 28.4542H113.47V36.0169C113.47 36.3662 113.328 36.7827 112.648 36.7827C111.969 36.7827 111.826 36.3662 111.826 36.0169V28.458H109.391C108.912 28.458 108.68 28.1998 108.68 27.6686C108.68 27.1446 108.913 26.8899 109.392 26.8899Z" fill="#103831"/>
<path d="M125.424 36.6097H120.495C120.005 36.6097 119.766 36.3711 119.766 35.8804L119.766 27.6008C119.766 27.1398 120.011 26.9158 120.516 26.9158C121.022 26.9158 121.258 27.1334 121.258 27.6008V35.2244H125.424C125.859 35.2244 126.053 35.438 126.053 35.917C126.053 36.3961 125.859 36.6097 125.424 36.6097Z" fill="#103831"/>
<path d="M120.516 26.998C120.049 26.998 119.848 27.1888 119.848 27.6008L119.849 35.8804C119.849 36.3268 120.049 36.5274 120.495 36.5274H125.424C125.804 36.5274 125.971 36.3603 125.971 35.917C125.971 35.4738 125.805 35.3067 125.424 35.3067H121.176V27.6008C121.176 27.1888 120.984 26.998 120.516 26.998ZM120.516 26.8335C121.063 26.8335 121.34 27.0916 121.34 27.6008V35.1422H125.424C125.903 35.1422 126.136 35.3956 126.136 35.917C126.136 36.4385 125.903 36.6919 125.424 36.6919H120.495C119.957 36.6919 119.684 36.4189 119.684 35.8804L119.684 27.6008C119.684 27.0916 119.964 26.8335 120.516 26.8335Z" fill="#103831"/>
<path d="M127.628 36.7607C127.129 36.7607 126.887 36.5367 126.887 36.0757V27.6008C126.887 27.1334 127.122 26.9158 127.628 26.9158C128.133 26.9158 128.368 27.1334 128.368 27.6008V36.0757C128.368 36.5367 128.126 36.7607 127.628 36.7607Z" fill="#103831"/>
<path d="M127.628 36.6785C128.097 36.6785 128.286 36.4786 128.286 36.0757V27.6008C128.286 27.1888 128.097 26.998 127.628 26.998C127.16 26.998 126.969 27.1888 126.969 27.6008V36.0757C126.969 36.4778 127.16 36.6785 127.628 36.6785ZM127.628 36.843C127.082 36.843 126.805 36.5848 126.805 36.0757V27.6008C126.805 27.0916 127.082 26.8335 127.628 26.8335C128.174 26.8335 128.451 27.0916 128.451 27.6008V36.0757C128.451 36.5848 128.174 36.843 127.628 36.843Z" fill="#103831"/>
<path d="M130.509 36.7447C130.004 36.7447 129.77 36.529 129.77 36.0658V27.7549C129.77 27.2642 130.005 27.0256 130.489 27.0256H135.807C136.237 27.0256 136.437 27.2457 136.437 27.7183C136.437 28.1908 136.237 28.4109 135.807 28.4109H131.259V30.948H135.561C135.983 30.948 136.189 31.1746 136.189 31.6406C136.189 32.1103 135.983 32.3386 135.561 32.3386H131.259V36.0521C131.259 36.5182 131.014 36.7447 130.509 36.7447Z" fill="#103831"/>
<path d="M130.509 36.6625C130.977 36.6625 131.177 36.4656 131.177 36.0521V32.2564H135.561C135.94 32.2564 136.107 32.0603 136.107 31.6407C136.107 31.221 135.942 31.0303 135.561 31.0303H131.177V28.3286H135.807C136.188 28.3286 136.354 28.1501 136.354 27.7183C136.354 27.2864 136.188 27.1079 135.807 27.1079H130.489C130.054 27.1079 129.852 27.3085 129.852 27.7549V36.0658C129.852 36.4794 130.041 36.6625 130.509 36.6625ZM130.509 36.827C129.956 36.827 129.688 36.578 129.688 36.0658V27.7549C129.688 27.2164 129.957 26.9434 130.489 26.9434H135.807C136.286 26.9434 136.519 27.1968 136.519 27.7183C136.519 28.2397 136.286 28.4931 135.807 28.4931H131.342V30.8658H135.561C136.032 30.8658 136.271 31.1265 136.271 31.6407C136.271 32.2855 135.885 32.4209 135.561 32.4209H131.342V36.0521C131.342 36.5663 131.062 36.827 130.509 36.827Z" fill="#103831"/>
<path d="M138.038 36.6174H138.038H138.038C137.548 36.6174 137.32 36.3856 137.32 35.8881V27.7549C137.32 27.2574 137.548 27.0256 138.038 27.0256H143.336C143.764 27.0256 143.964 27.2457 143.964 27.7183C143.964 28.1908 143.764 28.4109 143.336 28.4109H138.801V31.0053H143.09C143.514 31.0053 143.72 31.2318 143.72 31.6979C143.72 32.1671 143.508 32.405 143.09 32.405H138.802V35.226H143.444C143.875 35.226 144.084 35.4525 144.084 35.9186C144.084 36.3847 143.875 36.6112 143.444 36.6112L138.038 36.6174Z" fill="#103831"/>
<path d="M138.038 36.5351L143.444 36.529C143.824 36.529 144.002 36.3397 144.002 35.9186C144.002 35.4974 143.825 35.3082 143.444 35.3082H138.72V32.3227H143.091C143.469 32.3227 143.638 32.119 143.638 31.6979C143.638 31.2767 143.472 31.0875 143.091 31.0875H138.719V28.3286H143.336C143.715 28.3286 143.882 28.1501 143.882 27.7183C143.882 27.2864 143.717 27.1079 143.336 27.1079H138.038C137.592 27.1079 137.403 27.3085 137.403 27.7549V35.8881C137.403 36.3344 137.593 36.5351 138.038 36.5351ZM138.039 36.6996H138.038C137.507 36.6996 137.238 36.4266 137.238 35.8881V27.7549C137.238 27.2164 137.507 26.9434 138.038 26.9434H143.336C143.814 26.9434 144.046 27.1968 144.046 27.7183C144.046 28.2397 143.814 28.4931 143.336 28.4931H138.883V30.923H143.091C143.563 30.923 143.802 31.1837 143.802 31.6979C143.802 32.3503 143.415 32.4873 143.091 32.4873H138.884V35.1437H143.444C143.774 35.1437 144.167 35.2781 144.167 35.9186C144.167 36.559 143.774 36.6935 143.444 36.6935L138.039 36.6996Z" fill="#103831"/>
</g>
</g>
</svg>
